G04 #@! TF.GenerationSoftware,KiCad,Pcbnew,(5.1.9)-1*
G04 #@! TF.CreationDate,2021-04-12T22:44:31+02:00*
G04 #@! TF.ProjectId,KicadJE_Face,4b696361-644a-4455-9f46-6163652e6b69,rev?*
G04 #@! TF.SameCoordinates,Original*
G04 #@! TF.FileFunction,Soldermask,Top*
G04 #@! TF.FilePolarity,Negative*
%FSLAX46Y46*%
G04 Gerber Fmt 4.6, Leading zero omitted, Abs format (unit mm)*
G04 Created by KiCad (PCBNEW (5.1.9)-1) date 2021-04-12 22:44:31*
%MOMM*%
%LPD*%
G01*
G04 APERTURE LIST*
%ADD10O,7.102000X4.102000*%
%ADD11C,6.602000*%
%ADD12C,2.902000*%
G04 APERTURE END LIST*
D10*
X226500000Y-39000000D03*
D11*
X223000000Y-96000000D03*
D10*
X199500000Y-39000000D03*
X199500000Y-161000000D03*
D11*
X223000000Y-115000000D03*
D10*
X226500000Y-161000000D03*
D11*
X203000000Y-115000000D03*
X203075001Y-145000000D03*
X203000000Y-125000000D03*
X203000000Y-96000000D03*
X223000000Y-145000000D03*
X223000000Y-125000000D03*
G36*
G01*
X211324000Y-46478828D02*
X211324000Y-45521172D01*
G75*
G02*
X211596172Y-45249000I272172J0D01*
G01*
X212303828Y-45249000D01*
G75*
G02*
X212576000Y-45521172I0J-272172D01*
G01*
X212576000Y-46478828D01*
G75*
G02*
X212303828Y-46751000I-272172J0D01*
G01*
X211596172Y-46751000D01*
G75*
G02*
X211324000Y-46478828I0J272172D01*
G01*
G37*
G36*
G01*
X213374000Y-46478828D02*
X213374000Y-45521172D01*
G75*
G02*
X213646172Y-45249000I272172J0D01*
G01*
X214353828Y-45249000D01*
G75*
G02*
X214626000Y-45521172I0J-272172D01*
G01*
X214626000Y-46478828D01*
G75*
G02*
X214353828Y-46751000I-272172J0D01*
G01*
X213646172Y-46751000D01*
G75*
G02*
X213374000Y-46478828I0J272172D01*
G01*
G37*
G36*
G01*
X194324000Y-115478828D02*
X194324000Y-114521172D01*
G75*
G02*
X194596172Y-114249000I272172J0D01*
G01*
X195303828Y-114249000D01*
G75*
G02*
X195576000Y-114521172I0J-272172D01*
G01*
X195576000Y-115478828D01*
G75*
G02*
X195303828Y-115751000I-272172J0D01*
G01*
X194596172Y-115751000D01*
G75*
G02*
X194324000Y-115478828I0J272172D01*
G01*
G37*
G36*
G01*
X196374000Y-115478828D02*
X196374000Y-114521172D01*
G75*
G02*
X196646172Y-114249000I272172J0D01*
G01*
X197353828Y-114249000D01*
G75*
G02*
X197626000Y-114521172I0J-272172D01*
G01*
X197626000Y-115478828D01*
G75*
G02*
X197353828Y-115751000I-272172J0D01*
G01*
X196646172Y-115751000D01*
G75*
G02*
X196374000Y-115478828I0J272172D01*
G01*
G37*
G36*
G01*
X230424000Y-115478828D02*
X230424000Y-114521172D01*
G75*
G02*
X230696172Y-114249000I272172J0D01*
G01*
X231403828Y-114249000D01*
G75*
G02*
X231676000Y-114521172I0J-272172D01*
G01*
X231676000Y-115478828D01*
G75*
G02*
X231403828Y-115751000I-272172J0D01*
G01*
X230696172Y-115751000D01*
G75*
G02*
X230424000Y-115478828I0J272172D01*
G01*
G37*
G36*
G01*
X228374000Y-115478828D02*
X228374000Y-114521172D01*
G75*
G02*
X228646172Y-114249000I272172J0D01*
G01*
X229353828Y-114249000D01*
G75*
G02*
X229626000Y-114521172I0J-272172D01*
G01*
X229626000Y-115478828D01*
G75*
G02*
X229353828Y-115751000I-272172J0D01*
G01*
X228646172Y-115751000D01*
G75*
G02*
X228374000Y-115478828I0J272172D01*
G01*
G37*
G36*
G01*
X194349000Y-125478828D02*
X194349000Y-124521172D01*
G75*
G02*
X194621172Y-124249000I272172J0D01*
G01*
X195328828Y-124249000D01*
G75*
G02*
X195601000Y-124521172I0J-272172D01*
G01*
X195601000Y-125478828D01*
G75*
G02*
X195328828Y-125751000I-272172J0D01*
G01*
X194621172Y-125751000D01*
G75*
G02*
X194349000Y-125478828I0J272172D01*
G01*
G37*
G36*
G01*
X196399000Y-125478828D02*
X196399000Y-124521172D01*
G75*
G02*
X196671172Y-124249000I272172J0D01*
G01*
X197378828Y-124249000D01*
G75*
G02*
X197651000Y-124521172I0J-272172D01*
G01*
X197651000Y-125478828D01*
G75*
G02*
X197378828Y-125751000I-272172J0D01*
G01*
X196671172Y-125751000D01*
G75*
G02*
X196399000Y-125478828I0J272172D01*
G01*
G37*
G36*
G01*
X230374000Y-125478828D02*
X230374000Y-124521172D01*
G75*
G02*
X230646172Y-124249000I272172J0D01*
G01*
X231353828Y-124249000D01*
G75*
G02*
X231626000Y-124521172I0J-272172D01*
G01*
X231626000Y-125478828D01*
G75*
G02*
X231353828Y-125751000I-272172J0D01*
G01*
X230646172Y-125751000D01*
G75*
G02*
X230374000Y-125478828I0J272172D01*
G01*
G37*
G36*
G01*
X228324000Y-125478828D02*
X228324000Y-124521172D01*
G75*
G02*
X228596172Y-124249000I272172J0D01*
G01*
X229303828Y-124249000D01*
G75*
G02*
X229576000Y-124521172I0J-272172D01*
G01*
X229576000Y-125478828D01*
G75*
G02*
X229303828Y-125751000I-272172J0D01*
G01*
X228596172Y-125751000D01*
G75*
G02*
X228324000Y-125478828I0J272172D01*
G01*
G37*
G36*
G01*
X194324000Y-145478828D02*
X194324000Y-144521172D01*
G75*
G02*
X194596172Y-144249000I272172J0D01*
G01*
X195303828Y-144249000D01*
G75*
G02*
X195576000Y-144521172I0J-272172D01*
G01*
X195576000Y-145478828D01*
G75*
G02*
X195303828Y-145751000I-272172J0D01*
G01*
X194596172Y-145751000D01*
G75*
G02*
X194324000Y-145478828I0J272172D01*
G01*
G37*
G36*
G01*
X196374000Y-145478828D02*
X196374000Y-144521172D01*
G75*
G02*
X196646172Y-144249000I272172J0D01*
G01*
X197353828Y-144249000D01*
G75*
G02*
X197626000Y-144521172I0J-272172D01*
G01*
X197626000Y-145478828D01*
G75*
G02*
X197353828Y-145751000I-272172J0D01*
G01*
X196646172Y-145751000D01*
G75*
G02*
X196374000Y-145478828I0J272172D01*
G01*
G37*
G36*
G01*
X230399000Y-145478828D02*
X230399000Y-144521172D01*
G75*
G02*
X230671172Y-144249000I272172J0D01*
G01*
X231378828Y-144249000D01*
G75*
G02*
X231651000Y-144521172I0J-272172D01*
G01*
X231651000Y-145478828D01*
G75*
G02*
X231378828Y-145751000I-272172J0D01*
G01*
X230671172Y-145751000D01*
G75*
G02*
X230399000Y-145478828I0J272172D01*
G01*
G37*
G36*
G01*
X228349000Y-145478828D02*
X228349000Y-144521172D01*
G75*
G02*
X228621172Y-144249000I272172J0D01*
G01*
X229328828Y-144249000D01*
G75*
G02*
X229601000Y-144521172I0J-272172D01*
G01*
X229601000Y-145478828D01*
G75*
G02*
X229328828Y-145751000I-272172J0D01*
G01*
X228621172Y-145751000D01*
G75*
G02*
X228349000Y-145478828I0J272172D01*
G01*
G37*
D12*
X201500000Y-78000000D03*
X201500000Y-54000000D03*
X224500000Y-78000000D03*
X224500000Y-54000000D03*
M02*
