M48
; DRILL file {KiCad (5.1.9)-1} date 04/12/21 22:44:52
; FORMAT={-:-/ absolute / metric / decimal}
; #@! TF.CreationDate,2021-04-12T22:44:52+02:00
; #@! TF.GenerationSoftware,Kicad,Pcbnew,(5.1.9)-1
; #@! TF.FileFunction,Plated,1,2,PTH
FMAT,2
METRIC
T1C0.400
T2C2.650
T3C3.200
T4C6.300
%
G90
G05
T1
X196.0Y-114.0
X196.0Y-116.0
X196.0Y-124.0
X196.0Y-126.0
X196.0Y-146.0
X196.0Y-144.0
X213.0Y-45.0
X213.0Y-47.0
X230.0Y-114.0
X230.0Y-116.0
X230.0Y-124.0
X230.0Y-126.0
X230.0Y-144.0
X230.0Y-146.0
T2
X201.5Y-54.0
X201.5Y-78.0
X224.5Y-54.0
X224.5Y-78.0
T4
X203.0Y-96.0
X203.0Y-115.0
X203.0Y-125.0
X203.075Y-145.0
X223.0Y-96.0
X223.0Y-115.0
X223.0Y-125.0
X223.0Y-145.0
T3
X198.0Y-39.0G85X201.0Y-39.0
G05
X198.0Y-161.0G85X201.0Y-161.0
G05
X225.0Y-39.0G85X228.0Y-39.0
G05
X225.0Y-161.0G85X228.0Y-161.0
G05
T0
M30
