G04 #@! TF.GenerationSoftware,KiCad,Pcbnew,(5.1.9)-1*
G04 #@! TF.CreationDate,2021-04-12T22:44:31+02:00*
G04 #@! TF.ProjectId,KicadJE_Face,4b696361-644a-4455-9f46-6163652e6b69,rev?*
G04 #@! TF.SameCoordinates,Original*
G04 #@! TF.FileFunction,Copper,L2,Bot*
G04 #@! TF.FilePolarity,Positive*
%FSLAX46Y46*%
G04 Gerber Fmt 4.6, Leading zero omitted, Abs format (unit mm)*
G04 Created by KiCad (PCBNEW (5.1.9)-1) date 2021-04-12 22:44:31*
%MOMM*%
%LPD*%
G01*
G04 APERTURE LIST*
G04 #@! TA.AperFunction,ComponentPad*
%ADD10O,7.000000X4.000000*%
G04 #@! TD*
G04 #@! TA.AperFunction,ComponentPad*
%ADD11C,6.500000*%
G04 #@! TD*
G04 #@! TA.AperFunction,SMDPad,CuDef*
%ADD12R,0.900000X1.200000*%
G04 #@! TD*
G04 #@! TA.AperFunction,SMDPad,CuDef*
%ADD13R,2.510000X1.000000*%
G04 #@! TD*
G04 #@! TA.AperFunction,SMDPad,CuDef*
%ADD14R,3.150000X1.000000*%
G04 #@! TD*
G04 #@! TA.AperFunction,ComponentPad*
%ADD15C,2.800000*%
G04 #@! TD*
G04 #@! TA.AperFunction,ViaPad*
%ADD16C,0.700000*%
G04 #@! TD*
G04 #@! TA.AperFunction,Conductor*
%ADD17C,0.400000*%
G04 #@! TD*
G04 #@! TA.AperFunction,Conductor*
%ADD18C,0.150000*%
G04 #@! TD*
G04 #@! TA.AperFunction,Conductor*
%ADD19C,0.254000*%
G04 #@! TD*
G04 APERTURE END LIST*
D10*
X226500000Y-39000000D03*
D11*
X223000000Y-96000000D03*
D10*
X199500000Y-39000000D03*
X199500000Y-161000000D03*
D11*
X223000000Y-115000000D03*
D10*
X226500000Y-161000000D03*
D11*
X203000000Y-115000000D03*
X203075001Y-145000000D03*
X203000000Y-125000000D03*
X203000000Y-96000000D03*
X223000000Y-145000000D03*
X223000000Y-125000000D03*
G04 #@! TA.AperFunction,SMDPad,CuDef*
G36*
G01*
X213900000Y-131650001D02*
X213900000Y-130349999D01*
G75*
G02*
X214149999Y-130100000I249999J0D01*
G01*
X214800001Y-130100000D01*
G75*
G02*
X215050000Y-130349999I0J-249999D01*
G01*
X215050000Y-131650001D01*
G75*
G02*
X214800001Y-131900000I-249999J0D01*
G01*
X214149999Y-131900000D01*
G75*
G02*
X213900000Y-131650001I0J249999D01*
G01*
G37*
G04 #@! TD.AperFunction*
G04 #@! TA.AperFunction,SMDPad,CuDef*
G36*
G01*
X210950000Y-131650001D02*
X210950000Y-130349999D01*
G75*
G02*
X211199999Y-130100000I249999J0D01*
G01*
X211850001Y-130100000D01*
G75*
G02*
X212100000Y-130349999I0J-249999D01*
G01*
X212100000Y-131650001D01*
G75*
G02*
X211850001Y-131900000I-249999J0D01*
G01*
X211199999Y-131900000D01*
G75*
G02*
X210950000Y-131650001I0J249999D01*
G01*
G37*
G04 #@! TD.AperFunction*
G04 #@! TA.AperFunction,SMDPad,CuDef*
G36*
G01*
X210950000Y-109650001D02*
X210950000Y-108349999D01*
G75*
G02*
X211199999Y-108100000I249999J0D01*
G01*
X211850001Y-108100000D01*
G75*
G02*
X212100000Y-108349999I0J-249999D01*
G01*
X212100000Y-109650001D01*
G75*
G02*
X211850001Y-109900000I-249999J0D01*
G01*
X211199999Y-109900000D01*
G75*
G02*
X210950000Y-109650001I0J249999D01*
G01*
G37*
G04 #@! TD.AperFunction*
G04 #@! TA.AperFunction,SMDPad,CuDef*
G36*
G01*
X213900000Y-109650001D02*
X213900000Y-108349999D01*
G75*
G02*
X214149999Y-108100000I249999J0D01*
G01*
X214800001Y-108100000D01*
G75*
G02*
X215050000Y-108349999I0J-249999D01*
G01*
X215050000Y-109650001D01*
G75*
G02*
X214800001Y-109900000I-249999J0D01*
G01*
X214149999Y-109900000D01*
G75*
G02*
X213900000Y-109650001I0J249999D01*
G01*
G37*
G04 #@! TD.AperFunction*
G04 #@! TA.AperFunction,SMDPad,CuDef*
G36*
G01*
X202525000Y-132549999D02*
X202525000Y-133450001D01*
G75*
G02*
X202275001Y-133700000I-249999J0D01*
G01*
X201624999Y-133700000D01*
G75*
G02*
X201375000Y-133450001I0J249999D01*
G01*
X201375000Y-132549999D01*
G75*
G02*
X201624999Y-132300000I249999J0D01*
G01*
X202275001Y-132300000D01*
G75*
G02*
X202525000Y-132549999I0J-249999D01*
G01*
G37*
G04 #@! TD.AperFunction*
G04 #@! TA.AperFunction,SMDPad,CuDef*
G36*
G01*
X204575000Y-132549999D02*
X204575000Y-133450001D01*
G75*
G02*
X204325001Y-133700000I-249999J0D01*
G01*
X203674999Y-133700000D01*
G75*
G02*
X203425000Y-133450001I0J249999D01*
G01*
X203425000Y-132549999D01*
G75*
G02*
X203674999Y-132300000I249999J0D01*
G01*
X204325001Y-132300000D01*
G75*
G02*
X204575000Y-132549999I0J-249999D01*
G01*
G37*
G04 #@! TD.AperFunction*
G04 #@! TA.AperFunction,SMDPad,CuDef*
G36*
G01*
X224575000Y-108549999D02*
X224575000Y-109450001D01*
G75*
G02*
X224325001Y-109700000I-249999J0D01*
G01*
X223674999Y-109700000D01*
G75*
G02*
X223425000Y-109450001I0J249999D01*
G01*
X223425000Y-108549999D01*
G75*
G02*
X223674999Y-108300000I249999J0D01*
G01*
X224325001Y-108300000D01*
G75*
G02*
X224575000Y-108549999I0J-249999D01*
G01*
G37*
G04 #@! TD.AperFunction*
G04 #@! TA.AperFunction,SMDPad,CuDef*
G36*
G01*
X222525000Y-108549999D02*
X222525000Y-109450001D01*
G75*
G02*
X222275001Y-109700000I-249999J0D01*
G01*
X221624999Y-109700000D01*
G75*
G02*
X221375000Y-109450001I0J249999D01*
G01*
X221375000Y-108549999D01*
G75*
G02*
X221624999Y-108300000I249999J0D01*
G01*
X222275001Y-108300000D01*
G75*
G02*
X222525000Y-108549999I0J-249999D01*
G01*
G37*
G04 #@! TD.AperFunction*
D12*
X214650000Y-133000000D03*
X211350000Y-133000000D03*
X211350000Y-106500000D03*
X214650000Y-106500000D03*
G04 #@! TA.AperFunction,SMDPad,CuDef*
G36*
G01*
X218950000Y-46450001D02*
X218950000Y-45549999D01*
G75*
G02*
X219199999Y-45300000I249999J0D01*
G01*
X219850001Y-45300000D01*
G75*
G02*
X220100000Y-45549999I0J-249999D01*
G01*
X220100000Y-46450001D01*
G75*
G02*
X219850001Y-46700000I-249999J0D01*
G01*
X219199999Y-46700000D01*
G75*
G02*
X218950000Y-46450001I0J249999D01*
G01*
G37*
G04 #@! TD.AperFunction*
G04 #@! TA.AperFunction,SMDPad,CuDef*
G36*
G01*
X216900000Y-46450001D02*
X216900000Y-45549999D01*
G75*
G02*
X217149999Y-45300000I249999J0D01*
G01*
X217800001Y-45300000D01*
G75*
G02*
X218050000Y-45549999I0J-249999D01*
G01*
X218050000Y-46450001D01*
G75*
G02*
X217800001Y-46700000I-249999J0D01*
G01*
X217149999Y-46700000D01*
G75*
G02*
X216900000Y-46450001I0J249999D01*
G01*
G37*
G04 #@! TD.AperFunction*
G04 #@! TA.AperFunction,SMDPad,CuDef*
G36*
G01*
X197625000Y-111049999D02*
X197625000Y-111950001D01*
G75*
G02*
X197375001Y-112200000I-249999J0D01*
G01*
X196724999Y-112200000D01*
G75*
G02*
X196475000Y-111950001I0J249999D01*
G01*
X196475000Y-111049999D01*
G75*
G02*
X196724999Y-110800000I249999J0D01*
G01*
X197375001Y-110800000D01*
G75*
G02*
X197625000Y-111049999I0J-249999D01*
G01*
G37*
G04 #@! TD.AperFunction*
G04 #@! TA.AperFunction,SMDPad,CuDef*
G36*
G01*
X195575000Y-111049999D02*
X195575000Y-111950001D01*
G75*
G02*
X195325001Y-112200000I-249999J0D01*
G01*
X194674999Y-112200000D01*
G75*
G02*
X194425000Y-111950001I0J249999D01*
G01*
X194425000Y-111049999D01*
G75*
G02*
X194674999Y-110800000I249999J0D01*
G01*
X195325001Y-110800000D01*
G75*
G02*
X195575000Y-111049999I0J-249999D01*
G01*
G37*
G04 #@! TD.AperFunction*
G04 #@! TA.AperFunction,SMDPad,CuDef*
G36*
G01*
X230450000Y-111950001D02*
X230450000Y-111049999D01*
G75*
G02*
X230699999Y-110800000I249999J0D01*
G01*
X231350001Y-110800000D01*
G75*
G02*
X231600000Y-111049999I0J-249999D01*
G01*
X231600000Y-111950001D01*
G75*
G02*
X231350001Y-112200000I-249999J0D01*
G01*
X230699999Y-112200000D01*
G75*
G02*
X230450000Y-111950001I0J249999D01*
G01*
G37*
G04 #@! TD.AperFunction*
G04 #@! TA.AperFunction,SMDPad,CuDef*
G36*
G01*
X228400000Y-111950001D02*
X228400000Y-111049999D01*
G75*
G02*
X228649999Y-110800000I249999J0D01*
G01*
X229300001Y-110800000D01*
G75*
G02*
X229550000Y-111049999I0J-249999D01*
G01*
X229550000Y-111950001D01*
G75*
G02*
X229300001Y-112200000I-249999J0D01*
G01*
X228649999Y-112200000D01*
G75*
G02*
X228400000Y-111950001I0J249999D01*
G01*
G37*
G04 #@! TD.AperFunction*
G04 #@! TA.AperFunction,SMDPad,CuDef*
G36*
G01*
X197600000Y-121049999D02*
X197600000Y-121950001D01*
G75*
G02*
X197350001Y-122200000I-249999J0D01*
G01*
X196699999Y-122200000D01*
G75*
G02*
X196450000Y-121950001I0J249999D01*
G01*
X196450000Y-121049999D01*
G75*
G02*
X196699999Y-120800000I249999J0D01*
G01*
X197350001Y-120800000D01*
G75*
G02*
X197600000Y-121049999I0J-249999D01*
G01*
G37*
G04 #@! TD.AperFunction*
G04 #@! TA.AperFunction,SMDPad,CuDef*
G36*
G01*
X195550000Y-121049999D02*
X195550000Y-121950001D01*
G75*
G02*
X195300001Y-122200000I-249999J0D01*
G01*
X194649999Y-122200000D01*
G75*
G02*
X194400000Y-121950001I0J249999D01*
G01*
X194400000Y-121049999D01*
G75*
G02*
X194649999Y-120800000I249999J0D01*
G01*
X195300001Y-120800000D01*
G75*
G02*
X195550000Y-121049999I0J-249999D01*
G01*
G37*
G04 #@! TD.AperFunction*
G04 #@! TA.AperFunction,SMDPad,CuDef*
G36*
G01*
X228375000Y-122450001D02*
X228375000Y-121549999D01*
G75*
G02*
X228624999Y-121300000I249999J0D01*
G01*
X229275001Y-121300000D01*
G75*
G02*
X229525000Y-121549999I0J-249999D01*
G01*
X229525000Y-122450001D01*
G75*
G02*
X229275001Y-122700000I-249999J0D01*
G01*
X228624999Y-122700000D01*
G75*
G02*
X228375000Y-122450001I0J249999D01*
G01*
G37*
G04 #@! TD.AperFunction*
G04 #@! TA.AperFunction,SMDPad,CuDef*
G36*
G01*
X230425000Y-122450001D02*
X230425000Y-121549999D01*
G75*
G02*
X230674999Y-121300000I249999J0D01*
G01*
X231325001Y-121300000D01*
G75*
G02*
X231575000Y-121549999I0J-249999D01*
G01*
X231575000Y-122450001D01*
G75*
G02*
X231325001Y-122700000I-249999J0D01*
G01*
X230674999Y-122700000D01*
G75*
G02*
X230425000Y-122450001I0J249999D01*
G01*
G37*
G04 #@! TD.AperFunction*
G04 #@! TA.AperFunction,SMDPad,CuDef*
G36*
G01*
X197125000Y-148549999D02*
X197125000Y-149450001D01*
G75*
G02*
X196875001Y-149700000I-249999J0D01*
G01*
X196224999Y-149700000D01*
G75*
G02*
X195975000Y-149450001I0J249999D01*
G01*
X195975000Y-148549999D01*
G75*
G02*
X196224999Y-148300000I249999J0D01*
G01*
X196875001Y-148300000D01*
G75*
G02*
X197125000Y-148549999I0J-249999D01*
G01*
G37*
G04 #@! TD.AperFunction*
G04 #@! TA.AperFunction,SMDPad,CuDef*
G36*
G01*
X195075000Y-148549999D02*
X195075000Y-149450001D01*
G75*
G02*
X194825001Y-149700000I-249999J0D01*
G01*
X194174999Y-149700000D01*
G75*
G02*
X193925000Y-149450001I0J249999D01*
G01*
X193925000Y-148549999D01*
G75*
G02*
X194174999Y-148300000I249999J0D01*
G01*
X194825001Y-148300000D01*
G75*
G02*
X195075000Y-148549999I0J-249999D01*
G01*
G37*
G04 #@! TD.AperFunction*
G04 #@! TA.AperFunction,SMDPad,CuDef*
G36*
G01*
X230425000Y-149450001D02*
X230425000Y-148549999D01*
G75*
G02*
X230674999Y-148300000I249999J0D01*
G01*
X231325001Y-148300000D01*
G75*
G02*
X231575000Y-148549999I0J-249999D01*
G01*
X231575000Y-149450001D01*
G75*
G02*
X231325001Y-149700000I-249999J0D01*
G01*
X230674999Y-149700000D01*
G75*
G02*
X230425000Y-149450001I0J249999D01*
G01*
G37*
G04 #@! TD.AperFunction*
G04 #@! TA.AperFunction,SMDPad,CuDef*
G36*
G01*
X228375000Y-149450001D02*
X228375000Y-148549999D01*
G75*
G02*
X228624999Y-148300000I249999J0D01*
G01*
X229275001Y-148300000D01*
G75*
G02*
X229525000Y-148549999I0J-249999D01*
G01*
X229525000Y-149450001D01*
G75*
G02*
X229275001Y-149700000I-249999J0D01*
G01*
X228624999Y-149700000D01*
G75*
G02*
X228375000Y-149450001I0J249999D01*
G01*
G37*
G04 #@! TD.AperFunction*
D13*
X214655000Y-138690000D03*
X214655000Y-143770000D03*
X214655000Y-148850000D03*
X211345000Y-136150000D03*
X211345000Y-141230000D03*
X211345000Y-146310000D03*
D14*
X215525000Y-111110000D03*
X210475000Y-111110000D03*
X215525000Y-113650000D03*
X210475000Y-113650000D03*
X215525000Y-116190000D03*
X210475000Y-116190000D03*
X215525000Y-118730000D03*
X210475000Y-118730000D03*
X215525000Y-121270000D03*
X210475000Y-121270000D03*
X215525000Y-123810000D03*
X210475000Y-123810000D03*
X215525000Y-126350000D03*
X210475000Y-126350000D03*
X215525000Y-128890000D03*
X210475000Y-128890000D03*
D15*
X201500000Y-78000000D03*
X201500000Y-54000000D03*
X224500000Y-78000000D03*
X224500000Y-54000000D03*
D16*
X213000000Y-47000000D03*
X213000000Y-45000000D03*
X196000000Y-116000000D03*
X196000000Y-114000000D03*
X230000000Y-116000000D03*
X230000000Y-113999958D03*
X196000000Y-124000000D03*
X196000000Y-126000008D03*
X230000000Y-126000000D03*
X230000000Y-124000000D03*
X196000000Y-146000000D03*
X196000007Y-144000007D03*
X230000000Y-144000000D03*
X230000000Y-146000000D03*
D17*
X217475000Y-46000000D02*
X217500000Y-46000000D01*
X222000000Y-78000000D02*
X224500000Y-78000000D01*
X222000000Y-78000000D02*
X201500000Y-78000000D01*
D18*
X204000000Y-133000000D02*
X211350000Y-133000000D01*
X211350000Y-131175000D02*
X211525000Y-131000000D01*
X211350000Y-133000000D02*
X211350000Y-131175000D01*
X212275001Y-123070001D02*
X210475000Y-121270000D01*
X212275001Y-130249999D02*
X212275001Y-123070001D01*
X211525000Y-131000000D02*
X212275001Y-130249999D01*
X210475000Y-121270000D02*
X215525000Y-121270000D01*
X210475000Y-111110000D02*
X215525000Y-111110000D01*
X214475000Y-110060000D02*
X215525000Y-111110000D01*
X214475000Y-109000000D02*
X214475000Y-110060000D01*
X221950000Y-109000000D02*
X214475000Y-109000000D01*
X214650000Y-108825000D02*
X214475000Y-109000000D01*
X214650000Y-106500000D02*
X214650000Y-108825000D01*
X214500000Y-80000000D02*
X214500000Y-107500000D01*
X214500000Y-107500000D02*
X216000000Y-109000000D01*
X227500000Y-79000000D02*
X226500000Y-80000000D01*
X227500000Y-56000000D02*
X227500000Y-79000000D01*
X216000000Y-109000000D02*
X221950000Y-109000000D01*
X226500000Y-80000000D02*
X214500000Y-80000000D01*
X222000000Y-56000000D02*
X227500000Y-56000000D01*
X213000000Y-47000000D02*
X222000000Y-56000000D01*
X213024990Y-45024990D02*
X213000000Y-45000000D01*
X218549990Y-45024990D02*
X213024990Y-45024990D01*
X219525000Y-46000000D02*
X218549990Y-45024990D01*
X195000000Y-115000000D02*
X196000000Y-116000000D01*
X195000000Y-111500000D02*
X195000000Y-115000000D01*
X198000000Y-115000000D02*
X197000000Y-114000000D01*
X211345000Y-136150000D02*
X204150000Y-136150000D01*
X204150000Y-136150000D02*
X203199990Y-135199990D01*
X203199990Y-135199990D02*
X203199990Y-132353242D01*
X197000000Y-114000000D02*
X196000000Y-114000000D01*
X203199990Y-132353242D02*
X198000000Y-127153252D01*
X198000000Y-127153252D02*
X198000000Y-115000000D01*
X214655000Y-138690000D02*
X219474999Y-133870001D01*
X219474999Y-133870001D02*
X219474999Y-123307999D01*
X221307999Y-121474999D02*
X224525001Y-121474999D01*
X219474999Y-123307999D02*
X221307999Y-121474999D01*
X224525001Y-121474999D02*
X230000000Y-116000000D01*
X231025000Y-111500000D02*
X231025000Y-112974958D01*
X231025000Y-112974958D02*
X230000000Y-113999958D01*
X194975000Y-122975000D02*
X196000000Y-124000000D01*
X194975000Y-121500000D02*
X194975000Y-122975000D01*
X204730000Y-141230000D02*
X196000000Y-132500000D01*
X211345000Y-141230000D02*
X204730000Y-141230000D01*
X196000000Y-132500000D02*
X196000000Y-126000008D01*
X214655000Y-141345000D02*
X230000000Y-126000000D01*
X214655000Y-143770000D02*
X214655000Y-141345000D01*
X231000000Y-122000000D02*
X231000000Y-123000000D01*
X231000000Y-123000000D02*
X230000000Y-124000000D01*
X194500000Y-147500000D02*
X194500000Y-149000000D01*
X196000000Y-146000000D02*
X194500000Y-147500000D01*
X211345000Y-146310000D02*
X209129999Y-148525001D01*
X209129999Y-148525001D02*
X200525001Y-148525001D01*
X200525001Y-148525001D02*
X196000007Y-144000007D01*
X214655000Y-148850000D02*
X225150000Y-148850000D01*
X225150000Y-148850000D02*
X230000000Y-144000000D01*
X231000000Y-147000000D02*
X230000000Y-146000000D01*
X231000000Y-149000000D02*
X231000000Y-147000000D01*
D19*
X196430475Y-36879635D02*
X196046970Y-37226576D01*
X195738519Y-37641669D01*
X195516975Y-38108962D01*
X195420333Y-38462838D01*
X195527009Y-38873000D01*
X199373000Y-38873000D01*
X199373000Y-38853000D01*
X199627000Y-38853000D01*
X199627000Y-38873000D01*
X203472991Y-38873000D01*
X203579667Y-38462838D01*
X203483025Y-38108962D01*
X203261481Y-37641669D01*
X202953030Y-37226576D01*
X202569525Y-36879635D01*
X202202314Y-36660000D01*
X223797686Y-36660000D01*
X223430475Y-36879635D01*
X223046970Y-37226576D01*
X222738519Y-37641669D01*
X222516975Y-38108962D01*
X222420333Y-38462838D01*
X222527009Y-38873000D01*
X226373000Y-38873000D01*
X226373000Y-38853000D01*
X226627000Y-38853000D01*
X226627000Y-38873000D01*
X230472991Y-38873000D01*
X230579667Y-38462838D01*
X230483025Y-38108962D01*
X230261481Y-37641669D01*
X229953030Y-37226576D01*
X229569525Y-36879635D01*
X229202314Y-36660000D01*
X232340000Y-36660000D01*
X232340001Y-163340000D01*
X229202314Y-163340000D01*
X229569525Y-163120365D01*
X229953030Y-162773424D01*
X230261481Y-162358331D01*
X230483025Y-161891038D01*
X230579667Y-161537162D01*
X230472991Y-161127000D01*
X226627000Y-161127000D01*
X226627000Y-161147000D01*
X226373000Y-161147000D01*
X226373000Y-161127000D01*
X222527009Y-161127000D01*
X222420333Y-161537162D01*
X222516975Y-161891038D01*
X222738519Y-162358331D01*
X223046970Y-162773424D01*
X223430475Y-163120365D01*
X223797686Y-163340000D01*
X202202314Y-163340000D01*
X202569525Y-163120365D01*
X202953030Y-162773424D01*
X203261481Y-162358331D01*
X203483025Y-161891038D01*
X203579667Y-161537162D01*
X203472991Y-161127000D01*
X199627000Y-161127000D01*
X199627000Y-161147000D01*
X199373000Y-161147000D01*
X199373000Y-161127000D01*
X195527009Y-161127000D01*
X195420333Y-161537162D01*
X195516975Y-161891038D01*
X195738519Y-162358331D01*
X196046970Y-162773424D01*
X196430475Y-163120365D01*
X196797686Y-163340000D01*
X193660000Y-163340000D01*
X193660000Y-160462838D01*
X195420333Y-160462838D01*
X195527009Y-160873000D01*
X199373000Y-160873000D01*
X199373000Y-158365000D01*
X199627000Y-158365000D01*
X199627000Y-160873000D01*
X203472991Y-160873000D01*
X203579667Y-160462838D01*
X222420333Y-160462838D01*
X222527009Y-160873000D01*
X226373000Y-160873000D01*
X226373000Y-158365000D01*
X226627000Y-158365000D01*
X226627000Y-160873000D01*
X230472991Y-160873000D01*
X230579667Y-160462838D01*
X230483025Y-160108962D01*
X230261481Y-159641669D01*
X229953030Y-159226576D01*
X229569525Y-158879635D01*
X229125704Y-158614178D01*
X228638623Y-158440407D01*
X228127000Y-158365000D01*
X226627000Y-158365000D01*
X226373000Y-158365000D01*
X224873000Y-158365000D01*
X224361377Y-158440407D01*
X223874296Y-158614178D01*
X223430475Y-158879635D01*
X223046970Y-159226576D01*
X222738519Y-159641669D01*
X222516975Y-160108962D01*
X222420333Y-160462838D01*
X203579667Y-160462838D01*
X203483025Y-160108962D01*
X203261481Y-159641669D01*
X202953030Y-159226576D01*
X202569525Y-158879635D01*
X202125704Y-158614178D01*
X201638623Y-158440407D01*
X201127000Y-158365000D01*
X199627000Y-158365000D01*
X199373000Y-158365000D01*
X197873000Y-158365000D01*
X197361377Y-158440407D01*
X196874296Y-158614178D01*
X196430475Y-158879635D01*
X196046970Y-159226576D01*
X195738519Y-159641669D01*
X195516975Y-160108962D01*
X195420333Y-160462838D01*
X193660000Y-160462838D01*
X193660000Y-150170668D01*
X193681613Y-150188405D01*
X193835149Y-150270472D01*
X194001745Y-150321008D01*
X194174999Y-150338072D01*
X194825001Y-150338072D01*
X194998255Y-150321008D01*
X195164851Y-150270472D01*
X195318387Y-150188405D01*
X195452962Y-150077962D01*
X195458342Y-150071406D01*
X195523815Y-150151185D01*
X195620506Y-150230537D01*
X195730820Y-150289502D01*
X195850518Y-150325812D01*
X195975000Y-150338072D01*
X196264250Y-150335000D01*
X196423000Y-150176250D01*
X196423000Y-149127000D01*
X196677000Y-149127000D01*
X196677000Y-150176250D01*
X196835750Y-150335000D01*
X197125000Y-150338072D01*
X197249482Y-150325812D01*
X197369180Y-150289502D01*
X197479494Y-150230537D01*
X197576185Y-150151185D01*
X197655537Y-150054494D01*
X197714502Y-149944180D01*
X197750812Y-149824482D01*
X197763072Y-149700000D01*
X197760000Y-149285750D01*
X197601250Y-149127000D01*
X196677000Y-149127000D01*
X196423000Y-149127000D01*
X196403000Y-149127000D01*
X196403000Y-148873000D01*
X196423000Y-148873000D01*
X196423000Y-147823750D01*
X196677000Y-147823750D01*
X196677000Y-148873000D01*
X197601250Y-148873000D01*
X197760000Y-148714250D01*
X197763072Y-148300000D01*
X197750812Y-148175518D01*
X197714502Y-148055820D01*
X197655537Y-147945506D01*
X197576185Y-147848815D01*
X197479494Y-147769463D01*
X197369180Y-147710498D01*
X197249482Y-147674188D01*
X197125000Y-147661928D01*
X196835750Y-147665000D01*
X196677000Y-147823750D01*
X196423000Y-147823750D01*
X196264250Y-147665000D01*
X195975000Y-147661928D01*
X195850518Y-147674188D01*
X195730820Y-147710498D01*
X195620506Y-147769463D01*
X195523815Y-147848815D01*
X195458342Y-147928594D01*
X195452962Y-147922038D01*
X195318387Y-147811595D01*
X195236347Y-147767744D01*
X196019092Y-146985000D01*
X196097014Y-146985000D01*
X196287314Y-146947147D01*
X196466572Y-146872896D01*
X196627901Y-146765099D01*
X196765099Y-146627901D01*
X196872896Y-146466572D01*
X196947147Y-146287314D01*
X196985000Y-146097014D01*
X196985000Y-145989091D01*
X199998289Y-149002380D01*
X200020526Y-149029476D01*
X200128638Y-149118201D01*
X200251981Y-149184129D01*
X200385817Y-149224728D01*
X200490124Y-149235001D01*
X200490126Y-149235001D01*
X200525001Y-149238436D01*
X200559876Y-149235001D01*
X209095124Y-149235001D01*
X209129999Y-149238436D01*
X209164874Y-149235001D01*
X209164876Y-149235001D01*
X209269183Y-149224728D01*
X209403019Y-149184129D01*
X209526362Y-149118201D01*
X209634474Y-149029476D01*
X209656711Y-149002380D01*
X210309091Y-148350000D01*
X212761928Y-148350000D01*
X212761928Y-149350000D01*
X212774188Y-149474482D01*
X212810498Y-149594180D01*
X212869463Y-149704494D01*
X212948815Y-149801185D01*
X213045506Y-149880537D01*
X213155820Y-149939502D01*
X213275518Y-149975812D01*
X213400000Y-149988072D01*
X215910000Y-149988072D01*
X216034482Y-149975812D01*
X216154180Y-149939502D01*
X216264494Y-149880537D01*
X216361185Y-149801185D01*
X216440537Y-149704494D01*
X216442939Y-149700000D01*
X227736928Y-149700000D01*
X227749188Y-149824482D01*
X227785498Y-149944180D01*
X227844463Y-150054494D01*
X227923815Y-150151185D01*
X228020506Y-150230537D01*
X228130820Y-150289502D01*
X228250518Y-150325812D01*
X228375000Y-150338072D01*
X228664250Y-150335000D01*
X228823000Y-150176250D01*
X228823000Y-149127000D01*
X227898750Y-149127000D01*
X227740000Y-149285750D01*
X227736928Y-149700000D01*
X216442939Y-149700000D01*
X216499502Y-149594180D01*
X216509870Y-149560000D01*
X225115125Y-149560000D01*
X225150000Y-149563435D01*
X225184875Y-149560000D01*
X225184877Y-149560000D01*
X225289184Y-149549727D01*
X225423020Y-149509128D01*
X225546363Y-149443200D01*
X225654475Y-149354475D01*
X225676712Y-149327379D01*
X226704091Y-148300000D01*
X227736928Y-148300000D01*
X227740000Y-148714250D01*
X227898750Y-148873000D01*
X228823000Y-148873000D01*
X228823000Y-147823750D01*
X228664250Y-147665000D01*
X228375000Y-147661928D01*
X228250518Y-147674188D01*
X228130820Y-147710498D01*
X228020506Y-147769463D01*
X227923815Y-147848815D01*
X227844463Y-147945506D01*
X227785498Y-148055820D01*
X227749188Y-148175518D01*
X227736928Y-148300000D01*
X226704091Y-148300000D01*
X229015000Y-145989091D01*
X229015000Y-146097014D01*
X229052853Y-146287314D01*
X229127104Y-146466572D01*
X229234901Y-146627901D01*
X229372099Y-146765099D01*
X229533428Y-146872896D01*
X229712686Y-146947147D01*
X229902986Y-146985000D01*
X229980909Y-146985000D01*
X230290001Y-147294092D01*
X230290001Y-147753660D01*
X230181613Y-147811595D01*
X230047038Y-147922038D01*
X230041658Y-147928594D01*
X229976185Y-147848815D01*
X229879494Y-147769463D01*
X229769180Y-147710498D01*
X229649482Y-147674188D01*
X229525000Y-147661928D01*
X229235750Y-147665000D01*
X229077000Y-147823750D01*
X229077000Y-148873000D01*
X229097000Y-148873000D01*
X229097000Y-149127000D01*
X229077000Y-149127000D01*
X229077000Y-150176250D01*
X229235750Y-150335000D01*
X229525000Y-150338072D01*
X229649482Y-150325812D01*
X229769180Y-150289502D01*
X229879494Y-150230537D01*
X229976185Y-150151185D01*
X230041658Y-150071406D01*
X230047038Y-150077962D01*
X230181613Y-150188405D01*
X230335149Y-150270472D01*
X230501745Y-150321008D01*
X230674999Y-150338072D01*
X231325001Y-150338072D01*
X231498255Y-150321008D01*
X231664851Y-150270472D01*
X231818387Y-150188405D01*
X231952962Y-150077962D01*
X232063405Y-149943387D01*
X232145472Y-149789851D01*
X232196008Y-149623255D01*
X232213072Y-149450001D01*
X232213072Y-148549999D01*
X232196008Y-148376745D01*
X232145472Y-148210149D01*
X232063405Y-148056613D01*
X231952962Y-147922038D01*
X231818387Y-147811595D01*
X231710000Y-147753661D01*
X231710000Y-147034877D01*
X231713435Y-147000000D01*
X231699727Y-146860815D01*
X231659128Y-146726980D01*
X231593199Y-146603636D01*
X231576280Y-146583020D01*
X231504475Y-146495525D01*
X231477379Y-146473288D01*
X230985000Y-145980909D01*
X230985000Y-145902986D01*
X230947147Y-145712686D01*
X230872896Y-145533428D01*
X230765099Y-145372099D01*
X230627901Y-145234901D01*
X230466572Y-145127104D01*
X230287314Y-145052853D01*
X230097014Y-145015000D01*
X229989091Y-145015000D01*
X230019091Y-144985000D01*
X230097014Y-144985000D01*
X230287314Y-144947147D01*
X230466572Y-144872896D01*
X230627901Y-144765099D01*
X230765099Y-144627901D01*
X230872896Y-144466572D01*
X230947147Y-144287314D01*
X230985000Y-144097014D01*
X230985000Y-143902986D01*
X230947147Y-143712686D01*
X230872896Y-143533428D01*
X230765099Y-143372099D01*
X230627901Y-143234901D01*
X230466572Y-143127104D01*
X230287314Y-143052853D01*
X230097014Y-143015000D01*
X229902986Y-143015000D01*
X229712686Y-143052853D01*
X229533428Y-143127104D01*
X229372099Y-143234901D01*
X229234901Y-143372099D01*
X229127104Y-143533428D01*
X229052853Y-143712686D01*
X229015000Y-143902986D01*
X229015000Y-143980909D01*
X226650033Y-146345876D01*
X226823575Y-145787350D01*
X226903710Y-145026279D01*
X226833828Y-144264197D01*
X226616614Y-143530392D01*
X226260416Y-142853064D01*
X226231216Y-142809365D01*
X225736428Y-142443177D01*
X223179605Y-145000000D01*
X223193748Y-145014143D01*
X223014143Y-145193748D01*
X223000000Y-145179605D01*
X220443177Y-147736428D01*
X220741857Y-148140000D01*
X216509870Y-148140000D01*
X216499502Y-148105820D01*
X216440537Y-147995506D01*
X216361185Y-147898815D01*
X216264494Y-147819463D01*
X216154180Y-147760498D01*
X216034482Y-147724188D01*
X215910000Y-147711928D01*
X213400000Y-147711928D01*
X213275518Y-147724188D01*
X213155820Y-147760498D01*
X213045506Y-147819463D01*
X212948815Y-147898815D01*
X212869463Y-147995506D01*
X212810498Y-148105820D01*
X212774188Y-148225518D01*
X212761928Y-148350000D01*
X210309091Y-148350000D01*
X211211020Y-147448072D01*
X212600000Y-147448072D01*
X212724482Y-147435812D01*
X212844180Y-147399502D01*
X212954494Y-147340537D01*
X213051185Y-147261185D01*
X213130537Y-147164494D01*
X213189502Y-147054180D01*
X213225812Y-146934482D01*
X213238072Y-146810000D01*
X213238072Y-145810000D01*
X213225812Y-145685518D01*
X213189502Y-145565820D01*
X213130537Y-145455506D01*
X213051185Y-145358815D01*
X212954494Y-145279463D01*
X212844180Y-145220498D01*
X212724482Y-145184188D01*
X212600000Y-145171928D01*
X210090000Y-145171928D01*
X209965518Y-145184188D01*
X209845820Y-145220498D01*
X209735506Y-145279463D01*
X209638815Y-145358815D01*
X209559463Y-145455506D01*
X209500498Y-145565820D01*
X209464188Y-145685518D01*
X209451928Y-145810000D01*
X209451928Y-146810000D01*
X209464188Y-146934482D01*
X209500498Y-147054180D01*
X209534018Y-147116891D01*
X208835908Y-147815001D01*
X205573673Y-147815001D01*
X205631824Y-147736428D01*
X203075001Y-145179605D01*
X203060859Y-145193748D01*
X202881254Y-145014143D01*
X202895396Y-145000000D01*
X203254606Y-145000000D01*
X205811429Y-147556823D01*
X206306217Y-147190635D01*
X206671502Y-146518163D01*
X206898576Y-145787350D01*
X206978711Y-145026279D01*
X206973892Y-144973721D01*
X219096290Y-144973721D01*
X219166172Y-145735803D01*
X219383386Y-146469608D01*
X219739584Y-147146936D01*
X219768784Y-147190635D01*
X220263572Y-147556823D01*
X222820395Y-145000000D01*
X220263572Y-142443177D01*
X219768784Y-142809365D01*
X219403499Y-143481837D01*
X219176425Y-144212650D01*
X219096290Y-144973721D01*
X206973892Y-144973721D01*
X206908829Y-144264197D01*
X206691615Y-143530392D01*
X206335417Y-142853064D01*
X206306217Y-142809365D01*
X205811429Y-142443177D01*
X203254606Y-145000000D01*
X202895396Y-145000000D01*
X200338573Y-142443177D01*
X199843785Y-142809365D01*
X199478500Y-143481837D01*
X199251426Y-144212650D01*
X199171291Y-144973721D01*
X199241173Y-145735803D01*
X199451949Y-146447858D01*
X196985007Y-143980916D01*
X196985007Y-143902993D01*
X196947154Y-143712693D01*
X196872903Y-143533435D01*
X196765106Y-143372106D01*
X196627908Y-143234908D01*
X196466579Y-143127111D01*
X196287321Y-143052860D01*
X196097021Y-143015007D01*
X195902993Y-143015007D01*
X195712693Y-143052860D01*
X195533435Y-143127111D01*
X195372106Y-143234908D01*
X195234908Y-143372106D01*
X195127111Y-143533435D01*
X195052860Y-143712693D01*
X195015007Y-143902993D01*
X195015007Y-144097021D01*
X195052860Y-144287321D01*
X195127111Y-144466579D01*
X195234908Y-144627908D01*
X195372106Y-144765106D01*
X195533435Y-144872903D01*
X195712693Y-144947154D01*
X195902993Y-144985007D01*
X195980916Y-144985007D01*
X196010909Y-145015000D01*
X195902986Y-145015000D01*
X195712686Y-145052853D01*
X195533428Y-145127104D01*
X195372099Y-145234901D01*
X195234901Y-145372099D01*
X195127104Y-145533428D01*
X195052853Y-145712686D01*
X195015000Y-145902986D01*
X195015000Y-145980908D01*
X194022617Y-146973292D01*
X193995525Y-146995526D01*
X193906800Y-147103638D01*
X193840872Y-147226981D01*
X193800273Y-147360817D01*
X193790000Y-147465123D01*
X193786565Y-147500000D01*
X193790000Y-147534875D01*
X193790000Y-147753661D01*
X193681613Y-147811595D01*
X193660000Y-147829332D01*
X193660000Y-125902994D01*
X195015000Y-125902994D01*
X195015000Y-126097022D01*
X195052853Y-126287322D01*
X195127104Y-126466580D01*
X195234901Y-126627909D01*
X195290001Y-126683009D01*
X195290000Y-132465125D01*
X195286565Y-132500000D01*
X195290000Y-132534875D01*
X195290000Y-132534876D01*
X195300273Y-132639183D01*
X195340872Y-132773019D01*
X195406800Y-132896362D01*
X195495525Y-133004474D01*
X195522617Y-133026708D01*
X203649971Y-141154063D01*
X203101280Y-141096290D01*
X202339198Y-141166172D01*
X201605393Y-141383386D01*
X200928065Y-141739584D01*
X200884366Y-141768784D01*
X200518178Y-142263572D01*
X203075001Y-144820395D01*
X205631824Y-142263572D01*
X205392351Y-141940000D01*
X209490130Y-141940000D01*
X209500498Y-141974180D01*
X209559463Y-142084494D01*
X209638815Y-142181185D01*
X209735506Y-142260537D01*
X209845820Y-142319502D01*
X209965518Y-142355812D01*
X210090000Y-142368072D01*
X212600000Y-142368072D01*
X212724482Y-142355812D01*
X212844180Y-142319502D01*
X212954494Y-142260537D01*
X213051185Y-142181185D01*
X213130537Y-142084494D01*
X213189502Y-141974180D01*
X213225812Y-141854482D01*
X213238072Y-141730000D01*
X213238072Y-140730000D01*
X213225812Y-140605518D01*
X213189502Y-140485820D01*
X213130537Y-140375506D01*
X213051185Y-140278815D01*
X212954494Y-140199463D01*
X212844180Y-140140498D01*
X212724482Y-140104188D01*
X212600000Y-140091928D01*
X210090000Y-140091928D01*
X209965518Y-140104188D01*
X209845820Y-140140498D01*
X209735506Y-140199463D01*
X209638815Y-140278815D01*
X209559463Y-140375506D01*
X209500498Y-140485820D01*
X209490130Y-140520000D01*
X205024092Y-140520000D01*
X202694092Y-138190000D01*
X212761928Y-138190000D01*
X212761928Y-139190000D01*
X212774188Y-139314482D01*
X212810498Y-139434180D01*
X212869463Y-139544494D01*
X212948815Y-139641185D01*
X213045506Y-139720537D01*
X213155820Y-139779502D01*
X213275518Y-139815812D01*
X213400000Y-139828072D01*
X215167837Y-139828072D01*
X214177617Y-140818292D01*
X214150526Y-140840525D01*
X214128293Y-140867616D01*
X214061801Y-140948637D01*
X213995872Y-141071981D01*
X213955274Y-141205816D01*
X213941565Y-141345000D01*
X213945001Y-141379885D01*
X213945000Y-142631928D01*
X213400000Y-142631928D01*
X213275518Y-142644188D01*
X213155820Y-142680498D01*
X213045506Y-142739463D01*
X212948815Y-142818815D01*
X212869463Y-142915506D01*
X212810498Y-143025820D01*
X212774188Y-143145518D01*
X212761928Y-143270000D01*
X212761928Y-144270000D01*
X212774188Y-144394482D01*
X212810498Y-144514180D01*
X212869463Y-144624494D01*
X212948815Y-144721185D01*
X213045506Y-144800537D01*
X213155820Y-144859502D01*
X213275518Y-144895812D01*
X213400000Y-144908072D01*
X215910000Y-144908072D01*
X216034482Y-144895812D01*
X216154180Y-144859502D01*
X216264494Y-144800537D01*
X216361185Y-144721185D01*
X216440537Y-144624494D01*
X216499502Y-144514180D01*
X216535812Y-144394482D01*
X216548072Y-144270000D01*
X216548072Y-143270000D01*
X216535812Y-143145518D01*
X216499502Y-143025820D01*
X216440537Y-142915506D01*
X216361185Y-142818815D01*
X216264494Y-142739463D01*
X216154180Y-142680498D01*
X216034482Y-142644188D01*
X215910000Y-142631928D01*
X215365000Y-142631928D01*
X215365000Y-142263572D01*
X220443177Y-142263572D01*
X223000000Y-144820395D01*
X225556823Y-142263572D01*
X225190635Y-141768784D01*
X224518163Y-141403499D01*
X223787350Y-141176425D01*
X223026279Y-141096290D01*
X222264197Y-141166172D01*
X221530392Y-141383386D01*
X220853064Y-141739584D01*
X220809365Y-141768784D01*
X220443177Y-142263572D01*
X215365000Y-142263572D01*
X215365000Y-141639091D01*
X230019092Y-126985000D01*
X230097014Y-126985000D01*
X230287314Y-126947147D01*
X230466572Y-126872896D01*
X230627901Y-126765099D01*
X230765099Y-126627901D01*
X230872896Y-126466572D01*
X230947147Y-126287314D01*
X230985000Y-126097014D01*
X230985000Y-125902986D01*
X230947147Y-125712686D01*
X230872896Y-125533428D01*
X230765099Y-125372099D01*
X230627901Y-125234901D01*
X230466572Y-125127104D01*
X230287314Y-125052853D01*
X230097014Y-125015000D01*
X229902986Y-125015000D01*
X229712686Y-125052853D01*
X229533428Y-125127104D01*
X229372099Y-125234901D01*
X229234901Y-125372099D01*
X229127104Y-125533428D01*
X229052853Y-125712686D01*
X229015000Y-125902986D01*
X229015000Y-125980908D01*
X216548072Y-138447837D01*
X216548072Y-138190000D01*
X216535812Y-138065518D01*
X216499502Y-137945820D01*
X216465982Y-137883109D01*
X219952388Y-134396704D01*
X219979473Y-134374476D01*
X220001703Y-134347389D01*
X220001706Y-134347386D01*
X220053234Y-134284599D01*
X220068199Y-134266364D01*
X220134127Y-134143021D01*
X220174726Y-134009185D01*
X220184999Y-133904878D01*
X220184999Y-133904876D01*
X220188434Y-133870001D01*
X220184999Y-133835126D01*
X220184999Y-127736428D01*
X220443177Y-127736428D01*
X220809365Y-128231216D01*
X221481837Y-128596501D01*
X222212650Y-128823575D01*
X222973721Y-128903710D01*
X223735803Y-128833828D01*
X224469608Y-128616614D01*
X225146936Y-128260416D01*
X225190635Y-128231216D01*
X225556823Y-127736428D01*
X223000000Y-125179605D01*
X220443177Y-127736428D01*
X220184999Y-127736428D01*
X220184999Y-127498672D01*
X220263572Y-127556823D01*
X222820395Y-125000000D01*
X223179605Y-125000000D01*
X225736428Y-127556823D01*
X226231216Y-127190635D01*
X226596501Y-126518163D01*
X226823575Y-125787350D01*
X226903710Y-125026279D01*
X226833828Y-124264197D01*
X226726906Y-123902986D01*
X229015000Y-123902986D01*
X229015000Y-124097014D01*
X229052853Y-124287314D01*
X229127104Y-124466572D01*
X229234901Y-124627901D01*
X229372099Y-124765099D01*
X229533428Y-124872896D01*
X229712686Y-124947147D01*
X229902986Y-124985000D01*
X230097014Y-124985000D01*
X230287314Y-124947147D01*
X230466572Y-124872896D01*
X230627901Y-124765099D01*
X230765099Y-124627901D01*
X230872896Y-124466572D01*
X230947147Y-124287314D01*
X230985000Y-124097014D01*
X230985000Y-124019091D01*
X231477379Y-123526712D01*
X231504475Y-123504475D01*
X231593200Y-123396363D01*
X231659128Y-123273020D01*
X231659399Y-123272126D01*
X231664851Y-123270472D01*
X231818387Y-123188405D01*
X231952962Y-123077962D01*
X232063405Y-122943387D01*
X232145472Y-122789851D01*
X232196008Y-122623255D01*
X232213072Y-122450001D01*
X232213072Y-121549999D01*
X232196008Y-121376745D01*
X232145472Y-121210149D01*
X232063405Y-121056613D01*
X231952962Y-120922038D01*
X231818387Y-120811595D01*
X231664851Y-120729528D01*
X231498255Y-120678992D01*
X231325001Y-120661928D01*
X230674999Y-120661928D01*
X230501745Y-120678992D01*
X230335149Y-120729528D01*
X230181613Y-120811595D01*
X230047038Y-120922038D01*
X230041658Y-120928594D01*
X229976185Y-120848815D01*
X229879494Y-120769463D01*
X229769180Y-120710498D01*
X229649482Y-120674188D01*
X229525000Y-120661928D01*
X229235750Y-120665000D01*
X229077000Y-120823750D01*
X229077000Y-121873000D01*
X229097000Y-121873000D01*
X229097000Y-122127000D01*
X229077000Y-122127000D01*
X229077000Y-123176250D01*
X229235750Y-123335000D01*
X229271619Y-123335381D01*
X229234901Y-123372099D01*
X229127104Y-123533428D01*
X229052853Y-123712686D01*
X229015000Y-123902986D01*
X226726906Y-123902986D01*
X226616614Y-123530392D01*
X226260416Y-122853064D01*
X226231216Y-122809365D01*
X226083444Y-122700000D01*
X227736928Y-122700000D01*
X227749188Y-122824482D01*
X227785498Y-122944180D01*
X227844463Y-123054494D01*
X227923815Y-123151185D01*
X228020506Y-123230537D01*
X228130820Y-123289502D01*
X228250518Y-123325812D01*
X228375000Y-123338072D01*
X228664250Y-123335000D01*
X228823000Y-123176250D01*
X228823000Y-122127000D01*
X227898750Y-122127000D01*
X227740000Y-122285750D01*
X227736928Y-122700000D01*
X226083444Y-122700000D01*
X225736428Y-122443177D01*
X223179605Y-125000000D01*
X222820395Y-125000000D01*
X222806253Y-124985858D01*
X222985858Y-124806253D01*
X223000000Y-124820395D01*
X225556823Y-122263572D01*
X225209635Y-121794456D01*
X225704091Y-121300000D01*
X227736928Y-121300000D01*
X227740000Y-121714250D01*
X227898750Y-121873000D01*
X228823000Y-121873000D01*
X228823000Y-120823750D01*
X228664250Y-120665000D01*
X228375000Y-120661928D01*
X228250518Y-120674188D01*
X228130820Y-120710498D01*
X228020506Y-120769463D01*
X227923815Y-120848815D01*
X227844463Y-120945506D01*
X227785498Y-121055820D01*
X227749188Y-121175518D01*
X227736928Y-121300000D01*
X225704091Y-121300000D01*
X230019091Y-116985000D01*
X230097014Y-116985000D01*
X230287314Y-116947147D01*
X230466572Y-116872896D01*
X230627901Y-116765099D01*
X230765099Y-116627901D01*
X230872896Y-116466572D01*
X230947147Y-116287314D01*
X230985000Y-116097014D01*
X230985000Y-115902986D01*
X230947147Y-115712686D01*
X230872896Y-115533428D01*
X230765099Y-115372099D01*
X230627901Y-115234901D01*
X230466572Y-115127104D01*
X230287314Y-115052853D01*
X230097014Y-115015000D01*
X229902986Y-115015000D01*
X229712686Y-115052853D01*
X229533428Y-115127104D01*
X229372099Y-115234901D01*
X229234901Y-115372099D01*
X229127104Y-115533428D01*
X229052853Y-115712686D01*
X229015000Y-115902986D01*
X229015000Y-115980909D01*
X224230910Y-120764999D01*
X221342873Y-120764999D01*
X221307998Y-120761564D01*
X221273123Y-120764999D01*
X221273122Y-120764999D01*
X221168815Y-120775272D01*
X221034979Y-120815871D01*
X220926906Y-120873637D01*
X220911634Y-120881800D01*
X220844439Y-120936946D01*
X220803524Y-120970524D01*
X220781291Y-120997615D01*
X218997616Y-122781291D01*
X218970525Y-122803524D01*
X218948292Y-122830615D01*
X218881800Y-122911636D01*
X218815871Y-123034980D01*
X218775273Y-123168815D01*
X218761564Y-123307999D01*
X218765000Y-123342884D01*
X218764999Y-133575909D01*
X214788981Y-137551928D01*
X213400000Y-137551928D01*
X213275518Y-137564188D01*
X213155820Y-137600498D01*
X213045506Y-137659463D01*
X212948815Y-137738815D01*
X212869463Y-137835506D01*
X212810498Y-137945820D01*
X212774188Y-138065518D01*
X212761928Y-138190000D01*
X202694092Y-138190000D01*
X198204092Y-133700000D01*
X200736928Y-133700000D01*
X200749188Y-133824482D01*
X200785498Y-133944180D01*
X200844463Y-134054494D01*
X200923815Y-134151185D01*
X201020506Y-134230537D01*
X201130820Y-134289502D01*
X201250518Y-134325812D01*
X201375000Y-134338072D01*
X201664250Y-134335000D01*
X201823000Y-134176250D01*
X201823000Y-133127000D01*
X200898750Y-133127000D01*
X200740000Y-133285750D01*
X200736928Y-133700000D01*
X198204092Y-133700000D01*
X196710000Y-132205909D01*
X196710000Y-126683008D01*
X196765099Y-126627909D01*
X196872896Y-126466580D01*
X196947147Y-126287322D01*
X196985000Y-126097022D01*
X196985000Y-125902994D01*
X196947147Y-125712694D01*
X196872896Y-125533436D01*
X196765099Y-125372107D01*
X196627901Y-125234909D01*
X196466572Y-125127112D01*
X196287314Y-125052861D01*
X196097014Y-125015008D01*
X195902986Y-125015008D01*
X195712686Y-125052861D01*
X195533428Y-125127112D01*
X195372099Y-125234909D01*
X195234901Y-125372107D01*
X195127104Y-125533436D01*
X195052853Y-125712694D01*
X195015000Y-125902994D01*
X193660000Y-125902994D01*
X193660000Y-121049999D01*
X193761928Y-121049999D01*
X193761928Y-121950001D01*
X193778992Y-122123255D01*
X193829528Y-122289851D01*
X193911595Y-122443387D01*
X194022038Y-122577962D01*
X194156613Y-122688405D01*
X194265001Y-122746340D01*
X194265001Y-122940116D01*
X194261565Y-122975000D01*
X194275274Y-123114184D01*
X194315872Y-123248019D01*
X194364007Y-123338072D01*
X194381801Y-123371363D01*
X194470526Y-123479475D01*
X194497617Y-123501708D01*
X195015000Y-124019091D01*
X195015000Y-124097014D01*
X195052853Y-124287314D01*
X195127104Y-124466572D01*
X195234901Y-124627901D01*
X195372099Y-124765099D01*
X195533428Y-124872896D01*
X195712686Y-124947147D01*
X195902986Y-124985000D01*
X196097014Y-124985000D01*
X196287314Y-124947147D01*
X196466572Y-124872896D01*
X196627901Y-124765099D01*
X196765099Y-124627901D01*
X196872896Y-124466572D01*
X196947147Y-124287314D01*
X196985000Y-124097014D01*
X196985000Y-123902986D01*
X196947147Y-123712686D01*
X196872896Y-123533428D01*
X196765099Y-123372099D01*
X196627901Y-123234901D01*
X196466572Y-123127104D01*
X196287314Y-123052853D01*
X196097014Y-123015000D01*
X196019091Y-123015000D01*
X195727639Y-122723548D01*
X195793387Y-122688405D01*
X195927962Y-122577962D01*
X195933342Y-122571406D01*
X195998815Y-122651185D01*
X196095506Y-122730537D01*
X196205820Y-122789502D01*
X196325518Y-122825812D01*
X196450000Y-122838072D01*
X196739250Y-122835000D01*
X196898000Y-122676250D01*
X196898000Y-121627000D01*
X196878000Y-121627000D01*
X196878000Y-121373000D01*
X196898000Y-121373000D01*
X196898000Y-120323750D01*
X196739250Y-120165000D01*
X196450000Y-120161928D01*
X196325518Y-120174188D01*
X196205820Y-120210498D01*
X196095506Y-120269463D01*
X195998815Y-120348815D01*
X195933342Y-120428594D01*
X195927962Y-120422038D01*
X195793387Y-120311595D01*
X195639851Y-120229528D01*
X195473255Y-120178992D01*
X195300001Y-120161928D01*
X194649999Y-120161928D01*
X194476745Y-120178992D01*
X194310149Y-120229528D01*
X194156613Y-120311595D01*
X194022038Y-120422038D01*
X193911595Y-120556613D01*
X193829528Y-120710149D01*
X193778992Y-120876745D01*
X193761928Y-121049999D01*
X193660000Y-121049999D01*
X193660000Y-111049999D01*
X193786928Y-111049999D01*
X193786928Y-111950001D01*
X193803992Y-112123255D01*
X193854528Y-112289851D01*
X193936595Y-112443387D01*
X194047038Y-112577962D01*
X194181613Y-112688405D01*
X194290000Y-112746339D01*
X194290001Y-114965115D01*
X194286565Y-115000000D01*
X194300274Y-115139184D01*
X194340872Y-115273019D01*
X194393832Y-115372099D01*
X194406801Y-115396363D01*
X194495526Y-115504475D01*
X194522616Y-115526707D01*
X195015000Y-116019091D01*
X195015000Y-116097014D01*
X195052853Y-116287314D01*
X195127104Y-116466572D01*
X195234901Y-116627901D01*
X195372099Y-116765099D01*
X195533428Y-116872896D01*
X195712686Y-116947147D01*
X195902986Y-116985000D01*
X196097014Y-116985000D01*
X196287314Y-116947147D01*
X196466572Y-116872896D01*
X196627901Y-116765099D01*
X196765099Y-116627901D01*
X196872896Y-116466572D01*
X196947147Y-116287314D01*
X196985000Y-116097014D01*
X196985000Y-115902986D01*
X196947147Y-115712686D01*
X196872896Y-115533428D01*
X196765099Y-115372099D01*
X196627901Y-115234901D01*
X196466572Y-115127104D01*
X196287314Y-115052853D01*
X196097014Y-115015000D01*
X196019091Y-115015000D01*
X195989091Y-114985000D01*
X196097014Y-114985000D01*
X196287314Y-114947147D01*
X196466572Y-114872896D01*
X196627901Y-114765099D01*
X196683000Y-114710000D01*
X196705909Y-114710000D01*
X197290001Y-115294092D01*
X197290001Y-120185749D01*
X197152000Y-120323750D01*
X197152000Y-121373000D01*
X197172000Y-121373000D01*
X197172000Y-121627000D01*
X197152000Y-121627000D01*
X197152000Y-122676250D01*
X197290000Y-122814250D01*
X197290000Y-127118377D01*
X197286565Y-127153252D01*
X197290000Y-127188127D01*
X197290000Y-127188128D01*
X197300273Y-127292435D01*
X197340872Y-127426271D01*
X197406800Y-127549614D01*
X197495525Y-127657726D01*
X197522617Y-127679960D01*
X201505975Y-131663319D01*
X201375000Y-131661928D01*
X201250518Y-131674188D01*
X201130820Y-131710498D01*
X201020506Y-131769463D01*
X200923815Y-131848815D01*
X200844463Y-131945506D01*
X200785498Y-132055820D01*
X200749188Y-132175518D01*
X200736928Y-132300000D01*
X200740000Y-132714250D01*
X200898750Y-132873000D01*
X201823000Y-132873000D01*
X201823000Y-132853000D01*
X202077000Y-132853000D01*
X202077000Y-132873000D01*
X202097000Y-132873000D01*
X202097000Y-133127000D01*
X202077000Y-133127000D01*
X202077000Y-134176250D01*
X202235750Y-134335000D01*
X202489990Y-134337700D01*
X202489990Y-135165115D01*
X202486555Y-135199990D01*
X202489990Y-135234865D01*
X202489990Y-135234866D01*
X202500263Y-135339173D01*
X202540862Y-135473009D01*
X202606790Y-135596352D01*
X202695515Y-135704464D01*
X202722607Y-135726698D01*
X203623292Y-136627384D01*
X203645525Y-136654475D01*
X203753637Y-136743200D01*
X203876980Y-136809128D01*
X204010816Y-136849727D01*
X204115123Y-136860000D01*
X204115124Y-136860000D01*
X204149999Y-136863435D01*
X204184874Y-136860000D01*
X209490130Y-136860000D01*
X209500498Y-136894180D01*
X209559463Y-137004494D01*
X209638815Y-137101185D01*
X209735506Y-137180537D01*
X209845820Y-137239502D01*
X209965518Y-137275812D01*
X210090000Y-137288072D01*
X212600000Y-137288072D01*
X212724482Y-137275812D01*
X212844180Y-137239502D01*
X212954494Y-137180537D01*
X213051185Y-137101185D01*
X213130537Y-137004494D01*
X213189502Y-136894180D01*
X213225812Y-136774482D01*
X213238072Y-136650000D01*
X213238072Y-135650000D01*
X213225812Y-135525518D01*
X213189502Y-135405820D01*
X213130537Y-135295506D01*
X213051185Y-135198815D01*
X212954494Y-135119463D01*
X212844180Y-135060498D01*
X212724482Y-135024188D01*
X212600000Y-135011928D01*
X210090000Y-135011928D01*
X209965518Y-135024188D01*
X209845820Y-135060498D01*
X209735506Y-135119463D01*
X209638815Y-135198815D01*
X209559463Y-135295506D01*
X209500498Y-135405820D01*
X209490130Y-135440000D01*
X204444092Y-135440000D01*
X203909990Y-134905899D01*
X203909990Y-134338072D01*
X204325001Y-134338072D01*
X204498255Y-134321008D01*
X204664851Y-134270472D01*
X204818387Y-134188405D01*
X204952962Y-134077962D01*
X205063405Y-133943387D01*
X205145472Y-133789851D01*
X205169694Y-133710000D01*
X210272762Y-133710000D01*
X210274188Y-133724482D01*
X210310498Y-133844180D01*
X210369463Y-133954494D01*
X210448815Y-134051185D01*
X210545506Y-134130537D01*
X210655820Y-134189502D01*
X210775518Y-134225812D01*
X210900000Y-134238072D01*
X211800000Y-134238072D01*
X211924482Y-134225812D01*
X212044180Y-134189502D01*
X212154494Y-134130537D01*
X212251185Y-134051185D01*
X212330537Y-133954494D01*
X212389502Y-133844180D01*
X212425812Y-133724482D01*
X212438072Y-133600000D01*
X213561928Y-133600000D01*
X213574188Y-133724482D01*
X213610498Y-133844180D01*
X213669463Y-133954494D01*
X213748815Y-134051185D01*
X213845506Y-134130537D01*
X213955820Y-134189502D01*
X214075518Y-134225812D01*
X214200000Y-134238072D01*
X214364250Y-134235000D01*
X214523000Y-134076250D01*
X214523000Y-133127000D01*
X214777000Y-133127000D01*
X214777000Y-134076250D01*
X214935750Y-134235000D01*
X215100000Y-134238072D01*
X215224482Y-134225812D01*
X215344180Y-134189502D01*
X215454494Y-134130537D01*
X215551185Y-134051185D01*
X215630537Y-133954494D01*
X215689502Y-133844180D01*
X215725812Y-133724482D01*
X215738072Y-133600000D01*
X215735000Y-133285750D01*
X215576250Y-133127000D01*
X214777000Y-133127000D01*
X214523000Y-133127000D01*
X213723750Y-133127000D01*
X213565000Y-133285750D01*
X213561928Y-133600000D01*
X212438072Y-133600000D01*
X212438072Y-132400000D01*
X212429935Y-132317377D01*
X212477962Y-132277962D01*
X212588405Y-132143387D01*
X212670472Y-131989851D01*
X212697727Y-131900000D01*
X213261928Y-131900000D01*
X213274188Y-132024482D01*
X213310498Y-132144180D01*
X213369463Y-132254494D01*
X213448815Y-132351185D01*
X213545506Y-132430537D01*
X213562314Y-132439521D01*
X213565000Y-132714250D01*
X213723750Y-132873000D01*
X214523000Y-132873000D01*
X214523000Y-132853000D01*
X214777000Y-132853000D01*
X214777000Y-132873000D01*
X215576250Y-132873000D01*
X215735000Y-132714250D01*
X215738072Y-132400000D01*
X215725812Y-132275518D01*
X215689502Y-132155820D01*
X215655352Y-132091930D01*
X215675812Y-132024482D01*
X215688072Y-131900000D01*
X215685000Y-131285750D01*
X215526250Y-131127000D01*
X214602000Y-131127000D01*
X214602000Y-131147000D01*
X214348000Y-131147000D01*
X214348000Y-131127000D01*
X213423750Y-131127000D01*
X213265000Y-131285750D01*
X213261928Y-131900000D01*
X212697727Y-131900000D01*
X212721008Y-131823255D01*
X212738072Y-131650001D01*
X212738072Y-130791019D01*
X212752384Y-130776707D01*
X212779475Y-130754474D01*
X212868201Y-130646362D01*
X212934129Y-130523019D01*
X212974728Y-130389183D01*
X212983485Y-130300274D01*
X212988436Y-130249999D01*
X212985001Y-130215122D01*
X212985001Y-130100000D01*
X213261928Y-130100000D01*
X213265000Y-130714250D01*
X213423750Y-130873000D01*
X214348000Y-130873000D01*
X214348000Y-130853000D01*
X214602000Y-130853000D01*
X214602000Y-130873000D01*
X215526250Y-130873000D01*
X215685000Y-130714250D01*
X215688072Y-130100000D01*
X215680988Y-130028072D01*
X217100000Y-130028072D01*
X217224482Y-130015812D01*
X217344180Y-129979502D01*
X217454494Y-129920537D01*
X217551185Y-129841185D01*
X217630537Y-129744494D01*
X217689502Y-129634180D01*
X217725812Y-129514482D01*
X217738072Y-129390000D01*
X217738072Y-128390000D01*
X217725812Y-128265518D01*
X217689502Y-128145820D01*
X217630537Y-128035506D01*
X217551185Y-127938815D01*
X217454494Y-127859463D01*
X217344180Y-127800498D01*
X217224482Y-127764188D01*
X217100000Y-127751928D01*
X213950000Y-127751928D01*
X213825518Y-127764188D01*
X213705820Y-127800498D01*
X213595506Y-127859463D01*
X213498815Y-127938815D01*
X213419463Y-128035506D01*
X213360498Y-128145820D01*
X213324188Y-128265518D01*
X213311928Y-128390000D01*
X213311928Y-129390000D01*
X213324188Y-129514482D01*
X213360498Y-129634180D01*
X213400069Y-129708212D01*
X213369463Y-129745506D01*
X213310498Y-129855820D01*
X213274188Y-129975518D01*
X213261928Y-130100000D01*
X212985001Y-130100000D01*
X212985001Y-125850000D01*
X213311928Y-125850000D01*
X213311928Y-126850000D01*
X213324188Y-126974482D01*
X213360498Y-127094180D01*
X213419463Y-127204494D01*
X213498815Y-127301185D01*
X213595506Y-127380537D01*
X213705820Y-127439502D01*
X213825518Y-127475812D01*
X213950000Y-127488072D01*
X217100000Y-127488072D01*
X217224482Y-127475812D01*
X217344180Y-127439502D01*
X217454494Y-127380537D01*
X217551185Y-127301185D01*
X217630537Y-127204494D01*
X217689502Y-127094180D01*
X217725812Y-126974482D01*
X217738072Y-126850000D01*
X217738072Y-125850000D01*
X217725812Y-125725518D01*
X217689502Y-125605820D01*
X217630537Y-125495506D01*
X217551185Y-125398815D01*
X217454494Y-125319463D01*
X217344180Y-125260498D01*
X217224482Y-125224188D01*
X217100000Y-125211928D01*
X213950000Y-125211928D01*
X213825518Y-125224188D01*
X213705820Y-125260498D01*
X213595506Y-125319463D01*
X213498815Y-125398815D01*
X213419463Y-125495506D01*
X213360498Y-125605820D01*
X213324188Y-125725518D01*
X213311928Y-125850000D01*
X212985001Y-125850000D01*
X212985001Y-123310000D01*
X213311928Y-123310000D01*
X213311928Y-124310000D01*
X213324188Y-124434482D01*
X213360498Y-124554180D01*
X213419463Y-124664494D01*
X213498815Y-124761185D01*
X213595506Y-124840537D01*
X213705820Y-124899502D01*
X213825518Y-124935812D01*
X213950000Y-124948072D01*
X217100000Y-124948072D01*
X217224482Y-124935812D01*
X217344180Y-124899502D01*
X217454494Y-124840537D01*
X217551185Y-124761185D01*
X217630537Y-124664494D01*
X217689502Y-124554180D01*
X217725812Y-124434482D01*
X217738072Y-124310000D01*
X217738072Y-123310000D01*
X217725812Y-123185518D01*
X217689502Y-123065820D01*
X217630537Y-122955506D01*
X217551185Y-122858815D01*
X217454494Y-122779463D01*
X217344180Y-122720498D01*
X217224482Y-122684188D01*
X217100000Y-122671928D01*
X213950000Y-122671928D01*
X213825518Y-122684188D01*
X213705820Y-122720498D01*
X213595506Y-122779463D01*
X213498815Y-122858815D01*
X213419463Y-122955506D01*
X213360498Y-123065820D01*
X213324188Y-123185518D01*
X213311928Y-123310000D01*
X212985001Y-123310000D01*
X212985001Y-123104876D01*
X212988436Y-123070001D01*
X212984987Y-123034979D01*
X212974728Y-122930817D01*
X212934129Y-122796981D01*
X212868201Y-122673638D01*
X212779476Y-122565526D01*
X212752380Y-122543289D01*
X212462238Y-122253147D01*
X212501185Y-122221185D01*
X212580537Y-122124494D01*
X212639502Y-122014180D01*
X212649870Y-121980000D01*
X213350130Y-121980000D01*
X213360498Y-122014180D01*
X213419463Y-122124494D01*
X213498815Y-122221185D01*
X213595506Y-122300537D01*
X213705820Y-122359502D01*
X213825518Y-122395812D01*
X213950000Y-122408072D01*
X217100000Y-122408072D01*
X217224482Y-122395812D01*
X217344180Y-122359502D01*
X217454494Y-122300537D01*
X217551185Y-122221185D01*
X217630537Y-122124494D01*
X217689502Y-122014180D01*
X217725812Y-121894482D01*
X217738072Y-121770000D01*
X217738072Y-120770000D01*
X217725812Y-120645518D01*
X217689502Y-120525820D01*
X217630537Y-120415506D01*
X217551185Y-120318815D01*
X217454494Y-120239463D01*
X217344180Y-120180498D01*
X217224482Y-120144188D01*
X217100000Y-120131928D01*
X213950000Y-120131928D01*
X213825518Y-120144188D01*
X213705820Y-120180498D01*
X213595506Y-120239463D01*
X213498815Y-120318815D01*
X213419463Y-120415506D01*
X213360498Y-120525820D01*
X213350130Y-120560000D01*
X212649870Y-120560000D01*
X212639502Y-120525820D01*
X212580537Y-120415506D01*
X212501185Y-120318815D01*
X212404494Y-120239463D01*
X212294180Y-120180498D01*
X212174482Y-120144188D01*
X212050000Y-120131928D01*
X208900000Y-120131928D01*
X208775518Y-120144188D01*
X208655820Y-120180498D01*
X208545506Y-120239463D01*
X208448815Y-120318815D01*
X208369463Y-120415506D01*
X208310498Y-120525820D01*
X208274188Y-120645518D01*
X208261928Y-120770000D01*
X208261928Y-121770000D01*
X208274188Y-121894482D01*
X208310498Y-122014180D01*
X208369463Y-122124494D01*
X208448815Y-122221185D01*
X208545506Y-122300537D01*
X208655820Y-122359502D01*
X208775518Y-122395812D01*
X208900000Y-122408072D01*
X210608981Y-122408072D01*
X210872837Y-122671928D01*
X208900000Y-122671928D01*
X208775518Y-122684188D01*
X208655820Y-122720498D01*
X208545506Y-122779463D01*
X208448815Y-122858815D01*
X208369463Y-122955506D01*
X208310498Y-123065820D01*
X208274188Y-123185518D01*
X208261928Y-123310000D01*
X208261928Y-124310000D01*
X208274188Y-124434482D01*
X208310498Y-124554180D01*
X208369463Y-124664494D01*
X208448815Y-124761185D01*
X208545506Y-124840537D01*
X208655820Y-124899502D01*
X208775518Y-124935812D01*
X208900000Y-124948072D01*
X211565002Y-124948072D01*
X211565002Y-125211928D01*
X208900000Y-125211928D01*
X208775518Y-125224188D01*
X208655820Y-125260498D01*
X208545506Y-125319463D01*
X208448815Y-125398815D01*
X208369463Y-125495506D01*
X208310498Y-125605820D01*
X208274188Y-125725518D01*
X208261928Y-125850000D01*
X208261928Y-126850000D01*
X208274188Y-126974482D01*
X208310498Y-127094180D01*
X208369463Y-127204494D01*
X208448815Y-127301185D01*
X208545506Y-127380537D01*
X208655820Y-127439502D01*
X208775518Y-127475812D01*
X208900000Y-127488072D01*
X211565001Y-127488072D01*
X211565001Y-127751928D01*
X208900000Y-127751928D01*
X208775518Y-127764188D01*
X208655820Y-127800498D01*
X208545506Y-127859463D01*
X208448815Y-127938815D01*
X208369463Y-128035506D01*
X208310498Y-128145820D01*
X208274188Y-128265518D01*
X208261928Y-128390000D01*
X208261928Y-129390000D01*
X208274188Y-129514482D01*
X208310498Y-129634180D01*
X208369463Y-129744494D01*
X208448815Y-129841185D01*
X208545506Y-129920537D01*
X208655820Y-129979502D01*
X208775518Y-130015812D01*
X208900000Y-130028072D01*
X210374091Y-130028072D01*
X210328992Y-130176745D01*
X210311928Y-130349999D01*
X210311928Y-131650001D01*
X210328992Y-131823255D01*
X210379528Y-131989851D01*
X210393573Y-132016128D01*
X210369463Y-132045506D01*
X210310498Y-132155820D01*
X210274188Y-132275518D01*
X210272762Y-132290000D01*
X205169694Y-132290000D01*
X205145472Y-132210149D01*
X205063405Y-132056613D01*
X204952962Y-131922038D01*
X204818387Y-131811595D01*
X204664851Y-131729528D01*
X204498255Y-131678992D01*
X204325001Y-131661928D01*
X203674999Y-131661928D01*
X203527314Y-131676474D01*
X199587268Y-127736428D01*
X200443177Y-127736428D01*
X200809365Y-128231216D01*
X201481837Y-128596501D01*
X202212650Y-128823575D01*
X202973721Y-128903710D01*
X203735803Y-128833828D01*
X204469608Y-128616614D01*
X205146936Y-128260416D01*
X205190635Y-128231216D01*
X205556823Y-127736428D01*
X203000000Y-125179605D01*
X200443177Y-127736428D01*
X199587268Y-127736428D01*
X198710000Y-126859161D01*
X198710000Y-124973721D01*
X199096290Y-124973721D01*
X199166172Y-125735803D01*
X199383386Y-126469608D01*
X199739584Y-127146936D01*
X199768784Y-127190635D01*
X200263572Y-127556823D01*
X202820395Y-125000000D01*
X203179605Y-125000000D01*
X205736428Y-127556823D01*
X206231216Y-127190635D01*
X206596501Y-126518163D01*
X206823575Y-125787350D01*
X206903710Y-125026279D01*
X206833828Y-124264197D01*
X206616614Y-123530392D01*
X206260416Y-122853064D01*
X206231216Y-122809365D01*
X205736428Y-122443177D01*
X203179605Y-125000000D01*
X202820395Y-125000000D01*
X200263572Y-122443177D01*
X199768784Y-122809365D01*
X199403499Y-123481837D01*
X199176425Y-124212650D01*
X199096290Y-124973721D01*
X198710000Y-124973721D01*
X198710000Y-122263572D01*
X200443177Y-122263572D01*
X203000000Y-124820395D01*
X205556823Y-122263572D01*
X205190635Y-121768784D01*
X204518163Y-121403499D01*
X203787350Y-121176425D01*
X203026279Y-121096290D01*
X202264197Y-121166172D01*
X201530392Y-121383386D01*
X200853064Y-121739584D01*
X200809365Y-121768784D01*
X200443177Y-122263572D01*
X198710000Y-122263572D01*
X198710000Y-119230000D01*
X208261928Y-119230000D01*
X208274188Y-119354482D01*
X208310498Y-119474180D01*
X208369463Y-119584494D01*
X208448815Y-119681185D01*
X208545506Y-119760537D01*
X208655820Y-119819502D01*
X208775518Y-119855812D01*
X208900000Y-119868072D01*
X210189250Y-119865000D01*
X210348000Y-119706250D01*
X210348000Y-118857000D01*
X210602000Y-118857000D01*
X210602000Y-119706250D01*
X210760750Y-119865000D01*
X212050000Y-119868072D01*
X212174482Y-119855812D01*
X212294180Y-119819502D01*
X212404494Y-119760537D01*
X212501185Y-119681185D01*
X212580537Y-119584494D01*
X212639502Y-119474180D01*
X212675812Y-119354482D01*
X212688072Y-119230000D01*
X213311928Y-119230000D01*
X213324188Y-119354482D01*
X213360498Y-119474180D01*
X213419463Y-119584494D01*
X213498815Y-119681185D01*
X213595506Y-119760537D01*
X213705820Y-119819502D01*
X213825518Y-119855812D01*
X213950000Y-119868072D01*
X215239250Y-119865000D01*
X215398000Y-119706250D01*
X215398000Y-118857000D01*
X215652000Y-118857000D01*
X215652000Y-119706250D01*
X215810750Y-119865000D01*
X217100000Y-119868072D01*
X217224482Y-119855812D01*
X217344180Y-119819502D01*
X217454494Y-119760537D01*
X217551185Y-119681185D01*
X217630537Y-119584494D01*
X217689502Y-119474180D01*
X217725812Y-119354482D01*
X217738072Y-119230000D01*
X217735000Y-119015750D01*
X217576250Y-118857000D01*
X215652000Y-118857000D01*
X215398000Y-118857000D01*
X213473750Y-118857000D01*
X213315000Y-119015750D01*
X213311928Y-119230000D01*
X212688072Y-119230000D01*
X212685000Y-119015750D01*
X212526250Y-118857000D01*
X210602000Y-118857000D01*
X210348000Y-118857000D01*
X208423750Y-118857000D01*
X208265000Y-119015750D01*
X208261928Y-119230000D01*
X198710000Y-119230000D01*
X198710000Y-117736428D01*
X200443177Y-117736428D01*
X200809365Y-118231216D01*
X201481837Y-118596501D01*
X202212650Y-118823575D01*
X202973721Y-118903710D01*
X203735803Y-118833828D01*
X204469608Y-118616614D01*
X205146936Y-118260416D01*
X205190635Y-118231216D01*
X205191534Y-118230000D01*
X208261928Y-118230000D01*
X208265000Y-118444250D01*
X208423750Y-118603000D01*
X210348000Y-118603000D01*
X210348000Y-117753750D01*
X210602000Y-117753750D01*
X210602000Y-118603000D01*
X212526250Y-118603000D01*
X212685000Y-118444250D01*
X212688072Y-118230000D01*
X213311928Y-118230000D01*
X213315000Y-118444250D01*
X213473750Y-118603000D01*
X215398000Y-118603000D01*
X215398000Y-117753750D01*
X215652000Y-117753750D01*
X215652000Y-118603000D01*
X217576250Y-118603000D01*
X217735000Y-118444250D01*
X217738072Y-118230000D01*
X217725812Y-118105518D01*
X217689502Y-117985820D01*
X217630537Y-117875506D01*
X217551185Y-117778815D01*
X217499537Y-117736428D01*
X220443177Y-117736428D01*
X220809365Y-118231216D01*
X221481837Y-118596501D01*
X222212650Y-118823575D01*
X222973721Y-118903710D01*
X223735803Y-118833828D01*
X224469608Y-118616614D01*
X225146936Y-118260416D01*
X225190635Y-118231216D01*
X225556823Y-117736428D01*
X223000000Y-115179605D01*
X220443177Y-117736428D01*
X217499537Y-117736428D01*
X217454494Y-117699463D01*
X217344180Y-117640498D01*
X217224482Y-117604188D01*
X217100000Y-117591928D01*
X215810750Y-117595000D01*
X215652000Y-117753750D01*
X215398000Y-117753750D01*
X215239250Y-117595000D01*
X213950000Y-117591928D01*
X213825518Y-117604188D01*
X213705820Y-117640498D01*
X213595506Y-117699463D01*
X213498815Y-117778815D01*
X213419463Y-117875506D01*
X213360498Y-117985820D01*
X213324188Y-118105518D01*
X213311928Y-118230000D01*
X212688072Y-118230000D01*
X212675812Y-118105518D01*
X212639502Y-117985820D01*
X212580537Y-117875506D01*
X212501185Y-117778815D01*
X212404494Y-117699463D01*
X212294180Y-117640498D01*
X212174482Y-117604188D01*
X212050000Y-117591928D01*
X210760750Y-117595000D01*
X210602000Y-117753750D01*
X210348000Y-117753750D01*
X210189250Y-117595000D01*
X208900000Y-117591928D01*
X208775518Y-117604188D01*
X208655820Y-117640498D01*
X208545506Y-117699463D01*
X208448815Y-117778815D01*
X208369463Y-117875506D01*
X208310498Y-117985820D01*
X208274188Y-118105518D01*
X208261928Y-118230000D01*
X205191534Y-118230000D01*
X205556823Y-117736428D01*
X203000000Y-115179605D01*
X200443177Y-117736428D01*
X198710000Y-117736428D01*
X198710000Y-115034877D01*
X198713435Y-115000000D01*
X198710847Y-114973721D01*
X199096290Y-114973721D01*
X199166172Y-115735803D01*
X199383386Y-116469608D01*
X199739584Y-117146936D01*
X199768784Y-117190635D01*
X200263572Y-117556823D01*
X202820395Y-115000000D01*
X203179605Y-115000000D01*
X205736428Y-117556823D01*
X206231216Y-117190635D01*
X206503159Y-116690000D01*
X208261928Y-116690000D01*
X208274188Y-116814482D01*
X208310498Y-116934180D01*
X208369463Y-117044494D01*
X208448815Y-117141185D01*
X208545506Y-117220537D01*
X208655820Y-117279502D01*
X208775518Y-117315812D01*
X208900000Y-117328072D01*
X210189250Y-117325000D01*
X210348000Y-117166250D01*
X210348000Y-116317000D01*
X210602000Y-116317000D01*
X210602000Y-117166250D01*
X210760750Y-117325000D01*
X212050000Y-117328072D01*
X212174482Y-117315812D01*
X212294180Y-117279502D01*
X212404494Y-117220537D01*
X212501185Y-117141185D01*
X212580537Y-117044494D01*
X212639502Y-116934180D01*
X212675812Y-116814482D01*
X212688072Y-116690000D01*
X213311928Y-116690000D01*
X213324188Y-116814482D01*
X213360498Y-116934180D01*
X213419463Y-117044494D01*
X213498815Y-117141185D01*
X213595506Y-117220537D01*
X213705820Y-117279502D01*
X213825518Y-117315812D01*
X213950000Y-117328072D01*
X215239250Y-117325000D01*
X215398000Y-117166250D01*
X215398000Y-116317000D01*
X215652000Y-116317000D01*
X215652000Y-117166250D01*
X215810750Y-117325000D01*
X217100000Y-117328072D01*
X217224482Y-117315812D01*
X217344180Y-117279502D01*
X217454494Y-117220537D01*
X217551185Y-117141185D01*
X217630537Y-117044494D01*
X217689502Y-116934180D01*
X217725812Y-116814482D01*
X217738072Y-116690000D01*
X217735000Y-116475750D01*
X217576250Y-116317000D01*
X215652000Y-116317000D01*
X215398000Y-116317000D01*
X213473750Y-116317000D01*
X213315000Y-116475750D01*
X213311928Y-116690000D01*
X212688072Y-116690000D01*
X212685000Y-116475750D01*
X212526250Y-116317000D01*
X210602000Y-116317000D01*
X210348000Y-116317000D01*
X208423750Y-116317000D01*
X208265000Y-116475750D01*
X208261928Y-116690000D01*
X206503159Y-116690000D01*
X206596501Y-116518163D01*
X206823575Y-115787350D01*
X206833825Y-115690000D01*
X208261928Y-115690000D01*
X208265000Y-115904250D01*
X208423750Y-116063000D01*
X210348000Y-116063000D01*
X210348000Y-115213750D01*
X210602000Y-115213750D01*
X210602000Y-116063000D01*
X212526250Y-116063000D01*
X212685000Y-115904250D01*
X212688072Y-115690000D01*
X213311928Y-115690000D01*
X213315000Y-115904250D01*
X213473750Y-116063000D01*
X215398000Y-116063000D01*
X215398000Y-115213750D01*
X215652000Y-115213750D01*
X215652000Y-116063000D01*
X217576250Y-116063000D01*
X217735000Y-115904250D01*
X217738072Y-115690000D01*
X217725812Y-115565518D01*
X217689502Y-115445820D01*
X217630537Y-115335506D01*
X217551185Y-115238815D01*
X217454494Y-115159463D01*
X217344180Y-115100498D01*
X217224482Y-115064188D01*
X217100000Y-115051928D01*
X215810750Y-115055000D01*
X215652000Y-115213750D01*
X215398000Y-115213750D01*
X215239250Y-115055000D01*
X213950000Y-115051928D01*
X213825518Y-115064188D01*
X213705820Y-115100498D01*
X213595506Y-115159463D01*
X213498815Y-115238815D01*
X213419463Y-115335506D01*
X213360498Y-115445820D01*
X213324188Y-115565518D01*
X213311928Y-115690000D01*
X212688072Y-115690000D01*
X212675812Y-115565518D01*
X212639502Y-115445820D01*
X212580537Y-115335506D01*
X212501185Y-115238815D01*
X212404494Y-115159463D01*
X212294180Y-115100498D01*
X212174482Y-115064188D01*
X212050000Y-115051928D01*
X210760750Y-115055000D01*
X210602000Y-115213750D01*
X210348000Y-115213750D01*
X210189250Y-115055000D01*
X208900000Y-115051928D01*
X208775518Y-115064188D01*
X208655820Y-115100498D01*
X208545506Y-115159463D01*
X208448815Y-115238815D01*
X208369463Y-115335506D01*
X208310498Y-115445820D01*
X208274188Y-115565518D01*
X208261928Y-115690000D01*
X206833825Y-115690000D01*
X206903710Y-115026279D01*
X206898891Y-114973721D01*
X219096290Y-114973721D01*
X219166172Y-115735803D01*
X219383386Y-116469608D01*
X219739584Y-117146936D01*
X219768784Y-117190635D01*
X220263572Y-117556823D01*
X222820395Y-115000000D01*
X223179605Y-115000000D01*
X225736428Y-117556823D01*
X226231216Y-117190635D01*
X226596501Y-116518163D01*
X226823575Y-115787350D01*
X226903710Y-115026279D01*
X226833828Y-114264197D01*
X226726894Y-113902944D01*
X229015000Y-113902944D01*
X229015000Y-114096972D01*
X229052853Y-114287272D01*
X229127104Y-114466530D01*
X229234901Y-114627859D01*
X229372099Y-114765057D01*
X229533428Y-114872854D01*
X229712686Y-114947105D01*
X229902986Y-114984958D01*
X230097014Y-114984958D01*
X230287314Y-114947105D01*
X230466572Y-114872854D01*
X230627901Y-114765057D01*
X230765099Y-114627859D01*
X230872896Y-114466530D01*
X230947147Y-114287272D01*
X230985000Y-114096972D01*
X230985000Y-114019049D01*
X231502379Y-113501670D01*
X231529475Y-113479433D01*
X231618200Y-113371321D01*
X231684128Y-113247978D01*
X231724727Y-113114142D01*
X231735000Y-113009835D01*
X231735000Y-113009833D01*
X231738435Y-112974958D01*
X231735000Y-112940083D01*
X231735000Y-112746339D01*
X231843387Y-112688405D01*
X231977962Y-112577962D01*
X232088405Y-112443387D01*
X232170472Y-112289851D01*
X232221008Y-112123255D01*
X232238072Y-111950001D01*
X232238072Y-111049999D01*
X232221008Y-110876745D01*
X232170472Y-110710149D01*
X232088405Y-110556613D01*
X231977962Y-110422038D01*
X231843387Y-110311595D01*
X231689851Y-110229528D01*
X231523255Y-110178992D01*
X231350001Y-110161928D01*
X230699999Y-110161928D01*
X230526745Y-110178992D01*
X230360149Y-110229528D01*
X230206613Y-110311595D01*
X230072038Y-110422038D01*
X230066658Y-110428594D01*
X230001185Y-110348815D01*
X229904494Y-110269463D01*
X229794180Y-110210498D01*
X229674482Y-110174188D01*
X229550000Y-110161928D01*
X229260750Y-110165000D01*
X229102000Y-110323750D01*
X229102000Y-111373000D01*
X229122000Y-111373000D01*
X229122000Y-111627000D01*
X229102000Y-111627000D01*
X229102000Y-112676250D01*
X229260750Y-112835000D01*
X229550000Y-112838072D01*
X229674482Y-112825812D01*
X229794180Y-112789502D01*
X229904494Y-112730537D01*
X230001185Y-112651185D01*
X230066658Y-112571406D01*
X230072038Y-112577962D01*
X230206613Y-112688405D01*
X230272334Y-112723533D01*
X229980909Y-113014958D01*
X229902986Y-113014958D01*
X229712686Y-113052811D01*
X229533428Y-113127062D01*
X229372099Y-113234859D01*
X229234901Y-113372057D01*
X229127104Y-113533386D01*
X229052853Y-113712644D01*
X229015000Y-113902944D01*
X226726894Y-113902944D01*
X226616614Y-113530392D01*
X226260416Y-112853064D01*
X226231216Y-112809365D01*
X225736428Y-112443177D01*
X223179605Y-115000000D01*
X222820395Y-115000000D01*
X220263572Y-112443177D01*
X219768784Y-112809365D01*
X219403499Y-113481837D01*
X219176425Y-114212650D01*
X219096290Y-114973721D01*
X206898891Y-114973721D01*
X206833828Y-114264197D01*
X206800025Y-114150000D01*
X208261928Y-114150000D01*
X208274188Y-114274482D01*
X208310498Y-114394180D01*
X208369463Y-114504494D01*
X208448815Y-114601185D01*
X208545506Y-114680537D01*
X208655820Y-114739502D01*
X208775518Y-114775812D01*
X208900000Y-114788072D01*
X210189250Y-114785000D01*
X210348000Y-114626250D01*
X210348000Y-113777000D01*
X210602000Y-113777000D01*
X210602000Y-114626250D01*
X210760750Y-114785000D01*
X212050000Y-114788072D01*
X212174482Y-114775812D01*
X212294180Y-114739502D01*
X212404494Y-114680537D01*
X212501185Y-114601185D01*
X212580537Y-114504494D01*
X212639502Y-114394180D01*
X212675812Y-114274482D01*
X212688072Y-114150000D01*
X213311928Y-114150000D01*
X213324188Y-114274482D01*
X213360498Y-114394180D01*
X213419463Y-114504494D01*
X213498815Y-114601185D01*
X213595506Y-114680537D01*
X213705820Y-114739502D01*
X213825518Y-114775812D01*
X213950000Y-114788072D01*
X215239250Y-114785000D01*
X215398000Y-114626250D01*
X215398000Y-113777000D01*
X215652000Y-113777000D01*
X215652000Y-114626250D01*
X215810750Y-114785000D01*
X217100000Y-114788072D01*
X217224482Y-114775812D01*
X217344180Y-114739502D01*
X217454494Y-114680537D01*
X217551185Y-114601185D01*
X217630537Y-114504494D01*
X217689502Y-114394180D01*
X217725812Y-114274482D01*
X217738072Y-114150000D01*
X217735000Y-113935750D01*
X217576250Y-113777000D01*
X215652000Y-113777000D01*
X215398000Y-113777000D01*
X213473750Y-113777000D01*
X213315000Y-113935750D01*
X213311928Y-114150000D01*
X212688072Y-114150000D01*
X212685000Y-113935750D01*
X212526250Y-113777000D01*
X210602000Y-113777000D01*
X210348000Y-113777000D01*
X208423750Y-113777000D01*
X208265000Y-113935750D01*
X208261928Y-114150000D01*
X206800025Y-114150000D01*
X206616614Y-113530392D01*
X206416571Y-113150000D01*
X208261928Y-113150000D01*
X208265000Y-113364250D01*
X208423750Y-113523000D01*
X210348000Y-113523000D01*
X210348000Y-112673750D01*
X210602000Y-112673750D01*
X210602000Y-113523000D01*
X212526250Y-113523000D01*
X212685000Y-113364250D01*
X212688072Y-113150000D01*
X213311928Y-113150000D01*
X213315000Y-113364250D01*
X213473750Y-113523000D01*
X215398000Y-113523000D01*
X215398000Y-112673750D01*
X215652000Y-112673750D01*
X215652000Y-113523000D01*
X217576250Y-113523000D01*
X217735000Y-113364250D01*
X217738072Y-113150000D01*
X217725812Y-113025518D01*
X217689502Y-112905820D01*
X217630537Y-112795506D01*
X217551185Y-112698815D01*
X217454494Y-112619463D01*
X217344180Y-112560498D01*
X217224482Y-112524188D01*
X217100000Y-112511928D01*
X215810750Y-112515000D01*
X215652000Y-112673750D01*
X215398000Y-112673750D01*
X215239250Y-112515000D01*
X213950000Y-112511928D01*
X213825518Y-112524188D01*
X213705820Y-112560498D01*
X213595506Y-112619463D01*
X213498815Y-112698815D01*
X213419463Y-112795506D01*
X213360498Y-112905820D01*
X213324188Y-113025518D01*
X213311928Y-113150000D01*
X212688072Y-113150000D01*
X212675812Y-113025518D01*
X212639502Y-112905820D01*
X212580537Y-112795506D01*
X212501185Y-112698815D01*
X212404494Y-112619463D01*
X212294180Y-112560498D01*
X212174482Y-112524188D01*
X212050000Y-112511928D01*
X210760750Y-112515000D01*
X210602000Y-112673750D01*
X210348000Y-112673750D01*
X210189250Y-112515000D01*
X208900000Y-112511928D01*
X208775518Y-112524188D01*
X208655820Y-112560498D01*
X208545506Y-112619463D01*
X208448815Y-112698815D01*
X208369463Y-112795506D01*
X208310498Y-112905820D01*
X208274188Y-113025518D01*
X208261928Y-113150000D01*
X206416571Y-113150000D01*
X206260416Y-112853064D01*
X206231216Y-112809365D01*
X205736428Y-112443177D01*
X203179605Y-115000000D01*
X202820395Y-115000000D01*
X200263572Y-112443177D01*
X199768784Y-112809365D01*
X199403499Y-113481837D01*
X199176425Y-114212650D01*
X199096290Y-114973721D01*
X198710847Y-114973721D01*
X198699727Y-114860815D01*
X198659128Y-114726980D01*
X198606147Y-114627859D01*
X198593200Y-114603637D01*
X198504475Y-114495525D01*
X198477379Y-114473288D01*
X197526712Y-113522621D01*
X197504475Y-113495525D01*
X197396363Y-113406800D01*
X197273020Y-113340872D01*
X197139184Y-113300273D01*
X197034877Y-113290000D01*
X197034875Y-113290000D01*
X197000000Y-113286565D01*
X196965125Y-113290000D01*
X196683000Y-113290000D01*
X196627901Y-113234901D01*
X196466572Y-113127104D01*
X196287314Y-113052853D01*
X196097014Y-113015000D01*
X195902986Y-113015000D01*
X195712686Y-113052853D01*
X195710000Y-113053966D01*
X195710000Y-112746339D01*
X195818387Y-112688405D01*
X195952962Y-112577962D01*
X195958342Y-112571406D01*
X196023815Y-112651185D01*
X196120506Y-112730537D01*
X196230820Y-112789502D01*
X196350518Y-112825812D01*
X196475000Y-112838072D01*
X196764250Y-112835000D01*
X196923000Y-112676250D01*
X196923000Y-111627000D01*
X197177000Y-111627000D01*
X197177000Y-112676250D01*
X197335750Y-112835000D01*
X197625000Y-112838072D01*
X197749482Y-112825812D01*
X197869180Y-112789502D01*
X197979494Y-112730537D01*
X198076185Y-112651185D01*
X198155537Y-112554494D01*
X198214502Y-112444180D01*
X198250812Y-112324482D01*
X198256810Y-112263572D01*
X200443177Y-112263572D01*
X203000000Y-114820395D01*
X205556823Y-112263572D01*
X220443177Y-112263572D01*
X223000000Y-114820395D01*
X225556823Y-112263572D01*
X225509774Y-112200000D01*
X227761928Y-112200000D01*
X227774188Y-112324482D01*
X227810498Y-112444180D01*
X227869463Y-112554494D01*
X227948815Y-112651185D01*
X228045506Y-112730537D01*
X228155820Y-112789502D01*
X228275518Y-112825812D01*
X228400000Y-112838072D01*
X228689250Y-112835000D01*
X228848000Y-112676250D01*
X228848000Y-111627000D01*
X227923750Y-111627000D01*
X227765000Y-111785750D01*
X227761928Y-112200000D01*
X225509774Y-112200000D01*
X225190635Y-111768784D01*
X224518163Y-111403499D01*
X223787350Y-111176425D01*
X223026279Y-111096290D01*
X222264197Y-111166172D01*
X221530392Y-111383386D01*
X220853064Y-111739584D01*
X220809365Y-111768784D01*
X220443177Y-112263572D01*
X205556823Y-112263572D01*
X205190635Y-111768784D01*
X204518163Y-111403499D01*
X203787350Y-111176425D01*
X203026279Y-111096290D01*
X202264197Y-111166172D01*
X201530392Y-111383386D01*
X200853064Y-111739584D01*
X200809365Y-111768784D01*
X200443177Y-112263572D01*
X198256810Y-112263572D01*
X198263072Y-112200000D01*
X198260000Y-111785750D01*
X198101250Y-111627000D01*
X197177000Y-111627000D01*
X196923000Y-111627000D01*
X196903000Y-111627000D01*
X196903000Y-111373000D01*
X196923000Y-111373000D01*
X196923000Y-110323750D01*
X197177000Y-110323750D01*
X197177000Y-111373000D01*
X198101250Y-111373000D01*
X198260000Y-111214250D01*
X198263072Y-110800000D01*
X198250812Y-110675518D01*
X198214502Y-110555820D01*
X198155537Y-110445506D01*
X198076185Y-110348815D01*
X197979494Y-110269463D01*
X197869180Y-110210498D01*
X197749482Y-110174188D01*
X197625000Y-110161928D01*
X197335750Y-110165000D01*
X197177000Y-110323750D01*
X196923000Y-110323750D01*
X196764250Y-110165000D01*
X196475000Y-110161928D01*
X196350518Y-110174188D01*
X196230820Y-110210498D01*
X196120506Y-110269463D01*
X196023815Y-110348815D01*
X195958342Y-110428594D01*
X195952962Y-110422038D01*
X195818387Y-110311595D01*
X195664851Y-110229528D01*
X195498255Y-110178992D01*
X195325001Y-110161928D01*
X194674999Y-110161928D01*
X194501745Y-110178992D01*
X194335149Y-110229528D01*
X194181613Y-110311595D01*
X194047038Y-110422038D01*
X193936595Y-110556613D01*
X193854528Y-110710149D01*
X193803992Y-110876745D01*
X193786928Y-111049999D01*
X193660000Y-111049999D01*
X193660000Y-107100000D01*
X210261928Y-107100000D01*
X210274188Y-107224482D01*
X210310498Y-107344180D01*
X210369463Y-107454494D01*
X210448815Y-107551185D01*
X210533296Y-107620517D01*
X210498815Y-107648815D01*
X210419463Y-107745506D01*
X210360498Y-107855820D01*
X210324188Y-107975518D01*
X210311928Y-108100000D01*
X210315000Y-108714250D01*
X210473750Y-108873000D01*
X211398000Y-108873000D01*
X211398000Y-108853000D01*
X211652000Y-108853000D01*
X211652000Y-108873000D01*
X212576250Y-108873000D01*
X212735000Y-108714250D01*
X212738072Y-108100000D01*
X212725812Y-107975518D01*
X212689502Y-107855820D01*
X212630537Y-107745506D01*
X212551185Y-107648815D01*
X212454494Y-107569463D01*
X212344180Y-107510498D01*
X212296457Y-107496021D01*
X212330537Y-107454494D01*
X212389502Y-107344180D01*
X212425812Y-107224482D01*
X212438072Y-107100000D01*
X212435000Y-106785750D01*
X212276250Y-106627000D01*
X211477000Y-106627000D01*
X211477000Y-106647000D01*
X211223000Y-106647000D01*
X211223000Y-106627000D01*
X210423750Y-106627000D01*
X210265000Y-106785750D01*
X210261928Y-107100000D01*
X193660000Y-107100000D01*
X193660000Y-105900000D01*
X210261928Y-105900000D01*
X210265000Y-106214250D01*
X210423750Y-106373000D01*
X211223000Y-106373000D01*
X211223000Y-105423750D01*
X211477000Y-105423750D01*
X211477000Y-106373000D01*
X212276250Y-106373000D01*
X212435000Y-106214250D01*
X212438072Y-105900000D01*
X212425812Y-105775518D01*
X212389502Y-105655820D01*
X212330537Y-105545506D01*
X212251185Y-105448815D01*
X212154494Y-105369463D01*
X212044180Y-105310498D01*
X211924482Y-105274188D01*
X211800000Y-105261928D01*
X211635750Y-105265000D01*
X211477000Y-105423750D01*
X211223000Y-105423750D01*
X211064250Y-105265000D01*
X210900000Y-105261928D01*
X210775518Y-105274188D01*
X210655820Y-105310498D01*
X210545506Y-105369463D01*
X210448815Y-105448815D01*
X210369463Y-105545506D01*
X210310498Y-105655820D01*
X210274188Y-105775518D01*
X210261928Y-105900000D01*
X193660000Y-105900000D01*
X193660000Y-98736428D01*
X200443177Y-98736428D01*
X200809365Y-99231216D01*
X201481837Y-99596501D01*
X202212650Y-99823575D01*
X202973721Y-99903710D01*
X203735803Y-99833828D01*
X204469608Y-99616614D01*
X205146936Y-99260416D01*
X205190635Y-99231216D01*
X205556823Y-98736428D01*
X203000000Y-96179605D01*
X200443177Y-98736428D01*
X193660000Y-98736428D01*
X193660000Y-95973721D01*
X199096290Y-95973721D01*
X199166172Y-96735803D01*
X199383386Y-97469608D01*
X199739584Y-98146936D01*
X199768784Y-98190635D01*
X200263572Y-98556823D01*
X202820395Y-96000000D01*
X203179605Y-96000000D01*
X205736428Y-98556823D01*
X206231216Y-98190635D01*
X206596501Y-97518163D01*
X206823575Y-96787350D01*
X206903710Y-96026279D01*
X206833828Y-95264197D01*
X206616614Y-94530392D01*
X206260416Y-93853064D01*
X206231216Y-93809365D01*
X205736428Y-93443177D01*
X203179605Y-96000000D01*
X202820395Y-96000000D01*
X200263572Y-93443177D01*
X199768784Y-93809365D01*
X199403499Y-94481837D01*
X199176425Y-95212650D01*
X199096290Y-95973721D01*
X193660000Y-95973721D01*
X193660000Y-93263572D01*
X200443177Y-93263572D01*
X203000000Y-95820395D01*
X205556823Y-93263572D01*
X205190635Y-92768784D01*
X204518163Y-92403499D01*
X203787350Y-92176425D01*
X203026279Y-92096290D01*
X202264197Y-92166172D01*
X201530392Y-92383386D01*
X200853064Y-92739584D01*
X200809365Y-92768784D01*
X200443177Y-93263572D01*
X193660000Y-93263572D01*
X193660000Y-79420447D01*
X200259158Y-79420447D01*
X200403135Y-79725770D01*
X200760892Y-79906597D01*
X201147053Y-80014155D01*
X201546777Y-80044310D01*
X201944704Y-79995904D01*
X202325540Y-79870795D01*
X202596865Y-79725770D01*
X202740842Y-79420447D01*
X201500000Y-78179605D01*
X200259158Y-79420447D01*
X193660000Y-79420447D01*
X193660000Y-61500000D01*
X198836807Y-61500000D01*
X198840001Y-61532429D01*
X198840000Y-76467581D01*
X198836807Y-76500000D01*
X198849550Y-76629383D01*
X198887290Y-76753793D01*
X198948575Y-76868450D01*
X199031052Y-76968948D01*
X199131550Y-77051425D01*
X199246207Y-77112710D01*
X199370617Y-77150450D01*
X199500000Y-77163193D01*
X199532419Y-77160000D01*
X199644399Y-77160000D01*
X199593403Y-77260892D01*
X199485845Y-77647053D01*
X199455690Y-78046777D01*
X199504096Y-78444704D01*
X199629205Y-78825540D01*
X199774230Y-79096865D01*
X200079553Y-79240842D01*
X201320395Y-78000000D01*
X201306253Y-77985858D01*
X201485858Y-77806253D01*
X201500000Y-77820395D01*
X201514143Y-77806253D01*
X201693748Y-77985858D01*
X201679605Y-78000000D01*
X202920447Y-79240842D01*
X203225770Y-79096865D01*
X203406597Y-78739108D01*
X203514155Y-78352947D01*
X203544310Y-77953223D01*
X203495904Y-77555296D01*
X203370795Y-77174460D01*
X203363066Y-77160000D01*
X222644399Y-77160000D01*
X222593403Y-77260892D01*
X222485845Y-77647053D01*
X222455690Y-78046777D01*
X222504096Y-78444704D01*
X222629205Y-78825540D01*
X222774230Y-79096865D01*
X223079551Y-79240841D01*
X223030392Y-79290000D01*
X214534877Y-79290000D01*
X214500000Y-79286565D01*
X214465123Y-79290000D01*
X214360816Y-79300273D01*
X214226980Y-79340872D01*
X214103637Y-79406800D01*
X213995525Y-79495525D01*
X213906800Y-79603637D01*
X213840872Y-79726980D01*
X213800273Y-79860816D01*
X213786565Y-80000000D01*
X213790000Y-80034877D01*
X213790001Y-105415015D01*
X213748815Y-105448815D01*
X213669463Y-105545506D01*
X213610498Y-105655820D01*
X213574188Y-105775518D01*
X213561928Y-105900000D01*
X213561928Y-107100000D01*
X213574188Y-107224482D01*
X213610498Y-107344180D01*
X213669463Y-107454494D01*
X213748815Y-107551185D01*
X213757026Y-107557923D01*
X213656613Y-107611595D01*
X213522038Y-107722038D01*
X213411595Y-107856613D01*
X213329528Y-108010149D01*
X213278992Y-108176745D01*
X213261928Y-108349999D01*
X213261928Y-109650001D01*
X213278992Y-109823255D01*
X213329528Y-109989851D01*
X213411595Y-110143387D01*
X213461536Y-110204240D01*
X213419463Y-110255506D01*
X213360498Y-110365820D01*
X213350130Y-110400000D01*
X212649870Y-110400000D01*
X212639502Y-110365820D01*
X212599931Y-110291788D01*
X212630537Y-110254494D01*
X212689502Y-110144180D01*
X212725812Y-110024482D01*
X212738072Y-109900000D01*
X212735000Y-109285750D01*
X212576250Y-109127000D01*
X211652000Y-109127000D01*
X211652000Y-109147000D01*
X211398000Y-109147000D01*
X211398000Y-109127000D01*
X210473750Y-109127000D01*
X210315000Y-109285750D01*
X210311928Y-109900000D01*
X210319012Y-109971928D01*
X208900000Y-109971928D01*
X208775518Y-109984188D01*
X208655820Y-110020498D01*
X208545506Y-110079463D01*
X208448815Y-110158815D01*
X208369463Y-110255506D01*
X208310498Y-110365820D01*
X208274188Y-110485518D01*
X208261928Y-110610000D01*
X208261928Y-111610000D01*
X208274188Y-111734482D01*
X208310498Y-111854180D01*
X208369463Y-111964494D01*
X208448815Y-112061185D01*
X208545506Y-112140537D01*
X208655820Y-112199502D01*
X208775518Y-112235812D01*
X208900000Y-112248072D01*
X212050000Y-112248072D01*
X212174482Y-112235812D01*
X212294180Y-112199502D01*
X212404494Y-112140537D01*
X212501185Y-112061185D01*
X212580537Y-111964494D01*
X212639502Y-111854180D01*
X212649870Y-111820000D01*
X213350130Y-111820000D01*
X213360498Y-111854180D01*
X213419463Y-111964494D01*
X213498815Y-112061185D01*
X213595506Y-112140537D01*
X213705820Y-112199502D01*
X213825518Y-112235812D01*
X213950000Y-112248072D01*
X217100000Y-112248072D01*
X217224482Y-112235812D01*
X217344180Y-112199502D01*
X217454494Y-112140537D01*
X217551185Y-112061185D01*
X217630537Y-111964494D01*
X217689502Y-111854180D01*
X217725812Y-111734482D01*
X217738072Y-111610000D01*
X217738072Y-110800000D01*
X227761928Y-110800000D01*
X227765000Y-111214250D01*
X227923750Y-111373000D01*
X228848000Y-111373000D01*
X228848000Y-110323750D01*
X228689250Y-110165000D01*
X228400000Y-110161928D01*
X228275518Y-110174188D01*
X228155820Y-110210498D01*
X228045506Y-110269463D01*
X227948815Y-110348815D01*
X227869463Y-110445506D01*
X227810498Y-110555820D01*
X227774188Y-110675518D01*
X227761928Y-110800000D01*
X217738072Y-110800000D01*
X217738072Y-110610000D01*
X217725812Y-110485518D01*
X217689502Y-110365820D01*
X217630537Y-110255506D01*
X217551185Y-110158815D01*
X217454494Y-110079463D01*
X217344180Y-110020498D01*
X217224482Y-109984188D01*
X217100000Y-109971928D01*
X215625909Y-109971928D01*
X215671008Y-109823255D01*
X215682163Y-109710000D01*
X215965124Y-109710000D01*
X215999999Y-109713435D01*
X216034874Y-109710000D01*
X220780306Y-109710000D01*
X220804528Y-109789851D01*
X220886595Y-109943387D01*
X220997038Y-110077962D01*
X221131613Y-110188405D01*
X221285149Y-110270472D01*
X221451745Y-110321008D01*
X221624999Y-110338072D01*
X222275001Y-110338072D01*
X222448255Y-110321008D01*
X222614851Y-110270472D01*
X222768387Y-110188405D01*
X222902962Y-110077962D01*
X222908342Y-110071406D01*
X222973815Y-110151185D01*
X223070506Y-110230537D01*
X223180820Y-110289502D01*
X223300518Y-110325812D01*
X223425000Y-110338072D01*
X223714250Y-110335000D01*
X223873000Y-110176250D01*
X223873000Y-109127000D01*
X224127000Y-109127000D01*
X224127000Y-110176250D01*
X224285750Y-110335000D01*
X224575000Y-110338072D01*
X224699482Y-110325812D01*
X224819180Y-110289502D01*
X224929494Y-110230537D01*
X225026185Y-110151185D01*
X225105537Y-110054494D01*
X225164502Y-109944180D01*
X225200812Y-109824482D01*
X225213072Y-109700000D01*
X225210000Y-109285750D01*
X225051250Y-109127000D01*
X224127000Y-109127000D01*
X223873000Y-109127000D01*
X223853000Y-109127000D01*
X223853000Y-108873000D01*
X223873000Y-108873000D01*
X223873000Y-107823750D01*
X224127000Y-107823750D01*
X224127000Y-108873000D01*
X225051250Y-108873000D01*
X225210000Y-108714250D01*
X225213072Y-108300000D01*
X225200812Y-108175518D01*
X225164502Y-108055820D01*
X225105537Y-107945506D01*
X225026185Y-107848815D01*
X224929494Y-107769463D01*
X224819180Y-107710498D01*
X224699482Y-107674188D01*
X224575000Y-107661928D01*
X224285750Y-107665000D01*
X224127000Y-107823750D01*
X223873000Y-107823750D01*
X223714250Y-107665000D01*
X223425000Y-107661928D01*
X223300518Y-107674188D01*
X223180820Y-107710498D01*
X223070506Y-107769463D01*
X222973815Y-107848815D01*
X222908342Y-107928594D01*
X222902962Y-107922038D01*
X222768387Y-107811595D01*
X222614851Y-107729528D01*
X222448255Y-107678992D01*
X222275001Y-107661928D01*
X221624999Y-107661928D01*
X221451745Y-107678992D01*
X221285149Y-107729528D01*
X221131613Y-107811595D01*
X220997038Y-107922038D01*
X220886595Y-108056613D01*
X220804528Y-108210149D01*
X220780306Y-108290000D01*
X216294092Y-108290000D01*
X215553029Y-107548938D01*
X215630537Y-107454494D01*
X215689502Y-107344180D01*
X215725812Y-107224482D01*
X215738072Y-107100000D01*
X215738072Y-105900000D01*
X215725812Y-105775518D01*
X215689502Y-105655820D01*
X215630537Y-105545506D01*
X215551185Y-105448815D01*
X215454494Y-105369463D01*
X215344180Y-105310498D01*
X215224482Y-105274188D01*
X215210000Y-105272762D01*
X215210000Y-98736428D01*
X220443177Y-98736428D01*
X220809365Y-99231216D01*
X221481837Y-99596501D01*
X222212650Y-99823575D01*
X222973721Y-99903710D01*
X223735803Y-99833828D01*
X224469608Y-99616614D01*
X225146936Y-99260416D01*
X225190635Y-99231216D01*
X225556823Y-98736428D01*
X223000000Y-96179605D01*
X220443177Y-98736428D01*
X215210000Y-98736428D01*
X215210000Y-95973721D01*
X219096290Y-95973721D01*
X219166172Y-96735803D01*
X219383386Y-97469608D01*
X219739584Y-98146936D01*
X219768784Y-98190635D01*
X220263572Y-98556823D01*
X222820395Y-96000000D01*
X223179605Y-96000000D01*
X225736428Y-98556823D01*
X226231216Y-98190635D01*
X226596501Y-97518163D01*
X226823575Y-96787350D01*
X226903710Y-96026279D01*
X226833828Y-95264197D01*
X226616614Y-94530392D01*
X226260416Y-93853064D01*
X226231216Y-93809365D01*
X225736428Y-93443177D01*
X223179605Y-96000000D01*
X222820395Y-96000000D01*
X220263572Y-93443177D01*
X219768784Y-93809365D01*
X219403499Y-94481837D01*
X219176425Y-95212650D01*
X219096290Y-95973721D01*
X215210000Y-95973721D01*
X215210000Y-93263572D01*
X220443177Y-93263572D01*
X223000000Y-95820395D01*
X225556823Y-93263572D01*
X225190635Y-92768784D01*
X224518163Y-92403499D01*
X223787350Y-92176425D01*
X223026279Y-92096290D01*
X222264197Y-92166172D01*
X221530392Y-92383386D01*
X220853064Y-92739584D01*
X220809365Y-92768784D01*
X220443177Y-93263572D01*
X215210000Y-93263572D01*
X215210000Y-80710000D01*
X226465125Y-80710000D01*
X226500000Y-80713435D01*
X226534875Y-80710000D01*
X226534877Y-80710000D01*
X226639184Y-80699727D01*
X226773020Y-80659128D01*
X226896363Y-80593200D01*
X227004475Y-80504475D01*
X227026712Y-80477379D01*
X227977379Y-79526712D01*
X228004475Y-79504475D01*
X228093200Y-79396363D01*
X228159128Y-79273020D01*
X228199727Y-79139184D01*
X228210000Y-79034877D01*
X228213435Y-79000000D01*
X228210000Y-78965123D01*
X228210000Y-56034877D01*
X228213435Y-56000000D01*
X228199727Y-55860816D01*
X228159128Y-55726980D01*
X228093200Y-55603637D01*
X228004475Y-55495525D01*
X227896363Y-55406800D01*
X227773020Y-55340872D01*
X227639184Y-55300273D01*
X227534877Y-55290000D01*
X227500000Y-55286565D01*
X227465123Y-55290000D01*
X225969608Y-55290000D01*
X225920449Y-55240841D01*
X226225770Y-55096865D01*
X226406597Y-54739108D01*
X226514155Y-54352947D01*
X226544310Y-53953223D01*
X226495904Y-53555296D01*
X226370795Y-53174460D01*
X226225770Y-52903135D01*
X225920447Y-52759158D01*
X224679605Y-54000000D01*
X224693748Y-54014143D01*
X224514143Y-54193748D01*
X224500000Y-54179605D01*
X224485858Y-54193748D01*
X224306253Y-54014143D01*
X224320395Y-54000000D01*
X223079553Y-52759158D01*
X222774230Y-52903135D01*
X222593403Y-53260892D01*
X222485845Y-53647053D01*
X222455690Y-54046777D01*
X222504096Y-54444704D01*
X222629205Y-54825540D01*
X222774230Y-55096865D01*
X223079551Y-55240841D01*
X223030392Y-55290000D01*
X222294092Y-55290000D01*
X219583645Y-52579553D01*
X223259158Y-52579553D01*
X224500000Y-53820395D01*
X225740842Y-52579553D01*
X225596865Y-52274230D01*
X225239108Y-52093403D01*
X224852947Y-51985845D01*
X224453223Y-51955690D01*
X224055296Y-52004096D01*
X223674460Y-52129205D01*
X223403135Y-52274230D01*
X223259158Y-52579553D01*
X219583645Y-52579553D01*
X213985000Y-46980909D01*
X213985000Y-46902986D01*
X213947147Y-46712686D01*
X213941893Y-46700000D01*
X216261928Y-46700000D01*
X216274188Y-46824482D01*
X216310498Y-46944180D01*
X216369463Y-47054494D01*
X216448815Y-47151185D01*
X216545506Y-47230537D01*
X216655820Y-47289502D01*
X216775518Y-47325812D01*
X216900000Y-47338072D01*
X217189250Y-47335000D01*
X217348000Y-47176250D01*
X217348000Y-46127000D01*
X216423750Y-46127000D01*
X216265000Y-46285750D01*
X216261928Y-46700000D01*
X213941893Y-46700000D01*
X213872896Y-46533428D01*
X213765099Y-46372099D01*
X213627901Y-46234901D01*
X213466572Y-46127104D01*
X213287314Y-46052853D01*
X213097014Y-46015000D01*
X212902986Y-46015000D01*
X212712686Y-46052853D01*
X212533428Y-46127104D01*
X212372099Y-46234901D01*
X212234901Y-46372099D01*
X212127104Y-46533428D01*
X212052853Y-46712686D01*
X212015000Y-46902986D01*
X212015000Y-47097014D01*
X212052853Y-47287314D01*
X212127104Y-47466572D01*
X212234901Y-47627901D01*
X212372099Y-47765099D01*
X212533428Y-47872896D01*
X212712686Y-47947147D01*
X212902986Y-47985000D01*
X212980909Y-47985000D01*
X221473292Y-56477384D01*
X221495525Y-56504475D01*
X221603637Y-56593200D01*
X221726980Y-56659128D01*
X221860816Y-56699727D01*
X221965123Y-56710000D01*
X221965124Y-56710000D01*
X221999999Y-56713435D01*
X222034874Y-56710000D01*
X226790000Y-56710000D01*
X226790000Y-60906643D01*
X226753793Y-60887290D01*
X226629383Y-60849550D01*
X226532419Y-60840000D01*
X226500000Y-60836807D01*
X226467581Y-60840000D01*
X199532419Y-60840000D01*
X199500000Y-60836807D01*
X199467581Y-60840000D01*
X199370617Y-60849550D01*
X199246207Y-60887290D01*
X199131550Y-60948575D01*
X199031052Y-61031052D01*
X198948575Y-61131550D01*
X198887290Y-61246207D01*
X198849550Y-61370617D01*
X198836807Y-61500000D01*
X193660000Y-61500000D01*
X193660000Y-55420447D01*
X200259158Y-55420447D01*
X200403135Y-55725770D01*
X200760892Y-55906597D01*
X201147053Y-56014155D01*
X201546777Y-56044310D01*
X201944704Y-55995904D01*
X202325540Y-55870795D01*
X202596865Y-55725770D01*
X202740842Y-55420447D01*
X201500000Y-54179605D01*
X200259158Y-55420447D01*
X193660000Y-55420447D01*
X193660000Y-54046777D01*
X199455690Y-54046777D01*
X199504096Y-54444704D01*
X199629205Y-54825540D01*
X199774230Y-55096865D01*
X200079553Y-55240842D01*
X201320395Y-54000000D01*
X201679605Y-54000000D01*
X202920447Y-55240842D01*
X203225770Y-55096865D01*
X203406597Y-54739108D01*
X203514155Y-54352947D01*
X203544310Y-53953223D01*
X203495904Y-53555296D01*
X203370795Y-53174460D01*
X203225770Y-52903135D01*
X202920447Y-52759158D01*
X201679605Y-54000000D01*
X201320395Y-54000000D01*
X200079553Y-52759158D01*
X199774230Y-52903135D01*
X199593403Y-53260892D01*
X199485845Y-53647053D01*
X199455690Y-54046777D01*
X193660000Y-54046777D01*
X193660000Y-52579553D01*
X200259158Y-52579553D01*
X201500000Y-53820395D01*
X202740842Y-52579553D01*
X202596865Y-52274230D01*
X202239108Y-52093403D01*
X201852947Y-51985845D01*
X201453223Y-51955690D01*
X201055296Y-52004096D01*
X200674460Y-52129205D01*
X200403135Y-52274230D01*
X200259158Y-52579553D01*
X193660000Y-52579553D01*
X193660000Y-44902986D01*
X212015000Y-44902986D01*
X212015000Y-45097014D01*
X212052853Y-45287314D01*
X212127104Y-45466572D01*
X212234901Y-45627901D01*
X212372099Y-45765099D01*
X212533428Y-45872896D01*
X212712686Y-45947147D01*
X212902986Y-45985000D01*
X213097014Y-45985000D01*
X213287314Y-45947147D01*
X213466572Y-45872896D01*
X213627901Y-45765099D01*
X213658010Y-45734990D01*
X216285740Y-45734990D01*
X216423750Y-45873000D01*
X217348000Y-45873000D01*
X217348000Y-45853000D01*
X217602000Y-45853000D01*
X217602000Y-45873000D01*
X217622000Y-45873000D01*
X217622000Y-46127000D01*
X217602000Y-46127000D01*
X217602000Y-47176250D01*
X217760750Y-47335000D01*
X218050000Y-47338072D01*
X218174482Y-47325812D01*
X218294180Y-47289502D01*
X218404494Y-47230537D01*
X218501185Y-47151185D01*
X218566658Y-47071406D01*
X218572038Y-47077962D01*
X218706613Y-47188405D01*
X218860149Y-47270472D01*
X219026745Y-47321008D01*
X219199999Y-47338072D01*
X219850001Y-47338072D01*
X220023255Y-47321008D01*
X220189851Y-47270472D01*
X220343387Y-47188405D01*
X220477962Y-47077962D01*
X220588405Y-46943387D01*
X220670472Y-46789851D01*
X220721008Y-46623255D01*
X220738072Y-46450001D01*
X220738072Y-45549999D01*
X220721008Y-45376745D01*
X220670472Y-45210149D01*
X220588405Y-45056613D01*
X220477962Y-44922038D01*
X220343387Y-44811595D01*
X220189851Y-44729528D01*
X220023255Y-44678992D01*
X219850001Y-44661928D01*
X219199999Y-44661928D01*
X219191824Y-44662733D01*
X219076702Y-44547611D01*
X219054465Y-44520515D01*
X218946353Y-44431790D01*
X218823010Y-44365862D01*
X218689174Y-44325263D01*
X218584867Y-44314990D01*
X218584865Y-44314990D01*
X218549990Y-44311555D01*
X218515115Y-44314990D01*
X213707990Y-44314990D01*
X213627901Y-44234901D01*
X213466572Y-44127104D01*
X213287314Y-44052853D01*
X213097014Y-44015000D01*
X212902986Y-44015000D01*
X212712686Y-44052853D01*
X212533428Y-44127104D01*
X212372099Y-44234901D01*
X212234901Y-44372099D01*
X212127104Y-44533428D01*
X212052853Y-44712686D01*
X212015000Y-44902986D01*
X193660000Y-44902986D01*
X193660000Y-39537162D01*
X195420333Y-39537162D01*
X195516975Y-39891038D01*
X195738519Y-40358331D01*
X196046970Y-40773424D01*
X196430475Y-41120365D01*
X196874296Y-41385822D01*
X197361377Y-41559593D01*
X197873000Y-41635000D01*
X199373000Y-41635000D01*
X199373000Y-39127000D01*
X199627000Y-39127000D01*
X199627000Y-41635000D01*
X201127000Y-41635000D01*
X201638623Y-41559593D01*
X202125704Y-41385822D01*
X202569525Y-41120365D01*
X202953030Y-40773424D01*
X203261481Y-40358331D01*
X203483025Y-39891038D01*
X203579667Y-39537162D01*
X222420333Y-39537162D01*
X222516975Y-39891038D01*
X222738519Y-40358331D01*
X223046970Y-40773424D01*
X223430475Y-41120365D01*
X223874296Y-41385822D01*
X224361377Y-41559593D01*
X224873000Y-41635000D01*
X226373000Y-41635000D01*
X226373000Y-39127000D01*
X226627000Y-39127000D01*
X226627000Y-41635000D01*
X228127000Y-41635000D01*
X228638623Y-41559593D01*
X229125704Y-41385822D01*
X229569525Y-41120365D01*
X229953030Y-40773424D01*
X230261481Y-40358331D01*
X230483025Y-39891038D01*
X230579667Y-39537162D01*
X230472991Y-39127000D01*
X226627000Y-39127000D01*
X226373000Y-39127000D01*
X222527009Y-39127000D01*
X222420333Y-39537162D01*
X203579667Y-39537162D01*
X203472991Y-39127000D01*
X199627000Y-39127000D01*
X199373000Y-39127000D01*
X195527009Y-39127000D01*
X195420333Y-39537162D01*
X193660000Y-39537162D01*
X193660000Y-36660000D01*
X196797686Y-36660000D01*
X196430475Y-36879635D01*
G04 #@! TA.AperFunction,Conductor*
D18*
G36*
X196430475Y-36879635D02*
G01*
X196046970Y-37226576D01*
X195738519Y-37641669D01*
X195516975Y-38108962D01*
X195420333Y-38462838D01*
X195527009Y-38873000D01*
X199373000Y-38873000D01*
X199373000Y-38853000D01*
X199627000Y-38853000D01*
X199627000Y-38873000D01*
X203472991Y-38873000D01*
X203579667Y-38462838D01*
X203483025Y-38108962D01*
X203261481Y-37641669D01*
X202953030Y-37226576D01*
X202569525Y-36879635D01*
X202202314Y-36660000D01*
X223797686Y-36660000D01*
X223430475Y-36879635D01*
X223046970Y-37226576D01*
X222738519Y-37641669D01*
X222516975Y-38108962D01*
X222420333Y-38462838D01*
X222527009Y-38873000D01*
X226373000Y-38873000D01*
X226373000Y-38853000D01*
X226627000Y-38853000D01*
X226627000Y-38873000D01*
X230472991Y-38873000D01*
X230579667Y-38462838D01*
X230483025Y-38108962D01*
X230261481Y-37641669D01*
X229953030Y-37226576D01*
X229569525Y-36879635D01*
X229202314Y-36660000D01*
X232340000Y-36660000D01*
X232340001Y-163340000D01*
X229202314Y-163340000D01*
X229569525Y-163120365D01*
X229953030Y-162773424D01*
X230261481Y-162358331D01*
X230483025Y-161891038D01*
X230579667Y-161537162D01*
X230472991Y-161127000D01*
X226627000Y-161127000D01*
X226627000Y-161147000D01*
X226373000Y-161147000D01*
X226373000Y-161127000D01*
X222527009Y-161127000D01*
X222420333Y-161537162D01*
X222516975Y-161891038D01*
X222738519Y-162358331D01*
X223046970Y-162773424D01*
X223430475Y-163120365D01*
X223797686Y-163340000D01*
X202202314Y-163340000D01*
X202569525Y-163120365D01*
X202953030Y-162773424D01*
X203261481Y-162358331D01*
X203483025Y-161891038D01*
X203579667Y-161537162D01*
X203472991Y-161127000D01*
X199627000Y-161127000D01*
X199627000Y-161147000D01*
X199373000Y-161147000D01*
X199373000Y-161127000D01*
X195527009Y-161127000D01*
X195420333Y-161537162D01*
X195516975Y-161891038D01*
X195738519Y-162358331D01*
X196046970Y-162773424D01*
X196430475Y-163120365D01*
X196797686Y-163340000D01*
X193660000Y-163340000D01*
X193660000Y-160462838D01*
X195420333Y-160462838D01*
X195527009Y-160873000D01*
X199373000Y-160873000D01*
X199373000Y-158365000D01*
X199627000Y-158365000D01*
X199627000Y-160873000D01*
X203472991Y-160873000D01*
X203579667Y-160462838D01*
X222420333Y-160462838D01*
X222527009Y-160873000D01*
X226373000Y-160873000D01*
X226373000Y-158365000D01*
X226627000Y-158365000D01*
X226627000Y-160873000D01*
X230472991Y-160873000D01*
X230579667Y-160462838D01*
X230483025Y-160108962D01*
X230261481Y-159641669D01*
X229953030Y-159226576D01*
X229569525Y-158879635D01*
X229125704Y-158614178D01*
X228638623Y-158440407D01*
X228127000Y-158365000D01*
X226627000Y-158365000D01*
X226373000Y-158365000D01*
X224873000Y-158365000D01*
X224361377Y-158440407D01*
X223874296Y-158614178D01*
X223430475Y-158879635D01*
X223046970Y-159226576D01*
X222738519Y-159641669D01*
X222516975Y-160108962D01*
X222420333Y-160462838D01*
X203579667Y-160462838D01*
X203483025Y-160108962D01*
X203261481Y-159641669D01*
X202953030Y-159226576D01*
X202569525Y-158879635D01*
X202125704Y-158614178D01*
X201638623Y-158440407D01*
X201127000Y-158365000D01*
X199627000Y-158365000D01*
X199373000Y-158365000D01*
X197873000Y-158365000D01*
X197361377Y-158440407D01*
X196874296Y-158614178D01*
X196430475Y-158879635D01*
X196046970Y-159226576D01*
X195738519Y-159641669D01*
X195516975Y-160108962D01*
X195420333Y-160462838D01*
X193660000Y-160462838D01*
X193660000Y-150170668D01*
X193681613Y-150188405D01*
X193835149Y-150270472D01*
X194001745Y-150321008D01*
X194174999Y-150338072D01*
X194825001Y-150338072D01*
X194998255Y-150321008D01*
X195164851Y-150270472D01*
X195318387Y-150188405D01*
X195452962Y-150077962D01*
X195458342Y-150071406D01*
X195523815Y-150151185D01*
X195620506Y-150230537D01*
X195730820Y-150289502D01*
X195850518Y-150325812D01*
X195975000Y-150338072D01*
X196264250Y-150335000D01*
X196423000Y-150176250D01*
X196423000Y-149127000D01*
X196677000Y-149127000D01*
X196677000Y-150176250D01*
X196835750Y-150335000D01*
X197125000Y-150338072D01*
X197249482Y-150325812D01*
X197369180Y-150289502D01*
X197479494Y-150230537D01*
X197576185Y-150151185D01*
X197655537Y-150054494D01*
X197714502Y-149944180D01*
X197750812Y-149824482D01*
X197763072Y-149700000D01*
X197760000Y-149285750D01*
X197601250Y-149127000D01*
X196677000Y-149127000D01*
X196423000Y-149127000D01*
X196403000Y-149127000D01*
X196403000Y-148873000D01*
X196423000Y-148873000D01*
X196423000Y-147823750D01*
X196677000Y-147823750D01*
X196677000Y-148873000D01*
X197601250Y-148873000D01*
X197760000Y-148714250D01*
X197763072Y-148300000D01*
X197750812Y-148175518D01*
X197714502Y-148055820D01*
X197655537Y-147945506D01*
X197576185Y-147848815D01*
X197479494Y-147769463D01*
X197369180Y-147710498D01*
X197249482Y-147674188D01*
X197125000Y-147661928D01*
X196835750Y-147665000D01*
X196677000Y-147823750D01*
X196423000Y-147823750D01*
X196264250Y-147665000D01*
X195975000Y-147661928D01*
X195850518Y-147674188D01*
X195730820Y-147710498D01*
X195620506Y-147769463D01*
X195523815Y-147848815D01*
X195458342Y-147928594D01*
X195452962Y-147922038D01*
X195318387Y-147811595D01*
X195236347Y-147767744D01*
X196019092Y-146985000D01*
X196097014Y-146985000D01*
X196287314Y-146947147D01*
X196466572Y-146872896D01*
X196627901Y-146765099D01*
X196765099Y-146627901D01*
X196872896Y-146466572D01*
X196947147Y-146287314D01*
X196985000Y-146097014D01*
X196985000Y-145989091D01*
X199998289Y-149002380D01*
X200020526Y-149029476D01*
X200128638Y-149118201D01*
X200251981Y-149184129D01*
X200385817Y-149224728D01*
X200490124Y-149235001D01*
X200490126Y-149235001D01*
X200525001Y-149238436D01*
X200559876Y-149235001D01*
X209095124Y-149235001D01*
X209129999Y-149238436D01*
X209164874Y-149235001D01*
X209164876Y-149235001D01*
X209269183Y-149224728D01*
X209403019Y-149184129D01*
X209526362Y-149118201D01*
X209634474Y-149029476D01*
X209656711Y-149002380D01*
X210309091Y-148350000D01*
X212761928Y-148350000D01*
X212761928Y-149350000D01*
X212774188Y-149474482D01*
X212810498Y-149594180D01*
X212869463Y-149704494D01*
X212948815Y-149801185D01*
X213045506Y-149880537D01*
X213155820Y-149939502D01*
X213275518Y-149975812D01*
X213400000Y-149988072D01*
X215910000Y-149988072D01*
X216034482Y-149975812D01*
X216154180Y-149939502D01*
X216264494Y-149880537D01*
X216361185Y-149801185D01*
X216440537Y-149704494D01*
X216442939Y-149700000D01*
X227736928Y-149700000D01*
X227749188Y-149824482D01*
X227785498Y-149944180D01*
X227844463Y-150054494D01*
X227923815Y-150151185D01*
X228020506Y-150230537D01*
X228130820Y-150289502D01*
X228250518Y-150325812D01*
X228375000Y-150338072D01*
X228664250Y-150335000D01*
X228823000Y-150176250D01*
X228823000Y-149127000D01*
X227898750Y-149127000D01*
X227740000Y-149285750D01*
X227736928Y-149700000D01*
X216442939Y-149700000D01*
X216499502Y-149594180D01*
X216509870Y-149560000D01*
X225115125Y-149560000D01*
X225150000Y-149563435D01*
X225184875Y-149560000D01*
X225184877Y-149560000D01*
X225289184Y-149549727D01*
X225423020Y-149509128D01*
X225546363Y-149443200D01*
X225654475Y-149354475D01*
X225676712Y-149327379D01*
X226704091Y-148300000D01*
X227736928Y-148300000D01*
X227740000Y-148714250D01*
X227898750Y-148873000D01*
X228823000Y-148873000D01*
X228823000Y-147823750D01*
X228664250Y-147665000D01*
X228375000Y-147661928D01*
X228250518Y-147674188D01*
X228130820Y-147710498D01*
X228020506Y-147769463D01*
X227923815Y-147848815D01*
X227844463Y-147945506D01*
X227785498Y-148055820D01*
X227749188Y-148175518D01*
X227736928Y-148300000D01*
X226704091Y-148300000D01*
X229015000Y-145989091D01*
X229015000Y-146097014D01*
X229052853Y-146287314D01*
X229127104Y-146466572D01*
X229234901Y-146627901D01*
X229372099Y-146765099D01*
X229533428Y-146872896D01*
X229712686Y-146947147D01*
X229902986Y-146985000D01*
X229980909Y-146985000D01*
X230290001Y-147294092D01*
X230290001Y-147753660D01*
X230181613Y-147811595D01*
X230047038Y-147922038D01*
X230041658Y-147928594D01*
X229976185Y-147848815D01*
X229879494Y-147769463D01*
X229769180Y-147710498D01*
X229649482Y-147674188D01*
X229525000Y-147661928D01*
X229235750Y-147665000D01*
X229077000Y-147823750D01*
X229077000Y-148873000D01*
X229097000Y-148873000D01*
X229097000Y-149127000D01*
X229077000Y-149127000D01*
X229077000Y-150176250D01*
X229235750Y-150335000D01*
X229525000Y-150338072D01*
X229649482Y-150325812D01*
X229769180Y-150289502D01*
X229879494Y-150230537D01*
X229976185Y-150151185D01*
X230041658Y-150071406D01*
X230047038Y-150077962D01*
X230181613Y-150188405D01*
X230335149Y-150270472D01*
X230501745Y-150321008D01*
X230674999Y-150338072D01*
X231325001Y-150338072D01*
X231498255Y-150321008D01*
X231664851Y-150270472D01*
X231818387Y-150188405D01*
X231952962Y-150077962D01*
X232063405Y-149943387D01*
X232145472Y-149789851D01*
X232196008Y-149623255D01*
X232213072Y-149450001D01*
X232213072Y-148549999D01*
X232196008Y-148376745D01*
X232145472Y-148210149D01*
X232063405Y-148056613D01*
X231952962Y-147922038D01*
X231818387Y-147811595D01*
X231710000Y-147753661D01*
X231710000Y-147034877D01*
X231713435Y-147000000D01*
X231699727Y-146860815D01*
X231659128Y-146726980D01*
X231593199Y-146603636D01*
X231576280Y-146583020D01*
X231504475Y-146495525D01*
X231477379Y-146473288D01*
X230985000Y-145980909D01*
X230985000Y-145902986D01*
X230947147Y-145712686D01*
X230872896Y-145533428D01*
X230765099Y-145372099D01*
X230627901Y-145234901D01*
X230466572Y-145127104D01*
X230287314Y-145052853D01*
X230097014Y-145015000D01*
X229989091Y-145015000D01*
X230019091Y-144985000D01*
X230097014Y-144985000D01*
X230287314Y-144947147D01*
X230466572Y-144872896D01*
X230627901Y-144765099D01*
X230765099Y-144627901D01*
X230872896Y-144466572D01*
X230947147Y-144287314D01*
X230985000Y-144097014D01*
X230985000Y-143902986D01*
X230947147Y-143712686D01*
X230872896Y-143533428D01*
X230765099Y-143372099D01*
X230627901Y-143234901D01*
X230466572Y-143127104D01*
X230287314Y-143052853D01*
X230097014Y-143015000D01*
X229902986Y-143015000D01*
X229712686Y-143052853D01*
X229533428Y-143127104D01*
X229372099Y-143234901D01*
X229234901Y-143372099D01*
X229127104Y-143533428D01*
X229052853Y-143712686D01*
X229015000Y-143902986D01*
X229015000Y-143980909D01*
X226650033Y-146345876D01*
X226823575Y-145787350D01*
X226903710Y-145026279D01*
X226833828Y-144264197D01*
X226616614Y-143530392D01*
X226260416Y-142853064D01*
X226231216Y-142809365D01*
X225736428Y-142443177D01*
X223179605Y-145000000D01*
X223193748Y-145014143D01*
X223014143Y-145193748D01*
X223000000Y-145179605D01*
X220443177Y-147736428D01*
X220741857Y-148140000D01*
X216509870Y-148140000D01*
X216499502Y-148105820D01*
X216440537Y-147995506D01*
X216361185Y-147898815D01*
X216264494Y-147819463D01*
X216154180Y-147760498D01*
X216034482Y-147724188D01*
X215910000Y-147711928D01*
X213400000Y-147711928D01*
X213275518Y-147724188D01*
X213155820Y-147760498D01*
X213045506Y-147819463D01*
X212948815Y-147898815D01*
X212869463Y-147995506D01*
X212810498Y-148105820D01*
X212774188Y-148225518D01*
X212761928Y-148350000D01*
X210309091Y-148350000D01*
X211211020Y-147448072D01*
X212600000Y-147448072D01*
X212724482Y-147435812D01*
X212844180Y-147399502D01*
X212954494Y-147340537D01*
X213051185Y-147261185D01*
X213130537Y-147164494D01*
X213189502Y-147054180D01*
X213225812Y-146934482D01*
X213238072Y-146810000D01*
X213238072Y-145810000D01*
X213225812Y-145685518D01*
X213189502Y-145565820D01*
X213130537Y-145455506D01*
X213051185Y-145358815D01*
X212954494Y-145279463D01*
X212844180Y-145220498D01*
X212724482Y-145184188D01*
X212600000Y-145171928D01*
X210090000Y-145171928D01*
X209965518Y-145184188D01*
X209845820Y-145220498D01*
X209735506Y-145279463D01*
X209638815Y-145358815D01*
X209559463Y-145455506D01*
X209500498Y-145565820D01*
X209464188Y-145685518D01*
X209451928Y-145810000D01*
X209451928Y-146810000D01*
X209464188Y-146934482D01*
X209500498Y-147054180D01*
X209534018Y-147116891D01*
X208835908Y-147815001D01*
X205573673Y-147815001D01*
X205631824Y-147736428D01*
X203075001Y-145179605D01*
X203060859Y-145193748D01*
X202881254Y-145014143D01*
X202895396Y-145000000D01*
X203254606Y-145000000D01*
X205811429Y-147556823D01*
X206306217Y-147190635D01*
X206671502Y-146518163D01*
X206898576Y-145787350D01*
X206978711Y-145026279D01*
X206973892Y-144973721D01*
X219096290Y-144973721D01*
X219166172Y-145735803D01*
X219383386Y-146469608D01*
X219739584Y-147146936D01*
X219768784Y-147190635D01*
X220263572Y-147556823D01*
X222820395Y-145000000D01*
X220263572Y-142443177D01*
X219768784Y-142809365D01*
X219403499Y-143481837D01*
X219176425Y-144212650D01*
X219096290Y-144973721D01*
X206973892Y-144973721D01*
X206908829Y-144264197D01*
X206691615Y-143530392D01*
X206335417Y-142853064D01*
X206306217Y-142809365D01*
X205811429Y-142443177D01*
X203254606Y-145000000D01*
X202895396Y-145000000D01*
X200338573Y-142443177D01*
X199843785Y-142809365D01*
X199478500Y-143481837D01*
X199251426Y-144212650D01*
X199171291Y-144973721D01*
X199241173Y-145735803D01*
X199451949Y-146447858D01*
X196985007Y-143980916D01*
X196985007Y-143902993D01*
X196947154Y-143712693D01*
X196872903Y-143533435D01*
X196765106Y-143372106D01*
X196627908Y-143234908D01*
X196466579Y-143127111D01*
X196287321Y-143052860D01*
X196097021Y-143015007D01*
X195902993Y-143015007D01*
X195712693Y-143052860D01*
X195533435Y-143127111D01*
X195372106Y-143234908D01*
X195234908Y-143372106D01*
X195127111Y-143533435D01*
X195052860Y-143712693D01*
X195015007Y-143902993D01*
X195015007Y-144097021D01*
X195052860Y-144287321D01*
X195127111Y-144466579D01*
X195234908Y-144627908D01*
X195372106Y-144765106D01*
X195533435Y-144872903D01*
X195712693Y-144947154D01*
X195902993Y-144985007D01*
X195980916Y-144985007D01*
X196010909Y-145015000D01*
X195902986Y-145015000D01*
X195712686Y-145052853D01*
X195533428Y-145127104D01*
X195372099Y-145234901D01*
X195234901Y-145372099D01*
X195127104Y-145533428D01*
X195052853Y-145712686D01*
X195015000Y-145902986D01*
X195015000Y-145980908D01*
X194022617Y-146973292D01*
X193995525Y-146995526D01*
X193906800Y-147103638D01*
X193840872Y-147226981D01*
X193800273Y-147360817D01*
X193790000Y-147465123D01*
X193786565Y-147500000D01*
X193790000Y-147534875D01*
X193790000Y-147753661D01*
X193681613Y-147811595D01*
X193660000Y-147829332D01*
X193660000Y-125902994D01*
X195015000Y-125902994D01*
X195015000Y-126097022D01*
X195052853Y-126287322D01*
X195127104Y-126466580D01*
X195234901Y-126627909D01*
X195290001Y-126683009D01*
X195290000Y-132465125D01*
X195286565Y-132500000D01*
X195290000Y-132534875D01*
X195290000Y-132534876D01*
X195300273Y-132639183D01*
X195340872Y-132773019D01*
X195406800Y-132896362D01*
X195495525Y-133004474D01*
X195522617Y-133026708D01*
X203649971Y-141154063D01*
X203101280Y-141096290D01*
X202339198Y-141166172D01*
X201605393Y-141383386D01*
X200928065Y-141739584D01*
X200884366Y-141768784D01*
X200518178Y-142263572D01*
X203075001Y-144820395D01*
X205631824Y-142263572D01*
X205392351Y-141940000D01*
X209490130Y-141940000D01*
X209500498Y-141974180D01*
X209559463Y-142084494D01*
X209638815Y-142181185D01*
X209735506Y-142260537D01*
X209845820Y-142319502D01*
X209965518Y-142355812D01*
X210090000Y-142368072D01*
X212600000Y-142368072D01*
X212724482Y-142355812D01*
X212844180Y-142319502D01*
X212954494Y-142260537D01*
X213051185Y-142181185D01*
X213130537Y-142084494D01*
X213189502Y-141974180D01*
X213225812Y-141854482D01*
X213238072Y-141730000D01*
X213238072Y-140730000D01*
X213225812Y-140605518D01*
X213189502Y-140485820D01*
X213130537Y-140375506D01*
X213051185Y-140278815D01*
X212954494Y-140199463D01*
X212844180Y-140140498D01*
X212724482Y-140104188D01*
X212600000Y-140091928D01*
X210090000Y-140091928D01*
X209965518Y-140104188D01*
X209845820Y-140140498D01*
X209735506Y-140199463D01*
X209638815Y-140278815D01*
X209559463Y-140375506D01*
X209500498Y-140485820D01*
X209490130Y-140520000D01*
X205024092Y-140520000D01*
X202694092Y-138190000D01*
X212761928Y-138190000D01*
X212761928Y-139190000D01*
X212774188Y-139314482D01*
X212810498Y-139434180D01*
X212869463Y-139544494D01*
X212948815Y-139641185D01*
X213045506Y-139720537D01*
X213155820Y-139779502D01*
X213275518Y-139815812D01*
X213400000Y-139828072D01*
X215167837Y-139828072D01*
X214177617Y-140818292D01*
X214150526Y-140840525D01*
X214128293Y-140867616D01*
X214061801Y-140948637D01*
X213995872Y-141071981D01*
X213955274Y-141205816D01*
X213941565Y-141345000D01*
X213945001Y-141379885D01*
X213945000Y-142631928D01*
X213400000Y-142631928D01*
X213275518Y-142644188D01*
X213155820Y-142680498D01*
X213045506Y-142739463D01*
X212948815Y-142818815D01*
X212869463Y-142915506D01*
X212810498Y-143025820D01*
X212774188Y-143145518D01*
X212761928Y-143270000D01*
X212761928Y-144270000D01*
X212774188Y-144394482D01*
X212810498Y-144514180D01*
X212869463Y-144624494D01*
X212948815Y-144721185D01*
X213045506Y-144800537D01*
X213155820Y-144859502D01*
X213275518Y-144895812D01*
X213400000Y-144908072D01*
X215910000Y-144908072D01*
X216034482Y-144895812D01*
X216154180Y-144859502D01*
X216264494Y-144800537D01*
X216361185Y-144721185D01*
X216440537Y-144624494D01*
X216499502Y-144514180D01*
X216535812Y-144394482D01*
X216548072Y-144270000D01*
X216548072Y-143270000D01*
X216535812Y-143145518D01*
X216499502Y-143025820D01*
X216440537Y-142915506D01*
X216361185Y-142818815D01*
X216264494Y-142739463D01*
X216154180Y-142680498D01*
X216034482Y-142644188D01*
X215910000Y-142631928D01*
X215365000Y-142631928D01*
X215365000Y-142263572D01*
X220443177Y-142263572D01*
X223000000Y-144820395D01*
X225556823Y-142263572D01*
X225190635Y-141768784D01*
X224518163Y-141403499D01*
X223787350Y-141176425D01*
X223026279Y-141096290D01*
X222264197Y-141166172D01*
X221530392Y-141383386D01*
X220853064Y-141739584D01*
X220809365Y-141768784D01*
X220443177Y-142263572D01*
X215365000Y-142263572D01*
X215365000Y-141639091D01*
X230019092Y-126985000D01*
X230097014Y-126985000D01*
X230287314Y-126947147D01*
X230466572Y-126872896D01*
X230627901Y-126765099D01*
X230765099Y-126627901D01*
X230872896Y-126466572D01*
X230947147Y-126287314D01*
X230985000Y-126097014D01*
X230985000Y-125902986D01*
X230947147Y-125712686D01*
X230872896Y-125533428D01*
X230765099Y-125372099D01*
X230627901Y-125234901D01*
X230466572Y-125127104D01*
X230287314Y-125052853D01*
X230097014Y-125015000D01*
X229902986Y-125015000D01*
X229712686Y-125052853D01*
X229533428Y-125127104D01*
X229372099Y-125234901D01*
X229234901Y-125372099D01*
X229127104Y-125533428D01*
X229052853Y-125712686D01*
X229015000Y-125902986D01*
X229015000Y-125980908D01*
X216548072Y-138447837D01*
X216548072Y-138190000D01*
X216535812Y-138065518D01*
X216499502Y-137945820D01*
X216465982Y-137883109D01*
X219952388Y-134396704D01*
X219979473Y-134374476D01*
X220001703Y-134347389D01*
X220001706Y-134347386D01*
X220053234Y-134284599D01*
X220068199Y-134266364D01*
X220134127Y-134143021D01*
X220174726Y-134009185D01*
X220184999Y-133904878D01*
X220184999Y-133904876D01*
X220188434Y-133870001D01*
X220184999Y-133835126D01*
X220184999Y-127736428D01*
X220443177Y-127736428D01*
X220809365Y-128231216D01*
X221481837Y-128596501D01*
X222212650Y-128823575D01*
X222973721Y-128903710D01*
X223735803Y-128833828D01*
X224469608Y-128616614D01*
X225146936Y-128260416D01*
X225190635Y-128231216D01*
X225556823Y-127736428D01*
X223000000Y-125179605D01*
X220443177Y-127736428D01*
X220184999Y-127736428D01*
X220184999Y-127498672D01*
X220263572Y-127556823D01*
X222820395Y-125000000D01*
X223179605Y-125000000D01*
X225736428Y-127556823D01*
X226231216Y-127190635D01*
X226596501Y-126518163D01*
X226823575Y-125787350D01*
X226903710Y-125026279D01*
X226833828Y-124264197D01*
X226726906Y-123902986D01*
X229015000Y-123902986D01*
X229015000Y-124097014D01*
X229052853Y-124287314D01*
X229127104Y-124466572D01*
X229234901Y-124627901D01*
X229372099Y-124765099D01*
X229533428Y-124872896D01*
X229712686Y-124947147D01*
X229902986Y-124985000D01*
X230097014Y-124985000D01*
X230287314Y-124947147D01*
X230466572Y-124872896D01*
X230627901Y-124765099D01*
X230765099Y-124627901D01*
X230872896Y-124466572D01*
X230947147Y-124287314D01*
X230985000Y-124097014D01*
X230985000Y-124019091D01*
X231477379Y-123526712D01*
X231504475Y-123504475D01*
X231593200Y-123396363D01*
X231659128Y-123273020D01*
X231659399Y-123272126D01*
X231664851Y-123270472D01*
X231818387Y-123188405D01*
X231952962Y-123077962D01*
X232063405Y-122943387D01*
X232145472Y-122789851D01*
X232196008Y-122623255D01*
X232213072Y-122450001D01*
X232213072Y-121549999D01*
X232196008Y-121376745D01*
X232145472Y-121210149D01*
X232063405Y-121056613D01*
X231952962Y-120922038D01*
X231818387Y-120811595D01*
X231664851Y-120729528D01*
X231498255Y-120678992D01*
X231325001Y-120661928D01*
X230674999Y-120661928D01*
X230501745Y-120678992D01*
X230335149Y-120729528D01*
X230181613Y-120811595D01*
X230047038Y-120922038D01*
X230041658Y-120928594D01*
X229976185Y-120848815D01*
X229879494Y-120769463D01*
X229769180Y-120710498D01*
X229649482Y-120674188D01*
X229525000Y-120661928D01*
X229235750Y-120665000D01*
X229077000Y-120823750D01*
X229077000Y-121873000D01*
X229097000Y-121873000D01*
X229097000Y-122127000D01*
X229077000Y-122127000D01*
X229077000Y-123176250D01*
X229235750Y-123335000D01*
X229271619Y-123335381D01*
X229234901Y-123372099D01*
X229127104Y-123533428D01*
X229052853Y-123712686D01*
X229015000Y-123902986D01*
X226726906Y-123902986D01*
X226616614Y-123530392D01*
X226260416Y-122853064D01*
X226231216Y-122809365D01*
X226083444Y-122700000D01*
X227736928Y-122700000D01*
X227749188Y-122824482D01*
X227785498Y-122944180D01*
X227844463Y-123054494D01*
X227923815Y-123151185D01*
X228020506Y-123230537D01*
X228130820Y-123289502D01*
X228250518Y-123325812D01*
X228375000Y-123338072D01*
X228664250Y-123335000D01*
X228823000Y-123176250D01*
X228823000Y-122127000D01*
X227898750Y-122127000D01*
X227740000Y-122285750D01*
X227736928Y-122700000D01*
X226083444Y-122700000D01*
X225736428Y-122443177D01*
X223179605Y-125000000D01*
X222820395Y-125000000D01*
X222806253Y-124985858D01*
X222985858Y-124806253D01*
X223000000Y-124820395D01*
X225556823Y-122263572D01*
X225209635Y-121794456D01*
X225704091Y-121300000D01*
X227736928Y-121300000D01*
X227740000Y-121714250D01*
X227898750Y-121873000D01*
X228823000Y-121873000D01*
X228823000Y-120823750D01*
X228664250Y-120665000D01*
X228375000Y-120661928D01*
X228250518Y-120674188D01*
X228130820Y-120710498D01*
X228020506Y-120769463D01*
X227923815Y-120848815D01*
X227844463Y-120945506D01*
X227785498Y-121055820D01*
X227749188Y-121175518D01*
X227736928Y-121300000D01*
X225704091Y-121300000D01*
X230019091Y-116985000D01*
X230097014Y-116985000D01*
X230287314Y-116947147D01*
X230466572Y-116872896D01*
X230627901Y-116765099D01*
X230765099Y-116627901D01*
X230872896Y-116466572D01*
X230947147Y-116287314D01*
X230985000Y-116097014D01*
X230985000Y-115902986D01*
X230947147Y-115712686D01*
X230872896Y-115533428D01*
X230765099Y-115372099D01*
X230627901Y-115234901D01*
X230466572Y-115127104D01*
X230287314Y-115052853D01*
X230097014Y-115015000D01*
X229902986Y-115015000D01*
X229712686Y-115052853D01*
X229533428Y-115127104D01*
X229372099Y-115234901D01*
X229234901Y-115372099D01*
X229127104Y-115533428D01*
X229052853Y-115712686D01*
X229015000Y-115902986D01*
X229015000Y-115980909D01*
X224230910Y-120764999D01*
X221342873Y-120764999D01*
X221307998Y-120761564D01*
X221273123Y-120764999D01*
X221273122Y-120764999D01*
X221168815Y-120775272D01*
X221034979Y-120815871D01*
X220926906Y-120873637D01*
X220911634Y-120881800D01*
X220844439Y-120936946D01*
X220803524Y-120970524D01*
X220781291Y-120997615D01*
X218997616Y-122781291D01*
X218970525Y-122803524D01*
X218948292Y-122830615D01*
X218881800Y-122911636D01*
X218815871Y-123034980D01*
X218775273Y-123168815D01*
X218761564Y-123307999D01*
X218765000Y-123342884D01*
X218764999Y-133575909D01*
X214788981Y-137551928D01*
X213400000Y-137551928D01*
X213275518Y-137564188D01*
X213155820Y-137600498D01*
X213045506Y-137659463D01*
X212948815Y-137738815D01*
X212869463Y-137835506D01*
X212810498Y-137945820D01*
X212774188Y-138065518D01*
X212761928Y-138190000D01*
X202694092Y-138190000D01*
X198204092Y-133700000D01*
X200736928Y-133700000D01*
X200749188Y-133824482D01*
X200785498Y-133944180D01*
X200844463Y-134054494D01*
X200923815Y-134151185D01*
X201020506Y-134230537D01*
X201130820Y-134289502D01*
X201250518Y-134325812D01*
X201375000Y-134338072D01*
X201664250Y-134335000D01*
X201823000Y-134176250D01*
X201823000Y-133127000D01*
X200898750Y-133127000D01*
X200740000Y-133285750D01*
X200736928Y-133700000D01*
X198204092Y-133700000D01*
X196710000Y-132205909D01*
X196710000Y-126683008D01*
X196765099Y-126627909D01*
X196872896Y-126466580D01*
X196947147Y-126287322D01*
X196985000Y-126097022D01*
X196985000Y-125902994D01*
X196947147Y-125712694D01*
X196872896Y-125533436D01*
X196765099Y-125372107D01*
X196627901Y-125234909D01*
X196466572Y-125127112D01*
X196287314Y-125052861D01*
X196097014Y-125015008D01*
X195902986Y-125015008D01*
X195712686Y-125052861D01*
X195533428Y-125127112D01*
X195372099Y-125234909D01*
X195234901Y-125372107D01*
X195127104Y-125533436D01*
X195052853Y-125712694D01*
X195015000Y-125902994D01*
X193660000Y-125902994D01*
X193660000Y-121049999D01*
X193761928Y-121049999D01*
X193761928Y-121950001D01*
X193778992Y-122123255D01*
X193829528Y-122289851D01*
X193911595Y-122443387D01*
X194022038Y-122577962D01*
X194156613Y-122688405D01*
X194265001Y-122746340D01*
X194265001Y-122940116D01*
X194261565Y-122975000D01*
X194275274Y-123114184D01*
X194315872Y-123248019D01*
X194364007Y-123338072D01*
X194381801Y-123371363D01*
X194470526Y-123479475D01*
X194497617Y-123501708D01*
X195015000Y-124019091D01*
X195015000Y-124097014D01*
X195052853Y-124287314D01*
X195127104Y-124466572D01*
X195234901Y-124627901D01*
X195372099Y-124765099D01*
X195533428Y-124872896D01*
X195712686Y-124947147D01*
X195902986Y-124985000D01*
X196097014Y-124985000D01*
X196287314Y-124947147D01*
X196466572Y-124872896D01*
X196627901Y-124765099D01*
X196765099Y-124627901D01*
X196872896Y-124466572D01*
X196947147Y-124287314D01*
X196985000Y-124097014D01*
X196985000Y-123902986D01*
X196947147Y-123712686D01*
X196872896Y-123533428D01*
X196765099Y-123372099D01*
X196627901Y-123234901D01*
X196466572Y-123127104D01*
X196287314Y-123052853D01*
X196097014Y-123015000D01*
X196019091Y-123015000D01*
X195727639Y-122723548D01*
X195793387Y-122688405D01*
X195927962Y-122577962D01*
X195933342Y-122571406D01*
X195998815Y-122651185D01*
X196095506Y-122730537D01*
X196205820Y-122789502D01*
X196325518Y-122825812D01*
X196450000Y-122838072D01*
X196739250Y-122835000D01*
X196898000Y-122676250D01*
X196898000Y-121627000D01*
X196878000Y-121627000D01*
X196878000Y-121373000D01*
X196898000Y-121373000D01*
X196898000Y-120323750D01*
X196739250Y-120165000D01*
X196450000Y-120161928D01*
X196325518Y-120174188D01*
X196205820Y-120210498D01*
X196095506Y-120269463D01*
X195998815Y-120348815D01*
X195933342Y-120428594D01*
X195927962Y-120422038D01*
X195793387Y-120311595D01*
X195639851Y-120229528D01*
X195473255Y-120178992D01*
X195300001Y-120161928D01*
X194649999Y-120161928D01*
X194476745Y-120178992D01*
X194310149Y-120229528D01*
X194156613Y-120311595D01*
X194022038Y-120422038D01*
X193911595Y-120556613D01*
X193829528Y-120710149D01*
X193778992Y-120876745D01*
X193761928Y-121049999D01*
X193660000Y-121049999D01*
X193660000Y-111049999D01*
X193786928Y-111049999D01*
X193786928Y-111950001D01*
X193803992Y-112123255D01*
X193854528Y-112289851D01*
X193936595Y-112443387D01*
X194047038Y-112577962D01*
X194181613Y-112688405D01*
X194290000Y-112746339D01*
X194290001Y-114965115D01*
X194286565Y-115000000D01*
X194300274Y-115139184D01*
X194340872Y-115273019D01*
X194393832Y-115372099D01*
X194406801Y-115396363D01*
X194495526Y-115504475D01*
X194522616Y-115526707D01*
X195015000Y-116019091D01*
X195015000Y-116097014D01*
X195052853Y-116287314D01*
X195127104Y-116466572D01*
X195234901Y-116627901D01*
X195372099Y-116765099D01*
X195533428Y-116872896D01*
X195712686Y-116947147D01*
X195902986Y-116985000D01*
X196097014Y-116985000D01*
X196287314Y-116947147D01*
X196466572Y-116872896D01*
X196627901Y-116765099D01*
X196765099Y-116627901D01*
X196872896Y-116466572D01*
X196947147Y-116287314D01*
X196985000Y-116097014D01*
X196985000Y-115902986D01*
X196947147Y-115712686D01*
X196872896Y-115533428D01*
X196765099Y-115372099D01*
X196627901Y-115234901D01*
X196466572Y-115127104D01*
X196287314Y-115052853D01*
X196097014Y-115015000D01*
X196019091Y-115015000D01*
X195989091Y-114985000D01*
X196097014Y-114985000D01*
X196287314Y-114947147D01*
X196466572Y-114872896D01*
X196627901Y-114765099D01*
X196683000Y-114710000D01*
X196705909Y-114710000D01*
X197290001Y-115294092D01*
X197290001Y-120185749D01*
X197152000Y-120323750D01*
X197152000Y-121373000D01*
X197172000Y-121373000D01*
X197172000Y-121627000D01*
X197152000Y-121627000D01*
X197152000Y-122676250D01*
X197290000Y-122814250D01*
X197290000Y-127118377D01*
X197286565Y-127153252D01*
X197290000Y-127188127D01*
X197290000Y-127188128D01*
X197300273Y-127292435D01*
X197340872Y-127426271D01*
X197406800Y-127549614D01*
X197495525Y-127657726D01*
X197522617Y-127679960D01*
X201505975Y-131663319D01*
X201375000Y-131661928D01*
X201250518Y-131674188D01*
X201130820Y-131710498D01*
X201020506Y-131769463D01*
X200923815Y-131848815D01*
X200844463Y-131945506D01*
X200785498Y-132055820D01*
X200749188Y-132175518D01*
X200736928Y-132300000D01*
X200740000Y-132714250D01*
X200898750Y-132873000D01*
X201823000Y-132873000D01*
X201823000Y-132853000D01*
X202077000Y-132853000D01*
X202077000Y-132873000D01*
X202097000Y-132873000D01*
X202097000Y-133127000D01*
X202077000Y-133127000D01*
X202077000Y-134176250D01*
X202235750Y-134335000D01*
X202489990Y-134337700D01*
X202489990Y-135165115D01*
X202486555Y-135199990D01*
X202489990Y-135234865D01*
X202489990Y-135234866D01*
X202500263Y-135339173D01*
X202540862Y-135473009D01*
X202606790Y-135596352D01*
X202695515Y-135704464D01*
X202722607Y-135726698D01*
X203623292Y-136627384D01*
X203645525Y-136654475D01*
X203753637Y-136743200D01*
X203876980Y-136809128D01*
X204010816Y-136849727D01*
X204115123Y-136860000D01*
X204115124Y-136860000D01*
X204149999Y-136863435D01*
X204184874Y-136860000D01*
X209490130Y-136860000D01*
X209500498Y-136894180D01*
X209559463Y-137004494D01*
X209638815Y-137101185D01*
X209735506Y-137180537D01*
X209845820Y-137239502D01*
X209965518Y-137275812D01*
X210090000Y-137288072D01*
X212600000Y-137288072D01*
X212724482Y-137275812D01*
X212844180Y-137239502D01*
X212954494Y-137180537D01*
X213051185Y-137101185D01*
X213130537Y-137004494D01*
X213189502Y-136894180D01*
X213225812Y-136774482D01*
X213238072Y-136650000D01*
X213238072Y-135650000D01*
X213225812Y-135525518D01*
X213189502Y-135405820D01*
X213130537Y-135295506D01*
X213051185Y-135198815D01*
X212954494Y-135119463D01*
X212844180Y-135060498D01*
X212724482Y-135024188D01*
X212600000Y-135011928D01*
X210090000Y-135011928D01*
X209965518Y-135024188D01*
X209845820Y-135060498D01*
X209735506Y-135119463D01*
X209638815Y-135198815D01*
X209559463Y-135295506D01*
X209500498Y-135405820D01*
X209490130Y-135440000D01*
X204444092Y-135440000D01*
X203909990Y-134905899D01*
X203909990Y-134338072D01*
X204325001Y-134338072D01*
X204498255Y-134321008D01*
X204664851Y-134270472D01*
X204818387Y-134188405D01*
X204952962Y-134077962D01*
X205063405Y-133943387D01*
X205145472Y-133789851D01*
X205169694Y-133710000D01*
X210272762Y-133710000D01*
X210274188Y-133724482D01*
X210310498Y-133844180D01*
X210369463Y-133954494D01*
X210448815Y-134051185D01*
X210545506Y-134130537D01*
X210655820Y-134189502D01*
X210775518Y-134225812D01*
X210900000Y-134238072D01*
X211800000Y-134238072D01*
X211924482Y-134225812D01*
X212044180Y-134189502D01*
X212154494Y-134130537D01*
X212251185Y-134051185D01*
X212330537Y-133954494D01*
X212389502Y-133844180D01*
X212425812Y-133724482D01*
X212438072Y-133600000D01*
X213561928Y-133600000D01*
X213574188Y-133724482D01*
X213610498Y-133844180D01*
X213669463Y-133954494D01*
X213748815Y-134051185D01*
X213845506Y-134130537D01*
X213955820Y-134189502D01*
X214075518Y-134225812D01*
X214200000Y-134238072D01*
X214364250Y-134235000D01*
X214523000Y-134076250D01*
X214523000Y-133127000D01*
X214777000Y-133127000D01*
X214777000Y-134076250D01*
X214935750Y-134235000D01*
X215100000Y-134238072D01*
X215224482Y-134225812D01*
X215344180Y-134189502D01*
X215454494Y-134130537D01*
X215551185Y-134051185D01*
X215630537Y-133954494D01*
X215689502Y-133844180D01*
X215725812Y-133724482D01*
X215738072Y-133600000D01*
X215735000Y-133285750D01*
X215576250Y-133127000D01*
X214777000Y-133127000D01*
X214523000Y-133127000D01*
X213723750Y-133127000D01*
X213565000Y-133285750D01*
X213561928Y-133600000D01*
X212438072Y-133600000D01*
X212438072Y-132400000D01*
X212429935Y-132317377D01*
X212477962Y-132277962D01*
X212588405Y-132143387D01*
X212670472Y-131989851D01*
X212697727Y-131900000D01*
X213261928Y-131900000D01*
X213274188Y-132024482D01*
X213310498Y-132144180D01*
X213369463Y-132254494D01*
X213448815Y-132351185D01*
X213545506Y-132430537D01*
X213562314Y-132439521D01*
X213565000Y-132714250D01*
X213723750Y-132873000D01*
X214523000Y-132873000D01*
X214523000Y-132853000D01*
X214777000Y-132853000D01*
X214777000Y-132873000D01*
X215576250Y-132873000D01*
X215735000Y-132714250D01*
X215738072Y-132400000D01*
X215725812Y-132275518D01*
X215689502Y-132155820D01*
X215655352Y-132091930D01*
X215675812Y-132024482D01*
X215688072Y-131900000D01*
X215685000Y-131285750D01*
X215526250Y-131127000D01*
X214602000Y-131127000D01*
X214602000Y-131147000D01*
X214348000Y-131147000D01*
X214348000Y-131127000D01*
X213423750Y-131127000D01*
X213265000Y-131285750D01*
X213261928Y-131900000D01*
X212697727Y-131900000D01*
X212721008Y-131823255D01*
X212738072Y-131650001D01*
X212738072Y-130791019D01*
X212752384Y-130776707D01*
X212779475Y-130754474D01*
X212868201Y-130646362D01*
X212934129Y-130523019D01*
X212974728Y-130389183D01*
X212983485Y-130300274D01*
X212988436Y-130249999D01*
X212985001Y-130215122D01*
X212985001Y-130100000D01*
X213261928Y-130100000D01*
X213265000Y-130714250D01*
X213423750Y-130873000D01*
X214348000Y-130873000D01*
X214348000Y-130853000D01*
X214602000Y-130853000D01*
X214602000Y-130873000D01*
X215526250Y-130873000D01*
X215685000Y-130714250D01*
X215688072Y-130100000D01*
X215680988Y-130028072D01*
X217100000Y-130028072D01*
X217224482Y-130015812D01*
X217344180Y-129979502D01*
X217454494Y-129920537D01*
X217551185Y-129841185D01*
X217630537Y-129744494D01*
X217689502Y-129634180D01*
X217725812Y-129514482D01*
X217738072Y-129390000D01*
X217738072Y-128390000D01*
X217725812Y-128265518D01*
X217689502Y-128145820D01*
X217630537Y-128035506D01*
X217551185Y-127938815D01*
X217454494Y-127859463D01*
X217344180Y-127800498D01*
X217224482Y-127764188D01*
X217100000Y-127751928D01*
X213950000Y-127751928D01*
X213825518Y-127764188D01*
X213705820Y-127800498D01*
X213595506Y-127859463D01*
X213498815Y-127938815D01*
X213419463Y-128035506D01*
X213360498Y-128145820D01*
X213324188Y-128265518D01*
X213311928Y-128390000D01*
X213311928Y-129390000D01*
X213324188Y-129514482D01*
X213360498Y-129634180D01*
X213400069Y-129708212D01*
X213369463Y-129745506D01*
X213310498Y-129855820D01*
X213274188Y-129975518D01*
X213261928Y-130100000D01*
X212985001Y-130100000D01*
X212985001Y-125850000D01*
X213311928Y-125850000D01*
X213311928Y-126850000D01*
X213324188Y-126974482D01*
X213360498Y-127094180D01*
X213419463Y-127204494D01*
X213498815Y-127301185D01*
X213595506Y-127380537D01*
X213705820Y-127439502D01*
X213825518Y-127475812D01*
X213950000Y-127488072D01*
X217100000Y-127488072D01*
X217224482Y-127475812D01*
X217344180Y-127439502D01*
X217454494Y-127380537D01*
X217551185Y-127301185D01*
X217630537Y-127204494D01*
X217689502Y-127094180D01*
X217725812Y-126974482D01*
X217738072Y-126850000D01*
X217738072Y-125850000D01*
X217725812Y-125725518D01*
X217689502Y-125605820D01*
X217630537Y-125495506D01*
X217551185Y-125398815D01*
X217454494Y-125319463D01*
X217344180Y-125260498D01*
X217224482Y-125224188D01*
X217100000Y-125211928D01*
X213950000Y-125211928D01*
X213825518Y-125224188D01*
X213705820Y-125260498D01*
X213595506Y-125319463D01*
X213498815Y-125398815D01*
X213419463Y-125495506D01*
X213360498Y-125605820D01*
X213324188Y-125725518D01*
X213311928Y-125850000D01*
X212985001Y-125850000D01*
X212985001Y-123310000D01*
X213311928Y-123310000D01*
X213311928Y-124310000D01*
X213324188Y-124434482D01*
X213360498Y-124554180D01*
X213419463Y-124664494D01*
X213498815Y-124761185D01*
X213595506Y-124840537D01*
X213705820Y-124899502D01*
X213825518Y-124935812D01*
X213950000Y-124948072D01*
X217100000Y-124948072D01*
X217224482Y-124935812D01*
X217344180Y-124899502D01*
X217454494Y-124840537D01*
X217551185Y-124761185D01*
X217630537Y-124664494D01*
X217689502Y-124554180D01*
X217725812Y-124434482D01*
X217738072Y-124310000D01*
X217738072Y-123310000D01*
X217725812Y-123185518D01*
X217689502Y-123065820D01*
X217630537Y-122955506D01*
X217551185Y-122858815D01*
X217454494Y-122779463D01*
X217344180Y-122720498D01*
X217224482Y-122684188D01*
X217100000Y-122671928D01*
X213950000Y-122671928D01*
X213825518Y-122684188D01*
X213705820Y-122720498D01*
X213595506Y-122779463D01*
X213498815Y-122858815D01*
X213419463Y-122955506D01*
X213360498Y-123065820D01*
X213324188Y-123185518D01*
X213311928Y-123310000D01*
X212985001Y-123310000D01*
X212985001Y-123104876D01*
X212988436Y-123070001D01*
X212984987Y-123034979D01*
X212974728Y-122930817D01*
X212934129Y-122796981D01*
X212868201Y-122673638D01*
X212779476Y-122565526D01*
X212752380Y-122543289D01*
X212462238Y-122253147D01*
X212501185Y-122221185D01*
X212580537Y-122124494D01*
X212639502Y-122014180D01*
X212649870Y-121980000D01*
X213350130Y-121980000D01*
X213360498Y-122014180D01*
X213419463Y-122124494D01*
X213498815Y-122221185D01*
X213595506Y-122300537D01*
X213705820Y-122359502D01*
X213825518Y-122395812D01*
X213950000Y-122408072D01*
X217100000Y-122408072D01*
X217224482Y-122395812D01*
X217344180Y-122359502D01*
X217454494Y-122300537D01*
X217551185Y-122221185D01*
X217630537Y-122124494D01*
X217689502Y-122014180D01*
X217725812Y-121894482D01*
X217738072Y-121770000D01*
X217738072Y-120770000D01*
X217725812Y-120645518D01*
X217689502Y-120525820D01*
X217630537Y-120415506D01*
X217551185Y-120318815D01*
X217454494Y-120239463D01*
X217344180Y-120180498D01*
X217224482Y-120144188D01*
X217100000Y-120131928D01*
X213950000Y-120131928D01*
X213825518Y-120144188D01*
X213705820Y-120180498D01*
X213595506Y-120239463D01*
X213498815Y-120318815D01*
X213419463Y-120415506D01*
X213360498Y-120525820D01*
X213350130Y-120560000D01*
X212649870Y-120560000D01*
X212639502Y-120525820D01*
X212580537Y-120415506D01*
X212501185Y-120318815D01*
X212404494Y-120239463D01*
X212294180Y-120180498D01*
X212174482Y-120144188D01*
X212050000Y-120131928D01*
X208900000Y-120131928D01*
X208775518Y-120144188D01*
X208655820Y-120180498D01*
X208545506Y-120239463D01*
X208448815Y-120318815D01*
X208369463Y-120415506D01*
X208310498Y-120525820D01*
X208274188Y-120645518D01*
X208261928Y-120770000D01*
X208261928Y-121770000D01*
X208274188Y-121894482D01*
X208310498Y-122014180D01*
X208369463Y-122124494D01*
X208448815Y-122221185D01*
X208545506Y-122300537D01*
X208655820Y-122359502D01*
X208775518Y-122395812D01*
X208900000Y-122408072D01*
X210608981Y-122408072D01*
X210872837Y-122671928D01*
X208900000Y-122671928D01*
X208775518Y-122684188D01*
X208655820Y-122720498D01*
X208545506Y-122779463D01*
X208448815Y-122858815D01*
X208369463Y-122955506D01*
X208310498Y-123065820D01*
X208274188Y-123185518D01*
X208261928Y-123310000D01*
X208261928Y-124310000D01*
X208274188Y-124434482D01*
X208310498Y-124554180D01*
X208369463Y-124664494D01*
X208448815Y-124761185D01*
X208545506Y-124840537D01*
X208655820Y-124899502D01*
X208775518Y-124935812D01*
X208900000Y-124948072D01*
X211565002Y-124948072D01*
X211565002Y-125211928D01*
X208900000Y-125211928D01*
X208775518Y-125224188D01*
X208655820Y-125260498D01*
X208545506Y-125319463D01*
X208448815Y-125398815D01*
X208369463Y-125495506D01*
X208310498Y-125605820D01*
X208274188Y-125725518D01*
X208261928Y-125850000D01*
X208261928Y-126850000D01*
X208274188Y-126974482D01*
X208310498Y-127094180D01*
X208369463Y-127204494D01*
X208448815Y-127301185D01*
X208545506Y-127380537D01*
X208655820Y-127439502D01*
X208775518Y-127475812D01*
X208900000Y-127488072D01*
X211565001Y-127488072D01*
X211565001Y-127751928D01*
X208900000Y-127751928D01*
X208775518Y-127764188D01*
X208655820Y-127800498D01*
X208545506Y-127859463D01*
X208448815Y-127938815D01*
X208369463Y-128035506D01*
X208310498Y-128145820D01*
X208274188Y-128265518D01*
X208261928Y-128390000D01*
X208261928Y-129390000D01*
X208274188Y-129514482D01*
X208310498Y-129634180D01*
X208369463Y-129744494D01*
X208448815Y-129841185D01*
X208545506Y-129920537D01*
X208655820Y-129979502D01*
X208775518Y-130015812D01*
X208900000Y-130028072D01*
X210374091Y-130028072D01*
X210328992Y-130176745D01*
X210311928Y-130349999D01*
X210311928Y-131650001D01*
X210328992Y-131823255D01*
X210379528Y-131989851D01*
X210393573Y-132016128D01*
X210369463Y-132045506D01*
X210310498Y-132155820D01*
X210274188Y-132275518D01*
X210272762Y-132290000D01*
X205169694Y-132290000D01*
X205145472Y-132210149D01*
X205063405Y-132056613D01*
X204952962Y-131922038D01*
X204818387Y-131811595D01*
X204664851Y-131729528D01*
X204498255Y-131678992D01*
X204325001Y-131661928D01*
X203674999Y-131661928D01*
X203527314Y-131676474D01*
X199587268Y-127736428D01*
X200443177Y-127736428D01*
X200809365Y-128231216D01*
X201481837Y-128596501D01*
X202212650Y-128823575D01*
X202973721Y-128903710D01*
X203735803Y-128833828D01*
X204469608Y-128616614D01*
X205146936Y-128260416D01*
X205190635Y-128231216D01*
X205556823Y-127736428D01*
X203000000Y-125179605D01*
X200443177Y-127736428D01*
X199587268Y-127736428D01*
X198710000Y-126859161D01*
X198710000Y-124973721D01*
X199096290Y-124973721D01*
X199166172Y-125735803D01*
X199383386Y-126469608D01*
X199739584Y-127146936D01*
X199768784Y-127190635D01*
X200263572Y-127556823D01*
X202820395Y-125000000D01*
X203179605Y-125000000D01*
X205736428Y-127556823D01*
X206231216Y-127190635D01*
X206596501Y-126518163D01*
X206823575Y-125787350D01*
X206903710Y-125026279D01*
X206833828Y-124264197D01*
X206616614Y-123530392D01*
X206260416Y-122853064D01*
X206231216Y-122809365D01*
X205736428Y-122443177D01*
X203179605Y-125000000D01*
X202820395Y-125000000D01*
X200263572Y-122443177D01*
X199768784Y-122809365D01*
X199403499Y-123481837D01*
X199176425Y-124212650D01*
X199096290Y-124973721D01*
X198710000Y-124973721D01*
X198710000Y-122263572D01*
X200443177Y-122263572D01*
X203000000Y-124820395D01*
X205556823Y-122263572D01*
X205190635Y-121768784D01*
X204518163Y-121403499D01*
X203787350Y-121176425D01*
X203026279Y-121096290D01*
X202264197Y-121166172D01*
X201530392Y-121383386D01*
X200853064Y-121739584D01*
X200809365Y-121768784D01*
X200443177Y-122263572D01*
X198710000Y-122263572D01*
X198710000Y-119230000D01*
X208261928Y-119230000D01*
X208274188Y-119354482D01*
X208310498Y-119474180D01*
X208369463Y-119584494D01*
X208448815Y-119681185D01*
X208545506Y-119760537D01*
X208655820Y-119819502D01*
X208775518Y-119855812D01*
X208900000Y-119868072D01*
X210189250Y-119865000D01*
X210348000Y-119706250D01*
X210348000Y-118857000D01*
X210602000Y-118857000D01*
X210602000Y-119706250D01*
X210760750Y-119865000D01*
X212050000Y-119868072D01*
X212174482Y-119855812D01*
X212294180Y-119819502D01*
X212404494Y-119760537D01*
X212501185Y-119681185D01*
X212580537Y-119584494D01*
X212639502Y-119474180D01*
X212675812Y-119354482D01*
X212688072Y-119230000D01*
X213311928Y-119230000D01*
X213324188Y-119354482D01*
X213360498Y-119474180D01*
X213419463Y-119584494D01*
X213498815Y-119681185D01*
X213595506Y-119760537D01*
X213705820Y-119819502D01*
X213825518Y-119855812D01*
X213950000Y-119868072D01*
X215239250Y-119865000D01*
X215398000Y-119706250D01*
X215398000Y-118857000D01*
X215652000Y-118857000D01*
X215652000Y-119706250D01*
X215810750Y-119865000D01*
X217100000Y-119868072D01*
X217224482Y-119855812D01*
X217344180Y-119819502D01*
X217454494Y-119760537D01*
X217551185Y-119681185D01*
X217630537Y-119584494D01*
X217689502Y-119474180D01*
X217725812Y-119354482D01*
X217738072Y-119230000D01*
X217735000Y-119015750D01*
X217576250Y-118857000D01*
X215652000Y-118857000D01*
X215398000Y-118857000D01*
X213473750Y-118857000D01*
X213315000Y-119015750D01*
X213311928Y-119230000D01*
X212688072Y-119230000D01*
X212685000Y-119015750D01*
X212526250Y-118857000D01*
X210602000Y-118857000D01*
X210348000Y-118857000D01*
X208423750Y-118857000D01*
X208265000Y-119015750D01*
X208261928Y-119230000D01*
X198710000Y-119230000D01*
X198710000Y-117736428D01*
X200443177Y-117736428D01*
X200809365Y-118231216D01*
X201481837Y-118596501D01*
X202212650Y-118823575D01*
X202973721Y-118903710D01*
X203735803Y-118833828D01*
X204469608Y-118616614D01*
X205146936Y-118260416D01*
X205190635Y-118231216D01*
X205191534Y-118230000D01*
X208261928Y-118230000D01*
X208265000Y-118444250D01*
X208423750Y-118603000D01*
X210348000Y-118603000D01*
X210348000Y-117753750D01*
X210602000Y-117753750D01*
X210602000Y-118603000D01*
X212526250Y-118603000D01*
X212685000Y-118444250D01*
X212688072Y-118230000D01*
X213311928Y-118230000D01*
X213315000Y-118444250D01*
X213473750Y-118603000D01*
X215398000Y-118603000D01*
X215398000Y-117753750D01*
X215652000Y-117753750D01*
X215652000Y-118603000D01*
X217576250Y-118603000D01*
X217735000Y-118444250D01*
X217738072Y-118230000D01*
X217725812Y-118105518D01*
X217689502Y-117985820D01*
X217630537Y-117875506D01*
X217551185Y-117778815D01*
X217499537Y-117736428D01*
X220443177Y-117736428D01*
X220809365Y-118231216D01*
X221481837Y-118596501D01*
X222212650Y-118823575D01*
X222973721Y-118903710D01*
X223735803Y-118833828D01*
X224469608Y-118616614D01*
X225146936Y-118260416D01*
X225190635Y-118231216D01*
X225556823Y-117736428D01*
X223000000Y-115179605D01*
X220443177Y-117736428D01*
X217499537Y-117736428D01*
X217454494Y-117699463D01*
X217344180Y-117640498D01*
X217224482Y-117604188D01*
X217100000Y-117591928D01*
X215810750Y-117595000D01*
X215652000Y-117753750D01*
X215398000Y-117753750D01*
X215239250Y-117595000D01*
X213950000Y-117591928D01*
X213825518Y-117604188D01*
X213705820Y-117640498D01*
X213595506Y-117699463D01*
X213498815Y-117778815D01*
X213419463Y-117875506D01*
X213360498Y-117985820D01*
X213324188Y-118105518D01*
X213311928Y-118230000D01*
X212688072Y-118230000D01*
X212675812Y-118105518D01*
X212639502Y-117985820D01*
X212580537Y-117875506D01*
X212501185Y-117778815D01*
X212404494Y-117699463D01*
X212294180Y-117640498D01*
X212174482Y-117604188D01*
X212050000Y-117591928D01*
X210760750Y-117595000D01*
X210602000Y-117753750D01*
X210348000Y-117753750D01*
X210189250Y-117595000D01*
X208900000Y-117591928D01*
X208775518Y-117604188D01*
X208655820Y-117640498D01*
X208545506Y-117699463D01*
X208448815Y-117778815D01*
X208369463Y-117875506D01*
X208310498Y-117985820D01*
X208274188Y-118105518D01*
X208261928Y-118230000D01*
X205191534Y-118230000D01*
X205556823Y-117736428D01*
X203000000Y-115179605D01*
X200443177Y-117736428D01*
X198710000Y-117736428D01*
X198710000Y-115034877D01*
X198713435Y-115000000D01*
X198710847Y-114973721D01*
X199096290Y-114973721D01*
X199166172Y-115735803D01*
X199383386Y-116469608D01*
X199739584Y-117146936D01*
X199768784Y-117190635D01*
X200263572Y-117556823D01*
X202820395Y-115000000D01*
X203179605Y-115000000D01*
X205736428Y-117556823D01*
X206231216Y-117190635D01*
X206503159Y-116690000D01*
X208261928Y-116690000D01*
X208274188Y-116814482D01*
X208310498Y-116934180D01*
X208369463Y-117044494D01*
X208448815Y-117141185D01*
X208545506Y-117220537D01*
X208655820Y-117279502D01*
X208775518Y-117315812D01*
X208900000Y-117328072D01*
X210189250Y-117325000D01*
X210348000Y-117166250D01*
X210348000Y-116317000D01*
X210602000Y-116317000D01*
X210602000Y-117166250D01*
X210760750Y-117325000D01*
X212050000Y-117328072D01*
X212174482Y-117315812D01*
X212294180Y-117279502D01*
X212404494Y-117220537D01*
X212501185Y-117141185D01*
X212580537Y-117044494D01*
X212639502Y-116934180D01*
X212675812Y-116814482D01*
X212688072Y-116690000D01*
X213311928Y-116690000D01*
X213324188Y-116814482D01*
X213360498Y-116934180D01*
X213419463Y-117044494D01*
X213498815Y-117141185D01*
X213595506Y-117220537D01*
X213705820Y-117279502D01*
X213825518Y-117315812D01*
X213950000Y-117328072D01*
X215239250Y-117325000D01*
X215398000Y-117166250D01*
X215398000Y-116317000D01*
X215652000Y-116317000D01*
X215652000Y-117166250D01*
X215810750Y-117325000D01*
X217100000Y-117328072D01*
X217224482Y-117315812D01*
X217344180Y-117279502D01*
X217454494Y-117220537D01*
X217551185Y-117141185D01*
X217630537Y-117044494D01*
X217689502Y-116934180D01*
X217725812Y-116814482D01*
X217738072Y-116690000D01*
X217735000Y-116475750D01*
X217576250Y-116317000D01*
X215652000Y-116317000D01*
X215398000Y-116317000D01*
X213473750Y-116317000D01*
X213315000Y-116475750D01*
X213311928Y-116690000D01*
X212688072Y-116690000D01*
X212685000Y-116475750D01*
X212526250Y-116317000D01*
X210602000Y-116317000D01*
X210348000Y-116317000D01*
X208423750Y-116317000D01*
X208265000Y-116475750D01*
X208261928Y-116690000D01*
X206503159Y-116690000D01*
X206596501Y-116518163D01*
X206823575Y-115787350D01*
X206833825Y-115690000D01*
X208261928Y-115690000D01*
X208265000Y-115904250D01*
X208423750Y-116063000D01*
X210348000Y-116063000D01*
X210348000Y-115213750D01*
X210602000Y-115213750D01*
X210602000Y-116063000D01*
X212526250Y-116063000D01*
X212685000Y-115904250D01*
X212688072Y-115690000D01*
X213311928Y-115690000D01*
X213315000Y-115904250D01*
X213473750Y-116063000D01*
X215398000Y-116063000D01*
X215398000Y-115213750D01*
X215652000Y-115213750D01*
X215652000Y-116063000D01*
X217576250Y-116063000D01*
X217735000Y-115904250D01*
X217738072Y-115690000D01*
X217725812Y-115565518D01*
X217689502Y-115445820D01*
X217630537Y-115335506D01*
X217551185Y-115238815D01*
X217454494Y-115159463D01*
X217344180Y-115100498D01*
X217224482Y-115064188D01*
X217100000Y-115051928D01*
X215810750Y-115055000D01*
X215652000Y-115213750D01*
X215398000Y-115213750D01*
X215239250Y-115055000D01*
X213950000Y-115051928D01*
X213825518Y-115064188D01*
X213705820Y-115100498D01*
X213595506Y-115159463D01*
X213498815Y-115238815D01*
X213419463Y-115335506D01*
X213360498Y-115445820D01*
X213324188Y-115565518D01*
X213311928Y-115690000D01*
X212688072Y-115690000D01*
X212675812Y-115565518D01*
X212639502Y-115445820D01*
X212580537Y-115335506D01*
X212501185Y-115238815D01*
X212404494Y-115159463D01*
X212294180Y-115100498D01*
X212174482Y-115064188D01*
X212050000Y-115051928D01*
X210760750Y-115055000D01*
X210602000Y-115213750D01*
X210348000Y-115213750D01*
X210189250Y-115055000D01*
X208900000Y-115051928D01*
X208775518Y-115064188D01*
X208655820Y-115100498D01*
X208545506Y-115159463D01*
X208448815Y-115238815D01*
X208369463Y-115335506D01*
X208310498Y-115445820D01*
X208274188Y-115565518D01*
X208261928Y-115690000D01*
X206833825Y-115690000D01*
X206903710Y-115026279D01*
X206898891Y-114973721D01*
X219096290Y-114973721D01*
X219166172Y-115735803D01*
X219383386Y-116469608D01*
X219739584Y-117146936D01*
X219768784Y-117190635D01*
X220263572Y-117556823D01*
X222820395Y-115000000D01*
X223179605Y-115000000D01*
X225736428Y-117556823D01*
X226231216Y-117190635D01*
X226596501Y-116518163D01*
X226823575Y-115787350D01*
X226903710Y-115026279D01*
X226833828Y-114264197D01*
X226726894Y-113902944D01*
X229015000Y-113902944D01*
X229015000Y-114096972D01*
X229052853Y-114287272D01*
X229127104Y-114466530D01*
X229234901Y-114627859D01*
X229372099Y-114765057D01*
X229533428Y-114872854D01*
X229712686Y-114947105D01*
X229902986Y-114984958D01*
X230097014Y-114984958D01*
X230287314Y-114947105D01*
X230466572Y-114872854D01*
X230627901Y-114765057D01*
X230765099Y-114627859D01*
X230872896Y-114466530D01*
X230947147Y-114287272D01*
X230985000Y-114096972D01*
X230985000Y-114019049D01*
X231502379Y-113501670D01*
X231529475Y-113479433D01*
X231618200Y-113371321D01*
X231684128Y-113247978D01*
X231724727Y-113114142D01*
X231735000Y-113009835D01*
X231735000Y-113009833D01*
X231738435Y-112974958D01*
X231735000Y-112940083D01*
X231735000Y-112746339D01*
X231843387Y-112688405D01*
X231977962Y-112577962D01*
X232088405Y-112443387D01*
X232170472Y-112289851D01*
X232221008Y-112123255D01*
X232238072Y-111950001D01*
X232238072Y-111049999D01*
X232221008Y-110876745D01*
X232170472Y-110710149D01*
X232088405Y-110556613D01*
X231977962Y-110422038D01*
X231843387Y-110311595D01*
X231689851Y-110229528D01*
X231523255Y-110178992D01*
X231350001Y-110161928D01*
X230699999Y-110161928D01*
X230526745Y-110178992D01*
X230360149Y-110229528D01*
X230206613Y-110311595D01*
X230072038Y-110422038D01*
X230066658Y-110428594D01*
X230001185Y-110348815D01*
X229904494Y-110269463D01*
X229794180Y-110210498D01*
X229674482Y-110174188D01*
X229550000Y-110161928D01*
X229260750Y-110165000D01*
X229102000Y-110323750D01*
X229102000Y-111373000D01*
X229122000Y-111373000D01*
X229122000Y-111627000D01*
X229102000Y-111627000D01*
X229102000Y-112676250D01*
X229260750Y-112835000D01*
X229550000Y-112838072D01*
X229674482Y-112825812D01*
X229794180Y-112789502D01*
X229904494Y-112730537D01*
X230001185Y-112651185D01*
X230066658Y-112571406D01*
X230072038Y-112577962D01*
X230206613Y-112688405D01*
X230272334Y-112723533D01*
X229980909Y-113014958D01*
X229902986Y-113014958D01*
X229712686Y-113052811D01*
X229533428Y-113127062D01*
X229372099Y-113234859D01*
X229234901Y-113372057D01*
X229127104Y-113533386D01*
X229052853Y-113712644D01*
X229015000Y-113902944D01*
X226726894Y-113902944D01*
X226616614Y-113530392D01*
X226260416Y-112853064D01*
X226231216Y-112809365D01*
X225736428Y-112443177D01*
X223179605Y-115000000D01*
X222820395Y-115000000D01*
X220263572Y-112443177D01*
X219768784Y-112809365D01*
X219403499Y-113481837D01*
X219176425Y-114212650D01*
X219096290Y-114973721D01*
X206898891Y-114973721D01*
X206833828Y-114264197D01*
X206800025Y-114150000D01*
X208261928Y-114150000D01*
X208274188Y-114274482D01*
X208310498Y-114394180D01*
X208369463Y-114504494D01*
X208448815Y-114601185D01*
X208545506Y-114680537D01*
X208655820Y-114739502D01*
X208775518Y-114775812D01*
X208900000Y-114788072D01*
X210189250Y-114785000D01*
X210348000Y-114626250D01*
X210348000Y-113777000D01*
X210602000Y-113777000D01*
X210602000Y-114626250D01*
X210760750Y-114785000D01*
X212050000Y-114788072D01*
X212174482Y-114775812D01*
X212294180Y-114739502D01*
X212404494Y-114680537D01*
X212501185Y-114601185D01*
X212580537Y-114504494D01*
X212639502Y-114394180D01*
X212675812Y-114274482D01*
X212688072Y-114150000D01*
X213311928Y-114150000D01*
X213324188Y-114274482D01*
X213360498Y-114394180D01*
X213419463Y-114504494D01*
X213498815Y-114601185D01*
X213595506Y-114680537D01*
X213705820Y-114739502D01*
X213825518Y-114775812D01*
X213950000Y-114788072D01*
X215239250Y-114785000D01*
X215398000Y-114626250D01*
X215398000Y-113777000D01*
X215652000Y-113777000D01*
X215652000Y-114626250D01*
X215810750Y-114785000D01*
X217100000Y-114788072D01*
X217224482Y-114775812D01*
X217344180Y-114739502D01*
X217454494Y-114680537D01*
X217551185Y-114601185D01*
X217630537Y-114504494D01*
X217689502Y-114394180D01*
X217725812Y-114274482D01*
X217738072Y-114150000D01*
X217735000Y-113935750D01*
X217576250Y-113777000D01*
X215652000Y-113777000D01*
X215398000Y-113777000D01*
X213473750Y-113777000D01*
X213315000Y-113935750D01*
X213311928Y-114150000D01*
X212688072Y-114150000D01*
X212685000Y-113935750D01*
X212526250Y-113777000D01*
X210602000Y-113777000D01*
X210348000Y-113777000D01*
X208423750Y-113777000D01*
X208265000Y-113935750D01*
X208261928Y-114150000D01*
X206800025Y-114150000D01*
X206616614Y-113530392D01*
X206416571Y-113150000D01*
X208261928Y-113150000D01*
X208265000Y-113364250D01*
X208423750Y-113523000D01*
X210348000Y-113523000D01*
X210348000Y-112673750D01*
X210602000Y-112673750D01*
X210602000Y-113523000D01*
X212526250Y-113523000D01*
X212685000Y-113364250D01*
X212688072Y-113150000D01*
X213311928Y-113150000D01*
X213315000Y-113364250D01*
X213473750Y-113523000D01*
X215398000Y-113523000D01*
X215398000Y-112673750D01*
X215652000Y-112673750D01*
X215652000Y-113523000D01*
X217576250Y-113523000D01*
X217735000Y-113364250D01*
X217738072Y-113150000D01*
X217725812Y-113025518D01*
X217689502Y-112905820D01*
X217630537Y-112795506D01*
X217551185Y-112698815D01*
X217454494Y-112619463D01*
X217344180Y-112560498D01*
X217224482Y-112524188D01*
X217100000Y-112511928D01*
X215810750Y-112515000D01*
X215652000Y-112673750D01*
X215398000Y-112673750D01*
X215239250Y-112515000D01*
X213950000Y-112511928D01*
X213825518Y-112524188D01*
X213705820Y-112560498D01*
X213595506Y-112619463D01*
X213498815Y-112698815D01*
X213419463Y-112795506D01*
X213360498Y-112905820D01*
X213324188Y-113025518D01*
X213311928Y-113150000D01*
X212688072Y-113150000D01*
X212675812Y-113025518D01*
X212639502Y-112905820D01*
X212580537Y-112795506D01*
X212501185Y-112698815D01*
X212404494Y-112619463D01*
X212294180Y-112560498D01*
X212174482Y-112524188D01*
X212050000Y-112511928D01*
X210760750Y-112515000D01*
X210602000Y-112673750D01*
X210348000Y-112673750D01*
X210189250Y-112515000D01*
X208900000Y-112511928D01*
X208775518Y-112524188D01*
X208655820Y-112560498D01*
X208545506Y-112619463D01*
X208448815Y-112698815D01*
X208369463Y-112795506D01*
X208310498Y-112905820D01*
X208274188Y-113025518D01*
X208261928Y-113150000D01*
X206416571Y-113150000D01*
X206260416Y-112853064D01*
X206231216Y-112809365D01*
X205736428Y-112443177D01*
X203179605Y-115000000D01*
X202820395Y-115000000D01*
X200263572Y-112443177D01*
X199768784Y-112809365D01*
X199403499Y-113481837D01*
X199176425Y-114212650D01*
X199096290Y-114973721D01*
X198710847Y-114973721D01*
X198699727Y-114860815D01*
X198659128Y-114726980D01*
X198606147Y-114627859D01*
X198593200Y-114603637D01*
X198504475Y-114495525D01*
X198477379Y-114473288D01*
X197526712Y-113522621D01*
X197504475Y-113495525D01*
X197396363Y-113406800D01*
X197273020Y-113340872D01*
X197139184Y-113300273D01*
X197034877Y-113290000D01*
X197034875Y-113290000D01*
X197000000Y-113286565D01*
X196965125Y-113290000D01*
X196683000Y-113290000D01*
X196627901Y-113234901D01*
X196466572Y-113127104D01*
X196287314Y-113052853D01*
X196097014Y-113015000D01*
X195902986Y-113015000D01*
X195712686Y-113052853D01*
X195710000Y-113053966D01*
X195710000Y-112746339D01*
X195818387Y-112688405D01*
X195952962Y-112577962D01*
X195958342Y-112571406D01*
X196023815Y-112651185D01*
X196120506Y-112730537D01*
X196230820Y-112789502D01*
X196350518Y-112825812D01*
X196475000Y-112838072D01*
X196764250Y-112835000D01*
X196923000Y-112676250D01*
X196923000Y-111627000D01*
X197177000Y-111627000D01*
X197177000Y-112676250D01*
X197335750Y-112835000D01*
X197625000Y-112838072D01*
X197749482Y-112825812D01*
X197869180Y-112789502D01*
X197979494Y-112730537D01*
X198076185Y-112651185D01*
X198155537Y-112554494D01*
X198214502Y-112444180D01*
X198250812Y-112324482D01*
X198256810Y-112263572D01*
X200443177Y-112263572D01*
X203000000Y-114820395D01*
X205556823Y-112263572D01*
X220443177Y-112263572D01*
X223000000Y-114820395D01*
X225556823Y-112263572D01*
X225509774Y-112200000D01*
X227761928Y-112200000D01*
X227774188Y-112324482D01*
X227810498Y-112444180D01*
X227869463Y-112554494D01*
X227948815Y-112651185D01*
X228045506Y-112730537D01*
X228155820Y-112789502D01*
X228275518Y-112825812D01*
X228400000Y-112838072D01*
X228689250Y-112835000D01*
X228848000Y-112676250D01*
X228848000Y-111627000D01*
X227923750Y-111627000D01*
X227765000Y-111785750D01*
X227761928Y-112200000D01*
X225509774Y-112200000D01*
X225190635Y-111768784D01*
X224518163Y-111403499D01*
X223787350Y-111176425D01*
X223026279Y-111096290D01*
X222264197Y-111166172D01*
X221530392Y-111383386D01*
X220853064Y-111739584D01*
X220809365Y-111768784D01*
X220443177Y-112263572D01*
X205556823Y-112263572D01*
X205190635Y-111768784D01*
X204518163Y-111403499D01*
X203787350Y-111176425D01*
X203026279Y-111096290D01*
X202264197Y-111166172D01*
X201530392Y-111383386D01*
X200853064Y-111739584D01*
X200809365Y-111768784D01*
X200443177Y-112263572D01*
X198256810Y-112263572D01*
X198263072Y-112200000D01*
X198260000Y-111785750D01*
X198101250Y-111627000D01*
X197177000Y-111627000D01*
X196923000Y-111627000D01*
X196903000Y-111627000D01*
X196903000Y-111373000D01*
X196923000Y-111373000D01*
X196923000Y-110323750D01*
X197177000Y-110323750D01*
X197177000Y-111373000D01*
X198101250Y-111373000D01*
X198260000Y-111214250D01*
X198263072Y-110800000D01*
X198250812Y-110675518D01*
X198214502Y-110555820D01*
X198155537Y-110445506D01*
X198076185Y-110348815D01*
X197979494Y-110269463D01*
X197869180Y-110210498D01*
X197749482Y-110174188D01*
X197625000Y-110161928D01*
X197335750Y-110165000D01*
X197177000Y-110323750D01*
X196923000Y-110323750D01*
X196764250Y-110165000D01*
X196475000Y-110161928D01*
X196350518Y-110174188D01*
X196230820Y-110210498D01*
X196120506Y-110269463D01*
X196023815Y-110348815D01*
X195958342Y-110428594D01*
X195952962Y-110422038D01*
X195818387Y-110311595D01*
X195664851Y-110229528D01*
X195498255Y-110178992D01*
X195325001Y-110161928D01*
X194674999Y-110161928D01*
X194501745Y-110178992D01*
X194335149Y-110229528D01*
X194181613Y-110311595D01*
X194047038Y-110422038D01*
X193936595Y-110556613D01*
X193854528Y-110710149D01*
X193803992Y-110876745D01*
X193786928Y-111049999D01*
X193660000Y-111049999D01*
X193660000Y-107100000D01*
X210261928Y-107100000D01*
X210274188Y-107224482D01*
X210310498Y-107344180D01*
X210369463Y-107454494D01*
X210448815Y-107551185D01*
X210533296Y-107620517D01*
X210498815Y-107648815D01*
X210419463Y-107745506D01*
X210360498Y-107855820D01*
X210324188Y-107975518D01*
X210311928Y-108100000D01*
X210315000Y-108714250D01*
X210473750Y-108873000D01*
X211398000Y-108873000D01*
X211398000Y-108853000D01*
X211652000Y-108853000D01*
X211652000Y-108873000D01*
X212576250Y-108873000D01*
X212735000Y-108714250D01*
X212738072Y-108100000D01*
X212725812Y-107975518D01*
X212689502Y-107855820D01*
X212630537Y-107745506D01*
X212551185Y-107648815D01*
X212454494Y-107569463D01*
X212344180Y-107510498D01*
X212296457Y-107496021D01*
X212330537Y-107454494D01*
X212389502Y-107344180D01*
X212425812Y-107224482D01*
X212438072Y-107100000D01*
X212435000Y-106785750D01*
X212276250Y-106627000D01*
X211477000Y-106627000D01*
X211477000Y-106647000D01*
X211223000Y-106647000D01*
X211223000Y-106627000D01*
X210423750Y-106627000D01*
X210265000Y-106785750D01*
X210261928Y-107100000D01*
X193660000Y-107100000D01*
X193660000Y-105900000D01*
X210261928Y-105900000D01*
X210265000Y-106214250D01*
X210423750Y-106373000D01*
X211223000Y-106373000D01*
X211223000Y-105423750D01*
X211477000Y-105423750D01*
X211477000Y-106373000D01*
X212276250Y-106373000D01*
X212435000Y-106214250D01*
X212438072Y-105900000D01*
X212425812Y-105775518D01*
X212389502Y-105655820D01*
X212330537Y-105545506D01*
X212251185Y-105448815D01*
X212154494Y-105369463D01*
X212044180Y-105310498D01*
X211924482Y-105274188D01*
X211800000Y-105261928D01*
X211635750Y-105265000D01*
X211477000Y-105423750D01*
X211223000Y-105423750D01*
X211064250Y-105265000D01*
X210900000Y-105261928D01*
X210775518Y-105274188D01*
X210655820Y-105310498D01*
X210545506Y-105369463D01*
X210448815Y-105448815D01*
X210369463Y-105545506D01*
X210310498Y-105655820D01*
X210274188Y-105775518D01*
X210261928Y-105900000D01*
X193660000Y-105900000D01*
X193660000Y-98736428D01*
X200443177Y-98736428D01*
X200809365Y-99231216D01*
X201481837Y-99596501D01*
X202212650Y-99823575D01*
X202973721Y-99903710D01*
X203735803Y-99833828D01*
X204469608Y-99616614D01*
X205146936Y-99260416D01*
X205190635Y-99231216D01*
X205556823Y-98736428D01*
X203000000Y-96179605D01*
X200443177Y-98736428D01*
X193660000Y-98736428D01*
X193660000Y-95973721D01*
X199096290Y-95973721D01*
X199166172Y-96735803D01*
X199383386Y-97469608D01*
X199739584Y-98146936D01*
X199768784Y-98190635D01*
X200263572Y-98556823D01*
X202820395Y-96000000D01*
X203179605Y-96000000D01*
X205736428Y-98556823D01*
X206231216Y-98190635D01*
X206596501Y-97518163D01*
X206823575Y-96787350D01*
X206903710Y-96026279D01*
X206833828Y-95264197D01*
X206616614Y-94530392D01*
X206260416Y-93853064D01*
X206231216Y-93809365D01*
X205736428Y-93443177D01*
X203179605Y-96000000D01*
X202820395Y-96000000D01*
X200263572Y-93443177D01*
X199768784Y-93809365D01*
X199403499Y-94481837D01*
X199176425Y-95212650D01*
X199096290Y-95973721D01*
X193660000Y-95973721D01*
X193660000Y-93263572D01*
X200443177Y-93263572D01*
X203000000Y-95820395D01*
X205556823Y-93263572D01*
X205190635Y-92768784D01*
X204518163Y-92403499D01*
X203787350Y-92176425D01*
X203026279Y-92096290D01*
X202264197Y-92166172D01*
X201530392Y-92383386D01*
X200853064Y-92739584D01*
X200809365Y-92768784D01*
X200443177Y-93263572D01*
X193660000Y-93263572D01*
X193660000Y-79420447D01*
X200259158Y-79420447D01*
X200403135Y-79725770D01*
X200760892Y-79906597D01*
X201147053Y-80014155D01*
X201546777Y-80044310D01*
X201944704Y-79995904D01*
X202325540Y-79870795D01*
X202596865Y-79725770D01*
X202740842Y-79420447D01*
X201500000Y-78179605D01*
X200259158Y-79420447D01*
X193660000Y-79420447D01*
X193660000Y-61500000D01*
X198836807Y-61500000D01*
X198840001Y-61532429D01*
X198840000Y-76467581D01*
X198836807Y-76500000D01*
X198849550Y-76629383D01*
X198887290Y-76753793D01*
X198948575Y-76868450D01*
X199031052Y-76968948D01*
X199131550Y-77051425D01*
X199246207Y-77112710D01*
X199370617Y-77150450D01*
X199500000Y-77163193D01*
X199532419Y-77160000D01*
X199644399Y-77160000D01*
X199593403Y-77260892D01*
X199485845Y-77647053D01*
X199455690Y-78046777D01*
X199504096Y-78444704D01*
X199629205Y-78825540D01*
X199774230Y-79096865D01*
X200079553Y-79240842D01*
X201320395Y-78000000D01*
X201306253Y-77985858D01*
X201485858Y-77806253D01*
X201500000Y-77820395D01*
X201514143Y-77806253D01*
X201693748Y-77985858D01*
X201679605Y-78000000D01*
X202920447Y-79240842D01*
X203225770Y-79096865D01*
X203406597Y-78739108D01*
X203514155Y-78352947D01*
X203544310Y-77953223D01*
X203495904Y-77555296D01*
X203370795Y-77174460D01*
X203363066Y-77160000D01*
X222644399Y-77160000D01*
X222593403Y-77260892D01*
X222485845Y-77647053D01*
X222455690Y-78046777D01*
X222504096Y-78444704D01*
X222629205Y-78825540D01*
X222774230Y-79096865D01*
X223079551Y-79240841D01*
X223030392Y-79290000D01*
X214534877Y-79290000D01*
X214500000Y-79286565D01*
X214465123Y-79290000D01*
X214360816Y-79300273D01*
X214226980Y-79340872D01*
X214103637Y-79406800D01*
X213995525Y-79495525D01*
X213906800Y-79603637D01*
X213840872Y-79726980D01*
X213800273Y-79860816D01*
X213786565Y-80000000D01*
X213790000Y-80034877D01*
X213790001Y-105415015D01*
X213748815Y-105448815D01*
X213669463Y-105545506D01*
X213610498Y-105655820D01*
X213574188Y-105775518D01*
X213561928Y-105900000D01*
X213561928Y-107100000D01*
X213574188Y-107224482D01*
X213610498Y-107344180D01*
X213669463Y-107454494D01*
X213748815Y-107551185D01*
X213757026Y-107557923D01*
X213656613Y-107611595D01*
X213522038Y-107722038D01*
X213411595Y-107856613D01*
X213329528Y-108010149D01*
X213278992Y-108176745D01*
X213261928Y-108349999D01*
X213261928Y-109650001D01*
X213278992Y-109823255D01*
X213329528Y-109989851D01*
X213411595Y-110143387D01*
X213461536Y-110204240D01*
X213419463Y-110255506D01*
X213360498Y-110365820D01*
X213350130Y-110400000D01*
X212649870Y-110400000D01*
X212639502Y-110365820D01*
X212599931Y-110291788D01*
X212630537Y-110254494D01*
X212689502Y-110144180D01*
X212725812Y-110024482D01*
X212738072Y-109900000D01*
X212735000Y-109285750D01*
X212576250Y-109127000D01*
X211652000Y-109127000D01*
X211652000Y-109147000D01*
X211398000Y-109147000D01*
X211398000Y-109127000D01*
X210473750Y-109127000D01*
X210315000Y-109285750D01*
X210311928Y-109900000D01*
X210319012Y-109971928D01*
X208900000Y-109971928D01*
X208775518Y-109984188D01*
X208655820Y-110020498D01*
X208545506Y-110079463D01*
X208448815Y-110158815D01*
X208369463Y-110255506D01*
X208310498Y-110365820D01*
X208274188Y-110485518D01*
X208261928Y-110610000D01*
X208261928Y-111610000D01*
X208274188Y-111734482D01*
X208310498Y-111854180D01*
X208369463Y-111964494D01*
X208448815Y-112061185D01*
X208545506Y-112140537D01*
X208655820Y-112199502D01*
X208775518Y-112235812D01*
X208900000Y-112248072D01*
X212050000Y-112248072D01*
X212174482Y-112235812D01*
X212294180Y-112199502D01*
X212404494Y-112140537D01*
X212501185Y-112061185D01*
X212580537Y-111964494D01*
X212639502Y-111854180D01*
X212649870Y-111820000D01*
X213350130Y-111820000D01*
X213360498Y-111854180D01*
X213419463Y-111964494D01*
X213498815Y-112061185D01*
X213595506Y-112140537D01*
X213705820Y-112199502D01*
X213825518Y-112235812D01*
X213950000Y-112248072D01*
X217100000Y-112248072D01*
X217224482Y-112235812D01*
X217344180Y-112199502D01*
X217454494Y-112140537D01*
X217551185Y-112061185D01*
X217630537Y-111964494D01*
X217689502Y-111854180D01*
X217725812Y-111734482D01*
X217738072Y-111610000D01*
X217738072Y-110800000D01*
X227761928Y-110800000D01*
X227765000Y-111214250D01*
X227923750Y-111373000D01*
X228848000Y-111373000D01*
X228848000Y-110323750D01*
X228689250Y-110165000D01*
X228400000Y-110161928D01*
X228275518Y-110174188D01*
X228155820Y-110210498D01*
X228045506Y-110269463D01*
X227948815Y-110348815D01*
X227869463Y-110445506D01*
X227810498Y-110555820D01*
X227774188Y-110675518D01*
X227761928Y-110800000D01*
X217738072Y-110800000D01*
X217738072Y-110610000D01*
X217725812Y-110485518D01*
X217689502Y-110365820D01*
X217630537Y-110255506D01*
X217551185Y-110158815D01*
X217454494Y-110079463D01*
X217344180Y-110020498D01*
X217224482Y-109984188D01*
X217100000Y-109971928D01*
X215625909Y-109971928D01*
X215671008Y-109823255D01*
X215682163Y-109710000D01*
X215965124Y-109710000D01*
X215999999Y-109713435D01*
X216034874Y-109710000D01*
X220780306Y-109710000D01*
X220804528Y-109789851D01*
X220886595Y-109943387D01*
X220997038Y-110077962D01*
X221131613Y-110188405D01*
X221285149Y-110270472D01*
X221451745Y-110321008D01*
X221624999Y-110338072D01*
X222275001Y-110338072D01*
X222448255Y-110321008D01*
X222614851Y-110270472D01*
X222768387Y-110188405D01*
X222902962Y-110077962D01*
X222908342Y-110071406D01*
X222973815Y-110151185D01*
X223070506Y-110230537D01*
X223180820Y-110289502D01*
X223300518Y-110325812D01*
X223425000Y-110338072D01*
X223714250Y-110335000D01*
X223873000Y-110176250D01*
X223873000Y-109127000D01*
X224127000Y-109127000D01*
X224127000Y-110176250D01*
X224285750Y-110335000D01*
X224575000Y-110338072D01*
X224699482Y-110325812D01*
X224819180Y-110289502D01*
X224929494Y-110230537D01*
X225026185Y-110151185D01*
X225105537Y-110054494D01*
X225164502Y-109944180D01*
X225200812Y-109824482D01*
X225213072Y-109700000D01*
X225210000Y-109285750D01*
X225051250Y-109127000D01*
X224127000Y-109127000D01*
X223873000Y-109127000D01*
X223853000Y-109127000D01*
X223853000Y-108873000D01*
X223873000Y-108873000D01*
X223873000Y-107823750D01*
X224127000Y-107823750D01*
X224127000Y-108873000D01*
X225051250Y-108873000D01*
X225210000Y-108714250D01*
X225213072Y-108300000D01*
X225200812Y-108175518D01*
X225164502Y-108055820D01*
X225105537Y-107945506D01*
X225026185Y-107848815D01*
X224929494Y-107769463D01*
X224819180Y-107710498D01*
X224699482Y-107674188D01*
X224575000Y-107661928D01*
X224285750Y-107665000D01*
X224127000Y-107823750D01*
X223873000Y-107823750D01*
X223714250Y-107665000D01*
X223425000Y-107661928D01*
X223300518Y-107674188D01*
X223180820Y-107710498D01*
X223070506Y-107769463D01*
X222973815Y-107848815D01*
X222908342Y-107928594D01*
X222902962Y-107922038D01*
X222768387Y-107811595D01*
X222614851Y-107729528D01*
X222448255Y-107678992D01*
X222275001Y-107661928D01*
X221624999Y-107661928D01*
X221451745Y-107678992D01*
X221285149Y-107729528D01*
X221131613Y-107811595D01*
X220997038Y-107922038D01*
X220886595Y-108056613D01*
X220804528Y-108210149D01*
X220780306Y-108290000D01*
X216294092Y-108290000D01*
X215553029Y-107548938D01*
X215630537Y-107454494D01*
X215689502Y-107344180D01*
X215725812Y-107224482D01*
X215738072Y-107100000D01*
X215738072Y-105900000D01*
X215725812Y-105775518D01*
X215689502Y-105655820D01*
X215630537Y-105545506D01*
X215551185Y-105448815D01*
X215454494Y-105369463D01*
X215344180Y-105310498D01*
X215224482Y-105274188D01*
X215210000Y-105272762D01*
X215210000Y-98736428D01*
X220443177Y-98736428D01*
X220809365Y-99231216D01*
X221481837Y-99596501D01*
X222212650Y-99823575D01*
X222973721Y-99903710D01*
X223735803Y-99833828D01*
X224469608Y-99616614D01*
X225146936Y-99260416D01*
X225190635Y-99231216D01*
X225556823Y-98736428D01*
X223000000Y-96179605D01*
X220443177Y-98736428D01*
X215210000Y-98736428D01*
X215210000Y-95973721D01*
X219096290Y-95973721D01*
X219166172Y-96735803D01*
X219383386Y-97469608D01*
X219739584Y-98146936D01*
X219768784Y-98190635D01*
X220263572Y-98556823D01*
X222820395Y-96000000D01*
X223179605Y-96000000D01*
X225736428Y-98556823D01*
X226231216Y-98190635D01*
X226596501Y-97518163D01*
X226823575Y-96787350D01*
X226903710Y-96026279D01*
X226833828Y-95264197D01*
X226616614Y-94530392D01*
X226260416Y-93853064D01*
X226231216Y-93809365D01*
X225736428Y-93443177D01*
X223179605Y-96000000D01*
X222820395Y-96000000D01*
X220263572Y-93443177D01*
X219768784Y-93809365D01*
X219403499Y-94481837D01*
X219176425Y-95212650D01*
X219096290Y-95973721D01*
X215210000Y-95973721D01*
X215210000Y-93263572D01*
X220443177Y-93263572D01*
X223000000Y-95820395D01*
X225556823Y-93263572D01*
X225190635Y-92768784D01*
X224518163Y-92403499D01*
X223787350Y-92176425D01*
X223026279Y-92096290D01*
X222264197Y-92166172D01*
X221530392Y-92383386D01*
X220853064Y-92739584D01*
X220809365Y-92768784D01*
X220443177Y-93263572D01*
X215210000Y-93263572D01*
X215210000Y-80710000D01*
X226465125Y-80710000D01*
X226500000Y-80713435D01*
X226534875Y-80710000D01*
X226534877Y-80710000D01*
X226639184Y-80699727D01*
X226773020Y-80659128D01*
X226896363Y-80593200D01*
X227004475Y-80504475D01*
X227026712Y-80477379D01*
X227977379Y-79526712D01*
X228004475Y-79504475D01*
X228093200Y-79396363D01*
X228159128Y-79273020D01*
X228199727Y-79139184D01*
X228210000Y-79034877D01*
X228213435Y-79000000D01*
X228210000Y-78965123D01*
X228210000Y-56034877D01*
X228213435Y-56000000D01*
X228199727Y-55860816D01*
X228159128Y-55726980D01*
X228093200Y-55603637D01*
X228004475Y-55495525D01*
X227896363Y-55406800D01*
X227773020Y-55340872D01*
X227639184Y-55300273D01*
X227534877Y-55290000D01*
X227500000Y-55286565D01*
X227465123Y-55290000D01*
X225969608Y-55290000D01*
X225920449Y-55240841D01*
X226225770Y-55096865D01*
X226406597Y-54739108D01*
X226514155Y-54352947D01*
X226544310Y-53953223D01*
X226495904Y-53555296D01*
X226370795Y-53174460D01*
X226225770Y-52903135D01*
X225920447Y-52759158D01*
X224679605Y-54000000D01*
X224693748Y-54014143D01*
X224514143Y-54193748D01*
X224500000Y-54179605D01*
X224485858Y-54193748D01*
X224306253Y-54014143D01*
X224320395Y-54000000D01*
X223079553Y-52759158D01*
X222774230Y-52903135D01*
X222593403Y-53260892D01*
X222485845Y-53647053D01*
X222455690Y-54046777D01*
X222504096Y-54444704D01*
X222629205Y-54825540D01*
X222774230Y-55096865D01*
X223079551Y-55240841D01*
X223030392Y-55290000D01*
X222294092Y-55290000D01*
X219583645Y-52579553D01*
X223259158Y-52579553D01*
X224500000Y-53820395D01*
X225740842Y-52579553D01*
X225596865Y-52274230D01*
X225239108Y-52093403D01*
X224852947Y-51985845D01*
X224453223Y-51955690D01*
X224055296Y-52004096D01*
X223674460Y-52129205D01*
X223403135Y-52274230D01*
X223259158Y-52579553D01*
X219583645Y-52579553D01*
X213985000Y-46980909D01*
X213985000Y-46902986D01*
X213947147Y-46712686D01*
X213941893Y-46700000D01*
X216261928Y-46700000D01*
X216274188Y-46824482D01*
X216310498Y-46944180D01*
X216369463Y-47054494D01*
X216448815Y-47151185D01*
X216545506Y-47230537D01*
X216655820Y-47289502D01*
X216775518Y-47325812D01*
X216900000Y-47338072D01*
X217189250Y-47335000D01*
X217348000Y-47176250D01*
X217348000Y-46127000D01*
X216423750Y-46127000D01*
X216265000Y-46285750D01*
X216261928Y-46700000D01*
X213941893Y-46700000D01*
X213872896Y-46533428D01*
X213765099Y-46372099D01*
X213627901Y-46234901D01*
X213466572Y-46127104D01*
X213287314Y-46052853D01*
X213097014Y-46015000D01*
X212902986Y-46015000D01*
X212712686Y-46052853D01*
X212533428Y-46127104D01*
X212372099Y-46234901D01*
X212234901Y-46372099D01*
X212127104Y-46533428D01*
X212052853Y-46712686D01*
X212015000Y-46902986D01*
X212015000Y-47097014D01*
X212052853Y-47287314D01*
X212127104Y-47466572D01*
X212234901Y-47627901D01*
X212372099Y-47765099D01*
X212533428Y-47872896D01*
X212712686Y-47947147D01*
X212902986Y-47985000D01*
X212980909Y-47985000D01*
X221473292Y-56477384D01*
X221495525Y-56504475D01*
X221603637Y-56593200D01*
X221726980Y-56659128D01*
X221860816Y-56699727D01*
X221965123Y-56710000D01*
X221965124Y-56710000D01*
X221999999Y-56713435D01*
X222034874Y-56710000D01*
X226790000Y-56710000D01*
X226790000Y-60906643D01*
X226753793Y-60887290D01*
X226629383Y-60849550D01*
X226532419Y-60840000D01*
X226500000Y-60836807D01*
X226467581Y-60840000D01*
X199532419Y-60840000D01*
X199500000Y-60836807D01*
X199467581Y-60840000D01*
X199370617Y-60849550D01*
X199246207Y-60887290D01*
X199131550Y-60948575D01*
X199031052Y-61031052D01*
X198948575Y-61131550D01*
X198887290Y-61246207D01*
X198849550Y-61370617D01*
X198836807Y-61500000D01*
X193660000Y-61500000D01*
X193660000Y-55420447D01*
X200259158Y-55420447D01*
X200403135Y-55725770D01*
X200760892Y-55906597D01*
X201147053Y-56014155D01*
X201546777Y-56044310D01*
X201944704Y-55995904D01*
X202325540Y-55870795D01*
X202596865Y-55725770D01*
X202740842Y-55420447D01*
X201500000Y-54179605D01*
X200259158Y-55420447D01*
X193660000Y-55420447D01*
X193660000Y-54046777D01*
X199455690Y-54046777D01*
X199504096Y-54444704D01*
X199629205Y-54825540D01*
X199774230Y-55096865D01*
X200079553Y-55240842D01*
X201320395Y-54000000D01*
X201679605Y-54000000D01*
X202920447Y-55240842D01*
X203225770Y-55096865D01*
X203406597Y-54739108D01*
X203514155Y-54352947D01*
X203544310Y-53953223D01*
X203495904Y-53555296D01*
X203370795Y-53174460D01*
X203225770Y-52903135D01*
X202920447Y-52759158D01*
X201679605Y-54000000D01*
X201320395Y-54000000D01*
X200079553Y-52759158D01*
X199774230Y-52903135D01*
X199593403Y-53260892D01*
X199485845Y-53647053D01*
X199455690Y-54046777D01*
X193660000Y-54046777D01*
X193660000Y-52579553D01*
X200259158Y-52579553D01*
X201500000Y-53820395D01*
X202740842Y-52579553D01*
X202596865Y-52274230D01*
X202239108Y-52093403D01*
X201852947Y-51985845D01*
X201453223Y-51955690D01*
X201055296Y-52004096D01*
X200674460Y-52129205D01*
X200403135Y-52274230D01*
X200259158Y-52579553D01*
X193660000Y-52579553D01*
X193660000Y-44902986D01*
X212015000Y-44902986D01*
X212015000Y-45097014D01*
X212052853Y-45287314D01*
X212127104Y-45466572D01*
X212234901Y-45627901D01*
X212372099Y-45765099D01*
X212533428Y-45872896D01*
X212712686Y-45947147D01*
X212902986Y-45985000D01*
X213097014Y-45985000D01*
X213287314Y-45947147D01*
X213466572Y-45872896D01*
X213627901Y-45765099D01*
X213658010Y-45734990D01*
X216285740Y-45734990D01*
X216423750Y-45873000D01*
X217348000Y-45873000D01*
X217348000Y-45853000D01*
X217602000Y-45853000D01*
X217602000Y-45873000D01*
X217622000Y-45873000D01*
X217622000Y-46127000D01*
X217602000Y-46127000D01*
X217602000Y-47176250D01*
X217760750Y-47335000D01*
X218050000Y-47338072D01*
X218174482Y-47325812D01*
X218294180Y-47289502D01*
X218404494Y-47230537D01*
X218501185Y-47151185D01*
X218566658Y-47071406D01*
X218572038Y-47077962D01*
X218706613Y-47188405D01*
X218860149Y-47270472D01*
X219026745Y-47321008D01*
X219199999Y-47338072D01*
X219850001Y-47338072D01*
X220023255Y-47321008D01*
X220189851Y-47270472D01*
X220343387Y-47188405D01*
X220477962Y-47077962D01*
X220588405Y-46943387D01*
X220670472Y-46789851D01*
X220721008Y-46623255D01*
X220738072Y-46450001D01*
X220738072Y-45549999D01*
X220721008Y-45376745D01*
X220670472Y-45210149D01*
X220588405Y-45056613D01*
X220477962Y-44922038D01*
X220343387Y-44811595D01*
X220189851Y-44729528D01*
X220023255Y-44678992D01*
X219850001Y-44661928D01*
X219199999Y-44661928D01*
X219191824Y-44662733D01*
X219076702Y-44547611D01*
X219054465Y-44520515D01*
X218946353Y-44431790D01*
X218823010Y-44365862D01*
X218689174Y-44325263D01*
X218584867Y-44314990D01*
X218584865Y-44314990D01*
X218549990Y-44311555D01*
X218515115Y-44314990D01*
X213707990Y-44314990D01*
X213627901Y-44234901D01*
X213466572Y-44127104D01*
X213287314Y-44052853D01*
X213097014Y-44015000D01*
X212902986Y-44015000D01*
X212712686Y-44052853D01*
X212533428Y-44127104D01*
X212372099Y-44234901D01*
X212234901Y-44372099D01*
X212127104Y-44533428D01*
X212052853Y-44712686D01*
X212015000Y-44902986D01*
X193660000Y-44902986D01*
X193660000Y-39537162D01*
X195420333Y-39537162D01*
X195516975Y-39891038D01*
X195738519Y-40358331D01*
X196046970Y-40773424D01*
X196430475Y-41120365D01*
X196874296Y-41385822D01*
X197361377Y-41559593D01*
X197873000Y-41635000D01*
X199373000Y-41635000D01*
X199373000Y-39127000D01*
X199627000Y-39127000D01*
X199627000Y-41635000D01*
X201127000Y-41635000D01*
X201638623Y-41559593D01*
X202125704Y-41385822D01*
X202569525Y-41120365D01*
X202953030Y-40773424D01*
X203261481Y-40358331D01*
X203483025Y-39891038D01*
X203579667Y-39537162D01*
X222420333Y-39537162D01*
X222516975Y-39891038D01*
X222738519Y-40358331D01*
X223046970Y-40773424D01*
X223430475Y-41120365D01*
X223874296Y-41385822D01*
X224361377Y-41559593D01*
X224873000Y-41635000D01*
X226373000Y-41635000D01*
X226373000Y-39127000D01*
X226627000Y-39127000D01*
X226627000Y-41635000D01*
X228127000Y-41635000D01*
X228638623Y-41559593D01*
X229125704Y-41385822D01*
X229569525Y-41120365D01*
X229953030Y-40773424D01*
X230261481Y-40358331D01*
X230483025Y-39891038D01*
X230579667Y-39537162D01*
X230472991Y-39127000D01*
X226627000Y-39127000D01*
X226373000Y-39127000D01*
X222527009Y-39127000D01*
X222420333Y-39537162D01*
X203579667Y-39537162D01*
X203472991Y-39127000D01*
X199627000Y-39127000D01*
X199373000Y-39127000D01*
X195527009Y-39127000D01*
X195420333Y-39537162D01*
X193660000Y-39537162D01*
X193660000Y-36660000D01*
X196797686Y-36660000D01*
X196430475Y-36879635D01*
G37*
G04 #@! TD.AperFunction*
D19*
X224693748Y-77985858D02*
X224679605Y-78000000D01*
X224693748Y-78014143D01*
X224514143Y-78193748D01*
X224500000Y-78179605D01*
X224485858Y-78193748D01*
X224306253Y-78014143D01*
X224320395Y-78000000D01*
X224306253Y-77985858D01*
X224485858Y-77806253D01*
X224500000Y-77820395D01*
X224514143Y-77806253D01*
X224693748Y-77985858D01*
G04 #@! TA.AperFunction,Conductor*
D18*
G36*
X224693748Y-77985858D02*
G01*
X224679605Y-78000000D01*
X224693748Y-78014143D01*
X224514143Y-78193748D01*
X224500000Y-78179605D01*
X224485858Y-78193748D01*
X224306253Y-78014143D01*
X224320395Y-78000000D01*
X224306253Y-77985858D01*
X224485858Y-77806253D01*
X224500000Y-77820395D01*
X224514143Y-77806253D01*
X224693748Y-77985858D01*
G37*
G04 #@! TD.AperFunction*
M02*
