G04 #@! TF.GenerationSoftware,KiCad,Pcbnew,(5.1.9)-1*
G04 #@! TF.CreationDate,2021-04-12T22:44:30+02:00*
G04 #@! TF.ProjectId,KicadJE_Face,4b696361-644a-4455-9f46-6163652e6b69,rev?*
G04 #@! TF.SameCoordinates,Original*
G04 #@! TF.FileFunction,Copper,L1,Top*
G04 #@! TF.FilePolarity,Positive*
%FSLAX46Y46*%
G04 Gerber Fmt 4.6, Leading zero omitted, Abs format (unit mm)*
G04 Created by KiCad (PCBNEW (5.1.9)-1) date 2021-04-12 22:44:30*
%MOMM*%
%LPD*%
G01*
G04 APERTURE LIST*
G04 #@! TA.AperFunction,ComponentPad*
%ADD10O,7.000000X4.000000*%
G04 #@! TD*
G04 #@! TA.AperFunction,ComponentPad*
%ADD11C,6.500000*%
G04 #@! TD*
G04 #@! TA.AperFunction,ComponentPad*
%ADD12C,2.800000*%
G04 #@! TD*
G04 #@! TA.AperFunction,ViaPad*
%ADD13C,0.700000*%
G04 #@! TD*
G04 #@! TA.AperFunction,Conductor*
%ADD14C,0.150000*%
G04 #@! TD*
G04 #@! TA.AperFunction,Conductor*
%ADD15C,0.254000*%
G04 #@! TD*
G04 APERTURE END LIST*
D10*
X226500000Y-39000000D03*
D11*
X223000000Y-96000000D03*
D10*
X199500000Y-39000000D03*
X199500000Y-161000000D03*
D11*
X223000000Y-115000000D03*
D10*
X226500000Y-161000000D03*
D11*
X203000000Y-115000000D03*
X203075001Y-145000000D03*
X203000000Y-125000000D03*
X203000000Y-96000000D03*
X223000000Y-145000000D03*
X223000000Y-125000000D03*
G04 #@! TA.AperFunction,SMDPad,CuDef*
G36*
G01*
X211375000Y-46450001D02*
X211375000Y-45549999D01*
G75*
G02*
X211624999Y-45300000I249999J0D01*
G01*
X212275001Y-45300000D01*
G75*
G02*
X212525000Y-45549999I0J-249999D01*
G01*
X212525000Y-46450001D01*
G75*
G02*
X212275001Y-46700000I-249999J0D01*
G01*
X211624999Y-46700000D01*
G75*
G02*
X211375000Y-46450001I0J249999D01*
G01*
G37*
G04 #@! TD.AperFunction*
G04 #@! TA.AperFunction,SMDPad,CuDef*
G36*
G01*
X213425000Y-46450001D02*
X213425000Y-45549999D01*
G75*
G02*
X213674999Y-45300000I249999J0D01*
G01*
X214325001Y-45300000D01*
G75*
G02*
X214575000Y-45549999I0J-249999D01*
G01*
X214575000Y-46450001D01*
G75*
G02*
X214325001Y-46700000I-249999J0D01*
G01*
X213674999Y-46700000D01*
G75*
G02*
X213425000Y-46450001I0J249999D01*
G01*
G37*
G04 #@! TD.AperFunction*
G04 #@! TA.AperFunction,SMDPad,CuDef*
G36*
G01*
X194375000Y-115450001D02*
X194375000Y-114549999D01*
G75*
G02*
X194624999Y-114300000I249999J0D01*
G01*
X195275001Y-114300000D01*
G75*
G02*
X195525000Y-114549999I0J-249999D01*
G01*
X195525000Y-115450001D01*
G75*
G02*
X195275001Y-115700000I-249999J0D01*
G01*
X194624999Y-115700000D01*
G75*
G02*
X194375000Y-115450001I0J249999D01*
G01*
G37*
G04 #@! TD.AperFunction*
G04 #@! TA.AperFunction,SMDPad,CuDef*
G36*
G01*
X196425000Y-115450001D02*
X196425000Y-114549999D01*
G75*
G02*
X196674999Y-114300000I249999J0D01*
G01*
X197325001Y-114300000D01*
G75*
G02*
X197575000Y-114549999I0J-249999D01*
G01*
X197575000Y-115450001D01*
G75*
G02*
X197325001Y-115700000I-249999J0D01*
G01*
X196674999Y-115700000D01*
G75*
G02*
X196425000Y-115450001I0J249999D01*
G01*
G37*
G04 #@! TD.AperFunction*
G04 #@! TA.AperFunction,SMDPad,CuDef*
G36*
G01*
X230475000Y-115450001D02*
X230475000Y-114549999D01*
G75*
G02*
X230724999Y-114300000I249999J0D01*
G01*
X231375001Y-114300000D01*
G75*
G02*
X231625000Y-114549999I0J-249999D01*
G01*
X231625000Y-115450001D01*
G75*
G02*
X231375001Y-115700000I-249999J0D01*
G01*
X230724999Y-115700000D01*
G75*
G02*
X230475000Y-115450001I0J249999D01*
G01*
G37*
G04 #@! TD.AperFunction*
G04 #@! TA.AperFunction,SMDPad,CuDef*
G36*
G01*
X228425000Y-115450001D02*
X228425000Y-114549999D01*
G75*
G02*
X228674999Y-114300000I249999J0D01*
G01*
X229325001Y-114300000D01*
G75*
G02*
X229575000Y-114549999I0J-249999D01*
G01*
X229575000Y-115450001D01*
G75*
G02*
X229325001Y-115700000I-249999J0D01*
G01*
X228674999Y-115700000D01*
G75*
G02*
X228425000Y-115450001I0J249999D01*
G01*
G37*
G04 #@! TD.AperFunction*
G04 #@! TA.AperFunction,SMDPad,CuDef*
G36*
G01*
X194400000Y-125450001D02*
X194400000Y-124549999D01*
G75*
G02*
X194649999Y-124300000I249999J0D01*
G01*
X195300001Y-124300000D01*
G75*
G02*
X195550000Y-124549999I0J-249999D01*
G01*
X195550000Y-125450001D01*
G75*
G02*
X195300001Y-125700000I-249999J0D01*
G01*
X194649999Y-125700000D01*
G75*
G02*
X194400000Y-125450001I0J249999D01*
G01*
G37*
G04 #@! TD.AperFunction*
G04 #@! TA.AperFunction,SMDPad,CuDef*
G36*
G01*
X196450000Y-125450001D02*
X196450000Y-124549999D01*
G75*
G02*
X196699999Y-124300000I249999J0D01*
G01*
X197350001Y-124300000D01*
G75*
G02*
X197600000Y-124549999I0J-249999D01*
G01*
X197600000Y-125450001D01*
G75*
G02*
X197350001Y-125700000I-249999J0D01*
G01*
X196699999Y-125700000D01*
G75*
G02*
X196450000Y-125450001I0J249999D01*
G01*
G37*
G04 #@! TD.AperFunction*
G04 #@! TA.AperFunction,SMDPad,CuDef*
G36*
G01*
X230425000Y-125450001D02*
X230425000Y-124549999D01*
G75*
G02*
X230674999Y-124300000I249999J0D01*
G01*
X231325001Y-124300000D01*
G75*
G02*
X231575000Y-124549999I0J-249999D01*
G01*
X231575000Y-125450001D01*
G75*
G02*
X231325001Y-125700000I-249999J0D01*
G01*
X230674999Y-125700000D01*
G75*
G02*
X230425000Y-125450001I0J249999D01*
G01*
G37*
G04 #@! TD.AperFunction*
G04 #@! TA.AperFunction,SMDPad,CuDef*
G36*
G01*
X228375000Y-125450001D02*
X228375000Y-124549999D01*
G75*
G02*
X228624999Y-124300000I249999J0D01*
G01*
X229275001Y-124300000D01*
G75*
G02*
X229525000Y-124549999I0J-249999D01*
G01*
X229525000Y-125450001D01*
G75*
G02*
X229275001Y-125700000I-249999J0D01*
G01*
X228624999Y-125700000D01*
G75*
G02*
X228375000Y-125450001I0J249999D01*
G01*
G37*
G04 #@! TD.AperFunction*
G04 #@! TA.AperFunction,SMDPad,CuDef*
G36*
G01*
X194375000Y-145450001D02*
X194375000Y-144549999D01*
G75*
G02*
X194624999Y-144300000I249999J0D01*
G01*
X195275001Y-144300000D01*
G75*
G02*
X195525000Y-144549999I0J-249999D01*
G01*
X195525000Y-145450001D01*
G75*
G02*
X195275001Y-145700000I-249999J0D01*
G01*
X194624999Y-145700000D01*
G75*
G02*
X194375000Y-145450001I0J249999D01*
G01*
G37*
G04 #@! TD.AperFunction*
G04 #@! TA.AperFunction,SMDPad,CuDef*
G36*
G01*
X196425000Y-145450001D02*
X196425000Y-144549999D01*
G75*
G02*
X196674999Y-144300000I249999J0D01*
G01*
X197325001Y-144300000D01*
G75*
G02*
X197575000Y-144549999I0J-249999D01*
G01*
X197575000Y-145450001D01*
G75*
G02*
X197325001Y-145700000I-249999J0D01*
G01*
X196674999Y-145700000D01*
G75*
G02*
X196425000Y-145450001I0J249999D01*
G01*
G37*
G04 #@! TD.AperFunction*
G04 #@! TA.AperFunction,SMDPad,CuDef*
G36*
G01*
X230450000Y-145450001D02*
X230450000Y-144549999D01*
G75*
G02*
X230699999Y-144300000I249999J0D01*
G01*
X231350001Y-144300000D01*
G75*
G02*
X231600000Y-144549999I0J-249999D01*
G01*
X231600000Y-145450001D01*
G75*
G02*
X231350001Y-145700000I-249999J0D01*
G01*
X230699999Y-145700000D01*
G75*
G02*
X230450000Y-145450001I0J249999D01*
G01*
G37*
G04 #@! TD.AperFunction*
G04 #@! TA.AperFunction,SMDPad,CuDef*
G36*
G01*
X228400000Y-145450001D02*
X228400000Y-144549999D01*
G75*
G02*
X228649999Y-144300000I249999J0D01*
G01*
X229300001Y-144300000D01*
G75*
G02*
X229550000Y-144549999I0J-249999D01*
G01*
X229550000Y-145450001D01*
G75*
G02*
X229300001Y-145700000I-249999J0D01*
G01*
X228649999Y-145700000D01*
G75*
G02*
X228400000Y-145450001I0J249999D01*
G01*
G37*
G04 #@! TD.AperFunction*
D12*
X201500000Y-78000000D03*
X201500000Y-54000000D03*
X224500000Y-78000000D03*
X224500000Y-54000000D03*
D13*
X213000000Y-47000000D03*
X213000000Y-45000000D03*
X196000000Y-116000000D03*
X196000000Y-114000000D03*
X230000000Y-116000000D03*
X230000000Y-113999958D03*
X196000000Y-124000000D03*
X196000000Y-126000008D03*
X230000000Y-126000000D03*
X230000000Y-124000000D03*
X196000000Y-146000000D03*
X196000007Y-144000007D03*
X230000000Y-144000000D03*
X230000000Y-146000000D03*
D14*
X212000000Y-46000000D02*
X213000000Y-47000000D01*
X211950000Y-46000000D02*
X212000000Y-46000000D01*
X213000000Y-45000000D02*
X214000000Y-46000000D01*
X195950000Y-116000000D02*
X196000000Y-116000000D01*
X194950000Y-115000000D02*
X195950000Y-116000000D01*
X197000000Y-115000000D02*
X196000000Y-114000000D01*
X230050000Y-116000000D02*
X230000000Y-116000000D01*
X231050000Y-115000000D02*
X230050000Y-116000000D01*
X229000000Y-115000000D02*
X230000000Y-114000000D01*
X230000000Y-114000000D02*
X230000000Y-113999958D01*
X195975000Y-124000000D02*
X196000000Y-124000000D01*
X194975000Y-125000000D02*
X195975000Y-124000000D01*
X197025000Y-125000000D02*
X196024992Y-126000008D01*
X196024992Y-126000008D02*
X196000000Y-126000008D01*
X231000000Y-125000000D02*
X230000000Y-126000000D01*
X229950000Y-124000000D02*
X230000000Y-124000000D01*
X228950000Y-125000000D02*
X229950000Y-124000000D01*
X195000000Y-145000000D02*
X196000000Y-146000000D01*
X194950000Y-145000000D02*
X195000000Y-145000000D01*
X197000000Y-145000000D02*
X196000007Y-144000007D01*
X231025000Y-145000000D02*
X230025000Y-144000000D01*
X230025000Y-144000000D02*
X230000000Y-144000000D01*
X229975000Y-146000000D02*
X230000000Y-146000000D01*
X228975000Y-145000000D02*
X229975000Y-146000000D01*
D15*
X196430475Y-36879635D02*
X196046970Y-37226576D01*
X195738519Y-37641669D01*
X195516975Y-38108962D01*
X195420333Y-38462838D01*
X195527009Y-38873000D01*
X199373000Y-38873000D01*
X199373000Y-38853000D01*
X199627000Y-38853000D01*
X199627000Y-38873000D01*
X203472991Y-38873000D01*
X203579667Y-38462838D01*
X203483025Y-38108962D01*
X203261481Y-37641669D01*
X202953030Y-37226576D01*
X202569525Y-36879635D01*
X202202314Y-36660000D01*
X223797686Y-36660000D01*
X223430475Y-36879635D01*
X223046970Y-37226576D01*
X222738519Y-37641669D01*
X222516975Y-38108962D01*
X222420333Y-38462838D01*
X222527009Y-38873000D01*
X226373000Y-38873000D01*
X226373000Y-38853000D01*
X226627000Y-38853000D01*
X226627000Y-38873000D01*
X230472991Y-38873000D01*
X230579667Y-38462838D01*
X230483025Y-38108962D01*
X230261481Y-37641669D01*
X229953030Y-37226576D01*
X229569525Y-36879635D01*
X229202314Y-36660000D01*
X232340000Y-36660000D01*
X232340001Y-163340000D01*
X229202314Y-163340000D01*
X229569525Y-163120365D01*
X229953030Y-162773424D01*
X230261481Y-162358331D01*
X230483025Y-161891038D01*
X230579667Y-161537162D01*
X230472991Y-161127000D01*
X226627000Y-161127000D01*
X226627000Y-161147000D01*
X226373000Y-161147000D01*
X226373000Y-161127000D01*
X222527009Y-161127000D01*
X222420333Y-161537162D01*
X222516975Y-161891038D01*
X222738519Y-162358331D01*
X223046970Y-162773424D01*
X223430475Y-163120365D01*
X223797686Y-163340000D01*
X202202314Y-163340000D01*
X202569525Y-163120365D01*
X202953030Y-162773424D01*
X203261481Y-162358331D01*
X203483025Y-161891038D01*
X203579667Y-161537162D01*
X203472991Y-161127000D01*
X199627000Y-161127000D01*
X199627000Y-161147000D01*
X199373000Y-161147000D01*
X199373000Y-161127000D01*
X195527009Y-161127000D01*
X195420333Y-161537162D01*
X195516975Y-161891038D01*
X195738519Y-162358331D01*
X196046970Y-162773424D01*
X196430475Y-163120365D01*
X196797686Y-163340000D01*
X193660000Y-163340000D01*
X193660000Y-160462838D01*
X195420333Y-160462838D01*
X195527009Y-160873000D01*
X199373000Y-160873000D01*
X199373000Y-158365000D01*
X199627000Y-158365000D01*
X199627000Y-160873000D01*
X203472991Y-160873000D01*
X203579667Y-160462838D01*
X222420333Y-160462838D01*
X222527009Y-160873000D01*
X226373000Y-160873000D01*
X226373000Y-158365000D01*
X226627000Y-158365000D01*
X226627000Y-160873000D01*
X230472991Y-160873000D01*
X230579667Y-160462838D01*
X230483025Y-160108962D01*
X230261481Y-159641669D01*
X229953030Y-159226576D01*
X229569525Y-158879635D01*
X229125704Y-158614178D01*
X228638623Y-158440407D01*
X228127000Y-158365000D01*
X226627000Y-158365000D01*
X226373000Y-158365000D01*
X224873000Y-158365000D01*
X224361377Y-158440407D01*
X223874296Y-158614178D01*
X223430475Y-158879635D01*
X223046970Y-159226576D01*
X222738519Y-159641669D01*
X222516975Y-160108962D01*
X222420333Y-160462838D01*
X203579667Y-160462838D01*
X203483025Y-160108962D01*
X203261481Y-159641669D01*
X202953030Y-159226576D01*
X202569525Y-158879635D01*
X202125704Y-158614178D01*
X201638623Y-158440407D01*
X201127000Y-158365000D01*
X199627000Y-158365000D01*
X199373000Y-158365000D01*
X197873000Y-158365000D01*
X197361377Y-158440407D01*
X196874296Y-158614178D01*
X196430475Y-158879635D01*
X196046970Y-159226576D01*
X195738519Y-159641669D01*
X195516975Y-160108962D01*
X195420333Y-160462838D01*
X193660000Y-160462838D01*
X193660000Y-147736428D01*
X200518178Y-147736428D01*
X200884366Y-148231216D01*
X201556838Y-148596501D01*
X202287651Y-148823575D01*
X203048722Y-148903710D01*
X203810804Y-148833828D01*
X204544609Y-148616614D01*
X205221937Y-148260416D01*
X205265636Y-148231216D01*
X205631824Y-147736428D01*
X220443177Y-147736428D01*
X220809365Y-148231216D01*
X221481837Y-148596501D01*
X222212650Y-148823575D01*
X222973721Y-148903710D01*
X223735803Y-148833828D01*
X224469608Y-148616614D01*
X225146936Y-148260416D01*
X225190635Y-148231216D01*
X225556823Y-147736428D01*
X223000000Y-145179605D01*
X220443177Y-147736428D01*
X205631824Y-147736428D01*
X203075001Y-145179605D01*
X200518178Y-147736428D01*
X193660000Y-147736428D01*
X193660000Y-144549999D01*
X193736928Y-144549999D01*
X193736928Y-145450001D01*
X193753992Y-145623255D01*
X193804528Y-145789851D01*
X193886595Y-145943387D01*
X193997038Y-146077962D01*
X194131613Y-146188405D01*
X194285149Y-146270472D01*
X194451745Y-146321008D01*
X194624999Y-146338072D01*
X195073878Y-146338072D01*
X195127104Y-146466572D01*
X195234901Y-146627901D01*
X195372099Y-146765099D01*
X195533428Y-146872896D01*
X195712686Y-146947147D01*
X195902986Y-146985000D01*
X196097014Y-146985000D01*
X196287314Y-146947147D01*
X196466572Y-146872896D01*
X196627901Y-146765099D01*
X196765099Y-146627901D01*
X196872896Y-146466572D01*
X196926122Y-146338072D01*
X197325001Y-146338072D01*
X197498255Y-146321008D01*
X197664851Y-146270472D01*
X197818387Y-146188405D01*
X197952962Y-146077962D01*
X198063405Y-145943387D01*
X198145472Y-145789851D01*
X198196008Y-145623255D01*
X198213072Y-145450001D01*
X198213072Y-144973721D01*
X199171291Y-144973721D01*
X199241173Y-145735803D01*
X199458387Y-146469608D01*
X199814585Y-147146936D01*
X199843785Y-147190635D01*
X200338573Y-147556823D01*
X202895396Y-145000000D01*
X203254606Y-145000000D01*
X205811429Y-147556823D01*
X206306217Y-147190635D01*
X206671502Y-146518163D01*
X206898576Y-145787350D01*
X206978711Y-145026279D01*
X206973892Y-144973721D01*
X219096290Y-144973721D01*
X219166172Y-145735803D01*
X219383386Y-146469608D01*
X219739584Y-147146936D01*
X219768784Y-147190635D01*
X220263572Y-147556823D01*
X222820395Y-145000000D01*
X223179605Y-145000000D01*
X225736428Y-147556823D01*
X226231216Y-147190635D01*
X226596501Y-146518163D01*
X226823575Y-145787350D01*
X226903710Y-145026279D01*
X226860036Y-144549999D01*
X227761928Y-144549999D01*
X227761928Y-145450001D01*
X227778992Y-145623255D01*
X227829528Y-145789851D01*
X227911595Y-145943387D01*
X228022038Y-146077962D01*
X228156613Y-146188405D01*
X228310149Y-146270472D01*
X228476745Y-146321008D01*
X228649999Y-146338072D01*
X229073878Y-146338072D01*
X229127104Y-146466572D01*
X229234901Y-146627901D01*
X229372099Y-146765099D01*
X229533428Y-146872896D01*
X229712686Y-146947147D01*
X229902986Y-146985000D01*
X230097014Y-146985000D01*
X230287314Y-146947147D01*
X230466572Y-146872896D01*
X230627901Y-146765099D01*
X230765099Y-146627901D01*
X230872896Y-146466572D01*
X230926122Y-146338072D01*
X231350001Y-146338072D01*
X231523255Y-146321008D01*
X231689851Y-146270472D01*
X231843387Y-146188405D01*
X231977962Y-146077962D01*
X232088405Y-145943387D01*
X232170472Y-145789851D01*
X232221008Y-145623255D01*
X232238072Y-145450001D01*
X232238072Y-144549999D01*
X232221008Y-144376745D01*
X232170472Y-144210149D01*
X232088405Y-144056613D01*
X231977962Y-143922038D01*
X231843387Y-143811595D01*
X231689851Y-143729528D01*
X231523255Y-143678992D01*
X231350001Y-143661928D01*
X230926122Y-143661928D01*
X230872896Y-143533428D01*
X230765099Y-143372099D01*
X230627901Y-143234901D01*
X230466572Y-143127104D01*
X230287314Y-143052853D01*
X230097014Y-143015000D01*
X229902986Y-143015000D01*
X229712686Y-143052853D01*
X229533428Y-143127104D01*
X229372099Y-143234901D01*
X229234901Y-143372099D01*
X229127104Y-143533428D01*
X229073878Y-143661928D01*
X228649999Y-143661928D01*
X228476745Y-143678992D01*
X228310149Y-143729528D01*
X228156613Y-143811595D01*
X228022038Y-143922038D01*
X227911595Y-144056613D01*
X227829528Y-144210149D01*
X227778992Y-144376745D01*
X227761928Y-144549999D01*
X226860036Y-144549999D01*
X226833828Y-144264197D01*
X226616614Y-143530392D01*
X226260416Y-142853064D01*
X226231216Y-142809365D01*
X225736428Y-142443177D01*
X223179605Y-145000000D01*
X222820395Y-145000000D01*
X220263572Y-142443177D01*
X219768784Y-142809365D01*
X219403499Y-143481837D01*
X219176425Y-144212650D01*
X219096290Y-144973721D01*
X206973892Y-144973721D01*
X206908829Y-144264197D01*
X206691615Y-143530392D01*
X206335417Y-142853064D01*
X206306217Y-142809365D01*
X205811429Y-142443177D01*
X203254606Y-145000000D01*
X202895396Y-145000000D01*
X200338573Y-142443177D01*
X199843785Y-142809365D01*
X199478500Y-143481837D01*
X199251426Y-144212650D01*
X199171291Y-144973721D01*
X198213072Y-144973721D01*
X198213072Y-144549999D01*
X198196008Y-144376745D01*
X198145472Y-144210149D01*
X198063405Y-144056613D01*
X197952962Y-143922038D01*
X197818387Y-143811595D01*
X197664851Y-143729528D01*
X197498255Y-143678992D01*
X197325001Y-143661928D01*
X196926126Y-143661928D01*
X196872903Y-143533435D01*
X196765106Y-143372106D01*
X196627908Y-143234908D01*
X196466579Y-143127111D01*
X196287321Y-143052860D01*
X196097021Y-143015007D01*
X195902993Y-143015007D01*
X195712693Y-143052860D01*
X195533435Y-143127111D01*
X195372106Y-143234908D01*
X195234908Y-143372106D01*
X195127111Y-143533435D01*
X195073888Y-143661928D01*
X194624999Y-143661928D01*
X194451745Y-143678992D01*
X194285149Y-143729528D01*
X194131613Y-143811595D01*
X193997038Y-143922038D01*
X193886595Y-144056613D01*
X193804528Y-144210149D01*
X193753992Y-144376745D01*
X193736928Y-144549999D01*
X193660000Y-144549999D01*
X193660000Y-142263572D01*
X200518178Y-142263572D01*
X203075001Y-144820395D01*
X205631824Y-142263572D01*
X220443177Y-142263572D01*
X223000000Y-144820395D01*
X225556823Y-142263572D01*
X225190635Y-141768784D01*
X224518163Y-141403499D01*
X223787350Y-141176425D01*
X223026279Y-141096290D01*
X222264197Y-141166172D01*
X221530392Y-141383386D01*
X220853064Y-141739584D01*
X220809365Y-141768784D01*
X220443177Y-142263572D01*
X205631824Y-142263572D01*
X205265636Y-141768784D01*
X204593164Y-141403499D01*
X203862351Y-141176425D01*
X203101280Y-141096290D01*
X202339198Y-141166172D01*
X201605393Y-141383386D01*
X200928065Y-141739584D01*
X200884366Y-141768784D01*
X200518178Y-142263572D01*
X193660000Y-142263572D01*
X193660000Y-127736428D01*
X200443177Y-127736428D01*
X200809365Y-128231216D01*
X201481837Y-128596501D01*
X202212650Y-128823575D01*
X202973721Y-128903710D01*
X203735803Y-128833828D01*
X204469608Y-128616614D01*
X205146936Y-128260416D01*
X205190635Y-128231216D01*
X205556823Y-127736428D01*
X220443177Y-127736428D01*
X220809365Y-128231216D01*
X221481837Y-128596501D01*
X222212650Y-128823575D01*
X222973721Y-128903710D01*
X223735803Y-128833828D01*
X224469608Y-128616614D01*
X225146936Y-128260416D01*
X225190635Y-128231216D01*
X225556823Y-127736428D01*
X223000000Y-125179605D01*
X220443177Y-127736428D01*
X205556823Y-127736428D01*
X203000000Y-125179605D01*
X200443177Y-127736428D01*
X193660000Y-127736428D01*
X193660000Y-124549999D01*
X193761928Y-124549999D01*
X193761928Y-125450001D01*
X193778992Y-125623255D01*
X193829528Y-125789851D01*
X193911595Y-125943387D01*
X194022038Y-126077962D01*
X194156613Y-126188405D01*
X194310149Y-126270472D01*
X194476745Y-126321008D01*
X194649999Y-126338072D01*
X195073874Y-126338072D01*
X195127104Y-126466580D01*
X195234901Y-126627909D01*
X195372099Y-126765107D01*
X195533428Y-126872904D01*
X195712686Y-126947155D01*
X195902986Y-126985008D01*
X196097014Y-126985008D01*
X196287314Y-126947155D01*
X196466572Y-126872904D01*
X196627901Y-126765107D01*
X196765099Y-126627909D01*
X196872896Y-126466580D01*
X196926126Y-126338072D01*
X197350001Y-126338072D01*
X197523255Y-126321008D01*
X197689851Y-126270472D01*
X197843387Y-126188405D01*
X197977962Y-126077962D01*
X198088405Y-125943387D01*
X198170472Y-125789851D01*
X198221008Y-125623255D01*
X198238072Y-125450001D01*
X198238072Y-124973721D01*
X199096290Y-124973721D01*
X199166172Y-125735803D01*
X199383386Y-126469608D01*
X199739584Y-127146936D01*
X199768784Y-127190635D01*
X200263572Y-127556823D01*
X202820395Y-125000000D01*
X203179605Y-125000000D01*
X205736428Y-127556823D01*
X206231216Y-127190635D01*
X206596501Y-126518163D01*
X206823575Y-125787350D01*
X206903710Y-125026279D01*
X206898891Y-124973721D01*
X219096290Y-124973721D01*
X219166172Y-125735803D01*
X219383386Y-126469608D01*
X219739584Y-127146936D01*
X219768784Y-127190635D01*
X220263572Y-127556823D01*
X222820395Y-125000000D01*
X223179605Y-125000000D01*
X225736428Y-127556823D01*
X226231216Y-127190635D01*
X226596501Y-126518163D01*
X226823575Y-125787350D01*
X226903710Y-125026279D01*
X226860036Y-124549999D01*
X227736928Y-124549999D01*
X227736928Y-125450001D01*
X227753992Y-125623255D01*
X227804528Y-125789851D01*
X227886595Y-125943387D01*
X227997038Y-126077962D01*
X228131613Y-126188405D01*
X228285149Y-126270472D01*
X228451745Y-126321008D01*
X228624999Y-126338072D01*
X229073878Y-126338072D01*
X229127104Y-126466572D01*
X229234901Y-126627901D01*
X229372099Y-126765099D01*
X229533428Y-126872896D01*
X229712686Y-126947147D01*
X229902986Y-126985000D01*
X230097014Y-126985000D01*
X230287314Y-126947147D01*
X230466572Y-126872896D01*
X230627901Y-126765099D01*
X230765099Y-126627901D01*
X230872896Y-126466572D01*
X230926122Y-126338072D01*
X231325001Y-126338072D01*
X231498255Y-126321008D01*
X231664851Y-126270472D01*
X231818387Y-126188405D01*
X231952962Y-126077962D01*
X232063405Y-125943387D01*
X232145472Y-125789851D01*
X232196008Y-125623255D01*
X232213072Y-125450001D01*
X232213072Y-124549999D01*
X232196008Y-124376745D01*
X232145472Y-124210149D01*
X232063405Y-124056613D01*
X231952962Y-123922038D01*
X231818387Y-123811595D01*
X231664851Y-123729528D01*
X231498255Y-123678992D01*
X231325001Y-123661928D01*
X230926122Y-123661928D01*
X230872896Y-123533428D01*
X230765099Y-123372099D01*
X230627901Y-123234901D01*
X230466572Y-123127104D01*
X230287314Y-123052853D01*
X230097014Y-123015000D01*
X229902986Y-123015000D01*
X229712686Y-123052853D01*
X229533428Y-123127104D01*
X229372099Y-123234901D01*
X229234901Y-123372099D01*
X229127104Y-123533428D01*
X229073878Y-123661928D01*
X228624999Y-123661928D01*
X228451745Y-123678992D01*
X228285149Y-123729528D01*
X228131613Y-123811595D01*
X227997038Y-123922038D01*
X227886595Y-124056613D01*
X227804528Y-124210149D01*
X227753992Y-124376745D01*
X227736928Y-124549999D01*
X226860036Y-124549999D01*
X226833828Y-124264197D01*
X226616614Y-123530392D01*
X226260416Y-122853064D01*
X226231216Y-122809365D01*
X225736428Y-122443177D01*
X223179605Y-125000000D01*
X222820395Y-125000000D01*
X220263572Y-122443177D01*
X219768784Y-122809365D01*
X219403499Y-123481837D01*
X219176425Y-124212650D01*
X219096290Y-124973721D01*
X206898891Y-124973721D01*
X206833828Y-124264197D01*
X206616614Y-123530392D01*
X206260416Y-122853064D01*
X206231216Y-122809365D01*
X205736428Y-122443177D01*
X203179605Y-125000000D01*
X202820395Y-125000000D01*
X200263572Y-122443177D01*
X199768784Y-122809365D01*
X199403499Y-123481837D01*
X199176425Y-124212650D01*
X199096290Y-124973721D01*
X198238072Y-124973721D01*
X198238072Y-124549999D01*
X198221008Y-124376745D01*
X198170472Y-124210149D01*
X198088405Y-124056613D01*
X197977962Y-123922038D01*
X197843387Y-123811595D01*
X197689851Y-123729528D01*
X197523255Y-123678992D01*
X197350001Y-123661928D01*
X196926122Y-123661928D01*
X196872896Y-123533428D01*
X196765099Y-123372099D01*
X196627901Y-123234901D01*
X196466572Y-123127104D01*
X196287314Y-123052853D01*
X196097014Y-123015000D01*
X195902986Y-123015000D01*
X195712686Y-123052853D01*
X195533428Y-123127104D01*
X195372099Y-123234901D01*
X195234901Y-123372099D01*
X195127104Y-123533428D01*
X195073878Y-123661928D01*
X194649999Y-123661928D01*
X194476745Y-123678992D01*
X194310149Y-123729528D01*
X194156613Y-123811595D01*
X194022038Y-123922038D01*
X193911595Y-124056613D01*
X193829528Y-124210149D01*
X193778992Y-124376745D01*
X193761928Y-124549999D01*
X193660000Y-124549999D01*
X193660000Y-122263572D01*
X200443177Y-122263572D01*
X203000000Y-124820395D01*
X205556823Y-122263572D01*
X220443177Y-122263572D01*
X223000000Y-124820395D01*
X225556823Y-122263572D01*
X225190635Y-121768784D01*
X224518163Y-121403499D01*
X223787350Y-121176425D01*
X223026279Y-121096290D01*
X222264197Y-121166172D01*
X221530392Y-121383386D01*
X220853064Y-121739584D01*
X220809365Y-121768784D01*
X220443177Y-122263572D01*
X205556823Y-122263572D01*
X205190635Y-121768784D01*
X204518163Y-121403499D01*
X203787350Y-121176425D01*
X203026279Y-121096290D01*
X202264197Y-121166172D01*
X201530392Y-121383386D01*
X200853064Y-121739584D01*
X200809365Y-121768784D01*
X200443177Y-122263572D01*
X193660000Y-122263572D01*
X193660000Y-117736428D01*
X200443177Y-117736428D01*
X200809365Y-118231216D01*
X201481837Y-118596501D01*
X202212650Y-118823575D01*
X202973721Y-118903710D01*
X203735803Y-118833828D01*
X204469608Y-118616614D01*
X205146936Y-118260416D01*
X205190635Y-118231216D01*
X205556823Y-117736428D01*
X220443177Y-117736428D01*
X220809365Y-118231216D01*
X221481837Y-118596501D01*
X222212650Y-118823575D01*
X222973721Y-118903710D01*
X223735803Y-118833828D01*
X224469608Y-118616614D01*
X225146936Y-118260416D01*
X225190635Y-118231216D01*
X225556823Y-117736428D01*
X223000000Y-115179605D01*
X220443177Y-117736428D01*
X205556823Y-117736428D01*
X203000000Y-115179605D01*
X200443177Y-117736428D01*
X193660000Y-117736428D01*
X193660000Y-114549999D01*
X193736928Y-114549999D01*
X193736928Y-115450001D01*
X193753992Y-115623255D01*
X193804528Y-115789851D01*
X193886595Y-115943387D01*
X193997038Y-116077962D01*
X194131613Y-116188405D01*
X194285149Y-116270472D01*
X194451745Y-116321008D01*
X194624999Y-116338072D01*
X195073878Y-116338072D01*
X195127104Y-116466572D01*
X195234901Y-116627901D01*
X195372099Y-116765099D01*
X195533428Y-116872896D01*
X195712686Y-116947147D01*
X195902986Y-116985000D01*
X196097014Y-116985000D01*
X196287314Y-116947147D01*
X196466572Y-116872896D01*
X196627901Y-116765099D01*
X196765099Y-116627901D01*
X196872896Y-116466572D01*
X196926122Y-116338072D01*
X197325001Y-116338072D01*
X197498255Y-116321008D01*
X197664851Y-116270472D01*
X197818387Y-116188405D01*
X197952962Y-116077962D01*
X198063405Y-115943387D01*
X198145472Y-115789851D01*
X198196008Y-115623255D01*
X198213072Y-115450001D01*
X198213072Y-114973721D01*
X199096290Y-114973721D01*
X199166172Y-115735803D01*
X199383386Y-116469608D01*
X199739584Y-117146936D01*
X199768784Y-117190635D01*
X200263572Y-117556823D01*
X202820395Y-115000000D01*
X203179605Y-115000000D01*
X205736428Y-117556823D01*
X206231216Y-117190635D01*
X206596501Y-116518163D01*
X206823575Y-115787350D01*
X206903710Y-115026279D01*
X206898891Y-114973721D01*
X219096290Y-114973721D01*
X219166172Y-115735803D01*
X219383386Y-116469608D01*
X219739584Y-117146936D01*
X219768784Y-117190635D01*
X220263572Y-117556823D01*
X222820395Y-115000000D01*
X223179605Y-115000000D01*
X225736428Y-117556823D01*
X226231216Y-117190635D01*
X226596501Y-116518163D01*
X226823575Y-115787350D01*
X226903710Y-115026279D01*
X226860036Y-114549999D01*
X227786928Y-114549999D01*
X227786928Y-115450001D01*
X227803992Y-115623255D01*
X227854528Y-115789851D01*
X227936595Y-115943387D01*
X228047038Y-116077962D01*
X228181613Y-116188405D01*
X228335149Y-116270472D01*
X228501745Y-116321008D01*
X228674999Y-116338072D01*
X229073878Y-116338072D01*
X229127104Y-116466572D01*
X229234901Y-116627901D01*
X229372099Y-116765099D01*
X229533428Y-116872896D01*
X229712686Y-116947147D01*
X229902986Y-116985000D01*
X230097014Y-116985000D01*
X230287314Y-116947147D01*
X230466572Y-116872896D01*
X230627901Y-116765099D01*
X230765099Y-116627901D01*
X230872896Y-116466572D01*
X230926122Y-116338072D01*
X231375001Y-116338072D01*
X231548255Y-116321008D01*
X231714851Y-116270472D01*
X231868387Y-116188405D01*
X232002962Y-116077962D01*
X232113405Y-115943387D01*
X232195472Y-115789851D01*
X232246008Y-115623255D01*
X232263072Y-115450001D01*
X232263072Y-114549999D01*
X232246008Y-114376745D01*
X232195472Y-114210149D01*
X232113405Y-114056613D01*
X232002962Y-113922038D01*
X231868387Y-113811595D01*
X231714851Y-113729528D01*
X231548255Y-113678992D01*
X231375001Y-113661928D01*
X230926140Y-113661928D01*
X230872896Y-113533386D01*
X230765099Y-113372057D01*
X230627901Y-113234859D01*
X230466572Y-113127062D01*
X230287314Y-113052811D01*
X230097014Y-113014958D01*
X229902986Y-113014958D01*
X229712686Y-113052811D01*
X229533428Y-113127062D01*
X229372099Y-113234859D01*
X229234901Y-113372057D01*
X229127104Y-113533386D01*
X229073860Y-113661928D01*
X228674999Y-113661928D01*
X228501745Y-113678992D01*
X228335149Y-113729528D01*
X228181613Y-113811595D01*
X228047038Y-113922038D01*
X227936595Y-114056613D01*
X227854528Y-114210149D01*
X227803992Y-114376745D01*
X227786928Y-114549999D01*
X226860036Y-114549999D01*
X226833828Y-114264197D01*
X226616614Y-113530392D01*
X226260416Y-112853064D01*
X226231216Y-112809365D01*
X225736428Y-112443177D01*
X223179605Y-115000000D01*
X222820395Y-115000000D01*
X220263572Y-112443177D01*
X219768784Y-112809365D01*
X219403499Y-113481837D01*
X219176425Y-114212650D01*
X219096290Y-114973721D01*
X206898891Y-114973721D01*
X206833828Y-114264197D01*
X206616614Y-113530392D01*
X206260416Y-112853064D01*
X206231216Y-112809365D01*
X205736428Y-112443177D01*
X203179605Y-115000000D01*
X202820395Y-115000000D01*
X200263572Y-112443177D01*
X199768784Y-112809365D01*
X199403499Y-113481837D01*
X199176425Y-114212650D01*
X199096290Y-114973721D01*
X198213072Y-114973721D01*
X198213072Y-114549999D01*
X198196008Y-114376745D01*
X198145472Y-114210149D01*
X198063405Y-114056613D01*
X197952962Y-113922038D01*
X197818387Y-113811595D01*
X197664851Y-113729528D01*
X197498255Y-113678992D01*
X197325001Y-113661928D01*
X196926122Y-113661928D01*
X196872896Y-113533428D01*
X196765099Y-113372099D01*
X196627901Y-113234901D01*
X196466572Y-113127104D01*
X196287314Y-113052853D01*
X196097014Y-113015000D01*
X195902986Y-113015000D01*
X195712686Y-113052853D01*
X195533428Y-113127104D01*
X195372099Y-113234901D01*
X195234901Y-113372099D01*
X195127104Y-113533428D01*
X195073878Y-113661928D01*
X194624999Y-113661928D01*
X194451745Y-113678992D01*
X194285149Y-113729528D01*
X194131613Y-113811595D01*
X193997038Y-113922038D01*
X193886595Y-114056613D01*
X193804528Y-114210149D01*
X193753992Y-114376745D01*
X193736928Y-114549999D01*
X193660000Y-114549999D01*
X193660000Y-112263572D01*
X200443177Y-112263572D01*
X203000000Y-114820395D01*
X205556823Y-112263572D01*
X220443177Y-112263572D01*
X223000000Y-114820395D01*
X225556823Y-112263572D01*
X225190635Y-111768784D01*
X224518163Y-111403499D01*
X223787350Y-111176425D01*
X223026279Y-111096290D01*
X222264197Y-111166172D01*
X221530392Y-111383386D01*
X220853064Y-111739584D01*
X220809365Y-111768784D01*
X220443177Y-112263572D01*
X205556823Y-112263572D01*
X205190635Y-111768784D01*
X204518163Y-111403499D01*
X203787350Y-111176425D01*
X203026279Y-111096290D01*
X202264197Y-111166172D01*
X201530392Y-111383386D01*
X200853064Y-111739584D01*
X200809365Y-111768784D01*
X200443177Y-112263572D01*
X193660000Y-112263572D01*
X193660000Y-98736428D01*
X200443177Y-98736428D01*
X200809365Y-99231216D01*
X201481837Y-99596501D01*
X202212650Y-99823575D01*
X202973721Y-99903710D01*
X203735803Y-99833828D01*
X204469608Y-99616614D01*
X205146936Y-99260416D01*
X205190635Y-99231216D01*
X205556823Y-98736428D01*
X220443177Y-98736428D01*
X220809365Y-99231216D01*
X221481837Y-99596501D01*
X222212650Y-99823575D01*
X222973721Y-99903710D01*
X223735803Y-99833828D01*
X224469608Y-99616614D01*
X225146936Y-99260416D01*
X225190635Y-99231216D01*
X225556823Y-98736428D01*
X223000000Y-96179605D01*
X220443177Y-98736428D01*
X205556823Y-98736428D01*
X203000000Y-96179605D01*
X200443177Y-98736428D01*
X193660000Y-98736428D01*
X193660000Y-95973721D01*
X199096290Y-95973721D01*
X199166172Y-96735803D01*
X199383386Y-97469608D01*
X199739584Y-98146936D01*
X199768784Y-98190635D01*
X200263572Y-98556823D01*
X202820395Y-96000000D01*
X203179605Y-96000000D01*
X205736428Y-98556823D01*
X206231216Y-98190635D01*
X206596501Y-97518163D01*
X206823575Y-96787350D01*
X206903710Y-96026279D01*
X206898891Y-95973721D01*
X219096290Y-95973721D01*
X219166172Y-96735803D01*
X219383386Y-97469608D01*
X219739584Y-98146936D01*
X219768784Y-98190635D01*
X220263572Y-98556823D01*
X222820395Y-96000000D01*
X223179605Y-96000000D01*
X225736428Y-98556823D01*
X226231216Y-98190635D01*
X226596501Y-97518163D01*
X226823575Y-96787350D01*
X226903710Y-96026279D01*
X226833828Y-95264197D01*
X226616614Y-94530392D01*
X226260416Y-93853064D01*
X226231216Y-93809365D01*
X225736428Y-93443177D01*
X223179605Y-96000000D01*
X222820395Y-96000000D01*
X220263572Y-93443177D01*
X219768784Y-93809365D01*
X219403499Y-94481837D01*
X219176425Y-95212650D01*
X219096290Y-95973721D01*
X206898891Y-95973721D01*
X206833828Y-95264197D01*
X206616614Y-94530392D01*
X206260416Y-93853064D01*
X206231216Y-93809365D01*
X205736428Y-93443177D01*
X203179605Y-96000000D01*
X202820395Y-96000000D01*
X200263572Y-93443177D01*
X199768784Y-93809365D01*
X199403499Y-94481837D01*
X199176425Y-95212650D01*
X199096290Y-95973721D01*
X193660000Y-95973721D01*
X193660000Y-93263572D01*
X200443177Y-93263572D01*
X203000000Y-95820395D01*
X205556823Y-93263572D01*
X220443177Y-93263572D01*
X223000000Y-95820395D01*
X225556823Y-93263572D01*
X225190635Y-92768784D01*
X224518163Y-92403499D01*
X223787350Y-92176425D01*
X223026279Y-92096290D01*
X222264197Y-92166172D01*
X221530392Y-92383386D01*
X220853064Y-92739584D01*
X220809365Y-92768784D01*
X220443177Y-93263572D01*
X205556823Y-93263572D01*
X205190635Y-92768784D01*
X204518163Y-92403499D01*
X203787350Y-92176425D01*
X203026279Y-92096290D01*
X202264197Y-92166172D01*
X201530392Y-92383386D01*
X200853064Y-92739584D01*
X200809365Y-92768784D01*
X200443177Y-93263572D01*
X193660000Y-93263572D01*
X193660000Y-79420447D01*
X200259158Y-79420447D01*
X200403135Y-79725770D01*
X200760892Y-79906597D01*
X201147053Y-80014155D01*
X201546777Y-80044310D01*
X201944704Y-79995904D01*
X202325540Y-79870795D01*
X202596865Y-79725770D01*
X202740842Y-79420447D01*
X223259158Y-79420447D01*
X223403135Y-79725770D01*
X223760892Y-79906597D01*
X224147053Y-80014155D01*
X224546777Y-80044310D01*
X224944704Y-79995904D01*
X225325540Y-79870795D01*
X225596865Y-79725770D01*
X225740842Y-79420447D01*
X224500000Y-78179605D01*
X223259158Y-79420447D01*
X202740842Y-79420447D01*
X201500000Y-78179605D01*
X200259158Y-79420447D01*
X193660000Y-79420447D01*
X193660000Y-61500000D01*
X198836807Y-61500000D01*
X198840001Y-61532429D01*
X198840000Y-76467581D01*
X198836807Y-76500000D01*
X198849550Y-76629383D01*
X198887290Y-76753793D01*
X198948575Y-76868450D01*
X199031052Y-76968948D01*
X199131550Y-77051425D01*
X199246207Y-77112710D01*
X199370617Y-77150450D01*
X199500000Y-77163193D01*
X199532419Y-77160000D01*
X199644399Y-77160000D01*
X199593403Y-77260892D01*
X199485845Y-77647053D01*
X199455690Y-78046777D01*
X199504096Y-78444704D01*
X199629205Y-78825540D01*
X199774230Y-79096865D01*
X200079553Y-79240842D01*
X201320395Y-78000000D01*
X201306253Y-77985858D01*
X201485858Y-77806253D01*
X201500000Y-77820395D01*
X201514143Y-77806253D01*
X201693748Y-77985858D01*
X201679605Y-78000000D01*
X202920447Y-79240842D01*
X203225770Y-79096865D01*
X203406597Y-78739108D01*
X203514155Y-78352947D01*
X203544310Y-77953223D01*
X203495904Y-77555296D01*
X203370795Y-77174460D01*
X203363066Y-77160000D01*
X222644399Y-77160000D01*
X222593403Y-77260892D01*
X222485845Y-77647053D01*
X222455690Y-78046777D01*
X222504096Y-78444704D01*
X222629205Y-78825540D01*
X222774230Y-79096865D01*
X223079553Y-79240842D01*
X224320395Y-78000000D01*
X224306253Y-77985858D01*
X224485858Y-77806253D01*
X224500000Y-77820395D01*
X224514143Y-77806253D01*
X224693748Y-77985858D01*
X224679605Y-78000000D01*
X225920447Y-79240842D01*
X226225770Y-79096865D01*
X226406597Y-78739108D01*
X226514155Y-78352947D01*
X226544310Y-77953223D01*
X226495904Y-77555296D01*
X226370795Y-77174460D01*
X226363066Y-77160000D01*
X226467581Y-77160000D01*
X226500000Y-77163193D01*
X226532419Y-77160000D01*
X226629383Y-77150450D01*
X226753793Y-77112710D01*
X226868450Y-77051425D01*
X226968948Y-76968948D01*
X227051425Y-76868450D01*
X227112710Y-76753793D01*
X227150450Y-76629383D01*
X227163193Y-76500000D01*
X227160000Y-76467581D01*
X227160000Y-61532419D01*
X227163193Y-61500000D01*
X227150450Y-61370617D01*
X227112710Y-61246207D01*
X227051425Y-61131550D01*
X226968948Y-61031052D01*
X226868450Y-60948575D01*
X226753793Y-60887290D01*
X226629383Y-60849550D01*
X226532419Y-60840000D01*
X226500000Y-60836807D01*
X226467581Y-60840000D01*
X199532419Y-60840000D01*
X199500000Y-60836807D01*
X199467581Y-60840000D01*
X199370617Y-60849550D01*
X199246207Y-60887290D01*
X199131550Y-60948575D01*
X199031052Y-61031052D01*
X198948575Y-61131550D01*
X198887290Y-61246207D01*
X198849550Y-61370617D01*
X198836807Y-61500000D01*
X193660000Y-61500000D01*
X193660000Y-55420447D01*
X200259158Y-55420447D01*
X200403135Y-55725770D01*
X200760892Y-55906597D01*
X201147053Y-56014155D01*
X201546777Y-56044310D01*
X201944704Y-55995904D01*
X202325540Y-55870795D01*
X202596865Y-55725770D01*
X202740842Y-55420447D01*
X223259158Y-55420447D01*
X223403135Y-55725770D01*
X223760892Y-55906597D01*
X224147053Y-56014155D01*
X224546777Y-56044310D01*
X224944704Y-55995904D01*
X225325540Y-55870795D01*
X225596865Y-55725770D01*
X225740842Y-55420447D01*
X224500000Y-54179605D01*
X223259158Y-55420447D01*
X202740842Y-55420447D01*
X201500000Y-54179605D01*
X200259158Y-55420447D01*
X193660000Y-55420447D01*
X193660000Y-54046777D01*
X199455690Y-54046777D01*
X199504096Y-54444704D01*
X199629205Y-54825540D01*
X199774230Y-55096865D01*
X200079553Y-55240842D01*
X201320395Y-54000000D01*
X201679605Y-54000000D01*
X202920447Y-55240842D01*
X203225770Y-55096865D01*
X203406597Y-54739108D01*
X203514155Y-54352947D01*
X203537252Y-54046777D01*
X222455690Y-54046777D01*
X222504096Y-54444704D01*
X222629205Y-54825540D01*
X222774230Y-55096865D01*
X223079553Y-55240842D01*
X224320395Y-54000000D01*
X224679605Y-54000000D01*
X225920447Y-55240842D01*
X226225770Y-55096865D01*
X226406597Y-54739108D01*
X226514155Y-54352947D01*
X226544310Y-53953223D01*
X226495904Y-53555296D01*
X226370795Y-53174460D01*
X226225770Y-52903135D01*
X225920447Y-52759158D01*
X224679605Y-54000000D01*
X224320395Y-54000000D01*
X223079553Y-52759158D01*
X222774230Y-52903135D01*
X222593403Y-53260892D01*
X222485845Y-53647053D01*
X222455690Y-54046777D01*
X203537252Y-54046777D01*
X203544310Y-53953223D01*
X203495904Y-53555296D01*
X203370795Y-53174460D01*
X203225770Y-52903135D01*
X202920447Y-52759158D01*
X201679605Y-54000000D01*
X201320395Y-54000000D01*
X200079553Y-52759158D01*
X199774230Y-52903135D01*
X199593403Y-53260892D01*
X199485845Y-53647053D01*
X199455690Y-54046777D01*
X193660000Y-54046777D01*
X193660000Y-52579553D01*
X200259158Y-52579553D01*
X201500000Y-53820395D01*
X202740842Y-52579553D01*
X223259158Y-52579553D01*
X224500000Y-53820395D01*
X225740842Y-52579553D01*
X225596865Y-52274230D01*
X225239108Y-52093403D01*
X224852947Y-51985845D01*
X224453223Y-51955690D01*
X224055296Y-52004096D01*
X223674460Y-52129205D01*
X223403135Y-52274230D01*
X223259158Y-52579553D01*
X202740842Y-52579553D01*
X202596865Y-52274230D01*
X202239108Y-52093403D01*
X201852947Y-51985845D01*
X201453223Y-51955690D01*
X201055296Y-52004096D01*
X200674460Y-52129205D01*
X200403135Y-52274230D01*
X200259158Y-52579553D01*
X193660000Y-52579553D01*
X193660000Y-45549999D01*
X210736928Y-45549999D01*
X210736928Y-46450001D01*
X210753992Y-46623255D01*
X210804528Y-46789851D01*
X210886595Y-46943387D01*
X210997038Y-47077962D01*
X211131613Y-47188405D01*
X211285149Y-47270472D01*
X211451745Y-47321008D01*
X211624999Y-47338072D01*
X212073878Y-47338072D01*
X212127104Y-47466572D01*
X212234901Y-47627901D01*
X212372099Y-47765099D01*
X212533428Y-47872896D01*
X212712686Y-47947147D01*
X212902986Y-47985000D01*
X213097014Y-47985000D01*
X213287314Y-47947147D01*
X213466572Y-47872896D01*
X213627901Y-47765099D01*
X213765099Y-47627901D01*
X213872896Y-47466572D01*
X213926122Y-47338072D01*
X214325001Y-47338072D01*
X214498255Y-47321008D01*
X214664851Y-47270472D01*
X214818387Y-47188405D01*
X214952962Y-47077962D01*
X215063405Y-46943387D01*
X215145472Y-46789851D01*
X215196008Y-46623255D01*
X215213072Y-46450001D01*
X215213072Y-45549999D01*
X215196008Y-45376745D01*
X215145472Y-45210149D01*
X215063405Y-45056613D01*
X214952962Y-44922038D01*
X214818387Y-44811595D01*
X214664851Y-44729528D01*
X214498255Y-44678992D01*
X214325001Y-44661928D01*
X213926122Y-44661928D01*
X213872896Y-44533428D01*
X213765099Y-44372099D01*
X213627901Y-44234901D01*
X213466572Y-44127104D01*
X213287314Y-44052853D01*
X213097014Y-44015000D01*
X212902986Y-44015000D01*
X212712686Y-44052853D01*
X212533428Y-44127104D01*
X212372099Y-44234901D01*
X212234901Y-44372099D01*
X212127104Y-44533428D01*
X212073878Y-44661928D01*
X211624999Y-44661928D01*
X211451745Y-44678992D01*
X211285149Y-44729528D01*
X211131613Y-44811595D01*
X210997038Y-44922038D01*
X210886595Y-45056613D01*
X210804528Y-45210149D01*
X210753992Y-45376745D01*
X210736928Y-45549999D01*
X193660000Y-45549999D01*
X193660000Y-39537162D01*
X195420333Y-39537162D01*
X195516975Y-39891038D01*
X195738519Y-40358331D01*
X196046970Y-40773424D01*
X196430475Y-41120365D01*
X196874296Y-41385822D01*
X197361377Y-41559593D01*
X197873000Y-41635000D01*
X199373000Y-41635000D01*
X199373000Y-39127000D01*
X199627000Y-39127000D01*
X199627000Y-41635000D01*
X201127000Y-41635000D01*
X201638623Y-41559593D01*
X202125704Y-41385822D01*
X202569525Y-41120365D01*
X202953030Y-40773424D01*
X203261481Y-40358331D01*
X203483025Y-39891038D01*
X203579667Y-39537162D01*
X222420333Y-39537162D01*
X222516975Y-39891038D01*
X222738519Y-40358331D01*
X223046970Y-40773424D01*
X223430475Y-41120365D01*
X223874296Y-41385822D01*
X224361377Y-41559593D01*
X224873000Y-41635000D01*
X226373000Y-41635000D01*
X226373000Y-39127000D01*
X226627000Y-39127000D01*
X226627000Y-41635000D01*
X228127000Y-41635000D01*
X228638623Y-41559593D01*
X229125704Y-41385822D01*
X229569525Y-41120365D01*
X229953030Y-40773424D01*
X230261481Y-40358331D01*
X230483025Y-39891038D01*
X230579667Y-39537162D01*
X230472991Y-39127000D01*
X226627000Y-39127000D01*
X226373000Y-39127000D01*
X222527009Y-39127000D01*
X222420333Y-39537162D01*
X203579667Y-39537162D01*
X203472991Y-39127000D01*
X199627000Y-39127000D01*
X199373000Y-39127000D01*
X195527009Y-39127000D01*
X195420333Y-39537162D01*
X193660000Y-39537162D01*
X193660000Y-36660000D01*
X196797686Y-36660000D01*
X196430475Y-36879635D01*
G04 #@! TA.AperFunction,Conductor*
D14*
G36*
X196430475Y-36879635D02*
G01*
X196046970Y-37226576D01*
X195738519Y-37641669D01*
X195516975Y-38108962D01*
X195420333Y-38462838D01*
X195527009Y-38873000D01*
X199373000Y-38873000D01*
X199373000Y-38853000D01*
X199627000Y-38853000D01*
X199627000Y-38873000D01*
X203472991Y-38873000D01*
X203579667Y-38462838D01*
X203483025Y-38108962D01*
X203261481Y-37641669D01*
X202953030Y-37226576D01*
X202569525Y-36879635D01*
X202202314Y-36660000D01*
X223797686Y-36660000D01*
X223430475Y-36879635D01*
X223046970Y-37226576D01*
X222738519Y-37641669D01*
X222516975Y-38108962D01*
X222420333Y-38462838D01*
X222527009Y-38873000D01*
X226373000Y-38873000D01*
X226373000Y-38853000D01*
X226627000Y-38853000D01*
X226627000Y-38873000D01*
X230472991Y-38873000D01*
X230579667Y-38462838D01*
X230483025Y-38108962D01*
X230261481Y-37641669D01*
X229953030Y-37226576D01*
X229569525Y-36879635D01*
X229202314Y-36660000D01*
X232340000Y-36660000D01*
X232340001Y-163340000D01*
X229202314Y-163340000D01*
X229569525Y-163120365D01*
X229953030Y-162773424D01*
X230261481Y-162358331D01*
X230483025Y-161891038D01*
X230579667Y-161537162D01*
X230472991Y-161127000D01*
X226627000Y-161127000D01*
X226627000Y-161147000D01*
X226373000Y-161147000D01*
X226373000Y-161127000D01*
X222527009Y-161127000D01*
X222420333Y-161537162D01*
X222516975Y-161891038D01*
X222738519Y-162358331D01*
X223046970Y-162773424D01*
X223430475Y-163120365D01*
X223797686Y-163340000D01*
X202202314Y-163340000D01*
X202569525Y-163120365D01*
X202953030Y-162773424D01*
X203261481Y-162358331D01*
X203483025Y-161891038D01*
X203579667Y-161537162D01*
X203472991Y-161127000D01*
X199627000Y-161127000D01*
X199627000Y-161147000D01*
X199373000Y-161147000D01*
X199373000Y-161127000D01*
X195527009Y-161127000D01*
X195420333Y-161537162D01*
X195516975Y-161891038D01*
X195738519Y-162358331D01*
X196046970Y-162773424D01*
X196430475Y-163120365D01*
X196797686Y-163340000D01*
X193660000Y-163340000D01*
X193660000Y-160462838D01*
X195420333Y-160462838D01*
X195527009Y-160873000D01*
X199373000Y-160873000D01*
X199373000Y-158365000D01*
X199627000Y-158365000D01*
X199627000Y-160873000D01*
X203472991Y-160873000D01*
X203579667Y-160462838D01*
X222420333Y-160462838D01*
X222527009Y-160873000D01*
X226373000Y-160873000D01*
X226373000Y-158365000D01*
X226627000Y-158365000D01*
X226627000Y-160873000D01*
X230472991Y-160873000D01*
X230579667Y-160462838D01*
X230483025Y-160108962D01*
X230261481Y-159641669D01*
X229953030Y-159226576D01*
X229569525Y-158879635D01*
X229125704Y-158614178D01*
X228638623Y-158440407D01*
X228127000Y-158365000D01*
X226627000Y-158365000D01*
X226373000Y-158365000D01*
X224873000Y-158365000D01*
X224361377Y-158440407D01*
X223874296Y-158614178D01*
X223430475Y-158879635D01*
X223046970Y-159226576D01*
X222738519Y-159641669D01*
X222516975Y-160108962D01*
X222420333Y-160462838D01*
X203579667Y-160462838D01*
X203483025Y-160108962D01*
X203261481Y-159641669D01*
X202953030Y-159226576D01*
X202569525Y-158879635D01*
X202125704Y-158614178D01*
X201638623Y-158440407D01*
X201127000Y-158365000D01*
X199627000Y-158365000D01*
X199373000Y-158365000D01*
X197873000Y-158365000D01*
X197361377Y-158440407D01*
X196874296Y-158614178D01*
X196430475Y-158879635D01*
X196046970Y-159226576D01*
X195738519Y-159641669D01*
X195516975Y-160108962D01*
X195420333Y-160462838D01*
X193660000Y-160462838D01*
X193660000Y-147736428D01*
X200518178Y-147736428D01*
X200884366Y-148231216D01*
X201556838Y-148596501D01*
X202287651Y-148823575D01*
X203048722Y-148903710D01*
X203810804Y-148833828D01*
X204544609Y-148616614D01*
X205221937Y-148260416D01*
X205265636Y-148231216D01*
X205631824Y-147736428D01*
X220443177Y-147736428D01*
X220809365Y-148231216D01*
X221481837Y-148596501D01*
X222212650Y-148823575D01*
X222973721Y-148903710D01*
X223735803Y-148833828D01*
X224469608Y-148616614D01*
X225146936Y-148260416D01*
X225190635Y-148231216D01*
X225556823Y-147736428D01*
X223000000Y-145179605D01*
X220443177Y-147736428D01*
X205631824Y-147736428D01*
X203075001Y-145179605D01*
X200518178Y-147736428D01*
X193660000Y-147736428D01*
X193660000Y-144549999D01*
X193736928Y-144549999D01*
X193736928Y-145450001D01*
X193753992Y-145623255D01*
X193804528Y-145789851D01*
X193886595Y-145943387D01*
X193997038Y-146077962D01*
X194131613Y-146188405D01*
X194285149Y-146270472D01*
X194451745Y-146321008D01*
X194624999Y-146338072D01*
X195073878Y-146338072D01*
X195127104Y-146466572D01*
X195234901Y-146627901D01*
X195372099Y-146765099D01*
X195533428Y-146872896D01*
X195712686Y-146947147D01*
X195902986Y-146985000D01*
X196097014Y-146985000D01*
X196287314Y-146947147D01*
X196466572Y-146872896D01*
X196627901Y-146765099D01*
X196765099Y-146627901D01*
X196872896Y-146466572D01*
X196926122Y-146338072D01*
X197325001Y-146338072D01*
X197498255Y-146321008D01*
X197664851Y-146270472D01*
X197818387Y-146188405D01*
X197952962Y-146077962D01*
X198063405Y-145943387D01*
X198145472Y-145789851D01*
X198196008Y-145623255D01*
X198213072Y-145450001D01*
X198213072Y-144973721D01*
X199171291Y-144973721D01*
X199241173Y-145735803D01*
X199458387Y-146469608D01*
X199814585Y-147146936D01*
X199843785Y-147190635D01*
X200338573Y-147556823D01*
X202895396Y-145000000D01*
X203254606Y-145000000D01*
X205811429Y-147556823D01*
X206306217Y-147190635D01*
X206671502Y-146518163D01*
X206898576Y-145787350D01*
X206978711Y-145026279D01*
X206973892Y-144973721D01*
X219096290Y-144973721D01*
X219166172Y-145735803D01*
X219383386Y-146469608D01*
X219739584Y-147146936D01*
X219768784Y-147190635D01*
X220263572Y-147556823D01*
X222820395Y-145000000D01*
X223179605Y-145000000D01*
X225736428Y-147556823D01*
X226231216Y-147190635D01*
X226596501Y-146518163D01*
X226823575Y-145787350D01*
X226903710Y-145026279D01*
X226860036Y-144549999D01*
X227761928Y-144549999D01*
X227761928Y-145450001D01*
X227778992Y-145623255D01*
X227829528Y-145789851D01*
X227911595Y-145943387D01*
X228022038Y-146077962D01*
X228156613Y-146188405D01*
X228310149Y-146270472D01*
X228476745Y-146321008D01*
X228649999Y-146338072D01*
X229073878Y-146338072D01*
X229127104Y-146466572D01*
X229234901Y-146627901D01*
X229372099Y-146765099D01*
X229533428Y-146872896D01*
X229712686Y-146947147D01*
X229902986Y-146985000D01*
X230097014Y-146985000D01*
X230287314Y-146947147D01*
X230466572Y-146872896D01*
X230627901Y-146765099D01*
X230765099Y-146627901D01*
X230872896Y-146466572D01*
X230926122Y-146338072D01*
X231350001Y-146338072D01*
X231523255Y-146321008D01*
X231689851Y-146270472D01*
X231843387Y-146188405D01*
X231977962Y-146077962D01*
X232088405Y-145943387D01*
X232170472Y-145789851D01*
X232221008Y-145623255D01*
X232238072Y-145450001D01*
X232238072Y-144549999D01*
X232221008Y-144376745D01*
X232170472Y-144210149D01*
X232088405Y-144056613D01*
X231977962Y-143922038D01*
X231843387Y-143811595D01*
X231689851Y-143729528D01*
X231523255Y-143678992D01*
X231350001Y-143661928D01*
X230926122Y-143661928D01*
X230872896Y-143533428D01*
X230765099Y-143372099D01*
X230627901Y-143234901D01*
X230466572Y-143127104D01*
X230287314Y-143052853D01*
X230097014Y-143015000D01*
X229902986Y-143015000D01*
X229712686Y-143052853D01*
X229533428Y-143127104D01*
X229372099Y-143234901D01*
X229234901Y-143372099D01*
X229127104Y-143533428D01*
X229073878Y-143661928D01*
X228649999Y-143661928D01*
X228476745Y-143678992D01*
X228310149Y-143729528D01*
X228156613Y-143811595D01*
X228022038Y-143922038D01*
X227911595Y-144056613D01*
X227829528Y-144210149D01*
X227778992Y-144376745D01*
X227761928Y-144549999D01*
X226860036Y-144549999D01*
X226833828Y-144264197D01*
X226616614Y-143530392D01*
X226260416Y-142853064D01*
X226231216Y-142809365D01*
X225736428Y-142443177D01*
X223179605Y-145000000D01*
X222820395Y-145000000D01*
X220263572Y-142443177D01*
X219768784Y-142809365D01*
X219403499Y-143481837D01*
X219176425Y-144212650D01*
X219096290Y-144973721D01*
X206973892Y-144973721D01*
X206908829Y-144264197D01*
X206691615Y-143530392D01*
X206335417Y-142853064D01*
X206306217Y-142809365D01*
X205811429Y-142443177D01*
X203254606Y-145000000D01*
X202895396Y-145000000D01*
X200338573Y-142443177D01*
X199843785Y-142809365D01*
X199478500Y-143481837D01*
X199251426Y-144212650D01*
X199171291Y-144973721D01*
X198213072Y-144973721D01*
X198213072Y-144549999D01*
X198196008Y-144376745D01*
X198145472Y-144210149D01*
X198063405Y-144056613D01*
X197952962Y-143922038D01*
X197818387Y-143811595D01*
X197664851Y-143729528D01*
X197498255Y-143678992D01*
X197325001Y-143661928D01*
X196926126Y-143661928D01*
X196872903Y-143533435D01*
X196765106Y-143372106D01*
X196627908Y-143234908D01*
X196466579Y-143127111D01*
X196287321Y-143052860D01*
X196097021Y-143015007D01*
X195902993Y-143015007D01*
X195712693Y-143052860D01*
X195533435Y-143127111D01*
X195372106Y-143234908D01*
X195234908Y-143372106D01*
X195127111Y-143533435D01*
X195073888Y-143661928D01*
X194624999Y-143661928D01*
X194451745Y-143678992D01*
X194285149Y-143729528D01*
X194131613Y-143811595D01*
X193997038Y-143922038D01*
X193886595Y-144056613D01*
X193804528Y-144210149D01*
X193753992Y-144376745D01*
X193736928Y-144549999D01*
X193660000Y-144549999D01*
X193660000Y-142263572D01*
X200518178Y-142263572D01*
X203075001Y-144820395D01*
X205631824Y-142263572D01*
X220443177Y-142263572D01*
X223000000Y-144820395D01*
X225556823Y-142263572D01*
X225190635Y-141768784D01*
X224518163Y-141403499D01*
X223787350Y-141176425D01*
X223026279Y-141096290D01*
X222264197Y-141166172D01*
X221530392Y-141383386D01*
X220853064Y-141739584D01*
X220809365Y-141768784D01*
X220443177Y-142263572D01*
X205631824Y-142263572D01*
X205265636Y-141768784D01*
X204593164Y-141403499D01*
X203862351Y-141176425D01*
X203101280Y-141096290D01*
X202339198Y-141166172D01*
X201605393Y-141383386D01*
X200928065Y-141739584D01*
X200884366Y-141768784D01*
X200518178Y-142263572D01*
X193660000Y-142263572D01*
X193660000Y-127736428D01*
X200443177Y-127736428D01*
X200809365Y-128231216D01*
X201481837Y-128596501D01*
X202212650Y-128823575D01*
X202973721Y-128903710D01*
X203735803Y-128833828D01*
X204469608Y-128616614D01*
X205146936Y-128260416D01*
X205190635Y-128231216D01*
X205556823Y-127736428D01*
X220443177Y-127736428D01*
X220809365Y-128231216D01*
X221481837Y-128596501D01*
X222212650Y-128823575D01*
X222973721Y-128903710D01*
X223735803Y-128833828D01*
X224469608Y-128616614D01*
X225146936Y-128260416D01*
X225190635Y-128231216D01*
X225556823Y-127736428D01*
X223000000Y-125179605D01*
X220443177Y-127736428D01*
X205556823Y-127736428D01*
X203000000Y-125179605D01*
X200443177Y-127736428D01*
X193660000Y-127736428D01*
X193660000Y-124549999D01*
X193761928Y-124549999D01*
X193761928Y-125450001D01*
X193778992Y-125623255D01*
X193829528Y-125789851D01*
X193911595Y-125943387D01*
X194022038Y-126077962D01*
X194156613Y-126188405D01*
X194310149Y-126270472D01*
X194476745Y-126321008D01*
X194649999Y-126338072D01*
X195073874Y-126338072D01*
X195127104Y-126466580D01*
X195234901Y-126627909D01*
X195372099Y-126765107D01*
X195533428Y-126872904D01*
X195712686Y-126947155D01*
X195902986Y-126985008D01*
X196097014Y-126985008D01*
X196287314Y-126947155D01*
X196466572Y-126872904D01*
X196627901Y-126765107D01*
X196765099Y-126627909D01*
X196872896Y-126466580D01*
X196926126Y-126338072D01*
X197350001Y-126338072D01*
X197523255Y-126321008D01*
X197689851Y-126270472D01*
X197843387Y-126188405D01*
X197977962Y-126077962D01*
X198088405Y-125943387D01*
X198170472Y-125789851D01*
X198221008Y-125623255D01*
X198238072Y-125450001D01*
X198238072Y-124973721D01*
X199096290Y-124973721D01*
X199166172Y-125735803D01*
X199383386Y-126469608D01*
X199739584Y-127146936D01*
X199768784Y-127190635D01*
X200263572Y-127556823D01*
X202820395Y-125000000D01*
X203179605Y-125000000D01*
X205736428Y-127556823D01*
X206231216Y-127190635D01*
X206596501Y-126518163D01*
X206823575Y-125787350D01*
X206903710Y-125026279D01*
X206898891Y-124973721D01*
X219096290Y-124973721D01*
X219166172Y-125735803D01*
X219383386Y-126469608D01*
X219739584Y-127146936D01*
X219768784Y-127190635D01*
X220263572Y-127556823D01*
X222820395Y-125000000D01*
X223179605Y-125000000D01*
X225736428Y-127556823D01*
X226231216Y-127190635D01*
X226596501Y-126518163D01*
X226823575Y-125787350D01*
X226903710Y-125026279D01*
X226860036Y-124549999D01*
X227736928Y-124549999D01*
X227736928Y-125450001D01*
X227753992Y-125623255D01*
X227804528Y-125789851D01*
X227886595Y-125943387D01*
X227997038Y-126077962D01*
X228131613Y-126188405D01*
X228285149Y-126270472D01*
X228451745Y-126321008D01*
X228624999Y-126338072D01*
X229073878Y-126338072D01*
X229127104Y-126466572D01*
X229234901Y-126627901D01*
X229372099Y-126765099D01*
X229533428Y-126872896D01*
X229712686Y-126947147D01*
X229902986Y-126985000D01*
X230097014Y-126985000D01*
X230287314Y-126947147D01*
X230466572Y-126872896D01*
X230627901Y-126765099D01*
X230765099Y-126627901D01*
X230872896Y-126466572D01*
X230926122Y-126338072D01*
X231325001Y-126338072D01*
X231498255Y-126321008D01*
X231664851Y-126270472D01*
X231818387Y-126188405D01*
X231952962Y-126077962D01*
X232063405Y-125943387D01*
X232145472Y-125789851D01*
X232196008Y-125623255D01*
X232213072Y-125450001D01*
X232213072Y-124549999D01*
X232196008Y-124376745D01*
X232145472Y-124210149D01*
X232063405Y-124056613D01*
X231952962Y-123922038D01*
X231818387Y-123811595D01*
X231664851Y-123729528D01*
X231498255Y-123678992D01*
X231325001Y-123661928D01*
X230926122Y-123661928D01*
X230872896Y-123533428D01*
X230765099Y-123372099D01*
X230627901Y-123234901D01*
X230466572Y-123127104D01*
X230287314Y-123052853D01*
X230097014Y-123015000D01*
X229902986Y-123015000D01*
X229712686Y-123052853D01*
X229533428Y-123127104D01*
X229372099Y-123234901D01*
X229234901Y-123372099D01*
X229127104Y-123533428D01*
X229073878Y-123661928D01*
X228624999Y-123661928D01*
X228451745Y-123678992D01*
X228285149Y-123729528D01*
X228131613Y-123811595D01*
X227997038Y-123922038D01*
X227886595Y-124056613D01*
X227804528Y-124210149D01*
X227753992Y-124376745D01*
X227736928Y-124549999D01*
X226860036Y-124549999D01*
X226833828Y-124264197D01*
X226616614Y-123530392D01*
X226260416Y-122853064D01*
X226231216Y-122809365D01*
X225736428Y-122443177D01*
X223179605Y-125000000D01*
X222820395Y-125000000D01*
X220263572Y-122443177D01*
X219768784Y-122809365D01*
X219403499Y-123481837D01*
X219176425Y-124212650D01*
X219096290Y-124973721D01*
X206898891Y-124973721D01*
X206833828Y-124264197D01*
X206616614Y-123530392D01*
X206260416Y-122853064D01*
X206231216Y-122809365D01*
X205736428Y-122443177D01*
X203179605Y-125000000D01*
X202820395Y-125000000D01*
X200263572Y-122443177D01*
X199768784Y-122809365D01*
X199403499Y-123481837D01*
X199176425Y-124212650D01*
X199096290Y-124973721D01*
X198238072Y-124973721D01*
X198238072Y-124549999D01*
X198221008Y-124376745D01*
X198170472Y-124210149D01*
X198088405Y-124056613D01*
X197977962Y-123922038D01*
X197843387Y-123811595D01*
X197689851Y-123729528D01*
X197523255Y-123678992D01*
X197350001Y-123661928D01*
X196926122Y-123661928D01*
X196872896Y-123533428D01*
X196765099Y-123372099D01*
X196627901Y-123234901D01*
X196466572Y-123127104D01*
X196287314Y-123052853D01*
X196097014Y-123015000D01*
X195902986Y-123015000D01*
X195712686Y-123052853D01*
X195533428Y-123127104D01*
X195372099Y-123234901D01*
X195234901Y-123372099D01*
X195127104Y-123533428D01*
X195073878Y-123661928D01*
X194649999Y-123661928D01*
X194476745Y-123678992D01*
X194310149Y-123729528D01*
X194156613Y-123811595D01*
X194022038Y-123922038D01*
X193911595Y-124056613D01*
X193829528Y-124210149D01*
X193778992Y-124376745D01*
X193761928Y-124549999D01*
X193660000Y-124549999D01*
X193660000Y-122263572D01*
X200443177Y-122263572D01*
X203000000Y-124820395D01*
X205556823Y-122263572D01*
X220443177Y-122263572D01*
X223000000Y-124820395D01*
X225556823Y-122263572D01*
X225190635Y-121768784D01*
X224518163Y-121403499D01*
X223787350Y-121176425D01*
X223026279Y-121096290D01*
X222264197Y-121166172D01*
X221530392Y-121383386D01*
X220853064Y-121739584D01*
X220809365Y-121768784D01*
X220443177Y-122263572D01*
X205556823Y-122263572D01*
X205190635Y-121768784D01*
X204518163Y-121403499D01*
X203787350Y-121176425D01*
X203026279Y-121096290D01*
X202264197Y-121166172D01*
X201530392Y-121383386D01*
X200853064Y-121739584D01*
X200809365Y-121768784D01*
X200443177Y-122263572D01*
X193660000Y-122263572D01*
X193660000Y-117736428D01*
X200443177Y-117736428D01*
X200809365Y-118231216D01*
X201481837Y-118596501D01*
X202212650Y-118823575D01*
X202973721Y-118903710D01*
X203735803Y-118833828D01*
X204469608Y-118616614D01*
X205146936Y-118260416D01*
X205190635Y-118231216D01*
X205556823Y-117736428D01*
X220443177Y-117736428D01*
X220809365Y-118231216D01*
X221481837Y-118596501D01*
X222212650Y-118823575D01*
X222973721Y-118903710D01*
X223735803Y-118833828D01*
X224469608Y-118616614D01*
X225146936Y-118260416D01*
X225190635Y-118231216D01*
X225556823Y-117736428D01*
X223000000Y-115179605D01*
X220443177Y-117736428D01*
X205556823Y-117736428D01*
X203000000Y-115179605D01*
X200443177Y-117736428D01*
X193660000Y-117736428D01*
X193660000Y-114549999D01*
X193736928Y-114549999D01*
X193736928Y-115450001D01*
X193753992Y-115623255D01*
X193804528Y-115789851D01*
X193886595Y-115943387D01*
X193997038Y-116077962D01*
X194131613Y-116188405D01*
X194285149Y-116270472D01*
X194451745Y-116321008D01*
X194624999Y-116338072D01*
X195073878Y-116338072D01*
X195127104Y-116466572D01*
X195234901Y-116627901D01*
X195372099Y-116765099D01*
X195533428Y-116872896D01*
X195712686Y-116947147D01*
X195902986Y-116985000D01*
X196097014Y-116985000D01*
X196287314Y-116947147D01*
X196466572Y-116872896D01*
X196627901Y-116765099D01*
X196765099Y-116627901D01*
X196872896Y-116466572D01*
X196926122Y-116338072D01*
X197325001Y-116338072D01*
X197498255Y-116321008D01*
X197664851Y-116270472D01*
X197818387Y-116188405D01*
X197952962Y-116077962D01*
X198063405Y-115943387D01*
X198145472Y-115789851D01*
X198196008Y-115623255D01*
X198213072Y-115450001D01*
X198213072Y-114973721D01*
X199096290Y-114973721D01*
X199166172Y-115735803D01*
X199383386Y-116469608D01*
X199739584Y-117146936D01*
X199768784Y-117190635D01*
X200263572Y-117556823D01*
X202820395Y-115000000D01*
X203179605Y-115000000D01*
X205736428Y-117556823D01*
X206231216Y-117190635D01*
X206596501Y-116518163D01*
X206823575Y-115787350D01*
X206903710Y-115026279D01*
X206898891Y-114973721D01*
X219096290Y-114973721D01*
X219166172Y-115735803D01*
X219383386Y-116469608D01*
X219739584Y-117146936D01*
X219768784Y-117190635D01*
X220263572Y-117556823D01*
X222820395Y-115000000D01*
X223179605Y-115000000D01*
X225736428Y-117556823D01*
X226231216Y-117190635D01*
X226596501Y-116518163D01*
X226823575Y-115787350D01*
X226903710Y-115026279D01*
X226860036Y-114549999D01*
X227786928Y-114549999D01*
X227786928Y-115450001D01*
X227803992Y-115623255D01*
X227854528Y-115789851D01*
X227936595Y-115943387D01*
X228047038Y-116077962D01*
X228181613Y-116188405D01*
X228335149Y-116270472D01*
X228501745Y-116321008D01*
X228674999Y-116338072D01*
X229073878Y-116338072D01*
X229127104Y-116466572D01*
X229234901Y-116627901D01*
X229372099Y-116765099D01*
X229533428Y-116872896D01*
X229712686Y-116947147D01*
X229902986Y-116985000D01*
X230097014Y-116985000D01*
X230287314Y-116947147D01*
X230466572Y-116872896D01*
X230627901Y-116765099D01*
X230765099Y-116627901D01*
X230872896Y-116466572D01*
X230926122Y-116338072D01*
X231375001Y-116338072D01*
X231548255Y-116321008D01*
X231714851Y-116270472D01*
X231868387Y-116188405D01*
X232002962Y-116077962D01*
X232113405Y-115943387D01*
X232195472Y-115789851D01*
X232246008Y-115623255D01*
X232263072Y-115450001D01*
X232263072Y-114549999D01*
X232246008Y-114376745D01*
X232195472Y-114210149D01*
X232113405Y-114056613D01*
X232002962Y-113922038D01*
X231868387Y-113811595D01*
X231714851Y-113729528D01*
X231548255Y-113678992D01*
X231375001Y-113661928D01*
X230926140Y-113661928D01*
X230872896Y-113533386D01*
X230765099Y-113372057D01*
X230627901Y-113234859D01*
X230466572Y-113127062D01*
X230287314Y-113052811D01*
X230097014Y-113014958D01*
X229902986Y-113014958D01*
X229712686Y-113052811D01*
X229533428Y-113127062D01*
X229372099Y-113234859D01*
X229234901Y-113372057D01*
X229127104Y-113533386D01*
X229073860Y-113661928D01*
X228674999Y-113661928D01*
X228501745Y-113678992D01*
X228335149Y-113729528D01*
X228181613Y-113811595D01*
X228047038Y-113922038D01*
X227936595Y-114056613D01*
X227854528Y-114210149D01*
X227803992Y-114376745D01*
X227786928Y-114549999D01*
X226860036Y-114549999D01*
X226833828Y-114264197D01*
X226616614Y-113530392D01*
X226260416Y-112853064D01*
X226231216Y-112809365D01*
X225736428Y-112443177D01*
X223179605Y-115000000D01*
X222820395Y-115000000D01*
X220263572Y-112443177D01*
X219768784Y-112809365D01*
X219403499Y-113481837D01*
X219176425Y-114212650D01*
X219096290Y-114973721D01*
X206898891Y-114973721D01*
X206833828Y-114264197D01*
X206616614Y-113530392D01*
X206260416Y-112853064D01*
X206231216Y-112809365D01*
X205736428Y-112443177D01*
X203179605Y-115000000D01*
X202820395Y-115000000D01*
X200263572Y-112443177D01*
X199768784Y-112809365D01*
X199403499Y-113481837D01*
X199176425Y-114212650D01*
X199096290Y-114973721D01*
X198213072Y-114973721D01*
X198213072Y-114549999D01*
X198196008Y-114376745D01*
X198145472Y-114210149D01*
X198063405Y-114056613D01*
X197952962Y-113922038D01*
X197818387Y-113811595D01*
X197664851Y-113729528D01*
X197498255Y-113678992D01*
X197325001Y-113661928D01*
X196926122Y-113661928D01*
X196872896Y-113533428D01*
X196765099Y-113372099D01*
X196627901Y-113234901D01*
X196466572Y-113127104D01*
X196287314Y-113052853D01*
X196097014Y-113015000D01*
X195902986Y-113015000D01*
X195712686Y-113052853D01*
X195533428Y-113127104D01*
X195372099Y-113234901D01*
X195234901Y-113372099D01*
X195127104Y-113533428D01*
X195073878Y-113661928D01*
X194624999Y-113661928D01*
X194451745Y-113678992D01*
X194285149Y-113729528D01*
X194131613Y-113811595D01*
X193997038Y-113922038D01*
X193886595Y-114056613D01*
X193804528Y-114210149D01*
X193753992Y-114376745D01*
X193736928Y-114549999D01*
X193660000Y-114549999D01*
X193660000Y-112263572D01*
X200443177Y-112263572D01*
X203000000Y-114820395D01*
X205556823Y-112263572D01*
X220443177Y-112263572D01*
X223000000Y-114820395D01*
X225556823Y-112263572D01*
X225190635Y-111768784D01*
X224518163Y-111403499D01*
X223787350Y-111176425D01*
X223026279Y-111096290D01*
X222264197Y-111166172D01*
X221530392Y-111383386D01*
X220853064Y-111739584D01*
X220809365Y-111768784D01*
X220443177Y-112263572D01*
X205556823Y-112263572D01*
X205190635Y-111768784D01*
X204518163Y-111403499D01*
X203787350Y-111176425D01*
X203026279Y-111096290D01*
X202264197Y-111166172D01*
X201530392Y-111383386D01*
X200853064Y-111739584D01*
X200809365Y-111768784D01*
X200443177Y-112263572D01*
X193660000Y-112263572D01*
X193660000Y-98736428D01*
X200443177Y-98736428D01*
X200809365Y-99231216D01*
X201481837Y-99596501D01*
X202212650Y-99823575D01*
X202973721Y-99903710D01*
X203735803Y-99833828D01*
X204469608Y-99616614D01*
X205146936Y-99260416D01*
X205190635Y-99231216D01*
X205556823Y-98736428D01*
X220443177Y-98736428D01*
X220809365Y-99231216D01*
X221481837Y-99596501D01*
X222212650Y-99823575D01*
X222973721Y-99903710D01*
X223735803Y-99833828D01*
X224469608Y-99616614D01*
X225146936Y-99260416D01*
X225190635Y-99231216D01*
X225556823Y-98736428D01*
X223000000Y-96179605D01*
X220443177Y-98736428D01*
X205556823Y-98736428D01*
X203000000Y-96179605D01*
X200443177Y-98736428D01*
X193660000Y-98736428D01*
X193660000Y-95973721D01*
X199096290Y-95973721D01*
X199166172Y-96735803D01*
X199383386Y-97469608D01*
X199739584Y-98146936D01*
X199768784Y-98190635D01*
X200263572Y-98556823D01*
X202820395Y-96000000D01*
X203179605Y-96000000D01*
X205736428Y-98556823D01*
X206231216Y-98190635D01*
X206596501Y-97518163D01*
X206823575Y-96787350D01*
X206903710Y-96026279D01*
X206898891Y-95973721D01*
X219096290Y-95973721D01*
X219166172Y-96735803D01*
X219383386Y-97469608D01*
X219739584Y-98146936D01*
X219768784Y-98190635D01*
X220263572Y-98556823D01*
X222820395Y-96000000D01*
X223179605Y-96000000D01*
X225736428Y-98556823D01*
X226231216Y-98190635D01*
X226596501Y-97518163D01*
X226823575Y-96787350D01*
X226903710Y-96026279D01*
X226833828Y-95264197D01*
X226616614Y-94530392D01*
X226260416Y-93853064D01*
X226231216Y-93809365D01*
X225736428Y-93443177D01*
X223179605Y-96000000D01*
X222820395Y-96000000D01*
X220263572Y-93443177D01*
X219768784Y-93809365D01*
X219403499Y-94481837D01*
X219176425Y-95212650D01*
X219096290Y-95973721D01*
X206898891Y-95973721D01*
X206833828Y-95264197D01*
X206616614Y-94530392D01*
X206260416Y-93853064D01*
X206231216Y-93809365D01*
X205736428Y-93443177D01*
X203179605Y-96000000D01*
X202820395Y-96000000D01*
X200263572Y-93443177D01*
X199768784Y-93809365D01*
X199403499Y-94481837D01*
X199176425Y-95212650D01*
X199096290Y-95973721D01*
X193660000Y-95973721D01*
X193660000Y-93263572D01*
X200443177Y-93263572D01*
X203000000Y-95820395D01*
X205556823Y-93263572D01*
X220443177Y-93263572D01*
X223000000Y-95820395D01*
X225556823Y-93263572D01*
X225190635Y-92768784D01*
X224518163Y-92403499D01*
X223787350Y-92176425D01*
X223026279Y-92096290D01*
X222264197Y-92166172D01*
X221530392Y-92383386D01*
X220853064Y-92739584D01*
X220809365Y-92768784D01*
X220443177Y-93263572D01*
X205556823Y-93263572D01*
X205190635Y-92768784D01*
X204518163Y-92403499D01*
X203787350Y-92176425D01*
X203026279Y-92096290D01*
X202264197Y-92166172D01*
X201530392Y-92383386D01*
X200853064Y-92739584D01*
X200809365Y-92768784D01*
X200443177Y-93263572D01*
X193660000Y-93263572D01*
X193660000Y-79420447D01*
X200259158Y-79420447D01*
X200403135Y-79725770D01*
X200760892Y-79906597D01*
X201147053Y-80014155D01*
X201546777Y-80044310D01*
X201944704Y-79995904D01*
X202325540Y-79870795D01*
X202596865Y-79725770D01*
X202740842Y-79420447D01*
X223259158Y-79420447D01*
X223403135Y-79725770D01*
X223760892Y-79906597D01*
X224147053Y-80014155D01*
X224546777Y-80044310D01*
X224944704Y-79995904D01*
X225325540Y-79870795D01*
X225596865Y-79725770D01*
X225740842Y-79420447D01*
X224500000Y-78179605D01*
X223259158Y-79420447D01*
X202740842Y-79420447D01*
X201500000Y-78179605D01*
X200259158Y-79420447D01*
X193660000Y-79420447D01*
X193660000Y-61500000D01*
X198836807Y-61500000D01*
X198840001Y-61532429D01*
X198840000Y-76467581D01*
X198836807Y-76500000D01*
X198849550Y-76629383D01*
X198887290Y-76753793D01*
X198948575Y-76868450D01*
X199031052Y-76968948D01*
X199131550Y-77051425D01*
X199246207Y-77112710D01*
X199370617Y-77150450D01*
X199500000Y-77163193D01*
X199532419Y-77160000D01*
X199644399Y-77160000D01*
X199593403Y-77260892D01*
X199485845Y-77647053D01*
X199455690Y-78046777D01*
X199504096Y-78444704D01*
X199629205Y-78825540D01*
X199774230Y-79096865D01*
X200079553Y-79240842D01*
X201320395Y-78000000D01*
X201306253Y-77985858D01*
X201485858Y-77806253D01*
X201500000Y-77820395D01*
X201514143Y-77806253D01*
X201693748Y-77985858D01*
X201679605Y-78000000D01*
X202920447Y-79240842D01*
X203225770Y-79096865D01*
X203406597Y-78739108D01*
X203514155Y-78352947D01*
X203544310Y-77953223D01*
X203495904Y-77555296D01*
X203370795Y-77174460D01*
X203363066Y-77160000D01*
X222644399Y-77160000D01*
X222593403Y-77260892D01*
X222485845Y-77647053D01*
X222455690Y-78046777D01*
X222504096Y-78444704D01*
X222629205Y-78825540D01*
X222774230Y-79096865D01*
X223079553Y-79240842D01*
X224320395Y-78000000D01*
X224306253Y-77985858D01*
X224485858Y-77806253D01*
X224500000Y-77820395D01*
X224514143Y-77806253D01*
X224693748Y-77985858D01*
X224679605Y-78000000D01*
X225920447Y-79240842D01*
X226225770Y-79096865D01*
X226406597Y-78739108D01*
X226514155Y-78352947D01*
X226544310Y-77953223D01*
X226495904Y-77555296D01*
X226370795Y-77174460D01*
X226363066Y-77160000D01*
X226467581Y-77160000D01*
X226500000Y-77163193D01*
X226532419Y-77160000D01*
X226629383Y-77150450D01*
X226753793Y-77112710D01*
X226868450Y-77051425D01*
X226968948Y-76968948D01*
X227051425Y-76868450D01*
X227112710Y-76753793D01*
X227150450Y-76629383D01*
X227163193Y-76500000D01*
X227160000Y-76467581D01*
X227160000Y-61532419D01*
X227163193Y-61500000D01*
X227150450Y-61370617D01*
X227112710Y-61246207D01*
X227051425Y-61131550D01*
X226968948Y-61031052D01*
X226868450Y-60948575D01*
X226753793Y-60887290D01*
X226629383Y-60849550D01*
X226532419Y-60840000D01*
X226500000Y-60836807D01*
X226467581Y-60840000D01*
X199532419Y-60840000D01*
X199500000Y-60836807D01*
X199467581Y-60840000D01*
X199370617Y-60849550D01*
X199246207Y-60887290D01*
X199131550Y-60948575D01*
X199031052Y-61031052D01*
X198948575Y-61131550D01*
X198887290Y-61246207D01*
X198849550Y-61370617D01*
X198836807Y-61500000D01*
X193660000Y-61500000D01*
X193660000Y-55420447D01*
X200259158Y-55420447D01*
X200403135Y-55725770D01*
X200760892Y-55906597D01*
X201147053Y-56014155D01*
X201546777Y-56044310D01*
X201944704Y-55995904D01*
X202325540Y-55870795D01*
X202596865Y-55725770D01*
X202740842Y-55420447D01*
X223259158Y-55420447D01*
X223403135Y-55725770D01*
X223760892Y-55906597D01*
X224147053Y-56014155D01*
X224546777Y-56044310D01*
X224944704Y-55995904D01*
X225325540Y-55870795D01*
X225596865Y-55725770D01*
X225740842Y-55420447D01*
X224500000Y-54179605D01*
X223259158Y-55420447D01*
X202740842Y-55420447D01*
X201500000Y-54179605D01*
X200259158Y-55420447D01*
X193660000Y-55420447D01*
X193660000Y-54046777D01*
X199455690Y-54046777D01*
X199504096Y-54444704D01*
X199629205Y-54825540D01*
X199774230Y-55096865D01*
X200079553Y-55240842D01*
X201320395Y-54000000D01*
X201679605Y-54000000D01*
X202920447Y-55240842D01*
X203225770Y-55096865D01*
X203406597Y-54739108D01*
X203514155Y-54352947D01*
X203537252Y-54046777D01*
X222455690Y-54046777D01*
X222504096Y-54444704D01*
X222629205Y-54825540D01*
X222774230Y-55096865D01*
X223079553Y-55240842D01*
X224320395Y-54000000D01*
X224679605Y-54000000D01*
X225920447Y-55240842D01*
X226225770Y-55096865D01*
X226406597Y-54739108D01*
X226514155Y-54352947D01*
X226544310Y-53953223D01*
X226495904Y-53555296D01*
X226370795Y-53174460D01*
X226225770Y-52903135D01*
X225920447Y-52759158D01*
X224679605Y-54000000D01*
X224320395Y-54000000D01*
X223079553Y-52759158D01*
X222774230Y-52903135D01*
X222593403Y-53260892D01*
X222485845Y-53647053D01*
X222455690Y-54046777D01*
X203537252Y-54046777D01*
X203544310Y-53953223D01*
X203495904Y-53555296D01*
X203370795Y-53174460D01*
X203225770Y-52903135D01*
X202920447Y-52759158D01*
X201679605Y-54000000D01*
X201320395Y-54000000D01*
X200079553Y-52759158D01*
X199774230Y-52903135D01*
X199593403Y-53260892D01*
X199485845Y-53647053D01*
X199455690Y-54046777D01*
X193660000Y-54046777D01*
X193660000Y-52579553D01*
X200259158Y-52579553D01*
X201500000Y-53820395D01*
X202740842Y-52579553D01*
X223259158Y-52579553D01*
X224500000Y-53820395D01*
X225740842Y-52579553D01*
X225596865Y-52274230D01*
X225239108Y-52093403D01*
X224852947Y-51985845D01*
X224453223Y-51955690D01*
X224055296Y-52004096D01*
X223674460Y-52129205D01*
X223403135Y-52274230D01*
X223259158Y-52579553D01*
X202740842Y-52579553D01*
X202596865Y-52274230D01*
X202239108Y-52093403D01*
X201852947Y-51985845D01*
X201453223Y-51955690D01*
X201055296Y-52004096D01*
X200674460Y-52129205D01*
X200403135Y-52274230D01*
X200259158Y-52579553D01*
X193660000Y-52579553D01*
X193660000Y-45549999D01*
X210736928Y-45549999D01*
X210736928Y-46450001D01*
X210753992Y-46623255D01*
X210804528Y-46789851D01*
X210886595Y-46943387D01*
X210997038Y-47077962D01*
X211131613Y-47188405D01*
X211285149Y-47270472D01*
X211451745Y-47321008D01*
X211624999Y-47338072D01*
X212073878Y-47338072D01*
X212127104Y-47466572D01*
X212234901Y-47627901D01*
X212372099Y-47765099D01*
X212533428Y-47872896D01*
X212712686Y-47947147D01*
X212902986Y-47985000D01*
X213097014Y-47985000D01*
X213287314Y-47947147D01*
X213466572Y-47872896D01*
X213627901Y-47765099D01*
X213765099Y-47627901D01*
X213872896Y-47466572D01*
X213926122Y-47338072D01*
X214325001Y-47338072D01*
X214498255Y-47321008D01*
X214664851Y-47270472D01*
X214818387Y-47188405D01*
X214952962Y-47077962D01*
X215063405Y-46943387D01*
X215145472Y-46789851D01*
X215196008Y-46623255D01*
X215213072Y-46450001D01*
X215213072Y-45549999D01*
X215196008Y-45376745D01*
X215145472Y-45210149D01*
X215063405Y-45056613D01*
X214952962Y-44922038D01*
X214818387Y-44811595D01*
X214664851Y-44729528D01*
X214498255Y-44678992D01*
X214325001Y-44661928D01*
X213926122Y-44661928D01*
X213872896Y-44533428D01*
X213765099Y-44372099D01*
X213627901Y-44234901D01*
X213466572Y-44127104D01*
X213287314Y-44052853D01*
X213097014Y-44015000D01*
X212902986Y-44015000D01*
X212712686Y-44052853D01*
X212533428Y-44127104D01*
X212372099Y-44234901D01*
X212234901Y-44372099D01*
X212127104Y-44533428D01*
X212073878Y-44661928D01*
X211624999Y-44661928D01*
X211451745Y-44678992D01*
X211285149Y-44729528D01*
X211131613Y-44811595D01*
X210997038Y-44922038D01*
X210886595Y-45056613D01*
X210804528Y-45210149D01*
X210753992Y-45376745D01*
X210736928Y-45549999D01*
X193660000Y-45549999D01*
X193660000Y-39537162D01*
X195420333Y-39537162D01*
X195516975Y-39891038D01*
X195738519Y-40358331D01*
X196046970Y-40773424D01*
X196430475Y-41120365D01*
X196874296Y-41385822D01*
X197361377Y-41559593D01*
X197873000Y-41635000D01*
X199373000Y-41635000D01*
X199373000Y-39127000D01*
X199627000Y-39127000D01*
X199627000Y-41635000D01*
X201127000Y-41635000D01*
X201638623Y-41559593D01*
X202125704Y-41385822D01*
X202569525Y-41120365D01*
X202953030Y-40773424D01*
X203261481Y-40358331D01*
X203483025Y-39891038D01*
X203579667Y-39537162D01*
X222420333Y-39537162D01*
X222516975Y-39891038D01*
X222738519Y-40358331D01*
X223046970Y-40773424D01*
X223430475Y-41120365D01*
X223874296Y-41385822D01*
X224361377Y-41559593D01*
X224873000Y-41635000D01*
X226373000Y-41635000D01*
X226373000Y-39127000D01*
X226627000Y-39127000D01*
X226627000Y-41635000D01*
X228127000Y-41635000D01*
X228638623Y-41559593D01*
X229125704Y-41385822D01*
X229569525Y-41120365D01*
X229953030Y-40773424D01*
X230261481Y-40358331D01*
X230483025Y-39891038D01*
X230579667Y-39537162D01*
X230472991Y-39127000D01*
X226627000Y-39127000D01*
X226373000Y-39127000D01*
X222527009Y-39127000D01*
X222420333Y-39537162D01*
X203579667Y-39537162D01*
X203472991Y-39127000D01*
X199627000Y-39127000D01*
X199373000Y-39127000D01*
X195527009Y-39127000D01*
X195420333Y-39537162D01*
X193660000Y-39537162D01*
X193660000Y-36660000D01*
X196797686Y-36660000D01*
X196430475Y-36879635D01*
G37*
G04 #@! TD.AperFunction*
M02*
