%FSLAX45Y45*%
G04 Gerber Fmt 4.5, Leading zero omitted, Abs format (unit mm)*
G04 Created by KiCad (PCBNEW (5.1.9)-1) date 2021-04-12 22:44:53*
%MOMM*%
%LPD*%
G01*
G04 APERTURE LIST*
%TA.AperFunction,Profile*%
%ADD10C,0.050000*%
%TD*%
%ADD11C,0.200000*%
%ADD12C,0.300000*%
G04 APERTURE END LIST*
D10*
X19950000Y-7650000D02*
X19950000Y-6150000D01*
X22650000Y-7650000D02*
X19950000Y-7650000D01*
X22650000Y-6150000D02*
X22650000Y-7650000D01*
X19950000Y-6150000D02*
X22650000Y-6150000D01*
X23300000Y-3600000D02*
X23300000Y-16400000D01*
X19300000Y-3600000D02*
X23300000Y-3600000D01*
X23300000Y-16400000D02*
X19300000Y-16400000D01*
X19300000Y-16400000D02*
X19300000Y-3600000D01*
D11*
X19580000Y-11380000D02*
X19620000Y-11420000D01*
X19620000Y-11380000D02*
X19580000Y-11420000D01*
X19580000Y-11580000D02*
X19620000Y-11620000D01*
X19620000Y-11580000D02*
X19580000Y-11620000D01*
X19580000Y-12380000D02*
X19620000Y-12420000D01*
X19620000Y-12380000D02*
X19580000Y-12420000D01*
X19580000Y-12580001D02*
X19620000Y-12620001D01*
X19620000Y-12580001D02*
X19580000Y-12620001D01*
X19580000Y-14580000D02*
X19620000Y-14620000D01*
X19620000Y-14580000D02*
X19580000Y-14620000D01*
X19580001Y-14380001D02*
X19620001Y-14420001D01*
X19620001Y-14380001D02*
X19580001Y-14420001D01*
X21280000Y-4480000D02*
X21320000Y-4520000D01*
X21320000Y-4480000D02*
X21280000Y-4520000D01*
X21280000Y-4680000D02*
X21320000Y-4720000D01*
X21320000Y-4680000D02*
X21280000Y-4720000D01*
X22980000Y-11379996D02*
X23020000Y-11419996D01*
X23020000Y-11379996D02*
X22980000Y-11419996D01*
X22980000Y-11580000D02*
X23020000Y-11620000D01*
X23020000Y-11580000D02*
X22980000Y-11620000D01*
X22980000Y-12380000D02*
X23020000Y-12420000D01*
X23020000Y-12380000D02*
X22980000Y-12420000D01*
X22980000Y-12580000D02*
X23020000Y-12620000D01*
X23020000Y-12580000D02*
X22980000Y-12620000D01*
X22980000Y-14380000D02*
X23020000Y-14420000D01*
X23020000Y-14380000D02*
X22980000Y-14420000D01*
X22980000Y-14580000D02*
X23020000Y-14620000D01*
X23020000Y-14580000D02*
X22980000Y-14620000D01*
X20282500Y-5400000D02*
G75*
G03*
X20282500Y-5400000I-132500J0D01*
G01*
X20282500Y-7800000D02*
G75*
G03*
X20282500Y-7800000I-132500J0D01*
G01*
X22582500Y-5400000D02*
G75*
G03*
X22582500Y-5400000I-132500J0D01*
G01*
X22582500Y-7800000D02*
G75*
G03*
X22582500Y-7800000I-132500J0D01*
G01*
X19950000Y-3740000D02*
X19950000Y-4060000D01*
X19790000Y-3900000D02*
X20110000Y-3900000D01*
X19800000Y-4050000D02*
X20100000Y-4050000D01*
X19800000Y-3750000D02*
X20100000Y-3750000D01*
X20100000Y-4050000D02*
G75*
G03*
X20100000Y-3750000I0J150000D01*
G01*
X19800000Y-3750000D02*
G75*
G03*
X19800000Y-4050000I0J-150000D01*
G01*
X19950000Y-15940000D02*
X19950000Y-16260000D01*
X19790000Y-16100000D02*
X20110000Y-16100000D01*
X19800000Y-16250000D02*
X20100000Y-16250000D01*
X19800000Y-15950000D02*
X20100000Y-15950000D01*
X20100000Y-16250000D02*
G75*
G03*
X20100000Y-15950000I0J150000D01*
G01*
X19800000Y-15950000D02*
G75*
G03*
X19800000Y-16250000I0J-150000D01*
G01*
X22650000Y-3740000D02*
X22650000Y-4060000D01*
X22490000Y-3900000D02*
X22810000Y-3900000D01*
X22500000Y-4050000D02*
X22800000Y-4050000D01*
X22500000Y-3750000D02*
X22800000Y-3750000D01*
X22800000Y-4050000D02*
G75*
G03*
X22800000Y-3750000I0J150000D01*
G01*
X22500000Y-3750000D02*
G75*
G03*
X22500000Y-4050000I0J-150000D01*
G01*
X22650000Y-15940000D02*
X22650000Y-16260000D01*
X22490000Y-16100000D02*
X22810000Y-16100000D01*
X22500000Y-16250000D02*
X22800000Y-16250000D01*
X22500000Y-15950000D02*
X22800000Y-15950000D01*
X22800000Y-16250000D02*
G75*
G03*
X22800000Y-15950000I0J150000D01*
G01*
X22500000Y-15950000D02*
G75*
G03*
X22500000Y-16250000I0J-150000D01*
G01*
X20522741Y-9822741D02*
X20522741Y-9377259D01*
X20077259Y-9377259D01*
X20077259Y-9822741D01*
X20522741Y-9822741D01*
X20522741Y-11722741D02*
X20522741Y-11277259D01*
X20077259Y-11277259D01*
X20077259Y-11722741D01*
X20522741Y-11722741D01*
X20522741Y-12722741D02*
X20522741Y-12277259D01*
X20077259Y-12277259D01*
X20077259Y-12722741D01*
X20522741Y-12722741D01*
X20530241Y-14722741D02*
X20530241Y-14277259D01*
X20084759Y-14277259D01*
X20084759Y-14722741D01*
X20530241Y-14722741D01*
X22522741Y-9822741D02*
X22522741Y-9377259D01*
X22077259Y-9377259D01*
X22077259Y-9822741D01*
X22522741Y-9822741D01*
X22522741Y-11722741D02*
X22522741Y-11277259D01*
X22077259Y-11277259D01*
X22077259Y-11722741D01*
X22522741Y-11722741D01*
X22522741Y-12722741D02*
X22522741Y-12277259D01*
X22077259Y-12277259D01*
X22077259Y-12722741D01*
X22522741Y-12722741D01*
X22522741Y-14722741D02*
X22522741Y-14277259D01*
X22077259Y-14277259D01*
X22077259Y-14722741D01*
X22522741Y-14722741D01*
D12*
X19583928Y-16868214D02*
X19583928Y-16568214D01*
X19655357Y-16568214D01*
X19698214Y-16582500D01*
X19726786Y-16611071D01*
X19741071Y-16639643D01*
X19755357Y-16696786D01*
X19755357Y-16739643D01*
X19741071Y-16796786D01*
X19726786Y-16825357D01*
X19698214Y-16853929D01*
X19655357Y-16868214D01*
X19583928Y-16868214D01*
X19883928Y-16868214D02*
X19883928Y-16668214D01*
X19883928Y-16725357D02*
X19898214Y-16696786D01*
X19912500Y-16682500D01*
X19941071Y-16668214D01*
X19969643Y-16668214D01*
X20069643Y-16868214D02*
X20069643Y-16668214D01*
X20069643Y-16568214D02*
X20055357Y-16582500D01*
X20069643Y-16596786D01*
X20083928Y-16582500D01*
X20069643Y-16568214D01*
X20069643Y-16596786D01*
X20255357Y-16868214D02*
X20226786Y-16853929D01*
X20212500Y-16825357D01*
X20212500Y-16568214D01*
X20412500Y-16868214D02*
X20383928Y-16853929D01*
X20369643Y-16825357D01*
X20369643Y-16568214D01*
X20755357Y-16868214D02*
X20755357Y-16568214D01*
X20855357Y-16782500D01*
X20955357Y-16568214D01*
X20955357Y-16868214D01*
X21226786Y-16868214D02*
X21226786Y-16711071D01*
X21212500Y-16682500D01*
X21183928Y-16668214D01*
X21126786Y-16668214D01*
X21098214Y-16682500D01*
X21226786Y-16853929D02*
X21198214Y-16868214D01*
X21126786Y-16868214D01*
X21098214Y-16853929D01*
X21083928Y-16825357D01*
X21083928Y-16796786D01*
X21098214Y-16768214D01*
X21126786Y-16753929D01*
X21198214Y-16753929D01*
X21226786Y-16739643D01*
X21369643Y-16668214D02*
X21369643Y-16968214D01*
X21369643Y-16682500D02*
X21398214Y-16668214D01*
X21455357Y-16668214D01*
X21483928Y-16682500D01*
X21498214Y-16696786D01*
X21512500Y-16725357D01*
X21512500Y-16811072D01*
X21498214Y-16839643D01*
X21483928Y-16853929D01*
X21455357Y-16868214D01*
X21398214Y-16868214D01*
X21369643Y-16853929D01*
X21641071Y-16839643D02*
X21655357Y-16853929D01*
X21641071Y-16868214D01*
X21626786Y-16853929D01*
X21641071Y-16839643D01*
X21641071Y-16868214D01*
X21641071Y-16682500D02*
X21655357Y-16696786D01*
X21641071Y-16711071D01*
X21626786Y-16696786D01*
X21641071Y-16682500D01*
X21641071Y-16711071D01*
X19257500Y-17342500D02*
X19297500Y-17382500D01*
X19297500Y-17342500D02*
X19257500Y-17382500D01*
X19641071Y-17198214D02*
X19669643Y-17198214D01*
X19698214Y-17212500D01*
X19712500Y-17226786D01*
X19726786Y-17255357D01*
X19741071Y-17312500D01*
X19741071Y-17383929D01*
X19726786Y-17441072D01*
X19712500Y-17469643D01*
X19698214Y-17483929D01*
X19669643Y-17498214D01*
X19641071Y-17498214D01*
X19612500Y-17483929D01*
X19598214Y-17469643D01*
X19583928Y-17441072D01*
X19569643Y-17383929D01*
X19569643Y-17312500D01*
X19583928Y-17255357D01*
X19598214Y-17226786D01*
X19612500Y-17212500D01*
X19641071Y-17198214D01*
X19869643Y-17469643D02*
X19883928Y-17483929D01*
X19869643Y-17498214D01*
X19855357Y-17483929D01*
X19869643Y-17469643D01*
X19869643Y-17498214D01*
X20141071Y-17298214D02*
X20141071Y-17498214D01*
X20069643Y-17183929D02*
X19998214Y-17398214D01*
X20183928Y-17398214D01*
X20355357Y-17198214D02*
X20383928Y-17198214D01*
X20412500Y-17212500D01*
X20426786Y-17226786D01*
X20441071Y-17255357D01*
X20455357Y-17312500D01*
X20455357Y-17383929D01*
X20441071Y-17441072D01*
X20426786Y-17469643D01*
X20412500Y-17483929D01*
X20383928Y-17498214D01*
X20355357Y-17498214D01*
X20326786Y-17483929D01*
X20312500Y-17469643D01*
X20298214Y-17441072D01*
X20283928Y-17383929D01*
X20283928Y-17312500D01*
X20298214Y-17255357D01*
X20312500Y-17226786D01*
X20326786Y-17212500D01*
X20355357Y-17198214D01*
X20583928Y-17498214D02*
X20583928Y-17298214D01*
X20583928Y-17326786D02*
X20598214Y-17312500D01*
X20626786Y-17298214D01*
X20669643Y-17298214D01*
X20698214Y-17312500D01*
X20712500Y-17341072D01*
X20712500Y-17498214D01*
X20712500Y-17341072D02*
X20726786Y-17312500D01*
X20755357Y-17298214D01*
X20798214Y-17298214D01*
X20826786Y-17312500D01*
X20841071Y-17341072D01*
X20841071Y-17498214D01*
X20983928Y-17498214D02*
X20983928Y-17298214D01*
X20983928Y-17326786D02*
X20998214Y-17312500D01*
X21026786Y-17298214D01*
X21069643Y-17298214D01*
X21098214Y-17312500D01*
X21112500Y-17341072D01*
X21112500Y-17498214D01*
X21112500Y-17341072D02*
X21126786Y-17312500D01*
X21155357Y-17298214D01*
X21198214Y-17298214D01*
X21226786Y-17312500D01*
X21241071Y-17341072D01*
X21241071Y-17498214D01*
X21826786Y-17183929D02*
X21569643Y-17569643D01*
X22212500Y-17198214D02*
X22241071Y-17198214D01*
X22269643Y-17212500D01*
X22283928Y-17226786D01*
X22298214Y-17255357D01*
X22312500Y-17312500D01*
X22312500Y-17383929D01*
X22298214Y-17441072D01*
X22283928Y-17469643D01*
X22269643Y-17483929D01*
X22241071Y-17498214D01*
X22212500Y-17498214D01*
X22183928Y-17483929D01*
X22169643Y-17469643D01*
X22155357Y-17441072D01*
X22141071Y-17383929D01*
X22141071Y-17312500D01*
X22155357Y-17255357D01*
X22169643Y-17226786D01*
X22183928Y-17212500D01*
X22212500Y-17198214D01*
X22441071Y-17469643D02*
X22455357Y-17483929D01*
X22441071Y-17498214D01*
X22426786Y-17483929D01*
X22441071Y-17469643D01*
X22441071Y-17498214D01*
X22641071Y-17198214D02*
X22669643Y-17198214D01*
X22698214Y-17212500D01*
X22712500Y-17226786D01*
X22726786Y-17255357D01*
X22741071Y-17312500D01*
X22741071Y-17383929D01*
X22726786Y-17441072D01*
X22712500Y-17469643D01*
X22698214Y-17483929D01*
X22669643Y-17498214D01*
X22641071Y-17498214D01*
X22612500Y-17483929D01*
X22598214Y-17469643D01*
X22583928Y-17441072D01*
X22569643Y-17383929D01*
X22569643Y-17312500D01*
X22583928Y-17255357D01*
X22598214Y-17226786D01*
X22612500Y-17212500D01*
X22641071Y-17198214D01*
X23026786Y-17498214D02*
X22855357Y-17498214D01*
X22941071Y-17498214D02*
X22941071Y-17198214D01*
X22912500Y-17241072D01*
X22883928Y-17269643D01*
X22855357Y-17283929D01*
X23283928Y-17198214D02*
X23226786Y-17198214D01*
X23198214Y-17212500D01*
X23183928Y-17226786D01*
X23155357Y-17269643D01*
X23141071Y-17326786D01*
X23141071Y-17441072D01*
X23155357Y-17469643D01*
X23169643Y-17483929D01*
X23198214Y-17498214D01*
X23255357Y-17498214D01*
X23283928Y-17483929D01*
X23298214Y-17469643D01*
X23312500Y-17441072D01*
X23312500Y-17369643D01*
X23298214Y-17341072D01*
X23283928Y-17326786D01*
X23255357Y-17312500D01*
X23198214Y-17312500D01*
X23169643Y-17326786D01*
X23155357Y-17341072D01*
X23141071Y-17369643D01*
X23426786Y-17198214D02*
X23426786Y-17255357D01*
X23541071Y-17198214D02*
X23541071Y-17255357D01*
X23983928Y-17612500D02*
X23969643Y-17598214D01*
X23941071Y-17555357D01*
X23926786Y-17526786D01*
X23912500Y-17483929D01*
X23898214Y-17412500D01*
X23898214Y-17355357D01*
X23912500Y-17283929D01*
X23926786Y-17241072D01*
X23941071Y-17212500D01*
X23969643Y-17169643D01*
X23983928Y-17155357D01*
X24255357Y-17498214D02*
X24083928Y-17498214D01*
X24169643Y-17498214D02*
X24169643Y-17198214D01*
X24141071Y-17241072D01*
X24112500Y-17269643D01*
X24083928Y-17283929D01*
X24512500Y-17298214D02*
X24512500Y-17498214D01*
X24441071Y-17183929D02*
X24369643Y-17398214D01*
X24555357Y-17398214D01*
X24898214Y-17498214D02*
X24898214Y-17198214D01*
X25026786Y-17498214D02*
X25026786Y-17341072D01*
X25012500Y-17312500D01*
X24983928Y-17298214D01*
X24941071Y-17298214D01*
X24912500Y-17312500D01*
X24898214Y-17326786D01*
X25212500Y-17498214D02*
X25183928Y-17483929D01*
X25169643Y-17469643D01*
X25155357Y-17441072D01*
X25155357Y-17355357D01*
X25169643Y-17326786D01*
X25183928Y-17312500D01*
X25212500Y-17298214D01*
X25255357Y-17298214D01*
X25283928Y-17312500D01*
X25298214Y-17326786D01*
X25312500Y-17355357D01*
X25312500Y-17441072D01*
X25298214Y-17469643D01*
X25283928Y-17483929D01*
X25255357Y-17498214D01*
X25212500Y-17498214D01*
X25483928Y-17498214D02*
X25455357Y-17483929D01*
X25441071Y-17455357D01*
X25441071Y-17198214D01*
X25712500Y-17483929D02*
X25683928Y-17498214D01*
X25626786Y-17498214D01*
X25598214Y-17483929D01*
X25583928Y-17455357D01*
X25583928Y-17341072D01*
X25598214Y-17312500D01*
X25626786Y-17298214D01*
X25683928Y-17298214D01*
X25712500Y-17312500D01*
X25726786Y-17341072D01*
X25726786Y-17369643D01*
X25583928Y-17398214D01*
X25841071Y-17483929D02*
X25869643Y-17498214D01*
X25926786Y-17498214D01*
X25955357Y-17483929D01*
X25969643Y-17455357D01*
X25969643Y-17441072D01*
X25955357Y-17412500D01*
X25926786Y-17398214D01*
X25883928Y-17398214D01*
X25855357Y-17383929D01*
X25841071Y-17355357D01*
X25841071Y-17341072D01*
X25855357Y-17312500D01*
X25883928Y-17298214D01*
X25926786Y-17298214D01*
X25955357Y-17312500D01*
X26069643Y-17612500D02*
X26083928Y-17598214D01*
X26112500Y-17555357D01*
X26126786Y-17526786D01*
X26141071Y-17483929D01*
X26155357Y-17412500D01*
X26155357Y-17355357D01*
X26141071Y-17283929D01*
X26126786Y-17241072D01*
X26112500Y-17212500D01*
X26083928Y-17169643D01*
X26069643Y-17155357D01*
X19297500Y-17758500D02*
G75*
G03*
X19297500Y-17758500I-132500J0D01*
G01*
X19569643Y-17622786D02*
X19583928Y-17608500D01*
X19612500Y-17594214D01*
X19683928Y-17594214D01*
X19712500Y-17608500D01*
X19726786Y-17622786D01*
X19741071Y-17651357D01*
X19741071Y-17679929D01*
X19726786Y-17722786D01*
X19555357Y-17894214D01*
X19741071Y-17894214D01*
X19869643Y-17865643D02*
X19883928Y-17879929D01*
X19869643Y-17894214D01*
X19855357Y-17879929D01*
X19869643Y-17865643D01*
X19869643Y-17894214D01*
X20141071Y-17594214D02*
X20083928Y-17594214D01*
X20055357Y-17608500D01*
X20041071Y-17622786D01*
X20012500Y-17665643D01*
X19998214Y-17722786D01*
X19998214Y-17837072D01*
X20012500Y-17865643D01*
X20026786Y-17879929D01*
X20055357Y-17894214D01*
X20112500Y-17894214D01*
X20141071Y-17879929D01*
X20155357Y-17865643D01*
X20169643Y-17837072D01*
X20169643Y-17765643D01*
X20155357Y-17737072D01*
X20141071Y-17722786D01*
X20112500Y-17708500D01*
X20055357Y-17708500D01*
X20026786Y-17722786D01*
X20012500Y-17737072D01*
X19998214Y-17765643D01*
X20441071Y-17594214D02*
X20298214Y-17594214D01*
X20283928Y-17737072D01*
X20298214Y-17722786D01*
X20326786Y-17708500D01*
X20398214Y-17708500D01*
X20426786Y-17722786D01*
X20441071Y-17737072D01*
X20455357Y-17765643D01*
X20455357Y-17837072D01*
X20441071Y-17865643D01*
X20426786Y-17879929D01*
X20398214Y-17894214D01*
X20326786Y-17894214D01*
X20298214Y-17879929D01*
X20283928Y-17865643D01*
X20583928Y-17894214D02*
X20583928Y-17694214D01*
X20583928Y-17722786D02*
X20598214Y-17708500D01*
X20626786Y-17694214D01*
X20669643Y-17694214D01*
X20698214Y-17708500D01*
X20712500Y-17737072D01*
X20712500Y-17894214D01*
X20712500Y-17737072D02*
X20726786Y-17708500D01*
X20755357Y-17694214D01*
X20798214Y-17694214D01*
X20826786Y-17708500D01*
X20841071Y-17737072D01*
X20841071Y-17894214D01*
X20983928Y-17894214D02*
X20983928Y-17694214D01*
X20983928Y-17722786D02*
X20998214Y-17708500D01*
X21026786Y-17694214D01*
X21069643Y-17694214D01*
X21098214Y-17708500D01*
X21112500Y-17737072D01*
X21112500Y-17894214D01*
X21112500Y-17737072D02*
X21126786Y-17708500D01*
X21155357Y-17694214D01*
X21198214Y-17694214D01*
X21226786Y-17708500D01*
X21241071Y-17737072D01*
X21241071Y-17894214D01*
X21826786Y-17579929D02*
X21569643Y-17965643D01*
X22212500Y-17594214D02*
X22241071Y-17594214D01*
X22269643Y-17608500D01*
X22283928Y-17622786D01*
X22298214Y-17651357D01*
X22312500Y-17708500D01*
X22312500Y-17779929D01*
X22298214Y-17837072D01*
X22283928Y-17865643D01*
X22269643Y-17879929D01*
X22241071Y-17894214D01*
X22212500Y-17894214D01*
X22183928Y-17879929D01*
X22169643Y-17865643D01*
X22155357Y-17837072D01*
X22141071Y-17779929D01*
X22141071Y-17708500D01*
X22155357Y-17651357D01*
X22169643Y-17622786D01*
X22183928Y-17608500D01*
X22212500Y-17594214D01*
X22441071Y-17865643D02*
X22455357Y-17879929D01*
X22441071Y-17894214D01*
X22426786Y-17879929D01*
X22441071Y-17865643D01*
X22441071Y-17894214D01*
X22741071Y-17894214D02*
X22569643Y-17894214D01*
X22655357Y-17894214D02*
X22655357Y-17594214D01*
X22626786Y-17637072D01*
X22598214Y-17665643D01*
X22569643Y-17679929D01*
X22926786Y-17594214D02*
X22955357Y-17594214D01*
X22983928Y-17608500D01*
X22998214Y-17622786D01*
X23012500Y-17651357D01*
X23026786Y-17708500D01*
X23026786Y-17779929D01*
X23012500Y-17837072D01*
X22998214Y-17865643D01*
X22983928Y-17879929D01*
X22955357Y-17894214D01*
X22926786Y-17894214D01*
X22898214Y-17879929D01*
X22883928Y-17865643D01*
X22869643Y-17837072D01*
X22855357Y-17779929D01*
X22855357Y-17708500D01*
X22869643Y-17651357D01*
X22883928Y-17622786D01*
X22898214Y-17608500D01*
X22926786Y-17594214D01*
X23283928Y-17694214D02*
X23283928Y-17894214D01*
X23212500Y-17579929D02*
X23141071Y-17794214D01*
X23326786Y-17794214D01*
X23426786Y-17594214D02*
X23426786Y-17651357D01*
X23541071Y-17594214D02*
X23541071Y-17651357D01*
X23983928Y-18008500D02*
X23969643Y-17994214D01*
X23941071Y-17951357D01*
X23926786Y-17922786D01*
X23912500Y-17879929D01*
X23898214Y-17808500D01*
X23898214Y-17751357D01*
X23912500Y-17679929D01*
X23926786Y-17637072D01*
X23941071Y-17608500D01*
X23969643Y-17565643D01*
X23983928Y-17551357D01*
X24226786Y-17694214D02*
X24226786Y-17894214D01*
X24155357Y-17579929D02*
X24083928Y-17794214D01*
X24269643Y-17794214D01*
X24612500Y-17894214D02*
X24612500Y-17594214D01*
X24741071Y-17894214D02*
X24741071Y-17737072D01*
X24726786Y-17708500D01*
X24698214Y-17694214D01*
X24655357Y-17694214D01*
X24626786Y-17708500D01*
X24612500Y-17722786D01*
X24926786Y-17894214D02*
X24898214Y-17879929D01*
X24883928Y-17865643D01*
X24869643Y-17837072D01*
X24869643Y-17751357D01*
X24883928Y-17722786D01*
X24898214Y-17708500D01*
X24926786Y-17694214D01*
X24969643Y-17694214D01*
X24998214Y-17708500D01*
X25012500Y-17722786D01*
X25026786Y-17751357D01*
X25026786Y-17837072D01*
X25012500Y-17865643D01*
X24998214Y-17879929D01*
X24969643Y-17894214D01*
X24926786Y-17894214D01*
X25198214Y-17894214D02*
X25169643Y-17879929D01*
X25155357Y-17851357D01*
X25155357Y-17594214D01*
X25426786Y-17879929D02*
X25398214Y-17894214D01*
X25341071Y-17894214D01*
X25312500Y-17879929D01*
X25298214Y-17851357D01*
X25298214Y-17737072D01*
X25312500Y-17708500D01*
X25341071Y-17694214D01*
X25398214Y-17694214D01*
X25426786Y-17708500D01*
X25441071Y-17737072D01*
X25441071Y-17765643D01*
X25298214Y-17794214D01*
X25555357Y-17879929D02*
X25583928Y-17894214D01*
X25641071Y-17894214D01*
X25669643Y-17879929D01*
X25683928Y-17851357D01*
X25683928Y-17837072D01*
X25669643Y-17808500D01*
X25641071Y-17794214D01*
X25598214Y-17794214D01*
X25569643Y-17779929D01*
X25555357Y-17751357D01*
X25555357Y-17737072D01*
X25569643Y-17708500D01*
X25598214Y-17694214D01*
X25641071Y-17694214D01*
X25669643Y-17708500D01*
X25783928Y-18008500D02*
X25798214Y-17994214D01*
X25826786Y-17951357D01*
X25841071Y-17922786D01*
X25855357Y-17879929D01*
X25869643Y-17808500D01*
X25869643Y-17751357D01*
X25855357Y-17679929D01*
X25841071Y-17637072D01*
X25826786Y-17608500D01*
X25798214Y-17565643D01*
X25783928Y-17551357D01*
X19137500Y-17994500D02*
X19137500Y-18314500D01*
X18977500Y-18154500D02*
X19297500Y-18154500D01*
X19555357Y-17990214D02*
X19741071Y-17990214D01*
X19641071Y-18104500D01*
X19683928Y-18104500D01*
X19712500Y-18118786D01*
X19726786Y-18133072D01*
X19741071Y-18161643D01*
X19741071Y-18233072D01*
X19726786Y-18261643D01*
X19712500Y-18275929D01*
X19683928Y-18290214D01*
X19598214Y-18290214D01*
X19569643Y-18275929D01*
X19555357Y-18261643D01*
X19869643Y-18261643D02*
X19883928Y-18275929D01*
X19869643Y-18290214D01*
X19855357Y-18275929D01*
X19869643Y-18261643D01*
X19869643Y-18290214D01*
X19998214Y-18018786D02*
X20012500Y-18004500D01*
X20041071Y-17990214D01*
X20112500Y-17990214D01*
X20141071Y-18004500D01*
X20155357Y-18018786D01*
X20169643Y-18047357D01*
X20169643Y-18075929D01*
X20155357Y-18118786D01*
X19983928Y-18290214D01*
X20169643Y-18290214D01*
X20355357Y-17990214D02*
X20383928Y-17990214D01*
X20412500Y-18004500D01*
X20426786Y-18018786D01*
X20441071Y-18047357D01*
X20455357Y-18104500D01*
X20455357Y-18175929D01*
X20441071Y-18233072D01*
X20426786Y-18261643D01*
X20412500Y-18275929D01*
X20383928Y-18290214D01*
X20355357Y-18290214D01*
X20326786Y-18275929D01*
X20312500Y-18261643D01*
X20298214Y-18233072D01*
X20283928Y-18175929D01*
X20283928Y-18104500D01*
X20298214Y-18047357D01*
X20312500Y-18018786D01*
X20326786Y-18004500D01*
X20355357Y-17990214D01*
X20583928Y-18290214D02*
X20583928Y-18090214D01*
X20583928Y-18118786D02*
X20598214Y-18104500D01*
X20626786Y-18090214D01*
X20669643Y-18090214D01*
X20698214Y-18104500D01*
X20712500Y-18133072D01*
X20712500Y-18290214D01*
X20712500Y-18133072D02*
X20726786Y-18104500D01*
X20755357Y-18090214D01*
X20798214Y-18090214D01*
X20826786Y-18104500D01*
X20841071Y-18133072D01*
X20841071Y-18290214D01*
X20983928Y-18290214D02*
X20983928Y-18090214D01*
X20983928Y-18118786D02*
X20998214Y-18104500D01*
X21026786Y-18090214D01*
X21069643Y-18090214D01*
X21098214Y-18104500D01*
X21112500Y-18133072D01*
X21112500Y-18290214D01*
X21112500Y-18133072D02*
X21126786Y-18104500D01*
X21155357Y-18090214D01*
X21198214Y-18090214D01*
X21226786Y-18104500D01*
X21241071Y-18133072D01*
X21241071Y-18290214D01*
X21826786Y-17975929D02*
X21569643Y-18361643D01*
X22212500Y-17990214D02*
X22241071Y-17990214D01*
X22269643Y-18004500D01*
X22283928Y-18018786D01*
X22298214Y-18047357D01*
X22312500Y-18104500D01*
X22312500Y-18175929D01*
X22298214Y-18233072D01*
X22283928Y-18261643D01*
X22269643Y-18275929D01*
X22241071Y-18290214D01*
X22212500Y-18290214D01*
X22183928Y-18275929D01*
X22169643Y-18261643D01*
X22155357Y-18233072D01*
X22141071Y-18175929D01*
X22141071Y-18104500D01*
X22155357Y-18047357D01*
X22169643Y-18018786D01*
X22183928Y-18004500D01*
X22212500Y-17990214D01*
X22441071Y-18261643D02*
X22455357Y-18275929D01*
X22441071Y-18290214D01*
X22426786Y-18275929D01*
X22441071Y-18261643D01*
X22441071Y-18290214D01*
X22741071Y-18290214D02*
X22569643Y-18290214D01*
X22655357Y-18290214D02*
X22655357Y-17990214D01*
X22626786Y-18033072D01*
X22598214Y-18061643D01*
X22569643Y-18075929D01*
X22855357Y-18018786D02*
X22869643Y-18004500D01*
X22898214Y-17990214D01*
X22969643Y-17990214D01*
X22998214Y-18004500D01*
X23012500Y-18018786D01*
X23026786Y-18047357D01*
X23026786Y-18075929D01*
X23012500Y-18118786D01*
X22841071Y-18290214D01*
X23026786Y-18290214D01*
X23283928Y-17990214D02*
X23226786Y-17990214D01*
X23198214Y-18004500D01*
X23183928Y-18018786D01*
X23155357Y-18061643D01*
X23141071Y-18118786D01*
X23141071Y-18233072D01*
X23155357Y-18261643D01*
X23169643Y-18275929D01*
X23198214Y-18290214D01*
X23255357Y-18290214D01*
X23283928Y-18275929D01*
X23298214Y-18261643D01*
X23312500Y-18233072D01*
X23312500Y-18161643D01*
X23298214Y-18133072D01*
X23283928Y-18118786D01*
X23255357Y-18104500D01*
X23198214Y-18104500D01*
X23169643Y-18118786D01*
X23155357Y-18133072D01*
X23141071Y-18161643D01*
X23426786Y-17990214D02*
X23426786Y-18047357D01*
X23541071Y-17990214D02*
X23541071Y-18047357D01*
X23983928Y-18404500D02*
X23969643Y-18390214D01*
X23941071Y-18347357D01*
X23926786Y-18318786D01*
X23912500Y-18275929D01*
X23898214Y-18204500D01*
X23898214Y-18147357D01*
X23912500Y-18075929D01*
X23926786Y-18033072D01*
X23941071Y-18004500D01*
X23969643Y-17961643D01*
X23983928Y-17947357D01*
X24155357Y-17990214D02*
X24183928Y-17990214D01*
X24212500Y-18004500D01*
X24226786Y-18018786D01*
X24241071Y-18047357D01*
X24255357Y-18104500D01*
X24255357Y-18175929D01*
X24241071Y-18233072D01*
X24226786Y-18261643D01*
X24212500Y-18275929D01*
X24183928Y-18290214D01*
X24155357Y-18290214D01*
X24126786Y-18275929D01*
X24112500Y-18261643D01*
X24098214Y-18233072D01*
X24083928Y-18175929D01*
X24083928Y-18104500D01*
X24098214Y-18047357D01*
X24112500Y-18018786D01*
X24126786Y-18004500D01*
X24155357Y-17990214D01*
X24612500Y-18290214D02*
X24612500Y-17990214D01*
X24741071Y-18290214D02*
X24741071Y-18133072D01*
X24726786Y-18104500D01*
X24698214Y-18090214D01*
X24655357Y-18090214D01*
X24626786Y-18104500D01*
X24612500Y-18118786D01*
X24926786Y-18290214D02*
X24898214Y-18275929D01*
X24883928Y-18261643D01*
X24869643Y-18233072D01*
X24869643Y-18147357D01*
X24883928Y-18118786D01*
X24898214Y-18104500D01*
X24926786Y-18090214D01*
X24969643Y-18090214D01*
X24998214Y-18104500D01*
X25012500Y-18118786D01*
X25026786Y-18147357D01*
X25026786Y-18233072D01*
X25012500Y-18261643D01*
X24998214Y-18275929D01*
X24969643Y-18290214D01*
X24926786Y-18290214D01*
X25198214Y-18290214D02*
X25169643Y-18275929D01*
X25155357Y-18247357D01*
X25155357Y-17990214D01*
X25426786Y-18275929D02*
X25398214Y-18290214D01*
X25341071Y-18290214D01*
X25312500Y-18275929D01*
X25298214Y-18247357D01*
X25298214Y-18133072D01*
X25312500Y-18104500D01*
X25341071Y-18090214D01*
X25398214Y-18090214D01*
X25426786Y-18104500D01*
X25441071Y-18133072D01*
X25441071Y-18161643D01*
X25298214Y-18190214D01*
X25555357Y-18275929D02*
X25583928Y-18290214D01*
X25641071Y-18290214D01*
X25669643Y-18275929D01*
X25683928Y-18247357D01*
X25683928Y-18233072D01*
X25669643Y-18204500D01*
X25641071Y-18190214D01*
X25598214Y-18190214D01*
X25569643Y-18175929D01*
X25555357Y-18147357D01*
X25555357Y-18133072D01*
X25569643Y-18104500D01*
X25598214Y-18090214D01*
X25641071Y-18090214D01*
X25669643Y-18104500D01*
X26041071Y-18175929D02*
X26269643Y-18175929D01*
X26155357Y-18290214D02*
X26155357Y-18061643D01*
X26769643Y-18090214D02*
X26769643Y-18290214D01*
X26698214Y-17975929D02*
X26626786Y-18190214D01*
X26812500Y-18190214D01*
X27141071Y-18275929D02*
X27169643Y-18290214D01*
X27226786Y-18290214D01*
X27255357Y-18275929D01*
X27269643Y-18247357D01*
X27269643Y-18233072D01*
X27255357Y-18204500D01*
X27226786Y-18190214D01*
X27183928Y-18190214D01*
X27155357Y-18175929D01*
X27141071Y-18147357D01*
X27141071Y-18133072D01*
X27155357Y-18104500D01*
X27183928Y-18090214D01*
X27226786Y-18090214D01*
X27255357Y-18104500D01*
X27441071Y-18290214D02*
X27412500Y-18275929D01*
X27398214Y-18247357D01*
X27398214Y-17990214D01*
X27598214Y-18290214D02*
X27569643Y-18275929D01*
X27555357Y-18261643D01*
X27541071Y-18233072D01*
X27541071Y-18147357D01*
X27555357Y-18118786D01*
X27569643Y-18104500D01*
X27598214Y-18090214D01*
X27641071Y-18090214D01*
X27669643Y-18104500D01*
X27683928Y-18118786D01*
X27698214Y-18147357D01*
X27698214Y-18233072D01*
X27683928Y-18261643D01*
X27669643Y-18275929D01*
X27641071Y-18290214D01*
X27598214Y-18290214D01*
X27783928Y-18090214D02*
X27898214Y-18090214D01*
X27826786Y-17990214D02*
X27826786Y-18247357D01*
X27841071Y-18275929D01*
X27869643Y-18290214D01*
X27898214Y-18290214D01*
X27983928Y-18275929D02*
X28012500Y-18290214D01*
X28069643Y-18290214D01*
X28098214Y-18275929D01*
X28112500Y-18247357D01*
X28112500Y-18233072D01*
X28098214Y-18204500D01*
X28069643Y-18190214D01*
X28026786Y-18190214D01*
X27998214Y-18175929D01*
X27983928Y-18147357D01*
X27983928Y-18133072D01*
X27998214Y-18104500D01*
X28026786Y-18090214D01*
X28069643Y-18090214D01*
X28098214Y-18104500D01*
X28212500Y-18404500D02*
X28226786Y-18390214D01*
X28255357Y-18347357D01*
X28269643Y-18318786D01*
X28283928Y-18275929D01*
X28298214Y-18204500D01*
X28298214Y-18147357D01*
X28283928Y-18075929D01*
X28269643Y-18033072D01*
X28255357Y-18004500D01*
X28226786Y-17961643D01*
X28212500Y-17947357D01*
X19205241Y-18827241D02*
X19205241Y-18381759D01*
X18759759Y-18381759D01*
X18759759Y-18827241D01*
X19205241Y-18827241D01*
X19712500Y-18440214D02*
X19655357Y-18440214D01*
X19626786Y-18454500D01*
X19612500Y-18468786D01*
X19583928Y-18511643D01*
X19569643Y-18568786D01*
X19569643Y-18683072D01*
X19583928Y-18711643D01*
X19598214Y-18725929D01*
X19626786Y-18740214D01*
X19683928Y-18740214D01*
X19712500Y-18725929D01*
X19726786Y-18711643D01*
X19741071Y-18683072D01*
X19741071Y-18611643D01*
X19726786Y-18583072D01*
X19712500Y-18568786D01*
X19683928Y-18554500D01*
X19626786Y-18554500D01*
X19598214Y-18568786D01*
X19583928Y-18583072D01*
X19569643Y-18611643D01*
X19869643Y-18711643D02*
X19883928Y-18725929D01*
X19869643Y-18740214D01*
X19855357Y-18725929D01*
X19869643Y-18711643D01*
X19869643Y-18740214D01*
X19983928Y-18440214D02*
X20169643Y-18440214D01*
X20069643Y-18554500D01*
X20112500Y-18554500D01*
X20141071Y-18568786D01*
X20155357Y-18583072D01*
X20169643Y-18611643D01*
X20169643Y-18683072D01*
X20155357Y-18711643D01*
X20141071Y-18725929D01*
X20112500Y-18740214D01*
X20026786Y-18740214D01*
X19998214Y-18725929D01*
X19983928Y-18711643D01*
X20355357Y-18440214D02*
X20383928Y-18440214D01*
X20412500Y-18454500D01*
X20426786Y-18468786D01*
X20441071Y-18497357D01*
X20455357Y-18554500D01*
X20455357Y-18625929D01*
X20441071Y-18683072D01*
X20426786Y-18711643D01*
X20412500Y-18725929D01*
X20383928Y-18740214D01*
X20355357Y-18740214D01*
X20326786Y-18725929D01*
X20312500Y-18711643D01*
X20298214Y-18683072D01*
X20283928Y-18625929D01*
X20283928Y-18554500D01*
X20298214Y-18497357D01*
X20312500Y-18468786D01*
X20326786Y-18454500D01*
X20355357Y-18440214D01*
X20583928Y-18740214D02*
X20583928Y-18540214D01*
X20583928Y-18568786D02*
X20598214Y-18554500D01*
X20626786Y-18540214D01*
X20669643Y-18540214D01*
X20698214Y-18554500D01*
X20712500Y-18583072D01*
X20712500Y-18740214D01*
X20712500Y-18583072D02*
X20726786Y-18554500D01*
X20755357Y-18540214D01*
X20798214Y-18540214D01*
X20826786Y-18554500D01*
X20841071Y-18583072D01*
X20841071Y-18740214D01*
X20983928Y-18740214D02*
X20983928Y-18540214D01*
X20983928Y-18568786D02*
X20998214Y-18554500D01*
X21026786Y-18540214D01*
X21069643Y-18540214D01*
X21098214Y-18554500D01*
X21112500Y-18583072D01*
X21112500Y-18740214D01*
X21112500Y-18583072D02*
X21126786Y-18554500D01*
X21155357Y-18540214D01*
X21198214Y-18540214D01*
X21226786Y-18554500D01*
X21241071Y-18583072D01*
X21241071Y-18740214D01*
X21826786Y-18425929D02*
X21569643Y-18811643D01*
X22212500Y-18440214D02*
X22241071Y-18440214D01*
X22269643Y-18454500D01*
X22283928Y-18468786D01*
X22298214Y-18497357D01*
X22312500Y-18554500D01*
X22312500Y-18625929D01*
X22298214Y-18683072D01*
X22283928Y-18711643D01*
X22269643Y-18725929D01*
X22241071Y-18740214D01*
X22212500Y-18740214D01*
X22183928Y-18725929D01*
X22169643Y-18711643D01*
X22155357Y-18683072D01*
X22141071Y-18625929D01*
X22141071Y-18554500D01*
X22155357Y-18497357D01*
X22169643Y-18468786D01*
X22183928Y-18454500D01*
X22212500Y-18440214D01*
X22441071Y-18711643D02*
X22455357Y-18725929D01*
X22441071Y-18740214D01*
X22426786Y-18725929D01*
X22441071Y-18711643D01*
X22441071Y-18740214D01*
X22569643Y-18468786D02*
X22583928Y-18454500D01*
X22612500Y-18440214D01*
X22683928Y-18440214D01*
X22712500Y-18454500D01*
X22726786Y-18468786D01*
X22741071Y-18497357D01*
X22741071Y-18525929D01*
X22726786Y-18568786D01*
X22555357Y-18740214D01*
X22741071Y-18740214D01*
X22998214Y-18540214D02*
X22998214Y-18740214D01*
X22926786Y-18425929D02*
X22855357Y-18640214D01*
X23041071Y-18640214D01*
X23198214Y-18568786D02*
X23169643Y-18554500D01*
X23155357Y-18540214D01*
X23141071Y-18511643D01*
X23141071Y-18497357D01*
X23155357Y-18468786D01*
X23169643Y-18454500D01*
X23198214Y-18440214D01*
X23255357Y-18440214D01*
X23283928Y-18454500D01*
X23298214Y-18468786D01*
X23312500Y-18497357D01*
X23312500Y-18511643D01*
X23298214Y-18540214D01*
X23283928Y-18554500D01*
X23255357Y-18568786D01*
X23198214Y-18568786D01*
X23169643Y-18583072D01*
X23155357Y-18597357D01*
X23141071Y-18625929D01*
X23141071Y-18683072D01*
X23155357Y-18711643D01*
X23169643Y-18725929D01*
X23198214Y-18740214D01*
X23255357Y-18740214D01*
X23283928Y-18725929D01*
X23298214Y-18711643D01*
X23312500Y-18683072D01*
X23312500Y-18625929D01*
X23298214Y-18597357D01*
X23283928Y-18583072D01*
X23255357Y-18568786D01*
X23426786Y-18440214D02*
X23426786Y-18497357D01*
X23541071Y-18440214D02*
X23541071Y-18497357D01*
X23983928Y-18854500D02*
X23969643Y-18840214D01*
X23941071Y-18797357D01*
X23926786Y-18768786D01*
X23912500Y-18725929D01*
X23898214Y-18654500D01*
X23898214Y-18597357D01*
X23912500Y-18525929D01*
X23926786Y-18483072D01*
X23941071Y-18454500D01*
X23969643Y-18411643D01*
X23983928Y-18397357D01*
X24141071Y-18568786D02*
X24112500Y-18554500D01*
X24098214Y-18540214D01*
X24083928Y-18511643D01*
X24083928Y-18497357D01*
X24098214Y-18468786D01*
X24112500Y-18454500D01*
X24141071Y-18440214D01*
X24198214Y-18440214D01*
X24226786Y-18454500D01*
X24241071Y-18468786D01*
X24255357Y-18497357D01*
X24255357Y-18511643D01*
X24241071Y-18540214D01*
X24226786Y-18554500D01*
X24198214Y-18568786D01*
X24141071Y-18568786D01*
X24112500Y-18583072D01*
X24098214Y-18597357D01*
X24083928Y-18625929D01*
X24083928Y-18683072D01*
X24098214Y-18711643D01*
X24112500Y-18725929D01*
X24141071Y-18740214D01*
X24198214Y-18740214D01*
X24226786Y-18725929D01*
X24241071Y-18711643D01*
X24255357Y-18683072D01*
X24255357Y-18625929D01*
X24241071Y-18597357D01*
X24226786Y-18583072D01*
X24198214Y-18568786D01*
X24612500Y-18740214D02*
X24612500Y-18440214D01*
X24741071Y-18740214D02*
X24741071Y-18583072D01*
X24726786Y-18554500D01*
X24698214Y-18540214D01*
X24655357Y-18540214D01*
X24626786Y-18554500D01*
X24612500Y-18568786D01*
X24926786Y-18740214D02*
X24898214Y-18725929D01*
X24883928Y-18711643D01*
X24869643Y-18683072D01*
X24869643Y-18597357D01*
X24883928Y-18568786D01*
X24898214Y-18554500D01*
X24926786Y-18540214D01*
X24969643Y-18540214D01*
X24998214Y-18554500D01*
X25012500Y-18568786D01*
X25026786Y-18597357D01*
X25026786Y-18683072D01*
X25012500Y-18711643D01*
X24998214Y-18725929D01*
X24969643Y-18740214D01*
X24926786Y-18740214D01*
X25198214Y-18740214D02*
X25169643Y-18725929D01*
X25155357Y-18697357D01*
X25155357Y-18440214D01*
X25426786Y-18725929D02*
X25398214Y-18740214D01*
X25341071Y-18740214D01*
X25312500Y-18725929D01*
X25298214Y-18697357D01*
X25298214Y-18583072D01*
X25312500Y-18554500D01*
X25341071Y-18540214D01*
X25398214Y-18540214D01*
X25426786Y-18554500D01*
X25441071Y-18583072D01*
X25441071Y-18611643D01*
X25298214Y-18640214D01*
X25555357Y-18725929D02*
X25583928Y-18740214D01*
X25641071Y-18740214D01*
X25669643Y-18725929D01*
X25683928Y-18697357D01*
X25683928Y-18683072D01*
X25669643Y-18654500D01*
X25641071Y-18640214D01*
X25598214Y-18640214D01*
X25569643Y-18625929D01*
X25555357Y-18597357D01*
X25555357Y-18583072D01*
X25569643Y-18554500D01*
X25598214Y-18540214D01*
X25641071Y-18540214D01*
X25669643Y-18554500D01*
X25783928Y-18854500D02*
X25798214Y-18840214D01*
X25826786Y-18797357D01*
X25841071Y-18768786D01*
X25855357Y-18725929D01*
X25869643Y-18654500D01*
X25869643Y-18597357D01*
X25855357Y-18525929D01*
X25841071Y-18483072D01*
X25826786Y-18454500D01*
X25798214Y-18411643D01*
X25783928Y-18397357D01*
M02*
