G04 #@! TF.GenerationSoftware,KiCad,Pcbnew,(5.1.9)-1*
G04 #@! TF.CreationDate,2021-04-12T22:44:31+02:00*
G04 #@! TF.ProjectId,KicadJE_Face,4b696361-644a-4455-9f46-6163652e6b69,rev?*
G04 #@! TF.SameCoordinates,Original*
G04 #@! TF.FileFunction,Paste,Top*
G04 #@! TF.FilePolarity,Positive*
%FSLAX46Y46*%
G04 Gerber Fmt 4.6, Leading zero omitted, Abs format (unit mm)*
G04 Created by KiCad (PCBNEW (5.1.9)-1) date 2021-04-12 22:44:31*
%MOMM*%
%LPD*%
G01*
G04 APERTURE LIST*
G04 APERTURE END LIST*
G36*
G01*
X211375000Y-46450001D02*
X211375000Y-45549999D01*
G75*
G02*
X211624999Y-45300000I249999J0D01*
G01*
X212275001Y-45300000D01*
G75*
G02*
X212525000Y-45549999I0J-249999D01*
G01*
X212525000Y-46450001D01*
G75*
G02*
X212275001Y-46700000I-249999J0D01*
G01*
X211624999Y-46700000D01*
G75*
G02*
X211375000Y-46450001I0J249999D01*
G01*
G37*
G36*
G01*
X213425000Y-46450001D02*
X213425000Y-45549999D01*
G75*
G02*
X213674999Y-45300000I249999J0D01*
G01*
X214325001Y-45300000D01*
G75*
G02*
X214575000Y-45549999I0J-249999D01*
G01*
X214575000Y-46450001D01*
G75*
G02*
X214325001Y-46700000I-249999J0D01*
G01*
X213674999Y-46700000D01*
G75*
G02*
X213425000Y-46450001I0J249999D01*
G01*
G37*
G36*
G01*
X194375000Y-115450001D02*
X194375000Y-114549999D01*
G75*
G02*
X194624999Y-114300000I249999J0D01*
G01*
X195275001Y-114300000D01*
G75*
G02*
X195525000Y-114549999I0J-249999D01*
G01*
X195525000Y-115450001D01*
G75*
G02*
X195275001Y-115700000I-249999J0D01*
G01*
X194624999Y-115700000D01*
G75*
G02*
X194375000Y-115450001I0J249999D01*
G01*
G37*
G36*
G01*
X196425000Y-115450001D02*
X196425000Y-114549999D01*
G75*
G02*
X196674999Y-114300000I249999J0D01*
G01*
X197325001Y-114300000D01*
G75*
G02*
X197575000Y-114549999I0J-249999D01*
G01*
X197575000Y-115450001D01*
G75*
G02*
X197325001Y-115700000I-249999J0D01*
G01*
X196674999Y-115700000D01*
G75*
G02*
X196425000Y-115450001I0J249999D01*
G01*
G37*
G36*
G01*
X230475000Y-115450001D02*
X230475000Y-114549999D01*
G75*
G02*
X230724999Y-114300000I249999J0D01*
G01*
X231375001Y-114300000D01*
G75*
G02*
X231625000Y-114549999I0J-249999D01*
G01*
X231625000Y-115450001D01*
G75*
G02*
X231375001Y-115700000I-249999J0D01*
G01*
X230724999Y-115700000D01*
G75*
G02*
X230475000Y-115450001I0J249999D01*
G01*
G37*
G36*
G01*
X228425000Y-115450001D02*
X228425000Y-114549999D01*
G75*
G02*
X228674999Y-114300000I249999J0D01*
G01*
X229325001Y-114300000D01*
G75*
G02*
X229575000Y-114549999I0J-249999D01*
G01*
X229575000Y-115450001D01*
G75*
G02*
X229325001Y-115700000I-249999J0D01*
G01*
X228674999Y-115700000D01*
G75*
G02*
X228425000Y-115450001I0J249999D01*
G01*
G37*
G36*
G01*
X194400000Y-125450001D02*
X194400000Y-124549999D01*
G75*
G02*
X194649999Y-124300000I249999J0D01*
G01*
X195300001Y-124300000D01*
G75*
G02*
X195550000Y-124549999I0J-249999D01*
G01*
X195550000Y-125450001D01*
G75*
G02*
X195300001Y-125700000I-249999J0D01*
G01*
X194649999Y-125700000D01*
G75*
G02*
X194400000Y-125450001I0J249999D01*
G01*
G37*
G36*
G01*
X196450000Y-125450001D02*
X196450000Y-124549999D01*
G75*
G02*
X196699999Y-124300000I249999J0D01*
G01*
X197350001Y-124300000D01*
G75*
G02*
X197600000Y-124549999I0J-249999D01*
G01*
X197600000Y-125450001D01*
G75*
G02*
X197350001Y-125700000I-249999J0D01*
G01*
X196699999Y-125700000D01*
G75*
G02*
X196450000Y-125450001I0J249999D01*
G01*
G37*
G36*
G01*
X230425000Y-125450001D02*
X230425000Y-124549999D01*
G75*
G02*
X230674999Y-124300000I249999J0D01*
G01*
X231325001Y-124300000D01*
G75*
G02*
X231575000Y-124549999I0J-249999D01*
G01*
X231575000Y-125450001D01*
G75*
G02*
X231325001Y-125700000I-249999J0D01*
G01*
X230674999Y-125700000D01*
G75*
G02*
X230425000Y-125450001I0J249999D01*
G01*
G37*
G36*
G01*
X228375000Y-125450001D02*
X228375000Y-124549999D01*
G75*
G02*
X228624999Y-124300000I249999J0D01*
G01*
X229275001Y-124300000D01*
G75*
G02*
X229525000Y-124549999I0J-249999D01*
G01*
X229525000Y-125450001D01*
G75*
G02*
X229275001Y-125700000I-249999J0D01*
G01*
X228624999Y-125700000D01*
G75*
G02*
X228375000Y-125450001I0J249999D01*
G01*
G37*
G36*
G01*
X194375000Y-145450001D02*
X194375000Y-144549999D01*
G75*
G02*
X194624999Y-144300000I249999J0D01*
G01*
X195275001Y-144300000D01*
G75*
G02*
X195525000Y-144549999I0J-249999D01*
G01*
X195525000Y-145450001D01*
G75*
G02*
X195275001Y-145700000I-249999J0D01*
G01*
X194624999Y-145700000D01*
G75*
G02*
X194375000Y-145450001I0J249999D01*
G01*
G37*
G36*
G01*
X196425000Y-145450001D02*
X196425000Y-144549999D01*
G75*
G02*
X196674999Y-144300000I249999J0D01*
G01*
X197325001Y-144300000D01*
G75*
G02*
X197575000Y-144549999I0J-249999D01*
G01*
X197575000Y-145450001D01*
G75*
G02*
X197325001Y-145700000I-249999J0D01*
G01*
X196674999Y-145700000D01*
G75*
G02*
X196425000Y-145450001I0J249999D01*
G01*
G37*
G36*
G01*
X230450000Y-145450001D02*
X230450000Y-144549999D01*
G75*
G02*
X230699999Y-144300000I249999J0D01*
G01*
X231350001Y-144300000D01*
G75*
G02*
X231600000Y-144549999I0J-249999D01*
G01*
X231600000Y-145450001D01*
G75*
G02*
X231350001Y-145700000I-249999J0D01*
G01*
X230699999Y-145700000D01*
G75*
G02*
X230450000Y-145450001I0J249999D01*
G01*
G37*
G36*
G01*
X228400000Y-145450001D02*
X228400000Y-144549999D01*
G75*
G02*
X228649999Y-144300000I249999J0D01*
G01*
X229300001Y-144300000D01*
G75*
G02*
X229550000Y-144549999I0J-249999D01*
G01*
X229550000Y-145450001D01*
G75*
G02*
X229300001Y-145700000I-249999J0D01*
G01*
X228649999Y-145700000D01*
G75*
G02*
X228400000Y-145450001I0J249999D01*
G01*
G37*
M02*
