G04 #@! TF.GenerationSoftware,KiCad,Pcbnew,(5.1.9)-1*
G04 #@! TF.CreationDate,2021-04-12T22:44:31+02:00*
G04 #@! TF.ProjectId,KicadJE_Face,4b696361-644a-4455-9f46-6163652e6b69,rev?*
G04 #@! TF.SameCoordinates,Original*
G04 #@! TF.FileFunction,Legend,Bot*
G04 #@! TF.FilePolarity,Positive*
%FSLAX46Y46*%
G04 Gerber Fmt 4.6, Leading zero omitted, Abs format (unit mm)*
G04 Created by KiCad (PCBNEW (5.1.9)-1) date 2021-04-12 22:44:31*
%MOMM*%
%LPD*%
G01*
G04 APERTURE LIST*
%ADD10C,0.120000*%
%ADD11C,0.150000*%
%ADD12C,0.100000*%
%ADD13C,0.250000*%
%ADD14O,7.102000X4.102000*%
%ADD15C,6.602000*%
%ADD16C,2.902000*%
G04 APERTURE END LIST*
D10*
X208500000Y-123000000D02*
X208500000Y-130000000D01*
X217500000Y-130000000D02*
X208500000Y-123000000D01*
X217500000Y-123000000D02*
X217500000Y-130000000D01*
X208500000Y-130000000D02*
X217500000Y-123000000D01*
D11*
X226500000Y-76500000D02*
X199500000Y-76500000D01*
X226500000Y-52500000D02*
X199500000Y-52500000D01*
X226500000Y-79500000D02*
X199500000Y-79500000D01*
X226500000Y-61500000D02*
X199500000Y-61500000D01*
X226500000Y-79500000D02*
X226500000Y-52500000D01*
X199500000Y-79500000D02*
X199500000Y-52500000D01*
D12*
X194797619Y-163119047D02*
X194083333Y-163119047D01*
X193940476Y-163166666D01*
X193845238Y-163261904D01*
X193797619Y-163404761D01*
X193797619Y-163500000D01*
X193797619Y-162166666D02*
X193797619Y-162642857D01*
X194797619Y-162642857D01*
X193892857Y-161261904D02*
X193845238Y-161309523D01*
X193797619Y-161452380D01*
X193797619Y-161547619D01*
X193845238Y-161690476D01*
X193940476Y-161785714D01*
X194035714Y-161833333D01*
X194226190Y-161880952D01*
X194369047Y-161880952D01*
X194559523Y-161833333D01*
X194654761Y-161785714D01*
X194750000Y-161690476D01*
X194797619Y-161547619D01*
X194797619Y-161452380D01*
X194750000Y-161309523D01*
X194702380Y-161261904D01*
X194797619Y-160547619D02*
X194083333Y-160547619D01*
X193940476Y-160595238D01*
X193845238Y-160690476D01*
X193797619Y-160833333D01*
X193797619Y-160928571D01*
X193797619Y-159595238D02*
X193797619Y-160071428D01*
X194797619Y-160071428D01*
X193892857Y-158690476D02*
X193845238Y-158738095D01*
X193797619Y-158880952D01*
X193797619Y-158976190D01*
X193845238Y-159119047D01*
X193940476Y-159214285D01*
X194035714Y-159261904D01*
X194226190Y-159309523D01*
X194369047Y-159309523D01*
X194559523Y-159261904D01*
X194654761Y-159214285D01*
X194750000Y-159119047D01*
X194797619Y-158976190D01*
X194797619Y-158880952D01*
X194750000Y-158738095D01*
X194702380Y-158690476D01*
X194797619Y-157976190D02*
X194083333Y-157976190D01*
X193940476Y-158023809D01*
X193845238Y-158119047D01*
X193797619Y-158261904D01*
X193797619Y-158357142D01*
X193797619Y-157023809D02*
X193797619Y-157500000D01*
X194797619Y-157500000D01*
X193892857Y-156119047D02*
X193845238Y-156166666D01*
X193797619Y-156309523D01*
X193797619Y-156404761D01*
X193845238Y-156547619D01*
X193940476Y-156642857D01*
X194035714Y-156690476D01*
X194226190Y-156738095D01*
X194369047Y-156738095D01*
X194559523Y-156690476D01*
X194654761Y-156642857D01*
X194750000Y-156547619D01*
X194797619Y-156404761D01*
X194797619Y-156309523D01*
X194750000Y-156166666D01*
X194702380Y-156119047D01*
X194797619Y-155404761D02*
X194083333Y-155404761D01*
X193940476Y-155452380D01*
X193845238Y-155547619D01*
X193797619Y-155690476D01*
X193797619Y-155785714D01*
X193797619Y-154452380D02*
X193797619Y-154928571D01*
X194797619Y-154928571D01*
X193892857Y-153547619D02*
X193845238Y-153595238D01*
X193797619Y-153738095D01*
X193797619Y-153833333D01*
X193845238Y-153976190D01*
X193940476Y-154071428D01*
X194035714Y-154119047D01*
X194226190Y-154166666D01*
X194369047Y-154166666D01*
X194559523Y-154119047D01*
X194654761Y-154071428D01*
X194750000Y-153976190D01*
X194797619Y-153833333D01*
X194797619Y-153738095D01*
X194750000Y-153595238D01*
X194702380Y-153547619D01*
D13*
X219813690Y-156702380D02*
X219813690Y-157416666D01*
X219861309Y-157559523D01*
X219956547Y-157654761D01*
X220099404Y-157702380D01*
X220194642Y-157702380D01*
X219194642Y-157702380D02*
X219289880Y-157654761D01*
X219337500Y-157607142D01*
X219385119Y-157511904D01*
X219385119Y-157226190D01*
X219337500Y-157130952D01*
X219289880Y-157083333D01*
X219194642Y-157035714D01*
X219051785Y-157035714D01*
X218956547Y-157083333D01*
X218908928Y-157130952D01*
X218861309Y-157226190D01*
X218861309Y-157511904D01*
X218908928Y-157607142D01*
X218956547Y-157654761D01*
X219051785Y-157702380D01*
X219194642Y-157702380D01*
X218432738Y-157702380D02*
X218432738Y-156702380D01*
X218004166Y-157702380D02*
X218004166Y-157178571D01*
X218051785Y-157083333D01*
X218147023Y-157035714D01*
X218289880Y-157035714D01*
X218385119Y-157083333D01*
X218432738Y-157130952D01*
X217099404Y-157702380D02*
X217099404Y-157178571D01*
X217147023Y-157083333D01*
X217242261Y-157035714D01*
X217432738Y-157035714D01*
X217527976Y-157083333D01*
X217099404Y-157654761D02*
X217194642Y-157702380D01*
X217432738Y-157702380D01*
X217527976Y-157654761D01*
X217575595Y-157559523D01*
X217575595Y-157464285D01*
X217527976Y-157369047D01*
X217432738Y-157321428D01*
X217194642Y-157321428D01*
X217099404Y-157273809D01*
X216623214Y-157035714D02*
X216623214Y-157702380D01*
X216623214Y-157130952D02*
X216575595Y-157083333D01*
X216480357Y-157035714D01*
X216337500Y-157035714D01*
X216242261Y-157083333D01*
X216194642Y-157178571D01*
X216194642Y-157702380D01*
X215766071Y-157654761D02*
X215670833Y-157702380D01*
X215480357Y-157702380D01*
X215385119Y-157654761D01*
X215337500Y-157559523D01*
X215337500Y-157511904D01*
X215385119Y-157416666D01*
X215480357Y-157369047D01*
X215623214Y-157369047D01*
X215718452Y-157321428D01*
X215766071Y-157226190D01*
X215766071Y-157178571D01*
X215718452Y-157083333D01*
X215623214Y-157035714D01*
X215480357Y-157035714D01*
X215385119Y-157083333D01*
X214527976Y-157654761D02*
X214623214Y-157702380D01*
X214813690Y-157702380D01*
X214908928Y-157654761D01*
X214956547Y-157559523D01*
X214956547Y-157178571D01*
X214908928Y-157083333D01*
X214813690Y-157035714D01*
X214623214Y-157035714D01*
X214527976Y-157083333D01*
X214480357Y-157178571D01*
X214480357Y-157273809D01*
X214956547Y-157369047D01*
X214051785Y-157035714D02*
X214051785Y-157702380D01*
X214051785Y-157130952D02*
X214004166Y-157083333D01*
X213908928Y-157035714D01*
X213766071Y-157035714D01*
X213670833Y-157083333D01*
X213623214Y-157178571D01*
X213623214Y-157702380D01*
X212385119Y-157178571D02*
X212051785Y-157178571D01*
X211908928Y-157702380D02*
X212385119Y-157702380D01*
X212385119Y-156702380D01*
X211908928Y-156702380D01*
X211480357Y-157035714D02*
X211480357Y-157702380D01*
X211480357Y-157130952D02*
X211432738Y-157083333D01*
X211337500Y-157035714D01*
X211194642Y-157035714D01*
X211099404Y-157083333D01*
X211051785Y-157178571D01*
X211051785Y-157702380D01*
X210147023Y-157035714D02*
X210147023Y-157845238D01*
X210194642Y-157940476D01*
X210242261Y-157988095D01*
X210337500Y-158035714D01*
X210480357Y-158035714D01*
X210575595Y-157988095D01*
X210147023Y-157654761D02*
X210242261Y-157702380D01*
X210432738Y-157702380D01*
X210527976Y-157654761D01*
X210575595Y-157607142D01*
X210623214Y-157511904D01*
X210623214Y-157226190D01*
X210575595Y-157130952D01*
X210527976Y-157083333D01*
X210432738Y-157035714D01*
X210242261Y-157035714D01*
X210147023Y-157083333D01*
X209670833Y-157702380D02*
X209670833Y-157035714D01*
X209670833Y-156702380D02*
X209718452Y-156750000D01*
X209670833Y-156797619D01*
X209623214Y-156750000D01*
X209670833Y-156702380D01*
X209670833Y-156797619D01*
X209194642Y-157035714D02*
X209194642Y-157702380D01*
X209194642Y-157130952D02*
X209147023Y-157083333D01*
X209051785Y-157035714D01*
X208908928Y-157035714D01*
X208813690Y-157083333D01*
X208766071Y-157178571D01*
X208766071Y-157702380D01*
X207908928Y-157654761D02*
X208004166Y-157702380D01*
X208194642Y-157702380D01*
X208289880Y-157654761D01*
X208337500Y-157559523D01*
X208337500Y-157178571D01*
X208289880Y-157083333D01*
X208194642Y-157035714D01*
X208004166Y-157035714D01*
X207908928Y-157083333D01*
X207861309Y-157178571D01*
X207861309Y-157273809D01*
X208337500Y-157369047D01*
X207051785Y-157654761D02*
X207147023Y-157702380D01*
X207337500Y-157702380D01*
X207432738Y-157654761D01*
X207480357Y-157559523D01*
X207480357Y-157178571D01*
X207432738Y-157083333D01*
X207337500Y-157035714D01*
X207147023Y-157035714D01*
X207051785Y-157083333D01*
X207004166Y-157178571D01*
X207004166Y-157273809D01*
X207480357Y-157369047D01*
X206575595Y-157702380D02*
X206575595Y-157035714D01*
X206575595Y-157226190D02*
X206527976Y-157130952D01*
X206480357Y-157083333D01*
X206385119Y-157035714D01*
X206289880Y-157035714D01*
X205956547Y-157702380D02*
X205956547Y-157035714D01*
X205956547Y-156702380D02*
X206004166Y-156750000D01*
X205956547Y-156797619D01*
X205908928Y-156750000D01*
X205956547Y-156702380D01*
X205956547Y-156797619D01*
X205480357Y-157035714D02*
X205480357Y-157702380D01*
X205480357Y-157130952D02*
X205432738Y-157083333D01*
X205337500Y-157035714D01*
X205194642Y-157035714D01*
X205099404Y-157083333D01*
X205051785Y-157178571D01*
X205051785Y-157702380D01*
X204147023Y-157035714D02*
X204147023Y-157845238D01*
X204194642Y-157940476D01*
X204242261Y-157988095D01*
X204337500Y-158035714D01*
X204480357Y-158035714D01*
X204575595Y-157988095D01*
X204147023Y-157654761D02*
X204242261Y-157702380D01*
X204432738Y-157702380D01*
X204527976Y-157654761D01*
X204575595Y-157607142D01*
X204623214Y-157511904D01*
X204623214Y-157226190D01*
X204575595Y-157130952D01*
X204527976Y-157083333D01*
X204432738Y-157035714D01*
X204242261Y-157035714D01*
X204147023Y-157083333D01*
X219908928Y-158452380D02*
X219718452Y-158452380D01*
X219623214Y-158500000D01*
X219527976Y-158595238D01*
X219480357Y-158785714D01*
X219480357Y-159119047D01*
X219527976Y-159309523D01*
X219623214Y-159404761D01*
X219718452Y-159452380D01*
X219908928Y-159452380D01*
X220004166Y-159404761D01*
X220099404Y-159309523D01*
X220147023Y-159119047D01*
X220147023Y-158785714D01*
X220099404Y-158595238D01*
X220004166Y-158500000D01*
X219908928Y-158452380D01*
X218575595Y-159452380D02*
X219051785Y-159452380D01*
X219051785Y-158452380D01*
X218242261Y-158928571D02*
X217908928Y-158928571D01*
X217766071Y-159452380D02*
X218242261Y-159452380D01*
X218242261Y-158452380D01*
X217766071Y-158452380D01*
X217337500Y-159452380D02*
X217337500Y-158452380D01*
X217099404Y-158452380D01*
X216956547Y-158500000D01*
X216861309Y-158595238D01*
X216813690Y-158690476D01*
X216766071Y-158880952D01*
X216766071Y-159023809D01*
X216813690Y-159214285D01*
X216861309Y-159309523D01*
X216956547Y-159404761D01*
X217099404Y-159452380D01*
X217337500Y-159452380D01*
X215004166Y-159452380D02*
X215337499Y-158976190D01*
X215575595Y-159452380D02*
X215575595Y-158452380D01*
X215194642Y-158452380D01*
X215099404Y-158500000D01*
X215051785Y-158547619D01*
X215004166Y-158642857D01*
X215004166Y-158785714D01*
X215051785Y-158880952D01*
X215099404Y-158928571D01*
X215194642Y-158976190D01*
X215575595Y-158976190D01*
X214194642Y-159404761D02*
X214289880Y-159452380D01*
X214480357Y-159452380D01*
X214575595Y-159404761D01*
X214623214Y-159309523D01*
X214623214Y-158928571D01*
X214575595Y-158833333D01*
X214480357Y-158785714D01*
X214289880Y-158785714D01*
X214194642Y-158833333D01*
X214147023Y-158928571D01*
X214147023Y-159023809D01*
X214623214Y-159119047D01*
X213813690Y-158785714D02*
X213575595Y-159452380D01*
X213337499Y-158785714D01*
X212242261Y-159166666D02*
X211766071Y-159166666D01*
X212337499Y-159452380D02*
X212004166Y-158452380D01*
X211670833Y-159452380D01*
X219575595Y-161202380D02*
X220147023Y-161202380D01*
X219861309Y-161202380D02*
X219861309Y-160202380D01*
X219956547Y-160345238D01*
X220051785Y-160440476D01*
X220147023Y-160488095D01*
X219194642Y-160297619D02*
X219147023Y-160250000D01*
X219051785Y-160202380D01*
X218813690Y-160202380D01*
X218718452Y-160250000D01*
X218670833Y-160297619D01*
X218623214Y-160392857D01*
X218623214Y-160488095D01*
X218670833Y-160630952D01*
X219242261Y-161202380D01*
X218623214Y-161202380D01*
X217480357Y-160154761D02*
X218337500Y-161440476D01*
X216956547Y-160202380D02*
X216861309Y-160202380D01*
X216766071Y-160250000D01*
X216718452Y-160297619D01*
X216670833Y-160392857D01*
X216623214Y-160583333D01*
X216623214Y-160821428D01*
X216670833Y-161011904D01*
X216718452Y-161107142D01*
X216766071Y-161154761D01*
X216861309Y-161202380D01*
X216956547Y-161202380D01*
X217051785Y-161154761D01*
X217099404Y-161107142D01*
X217147023Y-161011904D01*
X217194642Y-160821428D01*
X217194642Y-160583333D01*
X217147023Y-160392857D01*
X217099404Y-160297619D01*
X217051785Y-160250000D01*
X216956547Y-160202380D01*
X215766071Y-160535714D02*
X215766071Y-161202380D01*
X216004166Y-160154761D02*
X216242261Y-160869047D01*
X215623214Y-160869047D01*
X215242261Y-160821428D02*
X214480357Y-160821428D01*
X214051785Y-160297619D02*
X214004166Y-160250000D01*
X213908928Y-160202380D01*
X213670833Y-160202380D01*
X213575595Y-160250000D01*
X213527976Y-160297619D01*
X213480357Y-160392857D01*
X213480357Y-160488095D01*
X213527976Y-160630952D01*
X214099404Y-161202380D01*
X213480357Y-161202380D01*
X212861309Y-160202380D02*
X212766071Y-160202380D01*
X212670833Y-160250000D01*
X212623214Y-160297619D01*
X212575595Y-160392857D01*
X212527976Y-160583333D01*
X212527976Y-160821428D01*
X212575595Y-161011904D01*
X212623214Y-161107142D01*
X212670833Y-161154761D01*
X212766071Y-161202380D01*
X212861309Y-161202380D01*
X212956547Y-161154761D01*
X213004166Y-161107142D01*
X213051785Y-161011904D01*
X213099404Y-160821428D01*
X213099404Y-160583333D01*
X213051785Y-160392857D01*
X213004166Y-160297619D01*
X212956547Y-160250000D01*
X212861309Y-160202380D01*
X212147023Y-160297619D02*
X212099404Y-160250000D01*
X212004166Y-160202380D01*
X211766071Y-160202380D01*
X211670833Y-160250000D01*
X211623214Y-160297619D01*
X211575595Y-160392857D01*
X211575595Y-160488095D01*
X211623214Y-160630952D01*
X212194642Y-161202380D01*
X211575595Y-161202380D01*
X210623214Y-161202380D02*
X211194642Y-161202380D01*
X210908928Y-161202380D02*
X210908928Y-160202380D01*
X211004166Y-160345238D01*
X211099404Y-160440476D01*
X211194642Y-160488095D01*
D10*
X212288748Y-131910000D02*
X213711252Y-131910000D01*
X212288748Y-130090000D02*
X213711252Y-130090000D01*
X212288748Y-108090000D02*
X213711252Y-108090000D01*
X212288748Y-109910000D02*
X213711252Y-109910000D01*
X203236252Y-132290000D02*
X202713748Y-132290000D01*
X203236252Y-133710000D02*
X202713748Y-133710000D01*
X223236252Y-109710000D02*
X222713748Y-109710000D01*
X223236252Y-108290000D02*
X222713748Y-108290000D01*
X210750000Y-134000000D02*
X210750000Y-132000000D01*
X210750000Y-132000000D02*
X214650000Y-132000000D01*
X210750000Y-134000000D02*
X214650000Y-134000000D01*
X210750000Y-107500000D02*
X214650000Y-107500000D01*
X210750000Y-105500000D02*
X214650000Y-105500000D01*
X210750000Y-107500000D02*
X210750000Y-105500000D01*
X218238748Y-46710000D02*
X218761252Y-46710000D01*
X218238748Y-45290000D02*
X218761252Y-45290000D01*
X196286252Y-112210000D02*
X195763748Y-112210000D01*
X196286252Y-110790000D02*
X195763748Y-110790000D01*
X229738748Y-112210000D02*
X230261252Y-112210000D01*
X229738748Y-110790000D02*
X230261252Y-110790000D01*
X196261252Y-122210000D02*
X195738748Y-122210000D01*
X196261252Y-120790000D02*
X195738748Y-120790000D01*
X229713748Y-121290000D02*
X230236252Y-121290000D01*
X229713748Y-122710000D02*
X230236252Y-122710000D01*
X195786252Y-149710000D02*
X195263748Y-149710000D01*
X195786252Y-148290000D02*
X195263748Y-148290000D01*
X229713748Y-149710000D02*
X230236252Y-149710000D01*
X229713748Y-148290000D02*
X230236252Y-148290000D01*
X214330000Y-144530000D02*
X214330000Y-148090000D01*
X214330000Y-139450000D02*
X214330000Y-143010000D01*
X214330000Y-149610000D02*
X214330000Y-150180000D01*
X211670000Y-134820000D02*
X211670000Y-135390000D01*
X211670000Y-135390000D02*
X210150000Y-135390000D01*
X214330000Y-134820000D02*
X214330000Y-137930000D01*
X211670000Y-147070000D02*
X211670000Y-150180000D01*
X211670000Y-141990000D02*
X211670000Y-145550000D01*
X211670000Y-136910000D02*
X211670000Y-140470000D01*
X214330000Y-150180000D02*
X211670000Y-150180000D01*
X214330000Y-134820000D02*
X211670000Y-134820000D01*
X210400000Y-127110000D02*
X210400000Y-128130000D01*
X215600000Y-127110000D02*
X215600000Y-128130000D01*
X210400000Y-124570000D02*
X210400000Y-125590000D01*
X215600000Y-124570000D02*
X215600000Y-125590000D01*
X210400000Y-122030000D02*
X210400000Y-123050000D01*
X215600000Y-122030000D02*
X215600000Y-123050000D01*
X210400000Y-119490000D02*
X210400000Y-120510000D01*
X215600000Y-119490000D02*
X215600000Y-120510000D01*
X210400000Y-116950000D02*
X210400000Y-117970000D01*
X215600000Y-116950000D02*
X215600000Y-117970000D01*
X210400000Y-114410000D02*
X210400000Y-115430000D01*
X215600000Y-114410000D02*
X215600000Y-115430000D01*
X210400000Y-111870000D02*
X210400000Y-112890000D01*
X215600000Y-111870000D02*
X215600000Y-112890000D01*
X210400000Y-129650000D02*
X210400000Y-130220000D01*
X215600000Y-129650000D02*
X215600000Y-130220000D01*
X210400000Y-109780000D02*
X210400000Y-110350000D01*
X215600000Y-109780000D02*
X215600000Y-110350000D01*
X217040000Y-110350000D02*
X215600000Y-110350000D01*
X215600000Y-130220000D02*
X210400000Y-130220000D01*
X215600000Y-109780000D02*
X210400000Y-109780000D01*
D11*
X216666666Y-131357142D02*
X216714285Y-131404761D01*
X216857142Y-131452380D01*
X216952380Y-131452380D01*
X217095238Y-131404761D01*
X217190476Y-131309523D01*
X217238095Y-131214285D01*
X217285714Y-131023809D01*
X217285714Y-130880952D01*
X217238095Y-130690476D01*
X217190476Y-130595238D01*
X217095238Y-130500000D01*
X216952380Y-130452380D01*
X216857142Y-130452380D01*
X216714285Y-130500000D01*
X216666666Y-130547619D01*
X215714285Y-131452380D02*
X216285714Y-131452380D01*
X216000000Y-131452380D02*
X216000000Y-130452380D01*
X216095238Y-130595238D01*
X216190476Y-130690476D01*
X216285714Y-130738095D01*
X216666666Y-109357142D02*
X216714285Y-109404761D01*
X216857142Y-109452380D01*
X216952380Y-109452380D01*
X217095238Y-109404761D01*
X217190476Y-109309523D01*
X217238095Y-109214285D01*
X217285714Y-109023809D01*
X217285714Y-108880952D01*
X217238095Y-108690476D01*
X217190476Y-108595238D01*
X217095238Y-108500000D01*
X216952380Y-108452380D01*
X216857142Y-108452380D01*
X216714285Y-108500000D01*
X216666666Y-108547619D01*
X216285714Y-108547619D02*
X216238095Y-108500000D01*
X216142857Y-108452380D01*
X215904761Y-108452380D01*
X215809523Y-108500000D01*
X215761904Y-108547619D01*
X215714285Y-108642857D01*
X215714285Y-108738095D01*
X215761904Y-108880952D01*
X216333333Y-109452380D01*
X215714285Y-109452380D01*
X209666666Y-109452380D02*
X210238095Y-109452380D01*
X209952380Y-109452380D02*
X209952380Y-108452380D01*
X210047619Y-108595238D01*
X210142857Y-108690476D01*
X210238095Y-108738095D01*
X208809523Y-108785714D02*
X208809523Y-109452380D01*
X209238095Y-108785714D02*
X209238095Y-109309523D01*
X209190476Y-109404761D01*
X209095238Y-109452380D01*
X208952380Y-109452380D01*
X208857142Y-109404761D01*
X208809523Y-109357142D01*
X203666666Y-130357142D02*
X203714285Y-130404761D01*
X203857142Y-130452380D01*
X203952380Y-130452380D01*
X204095238Y-130404761D01*
X204190476Y-130309523D01*
X204238095Y-130214285D01*
X204285714Y-130023809D01*
X204285714Y-129880952D01*
X204238095Y-129690476D01*
X204190476Y-129595238D01*
X204095238Y-129500000D01*
X203952380Y-129452380D01*
X203857142Y-129452380D01*
X203714285Y-129500000D01*
X203666666Y-129547619D01*
X203333333Y-129452380D02*
X202714285Y-129452380D01*
X203047619Y-129833333D01*
X202904761Y-129833333D01*
X202809523Y-129880952D01*
X202761904Y-129928571D01*
X202714285Y-130023809D01*
X202714285Y-130261904D01*
X202761904Y-130357142D01*
X202809523Y-130404761D01*
X202904761Y-130452380D01*
X203190476Y-130452380D01*
X203285714Y-130404761D01*
X203333333Y-130357142D01*
D12*
X203870238Y-131861904D02*
X204327380Y-131861904D01*
X204098809Y-131861904D02*
X204098809Y-131061904D01*
X204175000Y-131176190D01*
X204251190Y-131252380D01*
X204327380Y-131290476D01*
X203375000Y-131061904D02*
X203298809Y-131061904D01*
X203222619Y-131100000D01*
X203184523Y-131138095D01*
X203146428Y-131214285D01*
X203108333Y-131366666D01*
X203108333Y-131557142D01*
X203146428Y-131709523D01*
X203184523Y-131785714D01*
X203222619Y-131823809D01*
X203298809Y-131861904D01*
X203375000Y-131861904D01*
X203451190Y-131823809D01*
X203489285Y-131785714D01*
X203527380Y-131709523D01*
X203565476Y-131557142D01*
X203565476Y-131366666D01*
X203527380Y-131214285D01*
X203489285Y-131138095D01*
X203451190Y-131100000D01*
X203375000Y-131061904D01*
X202613095Y-131061904D02*
X202536904Y-131061904D01*
X202460714Y-131100000D01*
X202422619Y-131138095D01*
X202384523Y-131214285D01*
X202346428Y-131366666D01*
X202346428Y-131557142D01*
X202384523Y-131709523D01*
X202422619Y-131785714D01*
X202460714Y-131823809D01*
X202536904Y-131861904D01*
X202613095Y-131861904D01*
X202689285Y-131823809D01*
X202727380Y-131785714D01*
X202765476Y-131709523D01*
X202803571Y-131557142D01*
X202803571Y-131366666D01*
X202765476Y-131214285D01*
X202727380Y-131138095D01*
X202689285Y-131100000D01*
X202613095Y-131061904D01*
X202003571Y-131328571D02*
X202003571Y-131861904D01*
X202003571Y-131404761D02*
X201965476Y-131366666D01*
X201889285Y-131328571D01*
X201775000Y-131328571D01*
X201698809Y-131366666D01*
X201660714Y-131442857D01*
X201660714Y-131861904D01*
D11*
X223666666Y-106357142D02*
X223714285Y-106404761D01*
X223857142Y-106452380D01*
X223952380Y-106452380D01*
X224095238Y-106404761D01*
X224190476Y-106309523D01*
X224238095Y-106214285D01*
X224285714Y-106023809D01*
X224285714Y-105880952D01*
X224238095Y-105690476D01*
X224190476Y-105595238D01*
X224095238Y-105500000D01*
X223952380Y-105452380D01*
X223857142Y-105452380D01*
X223714285Y-105500000D01*
X223666666Y-105547619D01*
X222809523Y-105785714D02*
X222809523Y-106452380D01*
X223047619Y-105404761D02*
X223285714Y-106119047D01*
X222666666Y-106119047D01*
D12*
X223870238Y-107861904D02*
X224327380Y-107861904D01*
X224098809Y-107861904D02*
X224098809Y-107061904D01*
X224175000Y-107176190D01*
X224251190Y-107252380D01*
X224327380Y-107290476D01*
X223375000Y-107061904D02*
X223298809Y-107061904D01*
X223222619Y-107100000D01*
X223184523Y-107138095D01*
X223146428Y-107214285D01*
X223108333Y-107366666D01*
X223108333Y-107557142D01*
X223146428Y-107709523D01*
X223184523Y-107785714D01*
X223222619Y-107823809D01*
X223298809Y-107861904D01*
X223375000Y-107861904D01*
X223451190Y-107823809D01*
X223489285Y-107785714D01*
X223527380Y-107709523D01*
X223565476Y-107557142D01*
X223565476Y-107366666D01*
X223527380Y-107214285D01*
X223489285Y-107138095D01*
X223451190Y-107100000D01*
X223375000Y-107061904D01*
X222613095Y-107061904D02*
X222536904Y-107061904D01*
X222460714Y-107100000D01*
X222422619Y-107138095D01*
X222384523Y-107214285D01*
X222346428Y-107366666D01*
X222346428Y-107557142D01*
X222384523Y-107709523D01*
X222422619Y-107785714D01*
X222460714Y-107823809D01*
X222536904Y-107861904D01*
X222613095Y-107861904D01*
X222689285Y-107823809D01*
X222727380Y-107785714D01*
X222765476Y-107709523D01*
X222803571Y-107557142D01*
X222803571Y-107366666D01*
X222765476Y-107214285D01*
X222727380Y-107138095D01*
X222689285Y-107100000D01*
X222613095Y-107061904D01*
X222003571Y-107328571D02*
X222003571Y-107861904D01*
X222003571Y-107404761D02*
X221965476Y-107366666D01*
X221889285Y-107328571D01*
X221775000Y-107328571D01*
X221698809Y-107366666D01*
X221660714Y-107442857D01*
X221660714Y-107861904D01*
D11*
X217238095Y-133452380D02*
X217238095Y-132452380D01*
X217000000Y-132452380D01*
X216857142Y-132500000D01*
X216761904Y-132595238D01*
X216714285Y-132690476D01*
X216666666Y-132880952D01*
X216666666Y-133023809D01*
X216714285Y-133214285D01*
X216761904Y-133309523D01*
X216857142Y-133404761D01*
X217000000Y-133452380D01*
X217238095Y-133452380D01*
X215714285Y-133452380D02*
X216285714Y-133452380D01*
X216000000Y-133452380D02*
X216000000Y-132452380D01*
X216095238Y-132595238D01*
X216190476Y-132690476D01*
X216285714Y-132738095D01*
X217238095Y-106952380D02*
X217238095Y-105952380D01*
X217000000Y-105952380D01*
X216857142Y-106000000D01*
X216761904Y-106095238D01*
X216714285Y-106190476D01*
X216666666Y-106380952D01*
X216666666Y-106523809D01*
X216714285Y-106714285D01*
X216761904Y-106809523D01*
X216857142Y-106904761D01*
X217000000Y-106952380D01*
X217238095Y-106952380D01*
X216285714Y-106047619D02*
X216238095Y-106000000D01*
X216142857Y-105952380D01*
X215904761Y-105952380D01*
X215809523Y-106000000D01*
X215761904Y-106047619D01*
X215714285Y-106142857D01*
X215714285Y-106238095D01*
X215761904Y-106380952D01*
X216333333Y-106952380D01*
X215714285Y-106952380D01*
X218666666Y-48102380D02*
X219000000Y-47626190D01*
X219238095Y-48102380D02*
X219238095Y-47102380D01*
X218857142Y-47102380D01*
X218761904Y-47150000D01*
X218714285Y-47197619D01*
X218666666Y-47292857D01*
X218666666Y-47435714D01*
X218714285Y-47530952D01*
X218761904Y-47578571D01*
X218857142Y-47626190D01*
X219238095Y-47626190D01*
X217714285Y-48102380D02*
X218285714Y-48102380D01*
X218000000Y-48102380D02*
X218000000Y-47102380D01*
X218095238Y-47245238D01*
X218190476Y-47340476D01*
X218285714Y-47388095D01*
D12*
X219433333Y-43988095D02*
X219395238Y-43950000D01*
X219319047Y-43911904D01*
X219128571Y-43911904D01*
X219052380Y-43950000D01*
X219014285Y-43988095D01*
X218976190Y-44064285D01*
X218976190Y-44140476D01*
X219014285Y-44254761D01*
X219471428Y-44711904D01*
X218976190Y-44711904D01*
X218671428Y-43988095D02*
X218633333Y-43950000D01*
X218557142Y-43911904D01*
X218366666Y-43911904D01*
X218290476Y-43950000D01*
X218252380Y-43988095D01*
X218214285Y-44064285D01*
X218214285Y-44140476D01*
X218252380Y-44254761D01*
X218709523Y-44711904D01*
X218214285Y-44711904D01*
X217871428Y-44711904D02*
X217871428Y-43911904D01*
X217795238Y-44407142D02*
X217566666Y-44711904D01*
X217566666Y-44178571D02*
X217871428Y-44483333D01*
D11*
X196191666Y-110302380D02*
X196525000Y-109826190D01*
X196763095Y-110302380D02*
X196763095Y-109302380D01*
X196382142Y-109302380D01*
X196286904Y-109350000D01*
X196239285Y-109397619D01*
X196191666Y-109492857D01*
X196191666Y-109635714D01*
X196239285Y-109730952D01*
X196286904Y-109778571D01*
X196382142Y-109826190D01*
X196763095Y-109826190D01*
X195810714Y-109397619D02*
X195763095Y-109350000D01*
X195667857Y-109302380D01*
X195429761Y-109302380D01*
X195334523Y-109350000D01*
X195286904Y-109397619D01*
X195239285Y-109492857D01*
X195239285Y-109588095D01*
X195286904Y-109730952D01*
X195858333Y-110302380D01*
X195239285Y-110302380D01*
D12*
X196501190Y-113511904D02*
X196958333Y-113511904D01*
X196729761Y-113511904D02*
X196729761Y-112711904D01*
X196805952Y-112826190D01*
X196882142Y-112902380D01*
X196958333Y-112940476D01*
X196196428Y-112788095D02*
X196158333Y-112750000D01*
X196082142Y-112711904D01*
X195891666Y-112711904D01*
X195815476Y-112750000D01*
X195777380Y-112788095D01*
X195739285Y-112864285D01*
X195739285Y-112940476D01*
X195777380Y-113054761D01*
X196234523Y-113511904D01*
X195739285Y-113511904D01*
X195396428Y-113511904D02*
X195396428Y-112711904D01*
X195320238Y-113207142D02*
X195091666Y-113511904D01*
X195091666Y-112978571D02*
X195396428Y-113283333D01*
D11*
X230166666Y-113602380D02*
X230500000Y-113126190D01*
X230738095Y-113602380D02*
X230738095Y-112602380D01*
X230357142Y-112602380D01*
X230261904Y-112650000D01*
X230214285Y-112697619D01*
X230166666Y-112792857D01*
X230166666Y-112935714D01*
X230214285Y-113030952D01*
X230261904Y-113078571D01*
X230357142Y-113126190D01*
X230738095Y-113126190D01*
X229833333Y-112602380D02*
X229214285Y-112602380D01*
X229547619Y-112983333D01*
X229404761Y-112983333D01*
X229309523Y-113030952D01*
X229261904Y-113078571D01*
X229214285Y-113173809D01*
X229214285Y-113411904D01*
X229261904Y-113507142D01*
X229309523Y-113554761D01*
X229404761Y-113602380D01*
X229690476Y-113602380D01*
X229785714Y-113554761D01*
X229833333Y-113507142D01*
D12*
X230476190Y-110211904D02*
X230933333Y-110211904D01*
X230704761Y-110211904D02*
X230704761Y-109411904D01*
X230780952Y-109526190D01*
X230857142Y-109602380D01*
X230933333Y-109640476D01*
X230171428Y-109488095D02*
X230133333Y-109450000D01*
X230057142Y-109411904D01*
X229866666Y-109411904D01*
X229790476Y-109450000D01*
X229752380Y-109488095D01*
X229714285Y-109564285D01*
X229714285Y-109640476D01*
X229752380Y-109754761D01*
X230209523Y-110211904D01*
X229714285Y-110211904D01*
X229371428Y-110211904D02*
X229371428Y-109411904D01*
X229295238Y-109907142D02*
X229066666Y-110211904D01*
X229066666Y-109678571D02*
X229371428Y-109983333D01*
D11*
X196166666Y-120302380D02*
X196500000Y-119826190D01*
X196738095Y-120302380D02*
X196738095Y-119302380D01*
X196357142Y-119302380D01*
X196261904Y-119350000D01*
X196214285Y-119397619D01*
X196166666Y-119492857D01*
X196166666Y-119635714D01*
X196214285Y-119730952D01*
X196261904Y-119778571D01*
X196357142Y-119826190D01*
X196738095Y-119826190D01*
X195309523Y-119635714D02*
X195309523Y-120302380D01*
X195547619Y-119254761D02*
X195785714Y-119969047D01*
X195166666Y-119969047D01*
D12*
X196476190Y-123511904D02*
X196933333Y-123511904D01*
X196704761Y-123511904D02*
X196704761Y-122711904D01*
X196780952Y-122826190D01*
X196857142Y-122902380D01*
X196933333Y-122940476D01*
X196171428Y-122788095D02*
X196133333Y-122750000D01*
X196057142Y-122711904D01*
X195866666Y-122711904D01*
X195790476Y-122750000D01*
X195752380Y-122788095D01*
X195714285Y-122864285D01*
X195714285Y-122940476D01*
X195752380Y-123054761D01*
X196209523Y-123511904D01*
X195714285Y-123511904D01*
X195371428Y-123511904D02*
X195371428Y-122711904D01*
X195295238Y-123207142D02*
X195066666Y-123511904D01*
X195066666Y-122978571D02*
X195371428Y-123283333D01*
D11*
X230141666Y-124102380D02*
X230475000Y-123626190D01*
X230713095Y-124102380D02*
X230713095Y-123102380D01*
X230332142Y-123102380D01*
X230236904Y-123150000D01*
X230189285Y-123197619D01*
X230141666Y-123292857D01*
X230141666Y-123435714D01*
X230189285Y-123530952D01*
X230236904Y-123578571D01*
X230332142Y-123626190D01*
X230713095Y-123626190D01*
X229236904Y-123102380D02*
X229713095Y-123102380D01*
X229760714Y-123578571D01*
X229713095Y-123530952D01*
X229617857Y-123483333D01*
X229379761Y-123483333D01*
X229284523Y-123530952D01*
X229236904Y-123578571D01*
X229189285Y-123673809D01*
X229189285Y-123911904D01*
X229236904Y-124007142D01*
X229284523Y-124054761D01*
X229379761Y-124102380D01*
X229617857Y-124102380D01*
X229713095Y-124054761D01*
X229760714Y-124007142D01*
D12*
X230451190Y-120711904D02*
X230908333Y-120711904D01*
X230679761Y-120711904D02*
X230679761Y-119911904D01*
X230755952Y-120026190D01*
X230832142Y-120102380D01*
X230908333Y-120140476D01*
X230146428Y-119988095D02*
X230108333Y-119950000D01*
X230032142Y-119911904D01*
X229841666Y-119911904D01*
X229765476Y-119950000D01*
X229727380Y-119988095D01*
X229689285Y-120064285D01*
X229689285Y-120140476D01*
X229727380Y-120254761D01*
X230184523Y-120711904D01*
X229689285Y-120711904D01*
X229346428Y-120711904D02*
X229346428Y-119911904D01*
X229270238Y-120407142D02*
X229041666Y-120711904D01*
X229041666Y-120178571D02*
X229346428Y-120483333D01*
D11*
X195691666Y-147802380D02*
X196025000Y-147326190D01*
X196263095Y-147802380D02*
X196263095Y-146802380D01*
X195882142Y-146802380D01*
X195786904Y-146850000D01*
X195739285Y-146897619D01*
X195691666Y-146992857D01*
X195691666Y-147135714D01*
X195739285Y-147230952D01*
X195786904Y-147278571D01*
X195882142Y-147326190D01*
X196263095Y-147326190D01*
X194834523Y-146802380D02*
X195025000Y-146802380D01*
X195120238Y-146850000D01*
X195167857Y-146897619D01*
X195263095Y-147040476D01*
X195310714Y-147230952D01*
X195310714Y-147611904D01*
X195263095Y-147707142D01*
X195215476Y-147754761D01*
X195120238Y-147802380D01*
X194929761Y-147802380D01*
X194834523Y-147754761D01*
X194786904Y-147707142D01*
X194739285Y-147611904D01*
X194739285Y-147373809D01*
X194786904Y-147278571D01*
X194834523Y-147230952D01*
X194929761Y-147183333D01*
X195120238Y-147183333D01*
X195215476Y-147230952D01*
X195263095Y-147278571D01*
X195310714Y-147373809D01*
D12*
X196001190Y-151011904D02*
X196458333Y-151011904D01*
X196229761Y-151011904D02*
X196229761Y-150211904D01*
X196305952Y-150326190D01*
X196382142Y-150402380D01*
X196458333Y-150440476D01*
X195696428Y-150288095D02*
X195658333Y-150250000D01*
X195582142Y-150211904D01*
X195391666Y-150211904D01*
X195315476Y-150250000D01*
X195277380Y-150288095D01*
X195239285Y-150364285D01*
X195239285Y-150440476D01*
X195277380Y-150554761D01*
X195734523Y-151011904D01*
X195239285Y-151011904D01*
X194896428Y-151011904D02*
X194896428Y-150211904D01*
X194820238Y-150707142D02*
X194591666Y-151011904D01*
X194591666Y-150478571D02*
X194896428Y-150783333D01*
D11*
X230141666Y-151102380D02*
X230475000Y-150626190D01*
X230713095Y-151102380D02*
X230713095Y-150102380D01*
X230332142Y-150102380D01*
X230236904Y-150150000D01*
X230189285Y-150197619D01*
X230141666Y-150292857D01*
X230141666Y-150435714D01*
X230189285Y-150530952D01*
X230236904Y-150578571D01*
X230332142Y-150626190D01*
X230713095Y-150626190D01*
X229808333Y-150102380D02*
X229141666Y-150102380D01*
X229570238Y-151102380D01*
D12*
X230451190Y-147711904D02*
X230908333Y-147711904D01*
X230679761Y-147711904D02*
X230679761Y-146911904D01*
X230755952Y-147026190D01*
X230832142Y-147102380D01*
X230908333Y-147140476D01*
X230146428Y-146988095D02*
X230108333Y-146950000D01*
X230032142Y-146911904D01*
X229841666Y-146911904D01*
X229765476Y-146950000D01*
X229727380Y-146988095D01*
X229689285Y-147064285D01*
X229689285Y-147140476D01*
X229727380Y-147254761D01*
X230184523Y-147711904D01*
X229689285Y-147711904D01*
X229346428Y-147711904D02*
X229346428Y-146911904D01*
X229270238Y-147407142D02*
X229041666Y-147711904D01*
X229041666Y-147178571D02*
X229346428Y-147483333D01*
D11*
X216833333Y-134952380D02*
X216833333Y-135666666D01*
X216880952Y-135809523D01*
X216976190Y-135904761D01*
X217119047Y-135952380D01*
X217214285Y-135952380D01*
X215833333Y-135952380D02*
X216404761Y-135952380D01*
X216119047Y-135952380D02*
X216119047Y-134952380D01*
X216214285Y-135095238D01*
X216309523Y-135190476D01*
X216404761Y-135238095D01*
X208238095Y-111452380D02*
X208238095Y-110452380D01*
X207857142Y-110452380D01*
X207761904Y-110500000D01*
X207714285Y-110547619D01*
X207666666Y-110642857D01*
X207666666Y-110785714D01*
X207714285Y-110880952D01*
X207761904Y-110928571D01*
X207857142Y-110976190D01*
X208238095Y-110976190D01*
X206714285Y-111452380D02*
X207285714Y-111452380D01*
X207000000Y-111452380D02*
X207000000Y-110452380D01*
X207095238Y-110595238D01*
X207190476Y-110690476D01*
X207285714Y-110738095D01*
%LPC*%
D14*
X226500000Y-39000000D03*
D15*
X223000000Y-96000000D03*
D14*
X199500000Y-39000000D03*
X199500000Y-161000000D03*
D15*
X223000000Y-115000000D03*
D14*
X226500000Y-161000000D03*
D15*
X203000000Y-115000000D03*
X203075001Y-145000000D03*
X203000000Y-125000000D03*
X203000000Y-96000000D03*
X223000000Y-145000000D03*
X223000000Y-125000000D03*
G36*
G01*
X213849000Y-131678828D02*
X213849000Y-130321172D01*
G75*
G02*
X214121172Y-130049000I272172J0D01*
G01*
X214828828Y-130049000D01*
G75*
G02*
X215101000Y-130321172I0J-272172D01*
G01*
X215101000Y-131678828D01*
G75*
G02*
X214828828Y-131951000I-272172J0D01*
G01*
X214121172Y-131951000D01*
G75*
G02*
X213849000Y-131678828I0J272172D01*
G01*
G37*
G36*
G01*
X210899000Y-131678828D02*
X210899000Y-130321172D01*
G75*
G02*
X211171172Y-130049000I272172J0D01*
G01*
X211878828Y-130049000D01*
G75*
G02*
X212151000Y-130321172I0J-272172D01*
G01*
X212151000Y-131678828D01*
G75*
G02*
X211878828Y-131951000I-272172J0D01*
G01*
X211171172Y-131951000D01*
G75*
G02*
X210899000Y-131678828I0J272172D01*
G01*
G37*
G36*
G01*
X210899000Y-109678828D02*
X210899000Y-108321172D01*
G75*
G02*
X211171172Y-108049000I272172J0D01*
G01*
X211878828Y-108049000D01*
G75*
G02*
X212151000Y-108321172I0J-272172D01*
G01*
X212151000Y-109678828D01*
G75*
G02*
X211878828Y-109951000I-272172J0D01*
G01*
X211171172Y-109951000D01*
G75*
G02*
X210899000Y-109678828I0J272172D01*
G01*
G37*
G36*
G01*
X213849000Y-109678828D02*
X213849000Y-108321172D01*
G75*
G02*
X214121172Y-108049000I272172J0D01*
G01*
X214828828Y-108049000D01*
G75*
G02*
X215101000Y-108321172I0J-272172D01*
G01*
X215101000Y-109678828D01*
G75*
G02*
X214828828Y-109951000I-272172J0D01*
G01*
X214121172Y-109951000D01*
G75*
G02*
X213849000Y-109678828I0J272172D01*
G01*
G37*
G36*
G01*
X202576000Y-132521172D02*
X202576000Y-133478828D01*
G75*
G02*
X202303828Y-133751000I-272172J0D01*
G01*
X201596172Y-133751000D01*
G75*
G02*
X201324000Y-133478828I0J272172D01*
G01*
X201324000Y-132521172D01*
G75*
G02*
X201596172Y-132249000I272172J0D01*
G01*
X202303828Y-132249000D01*
G75*
G02*
X202576000Y-132521172I0J-272172D01*
G01*
G37*
G36*
G01*
X204626000Y-132521172D02*
X204626000Y-133478828D01*
G75*
G02*
X204353828Y-133751000I-272172J0D01*
G01*
X203646172Y-133751000D01*
G75*
G02*
X203374000Y-133478828I0J272172D01*
G01*
X203374000Y-132521172D01*
G75*
G02*
X203646172Y-132249000I272172J0D01*
G01*
X204353828Y-132249000D01*
G75*
G02*
X204626000Y-132521172I0J-272172D01*
G01*
G37*
G36*
G01*
X224626000Y-108521172D02*
X224626000Y-109478828D01*
G75*
G02*
X224353828Y-109751000I-272172J0D01*
G01*
X223646172Y-109751000D01*
G75*
G02*
X223374000Y-109478828I0J272172D01*
G01*
X223374000Y-108521172D01*
G75*
G02*
X223646172Y-108249000I272172J0D01*
G01*
X224353828Y-108249000D01*
G75*
G02*
X224626000Y-108521172I0J-272172D01*
G01*
G37*
G36*
G01*
X222576000Y-108521172D02*
X222576000Y-109478828D01*
G75*
G02*
X222303828Y-109751000I-272172J0D01*
G01*
X221596172Y-109751000D01*
G75*
G02*
X221324000Y-109478828I0J272172D01*
G01*
X221324000Y-108521172D01*
G75*
G02*
X221596172Y-108249000I272172J0D01*
G01*
X222303828Y-108249000D01*
G75*
G02*
X222576000Y-108521172I0J-272172D01*
G01*
G37*
G36*
G01*
X214149000Y-133600000D02*
X214149000Y-132400000D01*
G75*
G02*
X214200000Y-132349000I51000J0D01*
G01*
X215100000Y-132349000D01*
G75*
G02*
X215151000Y-132400000I0J-51000D01*
G01*
X215151000Y-133600000D01*
G75*
G02*
X215100000Y-133651000I-51000J0D01*
G01*
X214200000Y-133651000D01*
G75*
G02*
X214149000Y-133600000I0J51000D01*
G01*
G37*
G36*
G01*
X210849000Y-133600000D02*
X210849000Y-132400000D01*
G75*
G02*
X210900000Y-132349000I51000J0D01*
G01*
X211800000Y-132349000D01*
G75*
G02*
X211851000Y-132400000I0J-51000D01*
G01*
X211851000Y-133600000D01*
G75*
G02*
X211800000Y-133651000I-51000J0D01*
G01*
X210900000Y-133651000D01*
G75*
G02*
X210849000Y-133600000I0J51000D01*
G01*
G37*
G36*
G01*
X210849000Y-107100000D02*
X210849000Y-105900000D01*
G75*
G02*
X210900000Y-105849000I51000J0D01*
G01*
X211800000Y-105849000D01*
G75*
G02*
X211851000Y-105900000I0J-51000D01*
G01*
X211851000Y-107100000D01*
G75*
G02*
X211800000Y-107151000I-51000J0D01*
G01*
X210900000Y-107151000D01*
G75*
G02*
X210849000Y-107100000I0J51000D01*
G01*
G37*
G36*
G01*
X214149000Y-107100000D02*
X214149000Y-105900000D01*
G75*
G02*
X214200000Y-105849000I51000J0D01*
G01*
X215100000Y-105849000D01*
G75*
G02*
X215151000Y-105900000I0J-51000D01*
G01*
X215151000Y-107100000D01*
G75*
G02*
X215100000Y-107151000I-51000J0D01*
G01*
X214200000Y-107151000D01*
G75*
G02*
X214149000Y-107100000I0J51000D01*
G01*
G37*
G36*
G01*
X218899000Y-46478828D02*
X218899000Y-45521172D01*
G75*
G02*
X219171172Y-45249000I272172J0D01*
G01*
X219878828Y-45249000D01*
G75*
G02*
X220151000Y-45521172I0J-272172D01*
G01*
X220151000Y-46478828D01*
G75*
G02*
X219878828Y-46751000I-272172J0D01*
G01*
X219171172Y-46751000D01*
G75*
G02*
X218899000Y-46478828I0J272172D01*
G01*
G37*
G36*
G01*
X216849000Y-46478828D02*
X216849000Y-45521172D01*
G75*
G02*
X217121172Y-45249000I272172J0D01*
G01*
X217828828Y-45249000D01*
G75*
G02*
X218101000Y-45521172I0J-272172D01*
G01*
X218101000Y-46478828D01*
G75*
G02*
X217828828Y-46751000I-272172J0D01*
G01*
X217121172Y-46751000D01*
G75*
G02*
X216849000Y-46478828I0J272172D01*
G01*
G37*
G36*
G01*
X197676000Y-111021172D02*
X197676000Y-111978828D01*
G75*
G02*
X197403828Y-112251000I-272172J0D01*
G01*
X196696172Y-112251000D01*
G75*
G02*
X196424000Y-111978828I0J272172D01*
G01*
X196424000Y-111021172D01*
G75*
G02*
X196696172Y-110749000I272172J0D01*
G01*
X197403828Y-110749000D01*
G75*
G02*
X197676000Y-111021172I0J-272172D01*
G01*
G37*
G36*
G01*
X195626000Y-111021172D02*
X195626000Y-111978828D01*
G75*
G02*
X195353828Y-112251000I-272172J0D01*
G01*
X194646172Y-112251000D01*
G75*
G02*
X194374000Y-111978828I0J272172D01*
G01*
X194374000Y-111021172D01*
G75*
G02*
X194646172Y-110749000I272172J0D01*
G01*
X195353828Y-110749000D01*
G75*
G02*
X195626000Y-111021172I0J-272172D01*
G01*
G37*
G36*
G01*
X230399000Y-111978828D02*
X230399000Y-111021172D01*
G75*
G02*
X230671172Y-110749000I272172J0D01*
G01*
X231378828Y-110749000D01*
G75*
G02*
X231651000Y-111021172I0J-272172D01*
G01*
X231651000Y-111978828D01*
G75*
G02*
X231378828Y-112251000I-272172J0D01*
G01*
X230671172Y-112251000D01*
G75*
G02*
X230399000Y-111978828I0J272172D01*
G01*
G37*
G36*
G01*
X228349000Y-111978828D02*
X228349000Y-111021172D01*
G75*
G02*
X228621172Y-110749000I272172J0D01*
G01*
X229328828Y-110749000D01*
G75*
G02*
X229601000Y-111021172I0J-272172D01*
G01*
X229601000Y-111978828D01*
G75*
G02*
X229328828Y-112251000I-272172J0D01*
G01*
X228621172Y-112251000D01*
G75*
G02*
X228349000Y-111978828I0J272172D01*
G01*
G37*
G36*
G01*
X197651000Y-121021172D02*
X197651000Y-121978828D01*
G75*
G02*
X197378828Y-122251000I-272172J0D01*
G01*
X196671172Y-122251000D01*
G75*
G02*
X196399000Y-121978828I0J272172D01*
G01*
X196399000Y-121021172D01*
G75*
G02*
X196671172Y-120749000I272172J0D01*
G01*
X197378828Y-120749000D01*
G75*
G02*
X197651000Y-121021172I0J-272172D01*
G01*
G37*
G36*
G01*
X195601000Y-121021172D02*
X195601000Y-121978828D01*
G75*
G02*
X195328828Y-122251000I-272172J0D01*
G01*
X194621172Y-122251000D01*
G75*
G02*
X194349000Y-121978828I0J272172D01*
G01*
X194349000Y-121021172D01*
G75*
G02*
X194621172Y-120749000I272172J0D01*
G01*
X195328828Y-120749000D01*
G75*
G02*
X195601000Y-121021172I0J-272172D01*
G01*
G37*
G36*
G01*
X228324000Y-122478828D02*
X228324000Y-121521172D01*
G75*
G02*
X228596172Y-121249000I272172J0D01*
G01*
X229303828Y-121249000D01*
G75*
G02*
X229576000Y-121521172I0J-272172D01*
G01*
X229576000Y-122478828D01*
G75*
G02*
X229303828Y-122751000I-272172J0D01*
G01*
X228596172Y-122751000D01*
G75*
G02*
X228324000Y-122478828I0J272172D01*
G01*
G37*
G36*
G01*
X230374000Y-122478828D02*
X230374000Y-121521172D01*
G75*
G02*
X230646172Y-121249000I272172J0D01*
G01*
X231353828Y-121249000D01*
G75*
G02*
X231626000Y-121521172I0J-272172D01*
G01*
X231626000Y-122478828D01*
G75*
G02*
X231353828Y-122751000I-272172J0D01*
G01*
X230646172Y-122751000D01*
G75*
G02*
X230374000Y-122478828I0J272172D01*
G01*
G37*
G36*
G01*
X197176000Y-148521172D02*
X197176000Y-149478828D01*
G75*
G02*
X196903828Y-149751000I-272172J0D01*
G01*
X196196172Y-149751000D01*
G75*
G02*
X195924000Y-149478828I0J272172D01*
G01*
X195924000Y-148521172D01*
G75*
G02*
X196196172Y-148249000I272172J0D01*
G01*
X196903828Y-148249000D01*
G75*
G02*
X197176000Y-148521172I0J-272172D01*
G01*
G37*
G36*
G01*
X195126000Y-148521172D02*
X195126000Y-149478828D01*
G75*
G02*
X194853828Y-149751000I-272172J0D01*
G01*
X194146172Y-149751000D01*
G75*
G02*
X193874000Y-149478828I0J272172D01*
G01*
X193874000Y-148521172D01*
G75*
G02*
X194146172Y-148249000I272172J0D01*
G01*
X194853828Y-148249000D01*
G75*
G02*
X195126000Y-148521172I0J-272172D01*
G01*
G37*
G36*
G01*
X230374000Y-149478828D02*
X230374000Y-148521172D01*
G75*
G02*
X230646172Y-148249000I272172J0D01*
G01*
X231353828Y-148249000D01*
G75*
G02*
X231626000Y-148521172I0J-272172D01*
G01*
X231626000Y-149478828D01*
G75*
G02*
X231353828Y-149751000I-272172J0D01*
G01*
X230646172Y-149751000D01*
G75*
G02*
X230374000Y-149478828I0J272172D01*
G01*
G37*
G36*
G01*
X228324000Y-149478828D02*
X228324000Y-148521172D01*
G75*
G02*
X228596172Y-148249000I272172J0D01*
G01*
X229303828Y-148249000D01*
G75*
G02*
X229576000Y-148521172I0J-272172D01*
G01*
X229576000Y-149478828D01*
G75*
G02*
X229303828Y-149751000I-272172J0D01*
G01*
X228596172Y-149751000D01*
G75*
G02*
X228324000Y-149478828I0J272172D01*
G01*
G37*
G36*
G01*
X215961000Y-138190000D02*
X215961000Y-139190000D01*
G75*
G02*
X215910000Y-139241000I-51000J0D01*
G01*
X213400000Y-139241000D01*
G75*
G02*
X213349000Y-139190000I0J51000D01*
G01*
X213349000Y-138190000D01*
G75*
G02*
X213400000Y-138139000I51000J0D01*
G01*
X215910000Y-138139000D01*
G75*
G02*
X215961000Y-138190000I0J-51000D01*
G01*
G37*
G36*
G01*
X215961000Y-143270000D02*
X215961000Y-144270000D01*
G75*
G02*
X215910000Y-144321000I-51000J0D01*
G01*
X213400000Y-144321000D01*
G75*
G02*
X213349000Y-144270000I0J51000D01*
G01*
X213349000Y-143270000D01*
G75*
G02*
X213400000Y-143219000I51000J0D01*
G01*
X215910000Y-143219000D01*
G75*
G02*
X215961000Y-143270000I0J-51000D01*
G01*
G37*
G36*
G01*
X215961000Y-148350000D02*
X215961000Y-149350000D01*
G75*
G02*
X215910000Y-149401000I-51000J0D01*
G01*
X213400000Y-149401000D01*
G75*
G02*
X213349000Y-149350000I0J51000D01*
G01*
X213349000Y-148350000D01*
G75*
G02*
X213400000Y-148299000I51000J0D01*
G01*
X215910000Y-148299000D01*
G75*
G02*
X215961000Y-148350000I0J-51000D01*
G01*
G37*
G36*
G01*
X212651000Y-135650000D02*
X212651000Y-136650000D01*
G75*
G02*
X212600000Y-136701000I-51000J0D01*
G01*
X210090000Y-136701000D01*
G75*
G02*
X210039000Y-136650000I0J51000D01*
G01*
X210039000Y-135650000D01*
G75*
G02*
X210090000Y-135599000I51000J0D01*
G01*
X212600000Y-135599000D01*
G75*
G02*
X212651000Y-135650000I0J-51000D01*
G01*
G37*
G36*
G01*
X212651000Y-140730000D02*
X212651000Y-141730000D01*
G75*
G02*
X212600000Y-141781000I-51000J0D01*
G01*
X210090000Y-141781000D01*
G75*
G02*
X210039000Y-141730000I0J51000D01*
G01*
X210039000Y-140730000D01*
G75*
G02*
X210090000Y-140679000I51000J0D01*
G01*
X212600000Y-140679000D01*
G75*
G02*
X212651000Y-140730000I0J-51000D01*
G01*
G37*
G36*
G01*
X212651000Y-145810000D02*
X212651000Y-146810000D01*
G75*
G02*
X212600000Y-146861000I-51000J0D01*
G01*
X210090000Y-146861000D01*
G75*
G02*
X210039000Y-146810000I0J51000D01*
G01*
X210039000Y-145810000D01*
G75*
G02*
X210090000Y-145759000I51000J0D01*
G01*
X212600000Y-145759000D01*
G75*
G02*
X212651000Y-145810000I0J-51000D01*
G01*
G37*
G36*
G01*
X217151000Y-110610000D02*
X217151000Y-111610000D01*
G75*
G02*
X217100000Y-111661000I-51000J0D01*
G01*
X213950000Y-111661000D01*
G75*
G02*
X213899000Y-111610000I0J51000D01*
G01*
X213899000Y-110610000D01*
G75*
G02*
X213950000Y-110559000I51000J0D01*
G01*
X217100000Y-110559000D01*
G75*
G02*
X217151000Y-110610000I0J-51000D01*
G01*
G37*
G36*
G01*
X212101000Y-110610000D02*
X212101000Y-111610000D01*
G75*
G02*
X212050000Y-111661000I-51000J0D01*
G01*
X208900000Y-111661000D01*
G75*
G02*
X208849000Y-111610000I0J51000D01*
G01*
X208849000Y-110610000D01*
G75*
G02*
X208900000Y-110559000I51000J0D01*
G01*
X212050000Y-110559000D01*
G75*
G02*
X212101000Y-110610000I0J-51000D01*
G01*
G37*
G36*
G01*
X217151000Y-113150000D02*
X217151000Y-114150000D01*
G75*
G02*
X217100000Y-114201000I-51000J0D01*
G01*
X213950000Y-114201000D01*
G75*
G02*
X213899000Y-114150000I0J51000D01*
G01*
X213899000Y-113150000D01*
G75*
G02*
X213950000Y-113099000I51000J0D01*
G01*
X217100000Y-113099000D01*
G75*
G02*
X217151000Y-113150000I0J-51000D01*
G01*
G37*
G36*
G01*
X212101000Y-113150000D02*
X212101000Y-114150000D01*
G75*
G02*
X212050000Y-114201000I-51000J0D01*
G01*
X208900000Y-114201000D01*
G75*
G02*
X208849000Y-114150000I0J51000D01*
G01*
X208849000Y-113150000D01*
G75*
G02*
X208900000Y-113099000I51000J0D01*
G01*
X212050000Y-113099000D01*
G75*
G02*
X212101000Y-113150000I0J-51000D01*
G01*
G37*
G36*
G01*
X217151000Y-115690000D02*
X217151000Y-116690000D01*
G75*
G02*
X217100000Y-116741000I-51000J0D01*
G01*
X213950000Y-116741000D01*
G75*
G02*
X213899000Y-116690000I0J51000D01*
G01*
X213899000Y-115690000D01*
G75*
G02*
X213950000Y-115639000I51000J0D01*
G01*
X217100000Y-115639000D01*
G75*
G02*
X217151000Y-115690000I0J-51000D01*
G01*
G37*
G36*
G01*
X212101000Y-115690000D02*
X212101000Y-116690000D01*
G75*
G02*
X212050000Y-116741000I-51000J0D01*
G01*
X208900000Y-116741000D01*
G75*
G02*
X208849000Y-116690000I0J51000D01*
G01*
X208849000Y-115690000D01*
G75*
G02*
X208900000Y-115639000I51000J0D01*
G01*
X212050000Y-115639000D01*
G75*
G02*
X212101000Y-115690000I0J-51000D01*
G01*
G37*
G36*
G01*
X217151000Y-118230000D02*
X217151000Y-119230000D01*
G75*
G02*
X217100000Y-119281000I-51000J0D01*
G01*
X213950000Y-119281000D01*
G75*
G02*
X213899000Y-119230000I0J51000D01*
G01*
X213899000Y-118230000D01*
G75*
G02*
X213950000Y-118179000I51000J0D01*
G01*
X217100000Y-118179000D01*
G75*
G02*
X217151000Y-118230000I0J-51000D01*
G01*
G37*
G36*
G01*
X212101000Y-118230000D02*
X212101000Y-119230000D01*
G75*
G02*
X212050000Y-119281000I-51000J0D01*
G01*
X208900000Y-119281000D01*
G75*
G02*
X208849000Y-119230000I0J51000D01*
G01*
X208849000Y-118230000D01*
G75*
G02*
X208900000Y-118179000I51000J0D01*
G01*
X212050000Y-118179000D01*
G75*
G02*
X212101000Y-118230000I0J-51000D01*
G01*
G37*
G36*
G01*
X217151000Y-120770000D02*
X217151000Y-121770000D01*
G75*
G02*
X217100000Y-121821000I-51000J0D01*
G01*
X213950000Y-121821000D01*
G75*
G02*
X213899000Y-121770000I0J51000D01*
G01*
X213899000Y-120770000D01*
G75*
G02*
X213950000Y-120719000I51000J0D01*
G01*
X217100000Y-120719000D01*
G75*
G02*
X217151000Y-120770000I0J-51000D01*
G01*
G37*
G36*
G01*
X212101000Y-120770000D02*
X212101000Y-121770000D01*
G75*
G02*
X212050000Y-121821000I-51000J0D01*
G01*
X208900000Y-121821000D01*
G75*
G02*
X208849000Y-121770000I0J51000D01*
G01*
X208849000Y-120770000D01*
G75*
G02*
X208900000Y-120719000I51000J0D01*
G01*
X212050000Y-120719000D01*
G75*
G02*
X212101000Y-120770000I0J-51000D01*
G01*
G37*
G36*
G01*
X217151000Y-123310000D02*
X217151000Y-124310000D01*
G75*
G02*
X217100000Y-124361000I-51000J0D01*
G01*
X213950000Y-124361000D01*
G75*
G02*
X213899000Y-124310000I0J51000D01*
G01*
X213899000Y-123310000D01*
G75*
G02*
X213950000Y-123259000I51000J0D01*
G01*
X217100000Y-123259000D01*
G75*
G02*
X217151000Y-123310000I0J-51000D01*
G01*
G37*
G36*
G01*
X212101000Y-123310000D02*
X212101000Y-124310000D01*
G75*
G02*
X212050000Y-124361000I-51000J0D01*
G01*
X208900000Y-124361000D01*
G75*
G02*
X208849000Y-124310000I0J51000D01*
G01*
X208849000Y-123310000D01*
G75*
G02*
X208900000Y-123259000I51000J0D01*
G01*
X212050000Y-123259000D01*
G75*
G02*
X212101000Y-123310000I0J-51000D01*
G01*
G37*
G36*
G01*
X217151000Y-125850000D02*
X217151000Y-126850000D01*
G75*
G02*
X217100000Y-126901000I-51000J0D01*
G01*
X213950000Y-126901000D01*
G75*
G02*
X213899000Y-126850000I0J51000D01*
G01*
X213899000Y-125850000D01*
G75*
G02*
X213950000Y-125799000I51000J0D01*
G01*
X217100000Y-125799000D01*
G75*
G02*
X217151000Y-125850000I0J-51000D01*
G01*
G37*
G36*
G01*
X212101000Y-125850000D02*
X212101000Y-126850000D01*
G75*
G02*
X212050000Y-126901000I-51000J0D01*
G01*
X208900000Y-126901000D01*
G75*
G02*
X208849000Y-126850000I0J51000D01*
G01*
X208849000Y-125850000D01*
G75*
G02*
X208900000Y-125799000I51000J0D01*
G01*
X212050000Y-125799000D01*
G75*
G02*
X212101000Y-125850000I0J-51000D01*
G01*
G37*
G36*
G01*
X217151000Y-128390000D02*
X217151000Y-129390000D01*
G75*
G02*
X217100000Y-129441000I-51000J0D01*
G01*
X213950000Y-129441000D01*
G75*
G02*
X213899000Y-129390000I0J51000D01*
G01*
X213899000Y-128390000D01*
G75*
G02*
X213950000Y-128339000I51000J0D01*
G01*
X217100000Y-128339000D01*
G75*
G02*
X217151000Y-128390000I0J-51000D01*
G01*
G37*
G36*
G01*
X212101000Y-128390000D02*
X212101000Y-129390000D01*
G75*
G02*
X212050000Y-129441000I-51000J0D01*
G01*
X208900000Y-129441000D01*
G75*
G02*
X208849000Y-129390000I0J51000D01*
G01*
X208849000Y-128390000D01*
G75*
G02*
X208900000Y-128339000I51000J0D01*
G01*
X212050000Y-128339000D01*
G75*
G02*
X212101000Y-128390000I0J-51000D01*
G01*
G37*
D16*
X201500000Y-78000000D03*
X201500000Y-54000000D03*
X224500000Y-78000000D03*
X224500000Y-54000000D03*
M02*
