G04 #@! TF.GenerationSoftware,KiCad,Pcbnew,(5.1.9)-1*
G04 #@! TF.CreationDate,2021-04-12T22:44:31+02:00*
G04 #@! TF.ProjectId,KicadJE_Face,4b696361-644a-4455-9f46-6163652e6b69,rev?*
G04 #@! TF.SameCoordinates,Original*
G04 #@! TF.FileFunction,Soldermask,Bot*
G04 #@! TF.FilePolarity,Negative*
%FSLAX46Y46*%
G04 Gerber Fmt 4.6, Leading zero omitted, Abs format (unit mm)*
G04 Created by KiCad (PCBNEW (5.1.9)-1) date 2021-04-12 22:44:31*
%MOMM*%
%LPD*%
G01*
G04 APERTURE LIST*
%ADD10O,7.102000X4.102000*%
%ADD11C,6.602000*%
%ADD12C,2.902000*%
G04 APERTURE END LIST*
D10*
X226500000Y-39000000D03*
D11*
X223000000Y-96000000D03*
D10*
X199500000Y-39000000D03*
X199500000Y-161000000D03*
D11*
X223000000Y-115000000D03*
D10*
X226500000Y-161000000D03*
D11*
X203000000Y-115000000D03*
X203075001Y-145000000D03*
X203000000Y-125000000D03*
X203000000Y-96000000D03*
X223000000Y-145000000D03*
X223000000Y-125000000D03*
G36*
G01*
X213849000Y-131678828D02*
X213849000Y-130321172D01*
G75*
G02*
X214121172Y-130049000I272172J0D01*
G01*
X214828828Y-130049000D01*
G75*
G02*
X215101000Y-130321172I0J-272172D01*
G01*
X215101000Y-131678828D01*
G75*
G02*
X214828828Y-131951000I-272172J0D01*
G01*
X214121172Y-131951000D01*
G75*
G02*
X213849000Y-131678828I0J272172D01*
G01*
G37*
G36*
G01*
X210899000Y-131678828D02*
X210899000Y-130321172D01*
G75*
G02*
X211171172Y-130049000I272172J0D01*
G01*
X211878828Y-130049000D01*
G75*
G02*
X212151000Y-130321172I0J-272172D01*
G01*
X212151000Y-131678828D01*
G75*
G02*
X211878828Y-131951000I-272172J0D01*
G01*
X211171172Y-131951000D01*
G75*
G02*
X210899000Y-131678828I0J272172D01*
G01*
G37*
G36*
G01*
X210899000Y-109678828D02*
X210899000Y-108321172D01*
G75*
G02*
X211171172Y-108049000I272172J0D01*
G01*
X211878828Y-108049000D01*
G75*
G02*
X212151000Y-108321172I0J-272172D01*
G01*
X212151000Y-109678828D01*
G75*
G02*
X211878828Y-109951000I-272172J0D01*
G01*
X211171172Y-109951000D01*
G75*
G02*
X210899000Y-109678828I0J272172D01*
G01*
G37*
G36*
G01*
X213849000Y-109678828D02*
X213849000Y-108321172D01*
G75*
G02*
X214121172Y-108049000I272172J0D01*
G01*
X214828828Y-108049000D01*
G75*
G02*
X215101000Y-108321172I0J-272172D01*
G01*
X215101000Y-109678828D01*
G75*
G02*
X214828828Y-109951000I-272172J0D01*
G01*
X214121172Y-109951000D01*
G75*
G02*
X213849000Y-109678828I0J272172D01*
G01*
G37*
G36*
G01*
X202576000Y-132521172D02*
X202576000Y-133478828D01*
G75*
G02*
X202303828Y-133751000I-272172J0D01*
G01*
X201596172Y-133751000D01*
G75*
G02*
X201324000Y-133478828I0J272172D01*
G01*
X201324000Y-132521172D01*
G75*
G02*
X201596172Y-132249000I272172J0D01*
G01*
X202303828Y-132249000D01*
G75*
G02*
X202576000Y-132521172I0J-272172D01*
G01*
G37*
G36*
G01*
X204626000Y-132521172D02*
X204626000Y-133478828D01*
G75*
G02*
X204353828Y-133751000I-272172J0D01*
G01*
X203646172Y-133751000D01*
G75*
G02*
X203374000Y-133478828I0J272172D01*
G01*
X203374000Y-132521172D01*
G75*
G02*
X203646172Y-132249000I272172J0D01*
G01*
X204353828Y-132249000D01*
G75*
G02*
X204626000Y-132521172I0J-272172D01*
G01*
G37*
G36*
G01*
X224626000Y-108521172D02*
X224626000Y-109478828D01*
G75*
G02*
X224353828Y-109751000I-272172J0D01*
G01*
X223646172Y-109751000D01*
G75*
G02*
X223374000Y-109478828I0J272172D01*
G01*
X223374000Y-108521172D01*
G75*
G02*
X223646172Y-108249000I272172J0D01*
G01*
X224353828Y-108249000D01*
G75*
G02*
X224626000Y-108521172I0J-272172D01*
G01*
G37*
G36*
G01*
X222576000Y-108521172D02*
X222576000Y-109478828D01*
G75*
G02*
X222303828Y-109751000I-272172J0D01*
G01*
X221596172Y-109751000D01*
G75*
G02*
X221324000Y-109478828I0J272172D01*
G01*
X221324000Y-108521172D01*
G75*
G02*
X221596172Y-108249000I272172J0D01*
G01*
X222303828Y-108249000D01*
G75*
G02*
X222576000Y-108521172I0J-272172D01*
G01*
G37*
G36*
G01*
X214149000Y-133600000D02*
X214149000Y-132400000D01*
G75*
G02*
X214200000Y-132349000I51000J0D01*
G01*
X215100000Y-132349000D01*
G75*
G02*
X215151000Y-132400000I0J-51000D01*
G01*
X215151000Y-133600000D01*
G75*
G02*
X215100000Y-133651000I-51000J0D01*
G01*
X214200000Y-133651000D01*
G75*
G02*
X214149000Y-133600000I0J51000D01*
G01*
G37*
G36*
G01*
X210849000Y-133600000D02*
X210849000Y-132400000D01*
G75*
G02*
X210900000Y-132349000I51000J0D01*
G01*
X211800000Y-132349000D01*
G75*
G02*
X211851000Y-132400000I0J-51000D01*
G01*
X211851000Y-133600000D01*
G75*
G02*
X211800000Y-133651000I-51000J0D01*
G01*
X210900000Y-133651000D01*
G75*
G02*
X210849000Y-133600000I0J51000D01*
G01*
G37*
G36*
G01*
X210849000Y-107100000D02*
X210849000Y-105900000D01*
G75*
G02*
X210900000Y-105849000I51000J0D01*
G01*
X211800000Y-105849000D01*
G75*
G02*
X211851000Y-105900000I0J-51000D01*
G01*
X211851000Y-107100000D01*
G75*
G02*
X211800000Y-107151000I-51000J0D01*
G01*
X210900000Y-107151000D01*
G75*
G02*
X210849000Y-107100000I0J51000D01*
G01*
G37*
G36*
G01*
X214149000Y-107100000D02*
X214149000Y-105900000D01*
G75*
G02*
X214200000Y-105849000I51000J0D01*
G01*
X215100000Y-105849000D01*
G75*
G02*
X215151000Y-105900000I0J-51000D01*
G01*
X215151000Y-107100000D01*
G75*
G02*
X215100000Y-107151000I-51000J0D01*
G01*
X214200000Y-107151000D01*
G75*
G02*
X214149000Y-107100000I0J51000D01*
G01*
G37*
G36*
G01*
X218899000Y-46478828D02*
X218899000Y-45521172D01*
G75*
G02*
X219171172Y-45249000I272172J0D01*
G01*
X219878828Y-45249000D01*
G75*
G02*
X220151000Y-45521172I0J-272172D01*
G01*
X220151000Y-46478828D01*
G75*
G02*
X219878828Y-46751000I-272172J0D01*
G01*
X219171172Y-46751000D01*
G75*
G02*
X218899000Y-46478828I0J272172D01*
G01*
G37*
G36*
G01*
X216849000Y-46478828D02*
X216849000Y-45521172D01*
G75*
G02*
X217121172Y-45249000I272172J0D01*
G01*
X217828828Y-45249000D01*
G75*
G02*
X218101000Y-45521172I0J-272172D01*
G01*
X218101000Y-46478828D01*
G75*
G02*
X217828828Y-46751000I-272172J0D01*
G01*
X217121172Y-46751000D01*
G75*
G02*
X216849000Y-46478828I0J272172D01*
G01*
G37*
G36*
G01*
X197676000Y-111021172D02*
X197676000Y-111978828D01*
G75*
G02*
X197403828Y-112251000I-272172J0D01*
G01*
X196696172Y-112251000D01*
G75*
G02*
X196424000Y-111978828I0J272172D01*
G01*
X196424000Y-111021172D01*
G75*
G02*
X196696172Y-110749000I272172J0D01*
G01*
X197403828Y-110749000D01*
G75*
G02*
X197676000Y-111021172I0J-272172D01*
G01*
G37*
G36*
G01*
X195626000Y-111021172D02*
X195626000Y-111978828D01*
G75*
G02*
X195353828Y-112251000I-272172J0D01*
G01*
X194646172Y-112251000D01*
G75*
G02*
X194374000Y-111978828I0J272172D01*
G01*
X194374000Y-111021172D01*
G75*
G02*
X194646172Y-110749000I272172J0D01*
G01*
X195353828Y-110749000D01*
G75*
G02*
X195626000Y-111021172I0J-272172D01*
G01*
G37*
G36*
G01*
X230399000Y-111978828D02*
X230399000Y-111021172D01*
G75*
G02*
X230671172Y-110749000I272172J0D01*
G01*
X231378828Y-110749000D01*
G75*
G02*
X231651000Y-111021172I0J-272172D01*
G01*
X231651000Y-111978828D01*
G75*
G02*
X231378828Y-112251000I-272172J0D01*
G01*
X230671172Y-112251000D01*
G75*
G02*
X230399000Y-111978828I0J272172D01*
G01*
G37*
G36*
G01*
X228349000Y-111978828D02*
X228349000Y-111021172D01*
G75*
G02*
X228621172Y-110749000I272172J0D01*
G01*
X229328828Y-110749000D01*
G75*
G02*
X229601000Y-111021172I0J-272172D01*
G01*
X229601000Y-111978828D01*
G75*
G02*
X229328828Y-112251000I-272172J0D01*
G01*
X228621172Y-112251000D01*
G75*
G02*
X228349000Y-111978828I0J272172D01*
G01*
G37*
G36*
G01*
X197651000Y-121021172D02*
X197651000Y-121978828D01*
G75*
G02*
X197378828Y-122251000I-272172J0D01*
G01*
X196671172Y-122251000D01*
G75*
G02*
X196399000Y-121978828I0J272172D01*
G01*
X196399000Y-121021172D01*
G75*
G02*
X196671172Y-120749000I272172J0D01*
G01*
X197378828Y-120749000D01*
G75*
G02*
X197651000Y-121021172I0J-272172D01*
G01*
G37*
G36*
G01*
X195601000Y-121021172D02*
X195601000Y-121978828D01*
G75*
G02*
X195328828Y-122251000I-272172J0D01*
G01*
X194621172Y-122251000D01*
G75*
G02*
X194349000Y-121978828I0J272172D01*
G01*
X194349000Y-121021172D01*
G75*
G02*
X194621172Y-120749000I272172J0D01*
G01*
X195328828Y-120749000D01*
G75*
G02*
X195601000Y-121021172I0J-272172D01*
G01*
G37*
G36*
G01*
X228324000Y-122478828D02*
X228324000Y-121521172D01*
G75*
G02*
X228596172Y-121249000I272172J0D01*
G01*
X229303828Y-121249000D01*
G75*
G02*
X229576000Y-121521172I0J-272172D01*
G01*
X229576000Y-122478828D01*
G75*
G02*
X229303828Y-122751000I-272172J0D01*
G01*
X228596172Y-122751000D01*
G75*
G02*
X228324000Y-122478828I0J272172D01*
G01*
G37*
G36*
G01*
X230374000Y-122478828D02*
X230374000Y-121521172D01*
G75*
G02*
X230646172Y-121249000I272172J0D01*
G01*
X231353828Y-121249000D01*
G75*
G02*
X231626000Y-121521172I0J-272172D01*
G01*
X231626000Y-122478828D01*
G75*
G02*
X231353828Y-122751000I-272172J0D01*
G01*
X230646172Y-122751000D01*
G75*
G02*
X230374000Y-122478828I0J272172D01*
G01*
G37*
G36*
G01*
X197176000Y-148521172D02*
X197176000Y-149478828D01*
G75*
G02*
X196903828Y-149751000I-272172J0D01*
G01*
X196196172Y-149751000D01*
G75*
G02*
X195924000Y-149478828I0J272172D01*
G01*
X195924000Y-148521172D01*
G75*
G02*
X196196172Y-148249000I272172J0D01*
G01*
X196903828Y-148249000D01*
G75*
G02*
X197176000Y-148521172I0J-272172D01*
G01*
G37*
G36*
G01*
X195126000Y-148521172D02*
X195126000Y-149478828D01*
G75*
G02*
X194853828Y-149751000I-272172J0D01*
G01*
X194146172Y-149751000D01*
G75*
G02*
X193874000Y-149478828I0J272172D01*
G01*
X193874000Y-148521172D01*
G75*
G02*
X194146172Y-148249000I272172J0D01*
G01*
X194853828Y-148249000D01*
G75*
G02*
X195126000Y-148521172I0J-272172D01*
G01*
G37*
G36*
G01*
X230374000Y-149478828D02*
X230374000Y-148521172D01*
G75*
G02*
X230646172Y-148249000I272172J0D01*
G01*
X231353828Y-148249000D01*
G75*
G02*
X231626000Y-148521172I0J-272172D01*
G01*
X231626000Y-149478828D01*
G75*
G02*
X231353828Y-149751000I-272172J0D01*
G01*
X230646172Y-149751000D01*
G75*
G02*
X230374000Y-149478828I0J272172D01*
G01*
G37*
G36*
G01*
X228324000Y-149478828D02*
X228324000Y-148521172D01*
G75*
G02*
X228596172Y-148249000I272172J0D01*
G01*
X229303828Y-148249000D01*
G75*
G02*
X229576000Y-148521172I0J-272172D01*
G01*
X229576000Y-149478828D01*
G75*
G02*
X229303828Y-149751000I-272172J0D01*
G01*
X228596172Y-149751000D01*
G75*
G02*
X228324000Y-149478828I0J272172D01*
G01*
G37*
G36*
G01*
X215961000Y-138190000D02*
X215961000Y-139190000D01*
G75*
G02*
X215910000Y-139241000I-51000J0D01*
G01*
X213400000Y-139241000D01*
G75*
G02*
X213349000Y-139190000I0J51000D01*
G01*
X213349000Y-138190000D01*
G75*
G02*
X213400000Y-138139000I51000J0D01*
G01*
X215910000Y-138139000D01*
G75*
G02*
X215961000Y-138190000I0J-51000D01*
G01*
G37*
G36*
G01*
X215961000Y-143270000D02*
X215961000Y-144270000D01*
G75*
G02*
X215910000Y-144321000I-51000J0D01*
G01*
X213400000Y-144321000D01*
G75*
G02*
X213349000Y-144270000I0J51000D01*
G01*
X213349000Y-143270000D01*
G75*
G02*
X213400000Y-143219000I51000J0D01*
G01*
X215910000Y-143219000D01*
G75*
G02*
X215961000Y-143270000I0J-51000D01*
G01*
G37*
G36*
G01*
X215961000Y-148350000D02*
X215961000Y-149350000D01*
G75*
G02*
X215910000Y-149401000I-51000J0D01*
G01*
X213400000Y-149401000D01*
G75*
G02*
X213349000Y-149350000I0J51000D01*
G01*
X213349000Y-148350000D01*
G75*
G02*
X213400000Y-148299000I51000J0D01*
G01*
X215910000Y-148299000D01*
G75*
G02*
X215961000Y-148350000I0J-51000D01*
G01*
G37*
G36*
G01*
X212651000Y-135650000D02*
X212651000Y-136650000D01*
G75*
G02*
X212600000Y-136701000I-51000J0D01*
G01*
X210090000Y-136701000D01*
G75*
G02*
X210039000Y-136650000I0J51000D01*
G01*
X210039000Y-135650000D01*
G75*
G02*
X210090000Y-135599000I51000J0D01*
G01*
X212600000Y-135599000D01*
G75*
G02*
X212651000Y-135650000I0J-51000D01*
G01*
G37*
G36*
G01*
X212651000Y-140730000D02*
X212651000Y-141730000D01*
G75*
G02*
X212600000Y-141781000I-51000J0D01*
G01*
X210090000Y-141781000D01*
G75*
G02*
X210039000Y-141730000I0J51000D01*
G01*
X210039000Y-140730000D01*
G75*
G02*
X210090000Y-140679000I51000J0D01*
G01*
X212600000Y-140679000D01*
G75*
G02*
X212651000Y-140730000I0J-51000D01*
G01*
G37*
G36*
G01*
X212651000Y-145810000D02*
X212651000Y-146810000D01*
G75*
G02*
X212600000Y-146861000I-51000J0D01*
G01*
X210090000Y-146861000D01*
G75*
G02*
X210039000Y-146810000I0J51000D01*
G01*
X210039000Y-145810000D01*
G75*
G02*
X210090000Y-145759000I51000J0D01*
G01*
X212600000Y-145759000D01*
G75*
G02*
X212651000Y-145810000I0J-51000D01*
G01*
G37*
G36*
G01*
X217151000Y-110610000D02*
X217151000Y-111610000D01*
G75*
G02*
X217100000Y-111661000I-51000J0D01*
G01*
X213950000Y-111661000D01*
G75*
G02*
X213899000Y-111610000I0J51000D01*
G01*
X213899000Y-110610000D01*
G75*
G02*
X213950000Y-110559000I51000J0D01*
G01*
X217100000Y-110559000D01*
G75*
G02*
X217151000Y-110610000I0J-51000D01*
G01*
G37*
G36*
G01*
X212101000Y-110610000D02*
X212101000Y-111610000D01*
G75*
G02*
X212050000Y-111661000I-51000J0D01*
G01*
X208900000Y-111661000D01*
G75*
G02*
X208849000Y-111610000I0J51000D01*
G01*
X208849000Y-110610000D01*
G75*
G02*
X208900000Y-110559000I51000J0D01*
G01*
X212050000Y-110559000D01*
G75*
G02*
X212101000Y-110610000I0J-51000D01*
G01*
G37*
G36*
G01*
X217151000Y-113150000D02*
X217151000Y-114150000D01*
G75*
G02*
X217100000Y-114201000I-51000J0D01*
G01*
X213950000Y-114201000D01*
G75*
G02*
X213899000Y-114150000I0J51000D01*
G01*
X213899000Y-113150000D01*
G75*
G02*
X213950000Y-113099000I51000J0D01*
G01*
X217100000Y-113099000D01*
G75*
G02*
X217151000Y-113150000I0J-51000D01*
G01*
G37*
G36*
G01*
X212101000Y-113150000D02*
X212101000Y-114150000D01*
G75*
G02*
X212050000Y-114201000I-51000J0D01*
G01*
X208900000Y-114201000D01*
G75*
G02*
X208849000Y-114150000I0J51000D01*
G01*
X208849000Y-113150000D01*
G75*
G02*
X208900000Y-113099000I51000J0D01*
G01*
X212050000Y-113099000D01*
G75*
G02*
X212101000Y-113150000I0J-51000D01*
G01*
G37*
G36*
G01*
X217151000Y-115690000D02*
X217151000Y-116690000D01*
G75*
G02*
X217100000Y-116741000I-51000J0D01*
G01*
X213950000Y-116741000D01*
G75*
G02*
X213899000Y-116690000I0J51000D01*
G01*
X213899000Y-115690000D01*
G75*
G02*
X213950000Y-115639000I51000J0D01*
G01*
X217100000Y-115639000D01*
G75*
G02*
X217151000Y-115690000I0J-51000D01*
G01*
G37*
G36*
G01*
X212101000Y-115690000D02*
X212101000Y-116690000D01*
G75*
G02*
X212050000Y-116741000I-51000J0D01*
G01*
X208900000Y-116741000D01*
G75*
G02*
X208849000Y-116690000I0J51000D01*
G01*
X208849000Y-115690000D01*
G75*
G02*
X208900000Y-115639000I51000J0D01*
G01*
X212050000Y-115639000D01*
G75*
G02*
X212101000Y-115690000I0J-51000D01*
G01*
G37*
G36*
G01*
X217151000Y-118230000D02*
X217151000Y-119230000D01*
G75*
G02*
X217100000Y-119281000I-51000J0D01*
G01*
X213950000Y-119281000D01*
G75*
G02*
X213899000Y-119230000I0J51000D01*
G01*
X213899000Y-118230000D01*
G75*
G02*
X213950000Y-118179000I51000J0D01*
G01*
X217100000Y-118179000D01*
G75*
G02*
X217151000Y-118230000I0J-51000D01*
G01*
G37*
G36*
G01*
X212101000Y-118230000D02*
X212101000Y-119230000D01*
G75*
G02*
X212050000Y-119281000I-51000J0D01*
G01*
X208900000Y-119281000D01*
G75*
G02*
X208849000Y-119230000I0J51000D01*
G01*
X208849000Y-118230000D01*
G75*
G02*
X208900000Y-118179000I51000J0D01*
G01*
X212050000Y-118179000D01*
G75*
G02*
X212101000Y-118230000I0J-51000D01*
G01*
G37*
G36*
G01*
X217151000Y-120770000D02*
X217151000Y-121770000D01*
G75*
G02*
X217100000Y-121821000I-51000J0D01*
G01*
X213950000Y-121821000D01*
G75*
G02*
X213899000Y-121770000I0J51000D01*
G01*
X213899000Y-120770000D01*
G75*
G02*
X213950000Y-120719000I51000J0D01*
G01*
X217100000Y-120719000D01*
G75*
G02*
X217151000Y-120770000I0J-51000D01*
G01*
G37*
G36*
G01*
X212101000Y-120770000D02*
X212101000Y-121770000D01*
G75*
G02*
X212050000Y-121821000I-51000J0D01*
G01*
X208900000Y-121821000D01*
G75*
G02*
X208849000Y-121770000I0J51000D01*
G01*
X208849000Y-120770000D01*
G75*
G02*
X208900000Y-120719000I51000J0D01*
G01*
X212050000Y-120719000D01*
G75*
G02*
X212101000Y-120770000I0J-51000D01*
G01*
G37*
G36*
G01*
X217151000Y-123310000D02*
X217151000Y-124310000D01*
G75*
G02*
X217100000Y-124361000I-51000J0D01*
G01*
X213950000Y-124361000D01*
G75*
G02*
X213899000Y-124310000I0J51000D01*
G01*
X213899000Y-123310000D01*
G75*
G02*
X213950000Y-123259000I51000J0D01*
G01*
X217100000Y-123259000D01*
G75*
G02*
X217151000Y-123310000I0J-51000D01*
G01*
G37*
G36*
G01*
X212101000Y-123310000D02*
X212101000Y-124310000D01*
G75*
G02*
X212050000Y-124361000I-51000J0D01*
G01*
X208900000Y-124361000D01*
G75*
G02*
X208849000Y-124310000I0J51000D01*
G01*
X208849000Y-123310000D01*
G75*
G02*
X208900000Y-123259000I51000J0D01*
G01*
X212050000Y-123259000D01*
G75*
G02*
X212101000Y-123310000I0J-51000D01*
G01*
G37*
G36*
G01*
X217151000Y-125850000D02*
X217151000Y-126850000D01*
G75*
G02*
X217100000Y-126901000I-51000J0D01*
G01*
X213950000Y-126901000D01*
G75*
G02*
X213899000Y-126850000I0J51000D01*
G01*
X213899000Y-125850000D01*
G75*
G02*
X213950000Y-125799000I51000J0D01*
G01*
X217100000Y-125799000D01*
G75*
G02*
X217151000Y-125850000I0J-51000D01*
G01*
G37*
G36*
G01*
X212101000Y-125850000D02*
X212101000Y-126850000D01*
G75*
G02*
X212050000Y-126901000I-51000J0D01*
G01*
X208900000Y-126901000D01*
G75*
G02*
X208849000Y-126850000I0J51000D01*
G01*
X208849000Y-125850000D01*
G75*
G02*
X208900000Y-125799000I51000J0D01*
G01*
X212050000Y-125799000D01*
G75*
G02*
X212101000Y-125850000I0J-51000D01*
G01*
G37*
G36*
G01*
X217151000Y-128390000D02*
X217151000Y-129390000D01*
G75*
G02*
X217100000Y-129441000I-51000J0D01*
G01*
X213950000Y-129441000D01*
G75*
G02*
X213899000Y-129390000I0J51000D01*
G01*
X213899000Y-128390000D01*
G75*
G02*
X213950000Y-128339000I51000J0D01*
G01*
X217100000Y-128339000D01*
G75*
G02*
X217151000Y-128390000I0J-51000D01*
G01*
G37*
G36*
G01*
X212101000Y-128390000D02*
X212101000Y-129390000D01*
G75*
G02*
X212050000Y-129441000I-51000J0D01*
G01*
X208900000Y-129441000D01*
G75*
G02*
X208849000Y-129390000I0J51000D01*
G01*
X208849000Y-128390000D01*
G75*
G02*
X208900000Y-128339000I51000J0D01*
G01*
X212050000Y-128339000D01*
G75*
G02*
X212101000Y-128390000I0J-51000D01*
G01*
G37*
D12*
X201500000Y-78000000D03*
X201500000Y-54000000D03*
X224500000Y-78000000D03*
X224500000Y-54000000D03*
M02*
